<svg width="80" height="81" viewBox="0 0 80 81" fill="none" xmlns="http://www.w3.org/2000/svg">
<rect x="56" y="24.7441" width="8" height="8" fill="#FFA600"/>
<rect x="24.3984" y="0.744141" width="32" height="8" fill="#C4AC0E"/>
<rect x="24.3984" y="8.74463" width="32" height="8" fill="#FFD900"/>
<rect x="24" y="16.7441" width="32" height="8" fill="#FFA600"/>
<rect x="16" y="16.7441" width="8" height="8" fill="#FFD900"/>
<rect x="56" y="16.7441" width="8" height="8" fill="#FFD900"/>
<rect x="64" y="24.7441" width="8" height="8" fill="#FFD900"/>
<rect x="8" y="24.7441" width="48" height="8" fill="#FFD900"/>
<rect x="8" y="40.7441" width="64" height="8" fill="#FFD900"/>
<rect x="8" y="32.7437" width="64" height="8" fill="#FFD900"/>
<rect x="8" y="48.7446" width="64" height="8" fill="#FFD900"/>
<rect x="16" y="56.7441" width="48" height="8" fill="#FFD900"/>
<rect x="24" y="64.7441" width="32" height="8" fill="#FFD900"/>
<rect x="8" y="56.7441" width="8" height="8" fill="#C4AC0E"/>
<rect x="64" y="56.7441" width="8" height="8" fill="#C4AC0E"/>
<rect x="7.59766" y="16.7441" width="8.4" height="8" fill="#C4AC0E"/>
<rect x="64" y="16.7441" width="8" height="8" fill="#C4AC0E"/>
<rect y="24.7441" width="8" height="8" fill="#C4AC0E"/>
<rect x="72" y="24.7441" width="8" height="8" fill="#C4AC0E"/>
<rect y="40.7441" width="8" height="8" fill="#C4AC0E"/>
<rect x="72" y="40.7441" width="8" height="8" fill="#C4AC0E"/>
<rect y="32.7437" width="8" height="8" fill="#C4AC0E"/>
<rect x="56" y="32.7437" width="8" height="24" fill="white"/>
<rect x="16" y="24.7441" width="8" height="32" fill="#FFA600"/>
<rect x="24" y="56.7441" width="32" height="8" fill="#FFA600"/>
<rect x="72" y="32.7437" width="8" height="8" fill="#C4AC0E"/>
<rect y="48.7446" width="8" height="8" fill="#C4AC0E"/>
<rect x="72" y="48.7446" width="8" height="8" fill="#C4AC0E"/>
<rect x="56" y="24.7441" width="8" height="8" fill="#FFA600"/>
<rect x="24" y="48.7446" width="8" height="8" fill="#FFA600"/>
<rect x="24" y="24.7441" width="8" height="8" fill="#FFA600"/>
<rect x="48" y="48.7446" width="8" height="8" fill="white"/>
<rect x="16" y="64.7441" width="8" height="8" fill="#C4AC0E"/>
<rect x="56" y="64.7441" width="8" height="8" fill="#C4AC0E"/>
<rect x="16" y="8.74463" width="8.4" height="8" fill="#C4AC0E"/>
<rect x="56" y="8.74463" width="8" height="8" fill="#C4AC0E"/>
<rect x="24" y="72.7437" width="32" height="8" fill="#C4AC0E"/>
</svg>
