<svg width="408" height="227" viewBox="0 0 408 227" fill="none" xmlns="http://www.w3.org/2000/svg">
<path d="M398 203.105H388V215.053H378V227H30V215.053H20V203.105H10V191.158H398V203.105ZM408 191.157H0V59.7373H408V191.157ZM378 11.9473H388V23.8945H398V35.8418H408V59.7363H0V35.8418H10V23.8945H20V11.9473H30V0H378V11.9473Z" fill="#D0376D"/>
<rect x="66.8438" y="67.4443" width="7.21053" height="6.88889" fill="#F99ECF"/>
<rect x="74.0508" y="67.4443" width="7.21053" height="6.88889" fill="#F99ECF"/>
<rect x="81.2617" y="67.4443" width="7.21053" height="6.88889" fill="#F99ECF"/>
<rect x="81.2617" y="60.5557" width="7.21053" height="6.88889" fill="#F99ECF"/>
<rect x="81.2617" y="53.6665" width="7.21053" height="6.88889" fill="#F99ECF"/>
<rect x="74.0508" y="40.3481" width="7.21053" height="6.88889" fill="#FDE1D3"/>
<rect x="66.8438" y="33.4595" width="7.21053" height="6.88889" fill="#FDE1D3"/>
<rect x="59.6328" y="33.4595" width="7.21053" height="6.88889" fill="#FDE1D3"/>
<rect x="52.4219" y="39.8887" width="7.21053" height="6.88889" fill="#FDE1D3"/>
<rect x="45.2109" y="47.2368" width="7.21053" height="6.88889" fill="#FDE1D3"/>
<rect x="45.2109" y="53.6665" width="7.21053" height="6.88889" fill="#FDE1D3"/>
<rect x="52.4219" y="60.5557" width="7.21053" height="6.88889" fill="#FDE1D3"/>
<rect x="59.6328" y="67.4443" width="7.21053" height="6.88889" fill="#FDE1D3"/>
<rect x="66.8438" y="74.3335" width="7.21053" height="6.88889" fill="#FDE1D3"/>
<rect x="74.0508" y="81.2222" width="7.21053" height="6.88889" fill="#FDE1D3"/>
<rect x="81.2617" y="88.1113" width="7.21053" height="6.88889" fill="#FDE1D3"/>
<rect x="88.4727" y="81.2222" width="7.21053" height="6.88889" fill="#FDE1D3"/>
<rect x="95.6836" y="74.3335" width="7.21053" height="6.88889" fill="#FDE1D3"/>
<rect x="102.895" y="67.4443" width="7.21053" height="6.88889" fill="#FDE1D3"/>
<rect x="110.105" y="60.5557" width="7.21053" height="6.88889" fill="#FDE1D3"/>
<rect x="117.316" y="53.6665" width="7.21053" height="6.88889" fill="#FDE1D3"/>
<rect x="117.316" y="47.2368" width="7.21053" height="6.88889" fill="#FDE1D3"/>
<rect x="110.105" y="39.8887" width="7.21053" height="6.88889" fill="#FDE1D3"/>
<rect x="102.895" y="33" width="7.21053" height="6.88889" fill="#FDE1D3"/>
<rect x="95.6836" y="33" width="7.21053" height="6.88889" fill="#FDE1D3"/>
<rect x="88.4727" y="39.8887" width="7.21053" height="6.88889" fill="#FDE1D3"/>
<rect x="81.2617" y="47.2368" width="7.21053" height="6.88889" fill="#FDE1D3"/>
<rect x="66.8438" y="40.3481" width="7.21053" height="6.88889" fill="#F99ECF"/>
<rect x="59.6328" y="40.3481" width="7.21053" height="6.88889" fill="#F99ECF"/>
<rect x="52.4219" y="46.7778" width="7.21053" height="6.88889" fill="#F99ECF"/>
<rect x="66.8438" y="46.7778" width="7.21053" height="6.88889" fill="#FFDBF7"/>
<rect x="59.6328" y="53.6665" width="7.21053" height="6.88889" fill="#FFDBF7"/>
<rect x="59.6328" y="46.7778" width="7.21053" height="6.88889" fill="#F99ECF"/>
<rect x="74.0508" y="47.2368" width="7.21053" height="6.88889" fill="#F99ECF"/>
<rect x="74.0508" y="53.6665" width="7.21053" height="6.88889" fill="#F99ECF"/>
<rect x="74.0508" y="60.5557" width="7.21053" height="6.88889" fill="#F99ECF"/>
<rect x="66.8438" y="60.5557" width="7.21053" height="6.88889" fill="#F99ECF"/>
<rect x="66.8438" y="53.6665" width="7.21053" height="6.88889" fill="#F99ECF"/>
<rect x="59.6328" y="60.5557" width="7.21053" height="6.88889" fill="#F99ECF"/>
<rect x="52.4219" y="53.6665" width="7.21053" height="6.88889" fill="#F99ECF"/>
<rect x="81.2617" y="81.2222" width="7.21053" height="6.88889" fill="#F99ECF"/>
<rect x="81.2617" y="74.3335" width="7.21053" height="6.88889" fill="#F99ECF"/>
<rect x="74.0508" y="74.3335" width="7.21053" height="6.88889" fill="#F99ECF"/>
<rect x="74.0508" y="88.1113" width="7.21053" height="6.88889" fill="white"/>
<rect x="66.8438" y="81.2222" width="7.21053" height="6.88889" fill="white"/>
<rect x="81.2617" y="40.3481" width="7.21053" height="6.88889" fill="white"/>
<rect x="59.6328" y="74.3335" width="7.21053" height="6.88889" fill="white"/>
<rect x="52.4219" y="67.4443" width="7.21053" height="6.88889" fill="white"/>
<rect x="45.2109" y="60.5557" width="7.21053" height="6.88889" fill="white"/>
<rect x="38" y="53.6665" width="7.21053" height="6.88889" fill="white"/>
<rect x="38" y="47.2368" width="7.21053" height="6.88889" fill="white"/>
<rect x="45.2109" y="40.3481" width="7.21053" height="6.88889" fill="white"/>
<rect x="52.4219" y="33.4595" width="7.21053" height="6.88889" fill="white"/>
<rect x="88.4727" y="33" width="7.21053" height="6.88889" fill="white"/>
<path d="M158.647 49.28C158.759 49.728 158.815 50.288 158.815 50.96C158.815 51.604 158.759 52.164 158.647 52.64H156.967C157.079 53.088 157.135 53.648 157.135 54.32C157.135 54.964 157.079 55.524 156.967 56H148.567C148.455 55.524 148.399 54.964 148.399 54.32C148.399 53.648 148.455 53.088 148.567 52.64H146.887C146.775 52.164 146.719 51.604 146.719 50.96C146.719 50.288 146.775 49.728 146.887 49.28H145.207C145.095 48.804 145.039 48.244 145.039 47.6C145.039 46.928 145.095 46.368 145.207 45.92C145.095 45.444 145.039 44.884 145.039 44.24C145.039 43.568 145.095 43.008 145.207 42.56C145.095 42.084 145.039 41.524 145.039 40.88C145.039 40.208 145.095 39.648 145.207 39.2H146.887C146.775 38.724 146.719 38.164 146.719 37.52C146.719 36.848 146.775 36.288 146.887 35.84H148.567C148.455 35.364 148.399 34.804 148.399 34.16C148.399 33.488 148.455 32.928 148.567 32.48H156.967C157.079 32.928 157.135 33.488 157.135 34.16C157.135 34.804 157.079 35.364 156.967 35.84H158.647C158.759 36.288 158.815 36.848 158.815 37.52C158.815 38.164 158.759 38.724 158.647 39.2H155.287C155.175 38.724 155.119 38.164 155.119 37.52C155.119 36.848 155.175 36.288 155.287 35.84H150.247C150.359 36.288 150.415 36.848 150.415 37.52C150.415 38.164 150.359 38.724 150.247 39.2H148.567C148.679 39.648 148.735 40.208 148.735 40.88C148.735 41.524 148.679 42.084 148.567 42.56C148.679 43.008 148.735 43.568 148.735 44.24C148.735 44.884 148.679 45.444 148.567 45.92C148.679 46.368 148.735 46.928 148.735 47.6C148.735 48.244 148.679 48.804 148.567 49.28H150.247C150.359 49.728 150.415 50.288 150.415 50.96C150.415 51.604 150.359 52.164 150.247 52.64H155.287C155.175 52.164 155.119 51.604 155.119 50.96C155.119 50.288 155.175 49.728 155.287 49.28H158.647ZM175.632 47.6C175.632 48.244 175.576 48.804 175.464 49.28H174.204C174.316 49.728 174.372 50.288 174.372 50.96C174.372 51.604 174.316 52.164 174.204 52.64H172.104C172.216 53.088 172.272 53.648 172.272 54.32C172.272 54.964 172.216 55.524 172.104 56H165.384C165.272 55.524 165.216 54.964 165.216 54.32C165.216 53.648 165.272 53.088 165.384 52.64H163.284C163.172 52.164 163.116 51.604 163.116 50.96C163.116 50.288 163.172 49.728 163.284 49.28H162.024C161.912 48.804 161.856 48.244 161.856 47.6C161.856 46.928 161.912 46.368 162.024 45.92H163.284C163.172 45.444 163.116 44.884 163.116 44.24C163.116 43.568 163.172 43.008 163.284 42.56H165.384C165.272 42.084 165.216 41.524 165.216 40.88C165.216 40.208 165.272 39.648 165.384 39.2H172.104C172.216 39.648 172.272 40.208 172.272 40.88C172.272 41.524 172.216 42.084 172.104 42.56H174.204C174.316 43.008 174.372 43.568 174.372 44.24C174.372 44.884 174.316 45.444 174.204 45.92H175.464C175.576 46.368 175.632 46.928 175.632 47.6ZM172.104 49.28C171.992 48.804 171.936 48.244 171.936 47.6C171.936 46.928 171.992 46.368 172.104 45.92H170.844C170.732 45.444 170.676 44.884 170.676 44.24C170.676 43.568 170.732 43.008 170.844 42.56H166.644C166.756 43.008 166.812 43.568 166.812 44.24C166.812 44.884 166.756 45.444 166.644 45.92H165.384C165.496 46.368 165.552 46.928 165.552 47.6C165.552 48.244 165.496 48.804 165.384 49.28H166.644C166.756 49.728 166.812 50.288 166.812 50.96C166.812 51.604 166.756 52.164 166.644 52.64H170.844C170.732 52.164 170.676 51.604 170.676 50.96C170.676 50.288 170.732 49.728 170.844 49.28H172.104ZM181.108 40.88C181.108 41.524 181.052 42.084 180.94 42.56H182.2C182.312 43.008 182.368 43.568 182.368 44.24C182.368 44.884 182.312 45.444 182.2 45.92C182.312 46.368 182.368 46.928 182.368 47.6C182.368 48.244 182.312 48.804 182.2 49.28C182.312 49.728 182.368 50.288 182.368 50.96C182.368 51.604 182.312 52.164 182.2 52.64C182.312 53.088 182.368 53.648 182.368 54.32C182.368 54.964 182.312 55.524 182.2 56H178.84C178.728 55.524 178.672 54.964 178.672 54.32C178.672 53.648 178.728 53.088 178.84 52.64C178.728 52.164 178.672 51.604 178.672 50.96C178.672 50.288 178.728 49.728 178.84 49.28C178.728 48.804 178.672 48.244 178.672 47.6C178.672 46.928 178.728 46.368 178.84 45.92C178.728 45.444 178.672 44.884 178.672 44.24C178.672 43.568 178.728 43.008 178.84 42.56C178.728 42.084 178.672 41.524 178.672 40.88C178.672 40.208 178.728 39.648 178.84 39.2H180.94C181.052 39.648 181.108 40.208 181.108 40.88ZM185.728 40.88C185.728 41.524 185.672 42.084 185.56 42.56H186.82C186.932 43.008 186.988 43.568 186.988 44.24C186.988 44.884 186.932 45.444 186.82 45.92C186.932 46.368 186.988 46.928 186.988 47.6C186.988 48.244 186.932 48.804 186.82 49.28C186.932 49.728 186.988 50.288 186.988 50.96C186.988 51.604 186.932 52.164 186.82 52.64C186.932 53.088 186.988 53.648 186.988 54.32C186.988 54.964 186.932 55.524 186.82 56H184.3C184.188 55.524 184.132 54.964 184.132 54.32C184.132 53.648 184.188 53.088 184.3 52.64C184.188 52.164 184.132 51.604 184.132 50.96C184.132 50.288 184.188 49.728 184.3 49.28C184.188 48.804 184.132 48.244 184.132 47.6C184.132 46.928 184.188 46.368 184.3 45.92C184.188 45.444 184.132 44.884 184.132 44.24C184.132 43.568 184.188 43.008 184.3 42.56H182.2C182.088 42.084 182.032 41.524 182.032 40.88C182.032 40.208 182.088 39.648 182.2 39.2H185.56C185.672 39.648 185.728 40.208 185.728 40.88ZM192.28 45.92C192.392 46.368 192.448 46.928 192.448 47.6C192.448 48.244 192.392 48.804 192.28 49.28C192.392 49.728 192.448 50.288 192.448 50.96C192.448 51.604 192.392 52.164 192.28 52.64C192.392 53.088 192.448 53.648 192.448 54.32C192.448 54.964 192.392 55.524 192.28 56H188.92C188.808 55.524 188.752 54.964 188.752 54.32C188.752 53.648 188.808 53.088 188.92 52.64C188.808 52.164 188.752 51.604 188.752 50.96C188.752 50.288 188.808 49.728 188.92 49.28C188.808 48.804 188.752 48.244 188.752 47.6C188.752 46.928 188.808 46.368 188.92 45.92C188.808 45.444 188.752 44.884 188.752 44.24C188.752 43.568 188.808 43.008 188.92 42.56H186.82C186.708 42.084 186.652 41.524 186.652 40.88C186.652 40.208 186.708 39.648 186.82 39.2H190.6C190.712 39.648 190.768 40.208 190.768 40.88C190.768 41.524 190.712 42.084 190.6 42.56H192.28C192.392 43.008 192.448 43.568 192.448 44.24C192.448 44.884 192.392 45.444 192.28 45.92ZM209.265 47.6C209.265 48.244 209.209 48.804 209.097 49.28H207.417C207.529 49.728 207.585 50.288 207.585 50.96C207.585 51.604 207.529 52.164 207.417 52.64H205.737C205.849 53.088 205.905 53.648 205.905 54.32C205.905 54.964 205.849 55.524 205.737 56H199.017C199.129 56.448 199.185 57.008 199.185 57.68C199.185 58.324 199.129 58.884 199.017 59.36C199.129 59.808 199.185 60.368 199.185 61.04C199.185 61.684 199.129 62.244 199.017 62.72H195.657C195.545 62.244 195.489 61.684 195.489 61.04C195.489 60.368 195.545 59.808 195.657 59.36C195.545 58.884 195.489 58.324 195.489 57.68C195.489 57.008 195.545 56.448 195.657 56C195.545 55.524 195.489 54.964 195.489 54.32C195.489 53.648 195.545 53.088 195.657 52.64C195.545 52.164 195.489 51.604 195.489 50.96C195.489 50.288 195.545 49.728 195.657 49.28C195.545 48.804 195.489 48.244 195.489 47.6C195.489 46.928 195.545 46.368 195.657 45.92C195.545 45.444 195.489 44.884 195.489 44.24C195.489 43.568 195.545 43.008 195.657 42.56C195.545 42.084 195.489 41.524 195.489 40.88C195.489 40.208 195.545 39.648 195.657 39.2H199.017C199.129 39.648 199.185 40.208 199.185 40.88C199.185 41.524 199.129 42.084 199.017 42.56H200.697C200.809 43.008 200.865 43.568 200.865 44.24C200.865 44.884 200.809 45.444 200.697 45.92H199.017C199.129 46.368 199.185 46.928 199.185 47.6C199.185 48.244 199.129 48.804 199.017 49.28C199.129 49.728 199.185 50.288 199.185 50.96C199.185 51.604 199.129 52.164 199.017 52.64H204.057C203.945 52.164 203.889 51.604 203.889 50.96C203.889 50.288 203.945 49.728 204.057 49.28H205.737C205.625 48.804 205.569 48.244 205.569 47.6C205.569 46.928 205.625 46.368 205.737 45.92H204.057C203.945 45.444 203.889 44.884 203.889 44.24C203.889 43.568 203.945 43.008 204.057 42.56H200.697C200.585 42.084 200.529 41.524 200.529 40.88C200.529 40.208 200.585 39.648 200.697 39.2H205.737C205.849 39.648 205.905 40.208 205.905 40.88C205.905 41.524 205.849 42.084 205.737 42.56H207.417C207.529 43.008 207.585 43.568 207.585 44.24C207.585 44.884 207.529 45.444 207.417 45.92H209.097C209.209 46.368 209.265 46.928 209.265 47.6ZM224.233 52.64C224.345 53.088 224.401 53.648 224.401 54.32C224.401 54.964 224.345 55.524 224.233 56H214.153C214.041 55.524 213.985 54.964 213.985 54.32C213.985 53.648 214.041 53.088 214.153 52.64H217.513C217.401 52.164 217.345 51.604 217.345 50.96C217.345 50.288 217.401 49.728 217.513 49.28C217.401 48.804 217.345 48.244 217.345 47.6C217.345 46.928 217.401 46.368 217.513 45.92C217.401 45.444 217.345 44.884 217.345 44.24C217.345 43.568 217.401 43.008 217.513 42.56C217.401 42.084 217.345 41.524 217.345 40.88C217.345 40.208 217.401 39.648 217.513 39.2C217.401 38.724 217.345 38.164 217.345 37.52C217.345 36.848 217.401 36.288 217.513 35.84H214.993C214.881 35.364 214.825 34.804 214.825 34.16C214.825 33.488 214.881 32.928 214.993 32.48H220.873C220.985 32.928 221.041 33.488 221.041 34.16C221.041 34.804 220.985 35.364 220.873 35.84C220.985 36.288 221.041 36.848 221.041 37.52C221.041 38.164 220.985 38.724 220.873 39.2C220.985 39.648 221.041 40.208 221.041 40.88C221.041 41.524 220.985 42.084 220.873 42.56C220.985 43.008 221.041 43.568 221.041 44.24C221.041 44.884 220.985 45.444 220.873 45.92C220.985 46.368 221.041 46.928 221.041 47.6C221.041 48.244 220.985 48.804 220.873 49.28C220.985 49.728 221.041 50.288 221.041 50.96C221.041 51.604 220.985 52.164 220.873 52.64H224.233ZM242.897 44.24C242.897 44.884 242.841 45.444 242.729 45.92C242.841 46.368 242.897 46.928 242.897 47.6C242.897 48.244 242.841 48.804 242.729 49.28H233.909C234.021 49.728 234.077 50.288 234.077 50.96C234.077 51.604 234.021 52.164 233.909 52.64H241.049C241.161 53.088 241.217 53.648 241.217 54.32C241.217 54.964 241.161 55.524 241.049 56H232.649C232.537 55.524 232.481 54.964 232.481 54.32C232.481 53.648 232.537 53.088 232.649 52.64H230.549C230.437 52.164 230.381 51.604 230.381 50.96C230.381 50.288 230.437 49.728 230.549 49.28H229.289C229.177 48.804 229.121 48.244 229.121 47.6C229.121 46.928 229.177 46.368 229.289 45.92H230.549C230.437 45.444 230.381 44.884 230.381 44.24C230.381 43.568 230.437 43.008 230.549 42.56H232.649C232.537 42.084 232.481 41.524 232.481 40.88C232.481 40.208 232.537 39.648 232.649 39.2H241.049C241.161 39.648 241.217 40.208 241.217 40.88C241.217 41.524 241.161 42.084 241.049 42.56H242.729C242.841 43.008 242.897 43.568 242.897 44.24ZM239.369 45.92C239.257 45.444 239.201 44.884 239.201 44.24C239.201 43.568 239.257 43.008 239.369 42.56H233.909C234.021 43.008 234.077 43.568 234.077 44.24C234.077 44.884 234.021 45.444 233.909 45.92H239.369ZM257.866 52.64C257.978 53.088 258.034 53.648 258.034 54.32C258.034 54.964 257.978 55.524 257.866 56H251.146C251.034 55.524 250.978 54.964 250.978 54.32C250.978 53.648 251.034 53.088 251.146 52.64H249.466C249.354 52.164 249.298 51.604 249.298 50.96C249.298 50.288 249.354 49.728 249.466 49.28C249.354 48.804 249.298 48.244 249.298 47.6C249.298 46.928 249.354 46.368 249.466 45.92C249.354 45.444 249.298 44.884 249.298 44.24C249.298 43.568 249.354 43.008 249.466 42.56H246.106C245.994 42.084 245.938 41.524 245.938 40.88C245.938 40.208 245.994 39.648 246.106 39.2H249.466C249.354 38.724 249.298 38.164 249.298 37.52C249.298 36.848 249.354 36.288 249.466 35.84C249.354 35.364 249.298 34.804 249.298 34.16C249.298 33.488 249.354 32.928 249.466 32.48H252.826C252.938 32.928 252.994 33.488 252.994 34.16C252.994 34.804 252.938 35.364 252.826 35.84C252.938 36.288 252.994 36.848 252.994 37.52C252.994 38.164 252.938 38.724 252.826 39.2H257.866C257.978 39.648 258.034 40.208 258.034 40.88C258.034 41.524 257.978 42.084 257.866 42.56H252.826C252.938 43.008 252.994 43.568 252.994 44.24C252.994 44.884 252.938 45.444 252.826 45.92C252.938 46.368 252.994 46.928 252.994 47.6C252.994 48.244 252.938 48.804 252.826 49.28C252.938 49.728 252.994 50.288 252.994 50.96C252.994 51.604 252.938 52.164 252.826 52.64H257.866ZM276.53 44.24C276.53 44.884 276.474 45.444 276.362 45.92C276.474 46.368 276.53 46.928 276.53 47.6C276.53 48.244 276.474 48.804 276.362 49.28H267.542C267.654 49.728 267.71 50.288 267.71 50.96C267.71 51.604 267.654 52.164 267.542 52.64H274.682C274.794 53.088 274.85 53.648 274.85 54.32C274.85 54.964 274.794 55.524 274.682 56H266.282C266.17 55.524 266.114 54.964 266.114 54.32C266.114 53.648 266.17 53.088 266.282 52.64H264.182C264.07 52.164 264.014 51.604 264.014 50.96C264.014 50.288 264.07 49.728 264.182 49.28H262.922C262.81 48.804 262.754 48.244 262.754 47.6C262.754 46.928 262.81 46.368 262.922 45.92H264.182C264.07 45.444 264.014 44.884 264.014 44.24C264.014 43.568 264.07 43.008 264.182 42.56H266.282C266.17 42.084 266.114 41.524 266.114 40.88C266.114 40.208 266.17 39.648 266.282 39.2H274.682C274.794 39.648 274.85 40.208 274.85 40.88C274.85 41.524 274.794 42.084 274.682 42.56H276.362C276.474 43.008 276.53 43.568 276.53 44.24ZM273.002 45.92C272.89 45.444 272.834 44.884 272.834 44.24C272.834 43.568 272.89 43.008 273.002 42.56H267.542C267.654 43.008 267.71 43.568 267.71 44.24C267.71 44.884 267.654 45.444 267.542 45.92H273.002ZM158.647 77.84C158.759 78.288 158.815 78.848 158.815 79.52C158.815 80.164 158.759 80.724 158.647 81.2C158.759 81.648 158.815 82.208 158.815 82.88C158.815 83.524 158.759 84.084 158.647 84.56C158.759 85.008 158.815 85.568 158.815 86.24C158.815 86.884 158.759 87.444 158.647 87.92C158.759 88.368 158.815 88.928 158.815 89.6C158.815 90.244 158.759 90.804 158.647 91.28C158.759 91.728 158.815 92.288 158.815 92.96C158.815 93.604 158.759 94.164 158.647 94.64C158.759 95.088 158.815 95.648 158.815 96.32C158.815 96.964 158.759 97.524 158.647 98H155.287C155.175 97.524 155.119 96.964 155.119 96.32C155.119 95.648 155.175 95.088 155.287 94.64C155.175 94.164 155.119 93.604 155.119 92.96C155.119 92.288 155.175 91.728 155.287 91.28C155.175 90.804 155.119 90.244 155.119 89.6C155.119 88.928 155.175 88.368 155.287 87.92C155.175 87.444 155.119 86.884 155.119 86.24C155.119 85.568 155.175 85.008 155.287 84.56C155.175 84.084 155.119 83.524 155.119 82.88C155.119 82.208 155.175 81.648 155.287 81.2H154.027C154.139 81.648 154.195 82.208 154.195 82.88C154.195 83.524 154.139 84.084 154.027 84.56C154.139 85.008 154.195 85.568 154.195 86.24C154.195 86.884 154.139 87.444 154.027 87.92H153.187C153.299 88.368 153.355 88.928 153.355 89.6C153.355 90.244 153.299 90.804 153.187 91.28C153.299 91.728 153.355 92.288 153.355 92.96C153.355 93.604 153.299 94.164 153.187 94.64H150.667C150.555 94.164 150.499 93.604 150.499 92.96C150.499 92.288 150.555 91.728 150.667 91.28C150.555 90.804 150.499 90.244 150.499 89.6C150.499 88.928 150.555 88.368 150.667 87.92H149.827C149.715 87.444 149.659 86.884 149.659 86.24C149.659 85.568 149.715 85.008 149.827 84.56C149.715 84.084 149.659 83.524 149.659 82.88C149.659 82.208 149.715 81.648 149.827 81.2H148.567C148.679 81.648 148.735 82.208 148.735 82.88C148.735 83.524 148.679 84.084 148.567 84.56C148.679 85.008 148.735 85.568 148.735 86.24C148.735 86.884 148.679 87.444 148.567 87.92C148.679 88.368 148.735 88.928 148.735 89.6C148.735 90.244 148.679 90.804 148.567 91.28C148.679 91.728 148.735 92.288 148.735 92.96C148.735 93.604 148.679 94.164 148.567 94.64C148.679 95.088 148.735 95.648 148.735 96.32C148.735 96.964 148.679 97.524 148.567 98H145.207C145.095 97.524 145.039 96.964 145.039 96.32C145.039 95.648 145.095 95.088 145.207 94.64C145.095 94.164 145.039 93.604 145.039 92.96C145.039 92.288 145.095 91.728 145.207 91.28C145.095 90.804 145.039 90.244 145.039 89.6C145.039 88.928 145.095 88.368 145.207 87.92C145.095 87.444 145.039 86.884 145.039 86.24C145.039 85.568 145.095 85.008 145.207 84.56C145.095 84.084 145.039 83.524 145.039 82.88C145.039 82.208 145.095 81.648 145.207 81.2C145.095 80.724 145.039 80.164 145.039 79.52C145.039 78.848 145.095 78.288 145.207 77.84C145.095 77.364 145.039 76.804 145.039 76.16C145.039 75.488 145.095 74.928 145.207 74.48H149.407C149.519 74.928 149.575 75.488 149.575 76.16C149.575 76.804 149.519 77.364 149.407 77.84H150.667C150.779 78.288 150.835 78.848 150.835 79.52C150.835 80.164 150.779 80.724 150.667 81.2H151.297C151.409 81.648 151.465 82.208 151.465 82.88C151.465 83.524 151.409 84.084 151.297 84.56H152.557C152.445 84.084 152.389 83.524 152.389 82.88C152.389 82.208 152.445 81.648 152.557 81.2H153.187C153.075 80.724 153.019 80.164 153.019 79.52C153.019 78.848 153.075 78.288 153.187 77.84H154.447C154.335 77.364 154.279 76.804 154.279 76.16C154.279 75.488 154.335 74.928 154.447 74.48H158.647C158.759 74.928 158.815 75.488 158.815 76.16C158.815 76.804 158.759 77.364 158.647 77.84ZM167.064 77.84C166.952 77.364 166.896 76.804 166.896 76.16C166.896 75.488 166.952 74.928 167.064 74.48H170.424C170.536 74.928 170.592 75.488 170.592 76.16C170.592 76.804 170.536 77.364 170.424 77.84H167.064ZM173.784 94.64C173.896 95.088 173.952 95.648 173.952 96.32C173.952 96.964 173.896 97.524 173.784 98H163.704C163.592 97.524 163.536 96.964 163.536 96.32C163.536 95.648 163.592 95.088 163.704 94.64H167.064C166.952 94.164 166.896 93.604 166.896 92.96C166.896 92.288 166.952 91.728 167.064 91.28C166.952 90.804 166.896 90.244 166.896 89.6C166.896 88.928 166.952 88.368 167.064 87.92C166.952 87.444 166.896 86.884 166.896 86.24C166.896 85.568 166.952 85.008 167.064 84.56H164.544C164.432 84.084 164.376 83.524 164.376 82.88C164.376 82.208 164.432 81.648 164.544 81.2H170.424C170.536 81.648 170.592 82.208 170.592 82.88C170.592 83.524 170.536 84.084 170.424 84.56C170.536 85.008 170.592 85.568 170.592 86.24C170.592 86.884 170.536 87.444 170.424 87.92C170.536 88.368 170.592 88.928 170.592 89.6C170.592 90.244 170.536 90.804 170.424 91.28C170.536 91.728 170.592 92.288 170.592 92.96C170.592 93.604 170.536 94.164 170.424 94.64H173.784ZM191.608 92.96C191.608 93.604 191.552 94.164 191.44 94.64H189.76C189.872 95.088 189.928 95.648 189.928 96.32C189.928 96.964 189.872 97.524 189.76 98H180.52C180.408 97.524 180.352 96.964 180.352 96.32C180.352 95.648 180.408 95.088 180.52 94.64H188.08C187.968 94.164 187.912 93.604 187.912 92.96C187.912 92.288 187.968 91.728 188.08 91.28H181.36C181.248 90.804 181.192 90.244 181.192 89.6C181.192 88.928 181.248 88.368 181.36 87.92H179.68C179.568 87.444 179.512 86.884 179.512 86.24C179.512 85.568 179.568 85.008 179.68 84.56H181.36C181.248 84.084 181.192 83.524 181.192 82.88C181.192 82.208 181.248 81.648 181.36 81.2H190.6C190.712 81.648 190.768 82.208 190.768 82.88C190.768 83.524 190.712 84.084 190.6 84.56H183.04C183.152 85.008 183.208 85.568 183.208 86.24C183.208 86.884 183.152 87.444 183.04 87.92H189.76C189.872 88.368 189.928 88.928 189.928 89.6C189.928 90.244 189.872 90.804 189.76 91.28H191.44C191.552 91.728 191.608 92.288 191.608 92.96ZM208.425 92.96C208.425 93.604 208.369 94.164 208.257 94.64H206.577C206.689 95.088 206.745 95.648 206.745 96.32C206.745 96.964 206.689 97.524 206.577 98H197.337C197.225 97.524 197.169 96.964 197.169 96.32C197.169 95.648 197.225 95.088 197.337 94.64H204.897C204.785 94.164 204.729 93.604 204.729 92.96C204.729 92.288 204.785 91.728 204.897 91.28H198.177C198.065 90.804 198.009 90.244 198.009 89.6C198.009 88.928 198.065 88.368 198.177 87.92H196.497C196.385 87.444 196.329 86.884 196.329 86.24C196.329 85.568 196.385 85.008 196.497 84.56H198.177C198.065 84.084 198.009 83.524 198.009 82.88C198.009 82.208 198.065 81.648 198.177 81.2H207.417C207.529 81.648 207.585 82.208 207.585 82.88C207.585 83.524 207.529 84.084 207.417 84.56H199.857C199.969 85.008 200.025 85.568 200.025 86.24C200.025 86.884 199.969 87.444 199.857 87.92H206.577C206.689 88.368 206.745 88.928 206.745 89.6C206.745 90.244 206.689 90.804 206.577 91.28H208.257C208.369 91.728 208.425 92.288 208.425 92.96ZM217.513 77.84C217.401 77.364 217.345 76.804 217.345 76.16C217.345 75.488 217.401 74.928 217.513 74.48H220.873C220.985 74.928 221.041 75.488 221.041 76.16C221.041 76.804 220.985 77.364 220.873 77.84H217.513ZM224.233 94.64C224.345 95.088 224.401 95.648 224.401 96.32C224.401 96.964 224.345 97.524 224.233 98H214.153C214.041 97.524 213.985 96.964 213.985 96.32C213.985 95.648 214.041 95.088 214.153 94.64H217.513C217.401 94.164 217.345 93.604 217.345 92.96C217.345 92.288 217.401 91.728 217.513 91.28C217.401 90.804 217.345 90.244 217.345 89.6C217.345 88.928 217.401 88.368 217.513 87.92C217.401 87.444 217.345 86.884 217.345 86.24C217.345 85.568 217.401 85.008 217.513 84.56H214.993C214.881 84.084 214.825 83.524 214.825 82.88C214.825 82.208 214.881 81.648 214.993 81.2H220.873C220.985 81.648 221.041 82.208 221.041 82.88C221.041 83.524 220.985 84.084 220.873 84.56C220.985 85.008 221.041 85.568 221.041 86.24C221.041 86.884 220.985 87.444 220.873 87.92C220.985 88.368 221.041 88.928 221.041 89.6C221.041 90.244 220.985 90.804 220.873 91.28C220.985 91.728 221.041 92.288 221.041 92.96C221.041 93.604 220.985 94.164 220.873 94.64H224.233ZM242.897 89.6C242.897 90.244 242.841 90.804 242.729 91.28H241.469C241.581 91.728 241.637 92.288 241.637 92.96C241.637 93.604 241.581 94.164 241.469 94.64H239.369C239.481 95.088 239.537 95.648 239.537 96.32C239.537 96.964 239.481 97.524 239.369 98H232.649C232.537 97.524 232.481 96.964 232.481 96.32C232.481 95.648 232.537 95.088 232.649 94.64H230.549C230.437 94.164 230.381 93.604 230.381 92.96C230.381 92.288 230.437 91.728 230.549 91.28H229.289C229.177 90.804 229.121 90.244 229.121 89.6C229.121 88.928 229.177 88.368 229.289 87.92H230.549C230.437 87.444 230.381 86.884 230.381 86.24C230.381 85.568 230.437 85.008 230.549 84.56H232.649C232.537 84.084 232.481 83.524 232.481 82.88C232.481 82.208 232.537 81.648 232.649 81.2H239.369C239.481 81.648 239.537 82.208 239.537 82.88C239.537 83.524 239.481 84.084 239.369 84.56H241.469C241.581 85.008 241.637 85.568 241.637 86.24C241.637 86.884 241.581 87.444 241.469 87.92H242.729C242.841 88.368 242.897 88.928 242.897 89.6ZM239.369 91.28C239.257 90.804 239.201 90.244 239.201 89.6C239.201 88.928 239.257 88.368 239.369 87.92H238.109C237.997 87.444 237.941 86.884 237.941 86.24C237.941 85.568 237.997 85.008 238.109 84.56H233.909C234.021 85.008 234.077 85.568 234.077 86.24C234.077 86.884 234.021 87.444 233.909 87.92H232.649C232.761 88.368 232.817 88.928 232.817 89.6C232.817 90.244 232.761 90.804 232.649 91.28H233.909C234.021 91.728 234.077 92.288 234.077 92.96C234.077 93.604 234.021 94.164 233.909 94.64H238.109C237.997 94.164 237.941 93.604 237.941 92.96C237.941 92.288 237.997 91.728 238.109 91.28H239.369ZM249.214 82.88C249.214 83.524 249.158 84.084 249.046 84.56H250.726C250.838 85.008 250.894 85.568 250.894 86.24C250.894 86.884 250.838 87.444 250.726 87.92H249.466C249.578 88.368 249.634 88.928 249.634 89.6C249.634 90.244 249.578 90.804 249.466 91.28C249.578 91.728 249.634 92.288 249.634 92.96C249.634 93.604 249.578 94.164 249.466 94.64C249.578 95.088 249.634 95.648 249.634 96.32C249.634 96.964 249.578 97.524 249.466 98H246.106C245.994 97.524 245.938 96.964 245.938 96.32C245.938 95.648 245.994 95.088 246.106 94.64C245.994 94.164 245.938 93.604 245.938 92.96C245.938 92.288 245.994 91.728 246.106 91.28C245.994 90.804 245.938 90.244 245.938 89.6C245.938 88.928 245.994 88.368 246.106 87.92C245.994 87.444 245.938 86.884 245.938 86.24C245.938 85.568 245.994 85.008 246.106 84.56C245.994 84.084 245.938 83.524 245.938 82.88C245.938 82.208 245.994 81.648 246.106 81.2H249.046C249.158 81.648 249.214 82.208 249.214 82.88ZM259.546 87.92C259.658 88.368 259.714 88.928 259.714 89.6C259.714 90.244 259.658 90.804 259.546 91.28C259.658 91.728 259.714 92.288 259.714 92.96C259.714 93.604 259.658 94.164 259.546 94.64C259.658 95.088 259.714 95.648 259.714 96.32C259.714 96.964 259.658 97.524 259.546 98H256.186C256.074 97.524 256.018 96.964 256.018 96.32C256.018 95.648 256.074 95.088 256.186 94.64C256.074 94.164 256.018 93.604 256.018 92.96C256.018 92.288 256.074 91.728 256.186 91.28C256.074 90.804 256.018 90.244 256.018 89.6C256.018 88.928 256.074 88.368 256.186 87.92C256.074 87.444 256.018 86.884 256.018 86.24C256.018 85.568 256.074 85.008 256.186 84.56H250.726C250.614 84.084 250.558 83.524 250.558 82.88C250.558 82.208 250.614 81.648 250.726 81.2H257.446C257.558 81.648 257.614 82.208 257.614 82.88C257.614 83.524 257.558 84.084 257.446 84.56H259.546C259.658 85.008 259.714 85.568 259.714 86.24C259.714 86.884 259.658 87.444 259.546 87.92ZM275.69 92.96C275.69 93.604 275.634 94.164 275.522 94.64H273.842C273.954 95.088 274.01 95.648 274.01 96.32C274.01 96.964 273.954 97.524 273.842 98H264.602C264.49 97.524 264.434 96.964 264.434 96.32C264.434 95.648 264.49 95.088 264.602 94.64H272.162C272.05 94.164 271.994 93.604 271.994 92.96C271.994 92.288 272.05 91.728 272.162 91.28H265.442C265.33 90.804 265.274 90.244 265.274 89.6C265.274 88.928 265.33 88.368 265.442 87.92H263.762C263.65 87.444 263.594 86.884 263.594 86.24C263.594 85.568 263.65 85.008 263.762 84.56H265.442C265.33 84.084 265.274 83.524 265.274 82.88C265.274 82.208 265.33 81.648 265.442 81.2H274.682C274.794 81.648 274.85 82.208 274.85 82.88C274.85 83.524 274.794 84.084 274.682 84.56H267.122C267.234 85.008 267.29 85.568 267.29 86.24C267.29 86.884 267.234 87.444 267.122 87.92H273.842C273.954 88.368 274.01 88.928 274.01 89.6C274.01 90.244 273.954 90.804 273.842 91.28H275.522C275.634 91.728 275.69 92.288 275.69 92.96Z" fill="white"/>
<path d="M65.1855 145.668V148H56.6191V145.668H65.1855ZM57.4395 130.938V148H54.498V130.938H57.4395ZM72.7676 148.234C71.8301 148.234 70.9824 148.082 70.2246 147.777C69.4746 147.465 68.834 147.031 68.3027 146.477C67.7793 145.922 67.377 145.27 67.0957 144.52C66.8145 143.77 66.6738 142.961 66.6738 142.094V141.625C66.6738 140.633 66.8184 139.734 67.1074 138.93C67.3965 138.125 67.7988 137.438 68.3145 136.867C68.8301 136.289 69.4395 135.848 70.1426 135.543C70.8457 135.238 71.6074 135.086 72.4277 135.086C73.334 135.086 74.127 135.238 74.8066 135.543C75.4863 135.848 76.0488 136.277 76.4941 136.832C76.9473 137.379 77.2832 138.031 77.502 138.789C77.7285 139.547 77.8418 140.383 77.8418 141.297V142.504H68.0449V140.477H75.0527V140.254C75.0371 139.746 74.9355 139.27 74.748 138.824C74.5684 138.379 74.291 138.02 73.916 137.746C73.541 137.473 73.041 137.336 72.416 137.336C71.9473 137.336 71.5293 137.438 71.1621 137.641C70.8027 137.836 70.502 138.121 70.2598 138.496C70.0176 138.871 69.8301 139.324 69.6973 139.855C69.5723 140.379 69.5098 140.969 69.5098 141.625V142.094C69.5098 142.648 69.584 143.164 69.7324 143.641C69.8887 144.109 70.1152 144.52 70.4121 144.871C70.709 145.223 71.0684 145.5 71.4902 145.703C71.9121 145.898 72.3926 145.996 72.9316 145.996C73.6113 145.996 74.2168 145.859 74.748 145.586C75.2793 145.312 75.7402 144.926 76.1309 144.426L77.6191 145.867C77.3457 146.266 76.9902 146.648 76.5527 147.016C76.1152 147.375 75.5801 147.668 74.9473 147.895C74.3223 148.121 73.5957 148.234 72.7676 148.234ZM87.1934 145.457V139.41C87.1934 138.957 87.1113 138.566 86.9473 138.238C86.7832 137.91 86.5332 137.656 86.1973 137.477C85.8691 137.297 85.4551 137.207 84.9551 137.207C84.4941 137.207 84.0957 137.285 83.7598 137.441C83.4238 137.598 83.1621 137.809 82.9746 138.074C82.7871 138.34 82.6934 138.641 82.6934 138.977H79.8809C79.8809 138.477 80.002 137.992 80.2441 137.523C80.4863 137.055 80.8379 136.637 81.2988 136.27C81.7598 135.902 82.3105 135.613 82.9512 135.402C83.5918 135.191 84.3105 135.086 85.1074 135.086C86.0605 135.086 86.9043 135.246 87.6387 135.566C88.3809 135.887 88.9629 136.371 89.3848 137.02C89.8145 137.66 90.0293 138.465 90.0293 139.434V145.07C90.0293 145.648 90.0684 146.168 90.1465 146.629C90.2324 147.082 90.3535 147.477 90.5098 147.812V148H87.6152C87.4824 147.695 87.377 147.309 87.2988 146.84C87.2285 146.363 87.1934 145.902 87.1934 145.457ZM87.6035 140.289L87.627 142.035H85.5996C85.0762 142.035 84.6152 142.086 84.2168 142.188C83.8184 142.281 83.4863 142.422 83.2207 142.609C82.9551 142.797 82.7559 143.023 82.623 143.289C82.4902 143.555 82.4238 143.855 82.4238 144.191C82.4238 144.527 82.502 144.836 82.6582 145.117C82.8145 145.391 83.041 145.605 83.3379 145.762C83.6426 145.918 84.0098 145.996 84.4395 145.996C85.0176 145.996 85.5215 145.879 85.9512 145.645C86.3887 145.402 86.7324 145.109 86.9824 144.766C87.2324 144.414 87.3652 144.082 87.3809 143.77L88.2949 145.023C88.2012 145.344 88.041 145.688 87.8145 146.055C87.5879 146.422 87.291 146.773 86.9238 147.109C86.5645 147.438 86.1309 147.707 85.623 147.918C85.123 148.129 84.5449 148.234 83.8887 148.234C83.0605 148.234 82.3223 148.07 81.6738 147.742C81.0254 147.406 80.5176 146.957 80.1504 146.395C79.7832 145.824 79.5996 145.18 79.5996 144.461C79.5996 143.789 79.7246 143.195 79.9746 142.68C80.2324 142.156 80.6074 141.719 81.0996 141.367C81.5996 141.016 82.209 140.75 82.9277 140.57C83.6465 140.383 84.4668 140.289 85.3887 140.289H87.6035ZM95.8184 137.734V148H92.9941V135.32H95.6895L95.8184 137.734ZM99.6973 135.238L99.6738 137.863C99.502 137.832 99.3145 137.809 99.1113 137.793C98.916 137.777 98.7207 137.77 98.5254 137.77C98.041 137.77 97.6152 137.84 97.248 137.98C96.8809 138.113 96.5723 138.309 96.3223 138.566C96.0801 138.816 95.8926 139.121 95.7598 139.48C95.627 139.84 95.5488 140.242 95.5254 140.688L94.8809 140.734C94.8809 139.938 94.959 139.199 95.1152 138.52C95.2715 137.84 95.5059 137.242 95.8184 136.727C96.1387 136.211 96.5371 135.809 97.0137 135.52C97.498 135.23 98.0566 135.086 98.6895 135.086C98.8613 135.086 99.0449 135.102 99.2402 135.133C99.4434 135.164 99.5957 135.199 99.6973 135.238ZM104.268 138.027V148H101.443V135.32H104.104L104.268 138.027ZM103.764 141.191L102.85 141.18C102.857 140.281 102.982 139.457 103.225 138.707C103.475 137.957 103.818 137.312 104.256 136.773C104.701 136.234 105.232 135.82 105.85 135.531C106.467 135.234 107.154 135.086 107.912 135.086C108.521 135.086 109.072 135.172 109.564 135.344C110.064 135.508 110.49 135.777 110.842 136.152C111.201 136.527 111.475 137.016 111.662 137.617C111.85 138.211 111.943 138.941 111.943 139.809V148H109.107V139.797C109.107 139.188 109.018 138.707 108.838 138.355C108.666 137.996 108.412 137.742 108.076 137.594C107.748 137.438 107.338 137.359 106.846 137.359C106.361 137.359 105.928 137.461 105.545 137.664C105.162 137.867 104.838 138.145 104.572 138.496C104.314 138.848 104.115 139.254 103.975 139.715C103.834 140.176 103.764 140.668 103.764 141.191ZM123.627 137.898V148H120.803V135.32H123.463L123.627 137.898ZM123.17 141.191L122.209 141.18C122.209 140.305 122.318 139.496 122.537 138.754C122.756 138.012 123.076 137.367 123.498 136.82C123.92 136.266 124.443 135.84 125.068 135.543C125.701 135.238 126.432 135.086 127.26 135.086C127.838 135.086 128.365 135.172 128.842 135.344C129.326 135.508 129.744 135.77 130.096 136.129C130.455 136.488 130.729 136.949 130.916 137.512C131.111 138.074 131.209 138.754 131.209 139.551V148H128.385V139.797C128.385 139.18 128.291 138.695 128.104 138.344C127.924 137.992 127.662 137.742 127.318 137.594C126.982 137.438 126.58 137.359 126.111 137.359C125.58 137.359 125.127 137.461 124.752 137.664C124.385 137.867 124.084 138.145 123.85 138.496C123.615 138.848 123.443 139.254 123.334 139.715C123.225 140.176 123.17 140.668 123.17 141.191ZM131.033 140.441L129.709 140.734C129.709 139.969 129.814 139.246 130.025 138.566C130.244 137.879 130.561 137.277 130.975 136.762C131.396 136.238 131.916 135.828 132.533 135.531C133.15 135.234 133.857 135.086 134.654 135.086C135.303 135.086 135.881 135.176 136.389 135.355C136.904 135.527 137.342 135.801 137.701 136.176C138.061 136.551 138.334 137.039 138.521 137.641C138.709 138.234 138.803 138.953 138.803 139.797V148H135.967V139.785C135.967 139.145 135.873 138.648 135.686 138.297C135.506 137.945 135.248 137.703 134.912 137.57C134.576 137.43 134.174 137.359 133.705 137.359C133.268 137.359 132.881 137.441 132.545 137.605C132.217 137.762 131.939 137.984 131.713 138.273C131.486 138.555 131.314 138.879 131.197 139.246C131.088 139.613 131.033 140.012 131.033 140.441ZM141.17 141.801V141.531C141.17 140.617 141.303 139.77 141.568 138.988C141.834 138.199 142.217 137.516 142.717 136.938C143.225 136.352 143.842 135.898 144.568 135.578C145.303 135.25 146.131 135.086 147.053 135.086C147.982 135.086 148.811 135.25 149.537 135.578C150.271 135.898 150.893 136.352 151.4 136.938C151.908 137.516 152.295 138.199 152.561 138.988C152.826 139.77 152.959 140.617 152.959 141.531V141.801C152.959 142.715 152.826 143.562 152.561 144.344C152.295 145.125 151.908 145.809 151.4 146.395C150.893 146.973 150.275 147.426 149.549 147.754C148.822 148.074 147.998 148.234 147.076 148.234C146.146 148.234 145.314 148.074 144.58 147.754C143.854 147.426 143.236 146.973 142.729 146.395C142.221 145.809 141.834 145.125 141.568 144.344C141.303 143.562 141.17 142.715 141.17 141.801ZM143.994 141.531V141.801C143.994 142.371 144.053 142.91 144.17 143.418C144.287 143.926 144.471 144.371 144.721 144.754C144.971 145.137 145.291 145.438 145.682 145.656C146.072 145.875 146.537 145.984 147.076 145.984C147.6 145.984 148.053 145.875 148.436 145.656C148.826 145.438 149.146 145.137 149.396 144.754C149.646 144.371 149.83 143.926 149.947 143.418C150.072 142.91 150.135 142.371 150.135 141.801V141.531C150.135 140.969 150.072 140.438 149.947 139.938C149.83 139.43 149.643 138.98 149.385 138.59C149.135 138.199 148.814 137.895 148.424 137.676C148.041 137.449 147.584 137.336 147.053 137.336C146.521 137.336 146.061 137.449 145.67 137.676C145.287 137.895 144.971 138.199 144.721 138.59C144.471 138.98 144.287 139.43 144.17 139.938C144.053 140.438 143.994 140.969 143.994 141.531ZM158.127 138.027V148H155.303V135.32H157.963L158.127 138.027ZM157.623 141.191L156.709 141.18C156.717 140.281 156.842 139.457 157.084 138.707C157.334 137.957 157.678 137.312 158.115 136.773C158.561 136.234 159.092 135.82 159.709 135.531C160.326 135.234 161.014 135.086 161.771 135.086C162.381 135.086 162.932 135.172 163.424 135.344C163.924 135.508 164.35 135.777 164.701 136.152C165.061 136.527 165.334 137.016 165.521 137.617C165.709 138.211 165.803 138.941 165.803 139.809V148H162.967V139.797C162.967 139.188 162.877 138.707 162.697 138.355C162.525 137.996 162.271 137.742 161.936 137.594C161.607 137.438 161.197 137.359 160.705 137.359C160.221 137.359 159.787 137.461 159.404 137.664C159.021 137.867 158.697 138.145 158.432 138.496C158.174 138.848 157.975 139.254 157.834 139.715C157.693 140.176 157.623 140.668 157.623 141.191ZM174.275 148.234C173.338 148.234 172.49 148.082 171.732 147.777C170.982 147.465 170.342 147.031 169.811 146.477C169.287 145.922 168.885 145.27 168.604 144.52C168.322 143.77 168.182 142.961 168.182 142.094V141.625C168.182 140.633 168.326 139.734 168.615 138.93C168.904 138.125 169.307 137.438 169.822 136.867C170.338 136.289 170.947 135.848 171.65 135.543C172.354 135.238 173.115 135.086 173.936 135.086C174.842 135.086 175.635 135.238 176.314 135.543C176.994 135.848 177.557 136.277 178.002 136.832C178.455 137.379 178.791 138.031 179.01 138.789C179.236 139.547 179.35 140.383 179.35 141.297V142.504H169.553V140.477H176.561V140.254C176.545 139.746 176.443 139.27 176.256 138.824C176.076 138.379 175.799 138.02 175.424 137.746C175.049 137.473 174.549 137.336 173.924 137.336C173.455 137.336 173.037 137.438 172.67 137.641C172.311 137.836 172.01 138.121 171.768 138.496C171.525 138.871 171.338 139.324 171.205 139.855C171.08 140.379 171.018 140.969 171.018 141.625V142.094C171.018 142.648 171.092 143.164 171.24 143.641C171.396 144.109 171.623 144.52 171.92 144.871C172.217 145.223 172.576 145.5 172.998 145.703C173.42 145.898 173.9 145.996 174.439 145.996C175.119 145.996 175.725 145.859 176.256 145.586C176.787 145.312 177.248 144.926 177.639 144.426L179.127 145.867C178.854 146.266 178.498 146.648 178.061 147.016C177.623 147.375 177.088 147.668 176.455 147.895C175.83 148.121 175.104 148.234 174.275 148.234ZM185.068 146.617L188.514 135.32H191.537L186.451 149.934C186.334 150.246 186.182 150.586 185.994 150.953C185.807 151.32 185.561 151.668 185.256 151.996C184.959 152.332 184.588 152.602 184.143 152.805C183.697 153.016 183.158 153.121 182.525 153.121C182.275 153.121 182.033 153.098 181.799 153.051C181.572 153.012 181.357 152.969 181.154 152.922L181.143 150.766C181.221 150.773 181.314 150.781 181.424 150.789C181.541 150.797 181.635 150.801 181.705 150.801C182.174 150.801 182.564 150.742 182.877 150.625C183.189 150.516 183.443 150.336 183.639 150.086C183.842 149.836 184.014 149.5 184.154 149.078L185.068 146.617ZM183.123 135.32L186.135 144.812L186.639 147.789L184.682 148.293L180.076 135.32H183.123ZM204.943 135.32V137.383H197.795V135.32H204.943ZM199.857 132.215H202.682V144.496C202.682 144.887 202.736 145.188 202.846 145.398C202.963 145.602 203.123 145.738 203.326 145.809C203.529 145.879 203.768 145.914 204.041 145.914C204.236 145.914 204.424 145.902 204.604 145.879C204.783 145.855 204.928 145.832 205.037 145.809L205.049 147.965C204.814 148.035 204.541 148.098 204.229 148.152C203.924 148.207 203.572 148.234 203.174 148.234C202.525 148.234 201.951 148.121 201.451 147.895C200.951 147.66 200.561 147.281 200.279 146.758C199.998 146.234 199.857 145.539 199.857 144.672V132.215ZM206.303 141.801V141.531C206.303 140.617 206.436 139.77 206.701 138.988C206.967 138.199 207.35 137.516 207.85 136.938C208.357 136.352 208.975 135.898 209.701 135.578C210.436 135.25 211.264 135.086 212.186 135.086C213.115 135.086 213.943 135.25 214.67 135.578C215.404 135.898 216.025 136.352 216.533 136.938C217.041 137.516 217.428 138.199 217.693 138.988C217.959 139.77 218.092 140.617 218.092 141.531V141.801C218.092 142.715 217.959 143.562 217.693 144.344C217.428 145.125 217.041 145.809 216.533 146.395C216.025 146.973 215.408 147.426 214.682 147.754C213.955 148.074 213.131 148.234 212.209 148.234C211.279 148.234 210.447 148.074 209.713 147.754C208.986 147.426 208.369 146.973 207.861 146.395C207.354 145.809 206.967 145.125 206.701 144.344C206.436 143.562 206.303 142.715 206.303 141.801ZM209.127 141.531V141.801C209.127 142.371 209.186 142.91 209.303 143.418C209.42 143.926 209.604 144.371 209.854 144.754C210.104 145.137 210.424 145.438 210.814 145.656C211.205 145.875 211.67 145.984 212.209 145.984C212.732 145.984 213.186 145.875 213.568 145.656C213.959 145.438 214.279 145.137 214.529 144.754C214.779 144.371 214.963 143.926 215.08 143.418C215.205 142.91 215.268 142.371 215.268 141.801V141.531C215.268 140.969 215.205 140.438 215.08 139.938C214.963 139.43 214.775 138.98 214.518 138.59C214.268 138.199 213.947 137.895 213.557 137.676C213.174 137.449 212.717 137.336 212.186 137.336C211.654 137.336 211.193 137.449 210.803 137.676C210.42 137.895 210.104 138.199 209.854 138.59C209.604 138.98 209.42 139.43 209.303 139.938C209.186 140.438 209.127 140.969 209.127 141.531ZM223.295 137.758V152.875H220.471V135.32H223.072L223.295 137.758ZM231.557 141.543V141.789C231.557 142.711 231.447 143.566 231.229 144.355C231.018 145.137 230.701 145.82 230.279 146.406C229.865 146.984 229.354 147.434 228.744 147.754C228.135 148.074 227.432 148.234 226.635 148.234C225.846 148.234 225.154 148.09 224.561 147.801C223.975 147.504 223.479 147.086 223.072 146.547C222.666 146.008 222.338 145.375 222.088 144.648C221.846 143.914 221.674 143.109 221.572 142.234V141.285C221.674 140.355 221.846 139.512 222.088 138.754C222.338 137.996 222.666 137.344 223.072 136.797C223.479 136.25 223.975 135.828 224.561 135.531C225.146 135.234 225.83 135.086 226.611 135.086C227.408 135.086 228.115 135.242 228.732 135.555C229.35 135.859 229.869 136.297 230.291 136.867C230.713 137.43 231.029 138.109 231.24 138.906C231.451 139.695 231.557 140.574 231.557 141.543ZM228.732 141.789V141.543C228.732 140.957 228.678 140.414 228.568 139.914C228.459 139.406 228.287 138.961 228.053 138.578C227.818 138.195 227.518 137.898 227.15 137.688C226.791 137.469 226.357 137.359 225.85 137.359C225.35 137.359 224.92 137.445 224.561 137.617C224.201 137.781 223.9 138.012 223.658 138.309C223.416 138.605 223.229 138.953 223.096 139.352C222.963 139.742 222.869 140.168 222.814 140.629V142.902C222.908 143.465 223.068 143.98 223.295 144.449C223.521 144.918 223.842 145.293 224.256 145.574C224.678 145.848 225.217 145.984 225.873 145.984C226.381 145.984 226.814 145.875 227.174 145.656C227.533 145.438 227.826 145.137 228.053 144.754C228.287 144.363 228.459 143.914 228.568 143.406C228.678 142.898 228.732 142.359 228.732 141.789ZM236.982 135.32V148H234.146V135.32H236.982ZM233.959 131.992C233.959 131.562 234.1 131.207 234.381 130.926C234.67 130.637 235.068 130.492 235.576 130.492C236.076 130.492 236.471 130.637 236.76 130.926C237.049 131.207 237.193 131.562 237.193 131.992C237.193 132.414 237.049 132.766 236.76 133.047C236.471 133.328 236.076 133.469 235.576 133.469C235.068 133.469 234.67 133.328 234.381 133.047C234.1 132.766 233.959 132.414 233.959 131.992ZM245.256 145.984C245.717 145.984 246.131 145.895 246.498 145.715C246.873 145.527 247.174 145.27 247.4 144.941C247.635 144.613 247.764 144.234 247.787 143.805H250.447C250.432 144.625 250.189 145.371 249.721 146.043C249.252 146.715 248.631 147.25 247.857 147.648C247.084 148.039 246.229 148.234 245.291 148.234C244.322 148.234 243.479 148.07 242.76 147.742C242.041 147.406 241.443 146.945 240.967 146.359C240.49 145.773 240.131 145.098 239.889 144.332C239.654 143.566 239.537 142.746 239.537 141.871V141.461C239.537 140.586 239.654 139.766 239.889 139C240.131 138.227 240.49 137.547 240.967 136.961C241.443 136.375 242.041 135.918 242.76 135.59C243.479 135.254 244.318 135.086 245.279 135.086C246.295 135.086 247.186 135.289 247.951 135.695C248.717 136.094 249.318 136.652 249.756 137.371C250.201 138.082 250.432 138.91 250.447 139.855H247.787C247.764 139.387 247.646 138.965 247.436 138.59C247.232 138.207 246.943 137.902 246.568 137.676C246.201 137.449 245.76 137.336 245.244 137.336C244.674 137.336 244.201 137.453 243.826 137.688C243.451 137.914 243.158 138.227 242.947 138.625C242.736 139.016 242.584 139.457 242.49 139.949C242.404 140.434 242.361 140.938 242.361 141.461V141.871C242.361 142.395 242.404 142.902 242.49 143.395C242.576 143.887 242.725 144.328 242.936 144.719C243.154 145.102 243.451 145.41 243.826 145.645C244.201 145.871 244.678 145.984 245.256 145.984ZM259.729 144.566C259.729 144.285 259.658 144.031 259.518 143.805C259.377 143.57 259.107 143.359 258.709 143.172C258.318 142.984 257.74 142.812 256.975 142.656C256.303 142.508 255.686 142.332 255.123 142.129C254.568 141.918 254.092 141.664 253.693 141.367C253.295 141.07 252.986 140.719 252.768 140.312C252.549 139.906 252.439 139.438 252.439 138.906C252.439 138.391 252.553 137.902 252.779 137.441C253.006 136.98 253.33 136.574 253.752 136.223C254.174 135.871 254.686 135.594 255.287 135.391C255.896 135.188 256.576 135.086 257.326 135.086C258.389 135.086 259.299 135.266 260.057 135.625C260.822 135.977 261.408 136.457 261.814 137.066C262.221 137.668 262.424 138.348 262.424 139.105H259.6C259.6 138.77 259.514 138.457 259.342 138.168C259.178 137.871 258.928 137.633 258.592 137.453C258.256 137.266 257.834 137.172 257.326 137.172C256.842 137.172 256.439 137.25 256.119 137.406C255.807 137.555 255.572 137.75 255.416 137.992C255.268 138.234 255.193 138.5 255.193 138.789C255.193 139 255.232 139.191 255.311 139.363C255.396 139.527 255.537 139.68 255.732 139.82C255.928 139.953 256.193 140.078 256.529 140.195C256.873 140.312 257.303 140.426 257.818 140.535C258.787 140.738 259.619 141 260.314 141.32C261.018 141.633 261.557 142.039 261.932 142.539C262.307 143.031 262.494 143.656 262.494 144.414C262.494 144.977 262.373 145.492 262.131 145.961C261.896 146.422 261.553 146.824 261.1 147.168C260.646 147.504 260.104 147.766 259.471 147.953C258.846 148.141 258.143 148.234 257.361 148.234C256.213 148.234 255.24 148.031 254.443 147.625C253.646 147.211 253.041 146.684 252.627 146.043C252.221 145.395 252.018 144.723 252.018 144.027H254.748C254.779 144.551 254.924 144.969 255.182 145.281C255.447 145.586 255.775 145.809 256.166 145.949C256.564 146.082 256.975 146.148 257.396 146.148C257.904 146.148 258.33 146.082 258.674 145.949C259.018 145.809 259.279 145.621 259.459 145.387C259.639 145.145 259.729 144.871 259.729 144.566ZM276.756 135.32V137.383H269.607V135.32H276.756ZM271.67 132.215H274.494V144.496C274.494 144.887 274.549 145.188 274.658 145.398C274.775 145.602 274.936 145.738 275.139 145.809C275.342 145.879 275.58 145.914 275.854 145.914C276.049 145.914 276.236 145.902 276.416 145.879C276.596 145.855 276.74 145.832 276.85 145.809L276.861 147.965C276.627 148.035 276.354 148.098 276.041 148.152C275.736 148.207 275.385 148.234 274.986 148.234C274.338 148.234 273.764 148.121 273.264 147.895C272.764 147.66 272.373 147.281 272.092 146.758C271.811 146.234 271.67 145.539 271.67 144.672V132.215ZM281.725 130V148H278.912V130H281.725ZM281.232 141.191L280.318 141.18C280.326 140.305 280.447 139.496 280.682 138.754C280.924 138.012 281.26 137.367 281.689 136.82C282.127 136.266 282.65 135.84 283.26 135.543C283.869 135.238 284.545 135.086 285.287 135.086C285.912 135.086 286.475 135.172 286.975 135.344C287.482 135.516 287.92 135.793 288.287 136.176C288.654 136.551 288.932 137.043 289.119 137.652C289.314 138.254 289.412 138.988 289.412 139.855V148H286.576V139.832C286.576 139.223 286.486 138.738 286.307 138.379C286.135 138.02 285.881 137.762 285.545 137.605C285.209 137.441 284.799 137.359 284.314 137.359C283.807 137.359 283.357 137.461 282.967 137.664C282.584 137.867 282.264 138.145 282.006 138.496C281.748 138.848 281.553 139.254 281.42 139.715C281.295 140.176 281.232 140.668 281.232 141.191ZM295.107 137.734V148H292.283V135.32H294.979L295.107 137.734ZM298.986 135.238L298.963 137.863C298.791 137.832 298.604 137.809 298.4 137.793C298.205 137.777 298.01 137.77 297.814 137.77C297.33 137.77 296.904 137.84 296.537 137.98C296.17 138.113 295.861 138.309 295.611 138.566C295.369 138.816 295.182 139.121 295.049 139.48C294.916 139.84 294.838 140.242 294.814 140.688L294.17 140.734C294.17 139.938 294.248 139.199 294.404 138.52C294.561 137.84 294.795 137.242 295.107 136.727C295.428 136.211 295.826 135.809 296.303 135.52C296.787 135.23 297.346 135.086 297.979 135.086C298.15 135.086 298.334 135.102 298.529 135.133C298.732 135.164 298.885 135.199 298.986 135.238ZM299.912 141.801V141.531C299.912 140.617 300.045 139.77 300.311 138.988C300.576 138.199 300.959 137.516 301.459 136.938C301.967 136.352 302.584 135.898 303.311 135.578C304.045 135.25 304.873 135.086 305.795 135.086C306.725 135.086 307.553 135.25 308.279 135.578C309.014 135.898 309.635 136.352 310.143 136.938C310.65 137.516 311.037 138.199 311.303 138.988C311.568 139.77 311.701 140.617 311.701 141.531V141.801C311.701 142.715 311.568 143.562 311.303 144.344C311.037 145.125 310.65 145.809 310.143 146.395C309.635 146.973 309.018 147.426 308.291 147.754C307.564 148.074 306.74 148.234 305.818 148.234C304.889 148.234 304.057 148.074 303.322 147.754C302.596 147.426 301.979 146.973 301.471 146.395C300.963 145.809 300.576 145.125 300.311 144.344C300.045 143.562 299.912 142.715 299.912 141.801ZM302.736 141.531V141.801C302.736 142.371 302.795 142.91 302.912 143.418C303.029 143.926 303.213 144.371 303.463 144.754C303.713 145.137 304.033 145.438 304.424 145.656C304.814 145.875 305.279 145.984 305.818 145.984C306.342 145.984 306.795 145.875 307.178 145.656C307.568 145.438 307.889 145.137 308.139 144.754C308.389 144.371 308.572 143.926 308.689 143.418C308.814 142.91 308.877 142.371 308.877 141.801V141.531C308.877 140.969 308.814 140.438 308.689 139.938C308.572 139.43 308.385 138.98 308.127 138.59C307.877 138.199 307.557 137.895 307.166 137.676C306.783 137.449 306.326 137.336 305.795 137.336C305.264 137.336 304.803 137.449 304.412 137.676C304.029 137.895 303.713 138.199 303.463 138.59C303.213 138.98 303.029 139.43 302.912 139.938C302.795 140.438 302.736 140.969 302.736 141.531ZM321.697 145.012V135.32H324.533V148H321.861L321.697 145.012ZM322.096 142.375L323.045 142.352C323.045 143.203 322.951 143.988 322.764 144.707C322.576 145.418 322.287 146.039 321.896 146.57C321.506 147.094 321.006 147.504 320.396 147.801C319.787 148.09 319.057 148.234 318.205 148.234C317.588 148.234 317.021 148.145 316.506 147.965C315.99 147.785 315.545 147.508 315.17 147.133C314.803 146.758 314.518 146.27 314.314 145.668C314.111 145.066 314.01 144.348 314.01 143.512V135.32H316.834V143.535C316.834 143.996 316.889 144.383 316.998 144.695C317.107 145 317.256 145.246 317.443 145.434C317.631 145.621 317.85 145.754 318.1 145.832C318.35 145.91 318.615 145.949 318.896 145.949C319.701 145.949 320.334 145.793 320.795 145.48C321.264 145.16 321.596 144.73 321.791 144.191C321.994 143.652 322.096 143.047 322.096 142.375ZM335.549 135.32H338.115V147.648C338.115 148.789 337.873 149.758 337.389 150.555C336.904 151.352 336.229 151.957 335.361 152.371C334.494 152.793 333.49 153.004 332.35 153.004C331.865 153.004 331.326 152.934 330.732 152.793C330.146 152.652 329.576 152.426 329.021 152.113C328.475 151.809 328.018 151.406 327.65 150.906L328.975 149.242C329.428 149.781 329.928 150.176 330.475 150.426C331.021 150.676 331.596 150.801 332.197 150.801C332.846 150.801 333.396 150.68 333.85 150.438C334.311 150.203 334.666 149.855 334.916 149.395C335.166 148.934 335.291 148.371 335.291 147.707V138.191L335.549 135.32ZM326.936 141.801V141.555C326.936 140.594 327.053 139.719 327.287 138.93C327.521 138.133 327.857 137.449 328.295 136.879C328.732 136.301 329.264 135.859 329.889 135.555C330.514 135.242 331.221 135.086 332.01 135.086C332.83 135.086 333.529 135.234 334.107 135.531C334.693 135.828 335.182 136.254 335.572 136.809C335.963 137.355 336.268 138.012 336.486 138.777C336.713 139.535 336.881 140.379 336.99 141.309V142.094C336.889 143 336.717 143.828 336.475 144.578C336.232 145.328 335.912 145.977 335.514 146.523C335.115 147.07 334.623 147.492 334.037 147.789C333.459 148.086 332.775 148.234 331.986 148.234C331.213 148.234 330.514 148.074 329.889 147.754C329.271 147.434 328.74 146.984 328.295 146.406C327.857 145.828 327.521 145.148 327.287 144.367C327.053 143.578 326.936 142.723 326.936 141.801ZM329.76 141.555V141.801C329.76 142.379 329.814 142.918 329.924 143.418C330.041 143.918 330.217 144.359 330.451 144.742C330.693 145.117 330.998 145.414 331.365 145.633C331.74 145.844 332.182 145.949 332.689 145.949C333.354 145.949 333.896 145.809 334.318 145.527C334.748 145.246 335.076 144.867 335.303 144.391C335.537 143.906 335.701 143.367 335.795 142.773V140.652C335.748 140.191 335.65 139.762 335.502 139.363C335.361 138.965 335.17 138.617 334.928 138.32C334.686 138.016 334.381 137.781 334.014 137.617C333.646 137.445 333.213 137.359 332.713 137.359C332.205 137.359 331.764 137.469 331.389 137.688C331.014 137.906 330.705 138.207 330.463 138.59C330.229 138.973 330.053 139.418 329.936 139.926C329.818 140.434 329.76 140.977 329.76 141.555ZM343.834 130V148H341.021V130H343.834ZM343.342 141.191L342.428 141.18C342.436 140.305 342.557 139.496 342.791 138.754C343.033 138.012 343.369 137.367 343.799 136.82C344.236 136.266 344.76 135.84 345.369 135.543C345.979 135.238 346.654 135.086 347.396 135.086C348.021 135.086 348.584 135.172 349.084 135.344C349.592 135.516 350.029 135.793 350.396 136.176C350.764 136.551 351.041 137.043 351.229 137.652C351.424 138.254 351.521 138.988 351.521 139.855V148H348.686V139.832C348.686 139.223 348.596 138.738 348.416 138.379C348.244 138.02 347.99 137.762 347.654 137.605C347.318 137.441 346.908 137.359 346.424 137.359C345.916 137.359 345.467 137.461 345.076 137.664C344.693 137.867 344.373 138.145 344.115 138.496C343.857 138.848 343.662 139.254 343.529 139.715C343.404 140.176 343.342 140.668 343.342 141.191ZM61.3301 172.566C61.3301 172.285 61.2598 172.031 61.1191 171.805C60.9785 171.57 60.709 171.359 60.3105 171.172C59.9199 170.984 59.3418 170.812 58.5762 170.656C57.9043 170.508 57.2871 170.332 56.7246 170.129C56.1699 169.918 55.6934 169.664 55.2949 169.367C54.8965 169.07 54.5879 168.719 54.3691 168.312C54.1504 167.906 54.041 167.438 54.041 166.906C54.041 166.391 54.1543 165.902 54.3809 165.441C54.6074 164.98 54.9316 164.574 55.3535 164.223C55.7754 163.871 56.2871 163.594 56.8887 163.391C57.498 163.188 58.1777 163.086 58.9277 163.086C59.9902 163.086 60.9004 163.266 61.6582 163.625C62.4238 163.977 63.0098 164.457 63.416 165.066C63.8223 165.668 64.0254 166.348 64.0254 167.105H61.2012C61.2012 166.77 61.1152 166.457 60.9434 166.168C60.7793 165.871 60.5293 165.633 60.1934 165.453C59.8574 165.266 59.4355 165.172 58.9277 165.172C58.4434 165.172 58.041 165.25 57.7207 165.406C57.4082 165.555 57.1738 165.75 57.0176 165.992C56.8691 166.234 56.7949 166.5 56.7949 166.789C56.7949 167 56.834 167.191 56.9121 167.363C56.998 167.527 57.1387 167.68 57.334 167.82C57.5293 167.953 57.7949 168.078 58.1309 168.195C58.4746 168.312 58.9043 168.426 59.4199 168.535C60.3887 168.738 61.2207 169 61.916 169.32C62.6191 169.633 63.1582 170.039 63.5332 170.539C63.9082 171.031 64.0957 171.656 64.0957 172.414C64.0957 172.977 63.9746 173.492 63.7324 173.961C63.498 174.422 63.1543 174.824 62.7012 175.168C62.248 175.504 61.7051 175.766 61.0723 175.953C60.4473 176.141 59.7441 176.234 58.9629 176.234C57.8145 176.234 56.8418 176.031 56.0449 175.625C55.248 175.211 54.6426 174.684 54.2285 174.043C53.8223 173.395 53.6191 172.723 53.6191 172.027H56.3496C56.3809 172.551 56.5254 172.969 56.7832 173.281C57.0488 173.586 57.377 173.809 57.7676 173.949C58.166 174.082 58.5762 174.148 58.998 174.148C59.5059 174.148 59.9316 174.082 60.2754 173.949C60.6191 173.809 60.8809 173.621 61.0605 173.387C61.2402 173.145 61.3301 172.871 61.3301 172.566ZM69.3574 158V176H66.5449V158H69.3574ZM68.8652 169.191L67.9512 169.18C67.959 168.305 68.0801 167.496 68.3145 166.754C68.5566 166.012 68.8926 165.367 69.3223 164.82C69.7598 164.266 70.2832 163.84 70.8926 163.543C71.502 163.238 72.1777 163.086 72.9199 163.086C73.5449 163.086 74.1074 163.172 74.6074 163.344C75.1152 163.516 75.5527 163.793 75.9199 164.176C76.2871 164.551 76.5645 165.043 76.752 165.652C76.9473 166.254 77.0449 166.988 77.0449 167.855V176H74.209V167.832C74.209 167.223 74.1191 166.738 73.9395 166.379C73.7676 166.02 73.5137 165.762 73.1777 165.605C72.8418 165.441 72.4316 165.359 71.9473 165.359C71.4395 165.359 70.9902 165.461 70.5996 165.664C70.2168 165.867 69.8965 166.145 69.6387 166.496C69.3809 166.848 69.1855 167.254 69.0527 167.715C68.9277 168.176 68.8652 168.668 68.8652 169.191ZM79.3652 169.801V169.531C79.3652 168.617 79.498 167.77 79.7637 166.988C80.0293 166.199 80.4121 165.516 80.9121 164.938C81.4199 164.352 82.0371 163.898 82.7637 163.578C83.498 163.25 84.3262 163.086 85.248 163.086C86.1777 163.086 87.0059 163.25 87.7324 163.578C88.4668 163.898 89.0879 164.352 89.5957 164.938C90.1035 165.516 90.4902 166.199 90.7559 166.988C91.0215 167.77 91.1543 168.617 91.1543 169.531V169.801C91.1543 170.715 91.0215 171.562 90.7559 172.344C90.4902 173.125 90.1035 173.809 89.5957 174.395C89.0879 174.973 88.4707 175.426 87.7441 175.754C87.0176 176.074 86.1934 176.234 85.2715 176.234C84.3418 176.234 83.5098 176.074 82.7754 175.754C82.0488 175.426 81.4316 174.973 80.9238 174.395C80.416 173.809 80.0293 173.125 79.7637 172.344C79.498 171.562 79.3652 170.715 79.3652 169.801ZM82.1895 169.531V169.801C82.1895 170.371 82.248 170.91 82.3652 171.418C82.4824 171.926 82.666 172.371 82.916 172.754C83.166 173.137 83.4863 173.438 83.877 173.656C84.2676 173.875 84.7324 173.984 85.2715 173.984C85.7949 173.984 86.248 173.875 86.6309 173.656C87.0215 173.438 87.3418 173.137 87.5918 172.754C87.8418 172.371 88.0254 171.926 88.1426 171.418C88.2676 170.91 88.3301 170.371 88.3301 169.801V169.531C88.3301 168.969 88.2676 168.438 88.1426 167.938C88.0254 167.43 87.8379 166.98 87.5801 166.59C87.3301 166.199 87.0098 165.895 86.6191 165.676C86.2363 165.449 85.7793 165.336 85.248 165.336C84.7168 165.336 84.2559 165.449 83.8652 165.676C83.4824 165.895 83.166 166.199 82.916 166.59C82.666 166.98 82.4824 167.43 82.3652 167.938C82.248 168.438 82.1895 168.969 82.1895 169.531ZM96.3574 165.734V176H93.5332V163.32H96.2285L96.3574 165.734ZM100.236 163.238L100.213 165.863C100.041 165.832 99.8535 165.809 99.6504 165.793C99.4551 165.777 99.2598 165.77 99.0645 165.77C98.5801 165.77 98.1543 165.84 97.7871 165.98C97.4199 166.113 97.1113 166.309 96.8613 166.566C96.6191 166.816 96.4316 167.121 96.2988 167.48C96.166 167.84 96.0879 168.242 96.0645 168.688L95.4199 168.734C95.4199 167.938 95.498 167.199 95.6543 166.52C95.8105 165.84 96.0449 165.242 96.3574 164.727C96.6777 164.211 97.0762 163.809 97.5527 163.52C98.0371 163.23 98.5957 163.086 99.2285 163.086C99.4004 163.086 99.584 163.102 99.7793 163.133C99.9824 163.164 100.135 163.199 100.236 163.238ZM108.404 163.32V165.383H101.256V163.32H108.404ZM103.318 160.215H106.143V172.496C106.143 172.887 106.197 173.188 106.307 173.398C106.424 173.602 106.584 173.738 106.787 173.809C106.99 173.879 107.229 173.914 107.502 173.914C107.697 173.914 107.885 173.902 108.064 173.879C108.244 173.855 108.389 173.832 108.498 173.809L108.51 175.965C108.275 176.035 108.002 176.098 107.689 176.152C107.385 176.207 107.033 176.234 106.635 176.234C105.986 176.234 105.412 176.121 104.912 175.895C104.412 175.66 104.021 175.281 103.74 174.758C103.459 174.234 103.318 173.539 103.318 172.672V160.215ZM121.74 173.984C122.201 173.984 122.615 173.895 122.982 173.715C123.357 173.527 123.658 173.27 123.885 172.941C124.119 172.613 124.248 172.234 124.271 171.805H126.932C126.916 172.625 126.674 173.371 126.205 174.043C125.736 174.715 125.115 175.25 124.342 175.648C123.568 176.039 122.713 176.234 121.775 176.234C120.807 176.234 119.963 176.07 119.244 175.742C118.525 175.406 117.928 174.945 117.451 174.359C116.975 173.773 116.615 173.098 116.373 172.332C116.139 171.566 116.021 170.746 116.021 169.871V169.461C116.021 168.586 116.139 167.766 116.373 167C116.615 166.227 116.975 165.547 117.451 164.961C117.928 164.375 118.525 163.918 119.244 163.59C119.963 163.254 120.803 163.086 121.764 163.086C122.779 163.086 123.67 163.289 124.436 163.695C125.201 164.094 125.803 164.652 126.24 165.371C126.686 166.082 126.916 166.91 126.932 167.855H124.271C124.248 167.387 124.131 166.965 123.92 166.59C123.717 166.207 123.428 165.902 123.053 165.676C122.686 165.449 122.244 165.336 121.729 165.336C121.158 165.336 120.686 165.453 120.311 165.688C119.936 165.914 119.643 166.227 119.432 166.625C119.221 167.016 119.068 167.457 118.975 167.949C118.889 168.434 118.846 168.938 118.846 169.461V169.871C118.846 170.395 118.889 170.902 118.975 171.395C119.061 171.887 119.209 172.328 119.42 172.719C119.639 173.102 119.936 173.41 120.311 173.645C120.686 173.871 121.162 173.984 121.74 173.984ZM131.889 158V176H129.076V158H131.889ZM131.396 169.191L130.482 169.18C130.49 168.305 130.611 167.496 130.846 166.754C131.088 166.012 131.424 165.367 131.854 164.82C132.291 164.266 132.814 163.84 133.424 163.543C134.033 163.238 134.709 163.086 135.451 163.086C136.076 163.086 136.639 163.172 137.139 163.344C137.646 163.516 138.084 163.793 138.451 164.176C138.818 164.551 139.096 165.043 139.283 165.652C139.479 166.254 139.576 166.988 139.576 167.855V176H136.74V167.832C136.74 167.223 136.65 166.738 136.471 166.379C136.299 166.02 136.045 165.762 135.709 165.605C135.373 165.441 134.963 165.359 134.479 165.359C133.971 165.359 133.521 165.461 133.131 165.664C132.748 165.867 132.428 166.145 132.17 166.496C131.912 166.848 131.717 167.254 131.584 167.715C131.459 168.176 131.396 168.668 131.396 169.191ZM149.584 173.457V167.41C149.584 166.957 149.502 166.566 149.338 166.238C149.174 165.91 148.924 165.656 148.588 165.477C148.26 165.297 147.846 165.207 147.346 165.207C146.885 165.207 146.486 165.285 146.15 165.441C145.814 165.598 145.553 165.809 145.365 166.074C145.178 166.34 145.084 166.641 145.084 166.977H142.271C142.271 166.477 142.393 165.992 142.635 165.523C142.877 165.055 143.229 164.637 143.689 164.27C144.15 163.902 144.701 163.613 145.342 163.402C145.982 163.191 146.701 163.086 147.498 163.086C148.451 163.086 149.295 163.246 150.029 163.566C150.771 163.887 151.354 164.371 151.775 165.02C152.205 165.66 152.42 166.465 152.42 167.434V173.07C152.42 173.648 152.459 174.168 152.537 174.629C152.623 175.082 152.744 175.477 152.9 175.812V176H150.006C149.873 175.695 149.768 175.309 149.689 174.84C149.619 174.363 149.584 173.902 149.584 173.457ZM149.994 168.289L150.018 170.035H147.99C147.467 170.035 147.006 170.086 146.607 170.188C146.209 170.281 145.877 170.422 145.611 170.609C145.346 170.797 145.146 171.023 145.014 171.289C144.881 171.555 144.814 171.855 144.814 172.191C144.814 172.527 144.893 172.836 145.049 173.117C145.205 173.391 145.432 173.605 145.729 173.762C146.033 173.918 146.4 173.996 146.83 173.996C147.408 173.996 147.912 173.879 148.342 173.645C148.779 173.402 149.123 173.109 149.373 172.766C149.623 172.414 149.756 172.082 149.771 171.77L150.686 173.023C150.592 173.344 150.432 173.688 150.205 174.055C149.979 174.422 149.682 174.773 149.314 175.109C148.955 175.438 148.521 175.707 148.014 175.918C147.514 176.129 146.936 176.234 146.279 176.234C145.451 176.234 144.713 176.07 144.064 175.742C143.416 175.406 142.908 174.957 142.541 174.395C142.174 173.824 141.99 173.18 141.99 172.461C141.99 171.789 142.115 171.195 142.365 170.68C142.623 170.156 142.998 169.719 143.49 169.367C143.99 169.016 144.6 168.75 145.318 168.57C146.037 168.383 146.857 168.289 147.779 168.289H149.994ZM158.396 158V176H155.561V158H158.396ZM164.514 158V176H161.678V158H164.514ZM173.197 176.234C172.26 176.234 171.412 176.082 170.654 175.777C169.904 175.465 169.264 175.031 168.732 174.477C168.209 173.922 167.807 173.27 167.525 172.52C167.244 171.77 167.104 170.961 167.104 170.094V169.625C167.104 168.633 167.248 167.734 167.537 166.93C167.826 166.125 168.229 165.438 168.744 164.867C169.26 164.289 169.869 163.848 170.572 163.543C171.275 163.238 172.037 163.086 172.857 163.086C173.764 163.086 174.557 163.238 175.236 163.543C175.916 163.848 176.479 164.277 176.924 164.832C177.377 165.379 177.713 166.031 177.932 166.789C178.158 167.547 178.271 168.383 178.271 169.297V170.504H168.475V168.477H175.482V168.254C175.467 167.746 175.365 167.27 175.178 166.824C174.998 166.379 174.721 166.02 174.346 165.746C173.971 165.473 173.471 165.336 172.846 165.336C172.377 165.336 171.959 165.438 171.592 165.641C171.232 165.836 170.932 166.121 170.689 166.496C170.447 166.871 170.26 167.324 170.127 167.855C170.002 168.379 169.939 168.969 169.939 169.625V170.094C169.939 170.648 170.014 171.164 170.162 171.641C170.318 172.109 170.545 172.52 170.842 172.871C171.139 173.223 171.498 173.5 171.92 173.703C172.342 173.898 172.822 173.996 173.361 173.996C174.041 173.996 174.646 173.859 175.178 173.586C175.709 173.312 176.17 172.926 176.561 172.426L178.049 173.867C177.775 174.266 177.42 174.648 176.982 175.016C176.545 175.375 176.01 175.668 175.377 175.895C174.752 176.121 174.025 176.234 173.197 176.234ZM183.275 166.027V176H180.451V163.32H183.111L183.275 166.027ZM182.771 169.191L181.857 169.18C181.865 168.281 181.99 167.457 182.232 166.707C182.482 165.957 182.826 165.312 183.264 164.773C183.709 164.234 184.24 163.82 184.857 163.531C185.475 163.234 186.162 163.086 186.92 163.086C187.529 163.086 188.08 163.172 188.572 163.344C189.072 163.508 189.498 163.777 189.85 164.152C190.209 164.527 190.482 165.016 190.67 165.617C190.857 166.211 190.951 166.941 190.951 167.809V176H188.115V167.797C188.115 167.188 188.025 166.707 187.846 166.355C187.674 165.996 187.42 165.742 187.084 165.594C186.756 165.438 186.346 165.359 185.854 165.359C185.369 165.359 184.936 165.461 184.553 165.664C184.17 165.867 183.846 166.145 183.58 166.496C183.322 166.848 183.123 167.254 182.982 167.715C182.842 168.176 182.771 168.668 182.771 169.191ZM201.955 163.32H204.521V175.648C204.521 176.789 204.279 177.758 203.795 178.555C203.311 179.352 202.635 179.957 201.768 180.371C200.9 180.793 199.896 181.004 198.756 181.004C198.271 181.004 197.732 180.934 197.139 180.793C196.553 180.652 195.982 180.426 195.428 180.113C194.881 179.809 194.424 179.406 194.057 178.906L195.381 177.242C195.834 177.781 196.334 178.176 196.881 178.426C197.428 178.676 198.002 178.801 198.604 178.801C199.252 178.801 199.803 178.68 200.256 178.438C200.717 178.203 201.072 177.855 201.322 177.395C201.572 176.934 201.697 176.371 201.697 175.707V166.191L201.955 163.32ZM193.342 169.801V169.555C193.342 168.594 193.459 167.719 193.693 166.93C193.928 166.133 194.264 165.449 194.701 164.879C195.139 164.301 195.67 163.859 196.295 163.555C196.92 163.242 197.627 163.086 198.416 163.086C199.236 163.086 199.936 163.234 200.514 163.531C201.1 163.828 201.588 164.254 201.979 164.809C202.369 165.355 202.674 166.012 202.893 166.777C203.119 167.535 203.287 168.379 203.396 169.309V170.094C203.295 171 203.123 171.828 202.881 172.578C202.639 173.328 202.318 173.977 201.92 174.523C201.521 175.07 201.029 175.492 200.443 175.789C199.865 176.086 199.182 176.234 198.393 176.234C197.619 176.234 196.92 176.074 196.295 175.754C195.678 175.434 195.146 174.984 194.701 174.406C194.264 173.828 193.928 173.148 193.693 172.367C193.459 171.578 193.342 170.723 193.342 169.801ZM196.166 169.555V169.801C196.166 170.379 196.221 170.918 196.33 171.418C196.447 171.918 196.623 172.359 196.857 172.742C197.1 173.117 197.404 173.414 197.771 173.633C198.146 173.844 198.588 173.949 199.096 173.949C199.76 173.949 200.303 173.809 200.725 173.527C201.154 173.246 201.482 172.867 201.709 172.391C201.943 171.906 202.107 171.367 202.201 170.773V168.652C202.154 168.191 202.057 167.762 201.908 167.363C201.768 166.965 201.576 166.617 201.334 166.32C201.092 166.016 200.787 165.781 200.42 165.617C200.053 165.445 199.619 165.359 199.119 165.359C198.611 165.359 198.17 165.469 197.795 165.688C197.42 165.906 197.111 166.207 196.869 166.59C196.635 166.973 196.459 167.418 196.342 167.926C196.225 168.434 196.166 168.977 196.166 169.555ZM213.041 176.234C212.104 176.234 211.256 176.082 210.498 175.777C209.748 175.465 209.107 175.031 208.576 174.477C208.053 173.922 207.65 173.27 207.369 172.52C207.088 171.77 206.947 170.961 206.947 170.094V169.625C206.947 168.633 207.092 167.734 207.381 166.93C207.67 166.125 208.072 165.438 208.588 164.867C209.104 164.289 209.713 163.848 210.416 163.543C211.119 163.238 211.881 163.086 212.701 163.086C213.607 163.086 214.4 163.238 215.08 163.543C215.76 163.848 216.322 164.277 216.768 164.832C217.221 165.379 217.557 166.031 217.775 166.789C218.002 167.547 218.115 168.383 218.115 169.297V170.504H208.318V168.477H215.326V168.254C215.311 167.746 215.209 167.27 215.021 166.824C214.842 166.379 214.564 166.02 214.189 165.746C213.814 165.473 213.314 165.336 212.689 165.336C212.221 165.336 211.803 165.438 211.436 165.641C211.076 165.836 210.775 166.121 210.533 166.496C210.291 166.871 210.104 167.324 209.971 167.855C209.846 168.379 209.783 168.969 209.783 169.625V170.094C209.783 170.648 209.857 171.164 210.006 171.641C210.162 172.109 210.389 172.52 210.686 172.871C210.982 173.223 211.342 173.5 211.764 173.703C212.186 173.898 212.666 173.996 213.205 173.996C213.885 173.996 214.49 173.859 215.021 173.586C215.553 173.312 216.014 172.926 216.404 172.426L217.893 173.867C217.619 174.266 217.264 174.648 216.826 175.016C216.389 175.375 215.854 175.668 215.221 175.895C214.596 176.121 213.869 176.234 213.041 176.234ZM227.432 172.566C227.432 172.285 227.361 172.031 227.221 171.805C227.08 171.57 226.811 171.359 226.412 171.172C226.021 170.984 225.443 170.812 224.678 170.656C224.006 170.508 223.389 170.332 222.826 170.129C222.271 169.918 221.795 169.664 221.396 169.367C220.998 169.07 220.689 168.719 220.471 168.312C220.252 167.906 220.143 167.438 220.143 166.906C220.143 166.391 220.256 165.902 220.482 165.441C220.709 164.98 221.033 164.574 221.455 164.223C221.877 163.871 222.389 163.594 222.99 163.391C223.6 163.188 224.279 163.086 225.029 163.086C226.092 163.086 227.002 163.266 227.76 163.625C228.525 163.977 229.111 164.457 229.518 165.066C229.924 165.668 230.127 166.348 230.127 167.105H227.303C227.303 166.77 227.217 166.457 227.045 166.168C226.881 165.871 226.631 165.633 226.295 165.453C225.959 165.266 225.537 165.172 225.029 165.172C224.545 165.172 224.143 165.25 223.822 165.406C223.51 165.555 223.275 165.75 223.119 165.992C222.971 166.234 222.896 166.5 222.896 166.789C222.896 167 222.936 167.191 223.014 167.363C223.1 167.527 223.24 167.68 223.436 167.82C223.631 167.953 223.896 168.078 224.232 168.195C224.576 168.312 225.006 168.426 225.521 168.535C226.49 168.738 227.322 169 228.018 169.32C228.721 169.633 229.26 170.039 229.635 170.539C230.01 171.031 230.197 171.656 230.197 172.414C230.197 172.977 230.076 173.492 229.834 173.961C229.6 174.422 229.256 174.824 228.803 175.168C228.35 175.504 227.807 175.766 227.174 175.953C226.549 176.141 225.846 176.234 225.064 176.234C223.916 176.234 222.943 176.031 222.146 175.625C221.35 175.211 220.744 174.684 220.33 174.043C219.924 173.395 219.721 172.723 219.721 172.027H222.451C222.482 172.551 222.627 172.969 222.885 173.281C223.15 173.586 223.479 173.809 223.869 173.949C224.268 174.082 224.678 174.148 225.1 174.148C225.607 174.148 226.033 174.082 226.377 173.949C226.721 173.809 226.982 173.621 227.162 173.387C227.342 173.145 227.432 172.871 227.432 172.566ZM241.564 166.719L244.506 164.738C244.998 164.41 245.35 164.09 245.561 163.777C245.771 163.457 245.877 163.059 245.877 162.582C245.877 162.176 245.721 161.801 245.408 161.457C245.096 161.113 244.654 160.941 244.084 160.941C243.686 160.941 243.35 161.035 243.076 161.223C242.803 161.402 242.596 161.645 242.455 161.949C242.322 162.246 242.256 162.578 242.256 162.945C242.256 163.297 242.346 163.66 242.525 164.035C242.705 164.402 242.951 164.789 243.264 165.195C243.576 165.594 243.928 166.023 244.318 166.484L252.381 176H249.111L242.525 168.254C241.955 167.566 241.451 166.938 241.014 166.367C240.576 165.789 240.236 165.23 239.994 164.691C239.752 164.145 239.631 163.582 239.631 163.004C239.631 162.113 239.814 161.348 240.182 160.707C240.549 160.066 241.068 159.574 241.74 159.23C242.412 158.879 243.197 158.703 244.096 158.703C244.963 158.703 245.709 158.879 246.334 159.23C246.967 159.574 247.451 160.031 247.787 160.602C248.131 161.172 248.303 161.797 248.303 162.477C248.303 163.016 248.205 163.508 248.01 163.953C247.814 164.398 247.545 164.805 247.201 165.172C246.857 165.539 246.459 165.887 246.006 166.215L242.432 168.816C242.018 169.152 241.709 169.477 241.506 169.789C241.311 170.094 241.182 170.375 241.119 170.633C241.057 170.891 241.025 171.117 241.025 171.312C241.025 171.812 241.131 172.266 241.342 172.672C241.561 173.078 241.877 173.402 242.291 173.645C242.713 173.879 243.225 173.996 243.826 173.996C244.475 173.996 245.104 173.852 245.713 173.562C246.322 173.266 246.869 172.848 247.354 172.309C247.838 171.77 248.221 171.125 248.502 170.375C248.791 169.625 248.936 168.793 248.936 167.879H251.373C251.373 168.707 251.291 169.492 251.127 170.234C250.971 170.977 250.717 171.664 250.365 172.297C250.021 172.93 249.568 173.496 249.006 173.996C248.951 174.051 248.889 174.121 248.818 174.207C248.756 174.285 248.693 174.352 248.631 174.406C247.959 175.023 247.205 175.484 246.369 175.789C245.541 176.086 244.658 176.234 243.721 176.234C242.588 176.234 241.607 176.027 240.779 175.613C239.951 175.199 239.311 174.629 238.857 173.902C238.412 173.176 238.189 172.344 238.189 171.406C238.189 170.711 238.334 170.102 238.623 169.578C238.912 169.047 239.307 168.555 239.807 168.102C240.314 167.641 240.9 167.18 241.564 166.719ZM268.143 163.32H270.709V175.648C270.709 176.789 270.467 177.758 269.982 178.555C269.498 179.352 268.822 179.957 267.955 180.371C267.088 180.793 266.084 181.004 264.943 181.004C264.459 181.004 263.92 180.934 263.326 180.793C262.74 180.652 262.17 180.426 261.615 180.113C261.068 179.809 260.611 179.406 260.244 178.906L261.568 177.242C262.021 177.781 262.521 178.176 263.068 178.426C263.615 178.676 264.189 178.801 264.791 178.801C265.439 178.801 265.99 178.68 266.443 178.438C266.904 178.203 267.26 177.855 267.51 177.395C267.76 176.934 267.885 176.371 267.885 175.707V166.191L268.143 163.32ZM259.529 169.801V169.555C259.529 168.594 259.646 167.719 259.881 166.93C260.115 166.133 260.451 165.449 260.889 164.879C261.326 164.301 261.857 163.859 262.482 163.555C263.107 163.242 263.814 163.086 264.604 163.086C265.424 163.086 266.123 163.234 266.701 163.531C267.287 163.828 267.775 164.254 268.166 164.809C268.557 165.355 268.861 166.012 269.08 166.777C269.307 167.535 269.475 168.379 269.584 169.309V170.094C269.482 171 269.311 171.828 269.068 172.578C268.826 173.328 268.506 173.977 268.107 174.523C267.709 175.07 267.217 175.492 266.631 175.789C266.053 176.086 265.369 176.234 264.58 176.234C263.807 176.234 263.107 176.074 262.482 175.754C261.865 175.434 261.334 174.984 260.889 174.406C260.451 173.828 260.115 173.148 259.881 172.367C259.646 171.578 259.529 170.723 259.529 169.801ZM262.354 169.555V169.801C262.354 170.379 262.408 170.918 262.518 171.418C262.635 171.918 262.811 172.359 263.045 172.742C263.287 173.117 263.592 173.414 263.959 173.633C264.334 173.844 264.775 173.949 265.283 173.949C265.947 173.949 266.49 173.809 266.912 173.527C267.342 173.246 267.67 172.867 267.896 172.391C268.131 171.906 268.295 171.367 268.389 170.773V168.652C268.342 168.191 268.244 167.762 268.096 167.363C267.955 166.965 267.764 166.617 267.521 166.32C267.279 166.016 266.975 165.781 266.607 165.617C266.24 165.445 265.807 165.359 265.307 165.359C264.799 165.359 264.357 165.469 263.982 165.688C263.607 165.906 263.299 166.207 263.057 166.59C262.822 166.973 262.646 167.418 262.529 167.926C262.412 168.434 262.354 168.977 262.354 169.555ZM280.787 173.457V167.41C280.787 166.957 280.705 166.566 280.541 166.238C280.377 165.91 280.127 165.656 279.791 165.477C279.463 165.297 279.049 165.207 278.549 165.207C278.088 165.207 277.689 165.285 277.354 165.441C277.018 165.598 276.756 165.809 276.568 166.074C276.381 166.34 276.287 166.641 276.287 166.977H273.475C273.475 166.477 273.596 165.992 273.838 165.523C274.08 165.055 274.432 164.637 274.893 164.27C275.354 163.902 275.904 163.613 276.545 163.402C277.186 163.191 277.904 163.086 278.701 163.086C279.654 163.086 280.498 163.246 281.232 163.566C281.975 163.887 282.557 164.371 282.979 165.02C283.408 165.66 283.623 166.465 283.623 167.434V173.07C283.623 173.648 283.662 174.168 283.74 174.629C283.826 175.082 283.947 175.477 284.104 175.812V176H281.209C281.076 175.695 280.971 175.309 280.893 174.84C280.822 174.363 280.787 173.902 280.787 173.457ZM281.197 168.289L281.221 170.035H279.193C278.67 170.035 278.209 170.086 277.811 170.188C277.412 170.281 277.08 170.422 276.814 170.609C276.549 170.797 276.35 171.023 276.217 171.289C276.084 171.555 276.018 171.855 276.018 172.191C276.018 172.527 276.096 172.836 276.252 173.117C276.408 173.391 276.635 173.605 276.932 173.762C277.236 173.918 277.604 173.996 278.033 173.996C278.611 173.996 279.115 173.879 279.545 173.645C279.982 173.402 280.326 173.109 280.576 172.766C280.826 172.414 280.959 172.082 280.975 171.77L281.889 173.023C281.795 173.344 281.635 173.688 281.408 174.055C281.182 174.422 280.885 174.773 280.518 175.109C280.158 175.438 279.725 175.707 279.217 175.918C278.717 176.129 278.139 176.234 277.482 176.234C276.654 176.234 275.916 176.07 275.268 175.742C274.619 175.406 274.111 174.957 273.744 174.395C273.377 173.824 273.193 173.18 273.193 172.461C273.193 171.789 273.318 171.195 273.568 170.68C273.826 170.156 274.201 169.719 274.693 169.367C275.193 169.016 275.803 168.75 276.521 168.57C277.24 168.383 278.061 168.289 278.982 168.289H281.197ZM289.4 165.898V176H286.576V163.32H289.236L289.4 165.898ZM288.943 169.191L287.982 169.18C287.982 168.305 288.092 167.496 288.311 166.754C288.529 166.012 288.85 165.367 289.271 164.82C289.693 164.266 290.217 163.84 290.842 163.543C291.475 163.238 292.205 163.086 293.033 163.086C293.611 163.086 294.139 163.172 294.615 163.344C295.1 163.508 295.518 163.77 295.869 164.129C296.229 164.488 296.502 164.949 296.689 165.512C296.885 166.074 296.982 166.754 296.982 167.551V176H294.158V167.797C294.158 167.18 294.064 166.695 293.877 166.344C293.697 165.992 293.436 165.742 293.092 165.594C292.756 165.438 292.354 165.359 291.885 165.359C291.354 165.359 290.9 165.461 290.525 165.664C290.158 165.867 289.857 166.145 289.623 166.496C289.389 166.848 289.217 167.254 289.107 167.715C288.998 168.176 288.943 168.668 288.943 169.191ZM296.807 168.441L295.482 168.734C295.482 167.969 295.588 167.246 295.799 166.566C296.018 165.879 296.334 165.277 296.748 164.762C297.17 164.238 297.689 163.828 298.307 163.531C298.924 163.234 299.631 163.086 300.428 163.086C301.076 163.086 301.654 163.176 302.162 163.355C302.678 163.527 303.115 163.801 303.475 164.176C303.834 164.551 304.107 165.039 304.295 165.641C304.482 166.234 304.576 166.953 304.576 167.797V176H301.74V167.785C301.74 167.145 301.646 166.648 301.459 166.297C301.279 165.945 301.021 165.703 300.686 165.57C300.35 165.43 299.947 165.359 299.479 165.359C299.041 165.359 298.654 165.441 298.318 165.605C297.99 165.762 297.713 165.984 297.486 166.273C297.26 166.555 297.088 166.879 296.971 167.246C296.861 167.613 296.807 168.012 296.807 168.441ZM313.072 176.234C312.135 176.234 311.287 176.082 310.529 175.777C309.779 175.465 309.139 175.031 308.607 174.477C308.084 173.922 307.682 173.27 307.4 172.52C307.119 171.77 306.979 170.961 306.979 170.094V169.625C306.979 168.633 307.123 167.734 307.412 166.93C307.701 166.125 308.104 165.438 308.619 164.867C309.135 164.289 309.744 163.848 310.447 163.543C311.15 163.238 311.912 163.086 312.732 163.086C313.639 163.086 314.432 163.238 315.111 163.543C315.791 163.848 316.354 164.277 316.799 164.832C317.252 165.379 317.588 166.031 317.807 166.789C318.033 167.547 318.146 168.383 318.146 169.297V170.504H308.35V168.477H315.357V168.254C315.342 167.746 315.24 167.27 315.053 166.824C314.873 166.379 314.596 166.02 314.221 165.746C313.846 165.473 313.346 165.336 312.721 165.336C312.252 165.336 311.834 165.438 311.467 165.641C311.107 165.836 310.807 166.121 310.564 166.496C310.322 166.871 310.135 167.324 310.002 167.855C309.877 168.379 309.814 168.969 309.814 169.625V170.094C309.814 170.648 309.889 171.164 310.037 171.641C310.193 172.109 310.42 172.52 310.717 172.871C311.014 173.223 311.373 173.5 311.795 173.703C312.217 173.898 312.697 173.996 313.236 173.996C313.916 173.996 314.521 173.859 315.053 173.586C315.584 173.312 316.045 172.926 316.436 172.426L317.924 173.867C317.65 174.266 317.295 174.648 316.857 175.016C316.42 175.375 315.885 175.668 315.252 175.895C314.627 176.121 313.9 176.234 313.072 176.234ZM327.463 172.566C327.463 172.285 327.393 172.031 327.252 171.805C327.111 171.57 326.842 171.359 326.443 171.172C326.053 170.984 325.475 170.812 324.709 170.656C324.037 170.508 323.42 170.332 322.857 170.129C322.303 169.918 321.826 169.664 321.428 169.367C321.029 169.07 320.721 168.719 320.502 168.312C320.283 167.906 320.174 167.438 320.174 166.906C320.174 166.391 320.287 165.902 320.514 165.441C320.74 164.98 321.064 164.574 321.486 164.223C321.908 163.871 322.42 163.594 323.021 163.391C323.631 163.188 324.311 163.086 325.061 163.086C326.123 163.086 327.033 163.266 327.791 163.625C328.557 163.977 329.143 164.457 329.549 165.066C329.955 165.668 330.158 166.348 330.158 167.105H327.334C327.334 166.77 327.248 166.457 327.076 166.168C326.912 165.871 326.662 165.633 326.326 165.453C325.99 165.266 325.568 165.172 325.061 165.172C324.576 165.172 324.174 165.25 323.854 165.406C323.541 165.555 323.307 165.75 323.15 165.992C323.002 166.234 322.928 166.5 322.928 166.789C322.928 167 322.967 167.191 323.045 167.363C323.131 167.527 323.271 167.68 323.467 167.82C323.662 167.953 323.928 168.078 324.264 168.195C324.607 168.312 325.037 168.426 325.553 168.535C326.521 168.738 327.354 169 328.049 169.32C328.752 169.633 329.291 170.039 329.666 170.539C330.041 171.031 330.229 171.656 330.229 172.414C330.229 172.977 330.107 173.492 329.865 173.961C329.631 174.422 329.287 174.824 328.834 175.168C328.381 175.504 327.838 175.766 327.205 175.953C326.58 176.141 325.877 176.234 325.096 176.234C323.947 176.234 322.975 176.031 322.178 175.625C321.381 175.211 320.775 174.684 320.361 174.043C319.955 173.395 319.752 172.723 319.752 172.027H322.482C322.514 172.551 322.658 172.969 322.916 173.281C323.182 173.586 323.51 173.809 323.9 173.949C324.299 174.082 324.709 174.148 325.131 174.148C325.639 174.148 326.064 174.082 326.408 173.949C326.752 173.809 327.014 173.621 327.193 173.387C327.373 173.145 327.463 172.871 327.463 172.566ZM332.818 174.594C332.818 174.156 332.967 173.789 333.264 173.492C333.561 173.188 333.963 173.035 334.471 173.035C334.986 173.035 335.389 173.188 335.678 173.492C335.975 173.789 336.123 174.156 336.123 174.594C336.123 175.031 335.975 175.398 335.678 175.695C335.389 175.992 334.986 176.141 334.471 176.141C333.963 176.141 333.561 175.992 333.264 175.695C332.967 175.398 332.818 175.031 332.818 174.594Z" fill="white"/>
</svg>
