<svg width="168" height="66" viewBox="0 0 168 66" fill="none" xmlns="http://www.w3.org/2000/svg">
<path d="M167.927 46.0452H161.469V52.5039H167.927V46.0452Z" fill="#9CE9FE"/>
<path d="M167.927 39.5869H161.469V46.0456H167.927V39.5869Z" fill="#CAF1FC"/>
<path d="M167.927 33.1277H161.469V39.5864H167.927V33.1277Z" fill="white"/>
<path d="M161.47 52.5044H155.012V58.9631H161.47V52.5044Z" fill="#5FDBFD"/>
<path d="M161.47 46.0452H155.012V52.5039H161.47V46.0452Z" fill="#9CE9FE"/>
<path d="M161.47 39.5869H155.012V46.0456H161.47V39.5869Z" fill="#CAF1FC"/>
<path d="M161.47 33.1277H155.012V39.5864H161.47V33.1277Z" fill="#CAF1FC"/>
<path d="M161.47 26.6694H155.012V33.1282H161.47V26.6694Z" fill="white"/>
<path d="M161.47 20.2102H155.012V26.6689H161.47V20.2102Z" fill="white"/>
<path d="M155.013 52.5044H148.555V58.9631H155.013V52.5044Z" fill="#5FDBFD"/>
<path d="M155.013 46.0452H148.555V52.5039H155.013V46.0452Z" fill="#9CE9FE"/>
<path d="M155.013 39.5869H148.555V46.0456H155.013V39.5869Z" fill="#9CE9FE"/>
<path d="M155.013 33.1277H148.555V39.5864H155.013V33.1277Z" fill="#CAF1FC"/>
<path d="M155.013 26.6694H148.555V33.1282H155.013V26.6694Z" fill="#CAF1FC"/>
<path d="M155.013 20.2102H148.555V26.6689H155.013V20.2102Z" fill="white"/>
<path d="M155.013 13.752H148.555V20.2107H155.013V13.752Z" fill="white"/>
<path d="M148.549 52.5044H142.09V58.9631H148.549V52.5044Z" fill="#5FDBFD"/>
<path d="M148.549 46.0452H142.09V52.5039H148.549V46.0452Z" fill="#5FDBFD"/>
<path d="M148.549 39.5869H142.09V46.0456H148.549V39.5869Z" fill="#9CE9FE"/>
<path d="M148.549 33.1277H142.09V39.5864H148.549V33.1277Z" fill="#9CE9FE"/>
<path d="M148.549 26.6694H142.09V33.1282H148.549V26.6694Z" fill="#CAF1FC"/>
<path d="M148.549 20.2102H142.09V26.6689H148.549V20.2102Z" fill="#CAF1FC"/>
<path d="M148.549 13.752H142.09V20.2107H148.549V13.752Z" fill="white"/>
<path d="M142.092 58.9626H135.633V65.4214H142.092V58.9626Z" fill="#9CE9FE"/>
<path d="M142.092 52.5044H135.633V58.9631H142.092V52.5044Z" fill="#CAF1FC"/>
<path d="M142.092 46.0452H135.633V52.5039H142.092V46.0452Z" fill="white"/>
<path d="M142.092 39.5869H135.633V46.0456H142.092V39.5869Z" fill="white"/>
<path d="M142.092 33.1277H135.633V39.5864H142.092V33.1277Z" fill="#9CE9FE"/>
<path d="M142.092 26.6694H135.633V33.1282H142.092V26.6694Z" fill="#9CE9FE"/>
<path d="M142.092 20.2102H135.633V26.6689H142.092V20.2102Z" fill="#CAF1FC"/>
<path d="M142.092 13.752H135.633V20.2107H142.092V13.752Z" fill="white"/>
<path d="M135.631 58.9626H129.172V65.4214H135.631V58.9626Z" fill="#9CE9FE"/>
<path d="M135.631 52.5044H129.172V58.9631H135.631V52.5044Z" fill="#CAF1FC"/>
<path d="M135.631 46.0452H129.172V52.5039H135.631V46.0452Z" fill="#CAF1FC"/>
<path d="M135.631 39.5869H129.172V46.0456H135.631V39.5869Z" fill="#CAF1FC"/>
<path d="M135.631 33.1277H129.172V39.5864H135.631V33.1277Z" fill="white"/>
<path d="M135.631 26.6694H129.172V33.1282H135.631V26.6694Z" fill="white"/>
<path d="M135.631 20.2102H129.172V26.6689H135.631V20.2102Z" fill="#CAF1FC"/>
<path d="M129.174 58.9626H122.715V65.4214H129.174V58.9626Z" fill="#9CE9FE"/>
<path d="M129.174 52.5044H122.715V58.9631H129.174V52.5044Z" fill="#9CE9FE"/>
<path d="M129.174 46.0452H122.715V52.5039H129.174V46.0452Z" fill="#CAF1FC"/>
<path d="M129.174 39.5869H122.715V46.0456H129.174V39.5869Z" fill="#CAF1FC"/>
<path d="M129.174 33.1277H122.715V39.5864H129.174V33.1277Z" fill="#CAF1FC"/>
<path d="M129.174 26.6694H122.715V33.1282H129.174V26.6694Z" fill="white"/>
<path d="M129.174 20.2102H122.715V26.6689H129.174V20.2102Z" fill="white"/>
<path d="M129.174 13.752H122.715V20.2107H129.174V13.752Z" fill="white"/>
<path d="M122.717 58.9626H116.258V65.4214H122.717V58.9626Z" fill="#5FDBFD"/>
<path d="M122.717 52.5044H116.258V58.9631H122.717V52.5044Z" fill="#9CE9FE"/>
<path d="M122.717 46.0452H116.258V52.5039H122.717V46.0452Z" fill="#9CE9FE"/>
<path d="M122.717 39.5869H116.258V46.0456H122.717V39.5869Z" fill="#CAF1FC"/>
<path d="M122.717 33.1277H116.258V39.5864H122.717V33.1277Z" fill="#CAF1FC"/>
<path d="M122.717 26.6694H116.258V33.1282H122.717V26.6694Z" fill="#CAF1FC"/>
<path d="M122.717 20.2102H116.258V26.6689H122.717V20.2102Z" fill="white"/>
<path d="M122.717 13.752H116.258V20.2107H122.717V13.752Z" fill="white"/>
<path d="M122.717 7.29272H116.258V13.7514H122.717V7.29272Z" fill="white"/>
<path d="M116.256 58.9626H109.797V65.4214H116.256V58.9626Z" fill="#5FDBFD"/>
<path d="M116.256 52.5044H109.797V58.9631H116.256V52.5044Z" fill="#9CE9FE"/>
<path d="M116.256 46.0452H109.797V52.5039H116.256V46.0452Z" fill="#9CE9FE"/>
<path d="M116.256 39.5869H109.797V46.0456H116.256V39.5869Z" fill="#9CE9FE"/>
<path d="M116.256 33.1277H109.797V39.5864H116.256V33.1277Z" fill="#9CE9FE"/>
<path d="M116.256 26.6694H109.797V33.1282H116.256V26.6694Z" fill="#CAF1FC"/>
<path d="M116.256 20.2102H109.797V26.6689H116.256V20.2102Z" fill="#CAF1FC"/>
<path d="M116.256 13.752H109.797V20.2107H116.256V13.752Z" fill="white"/>
<path d="M116.256 7.29272H109.797V13.7514H116.256V7.29272Z" fill="white"/>
<path d="M116.256 0.834473H109.797V7.2932H116.256V0.834473Z" fill="white"/>
<path d="M109.799 58.9626H103.34V65.4214H109.799V58.9626Z" fill="#5FDBFD"/>
<path d="M109.799 52.5044H103.34V58.9631H109.799V52.5044Z" fill="#9CE9FE"/>
<path d="M109.799 46.0452H103.34V52.5039H109.799V46.0452Z" fill="#9CE9FE"/>
<path d="M109.799 39.5869H103.34V46.0456H109.799V39.5869Z" fill="#9CE9FE"/>
<path d="M109.799 33.1277H103.34V39.5864H109.799V33.1277Z" fill="#9CE9FE"/>
<path d="M109.799 26.6694H103.34V33.1282H109.799V26.6694Z" fill="#9CE9FE"/>
<path d="M109.799 20.2102H103.34V26.6689H109.799V20.2102Z" fill="#CAF1FC"/>
<path d="M109.799 13.752H103.34V20.2107H109.799V13.752Z" fill="#CAF1FC"/>
<path d="M109.799 7.29272H103.34V13.7514H109.799V7.29272Z" fill="white"/>
<path d="M109.799 0.834473H103.34V7.2932H109.799V0.834473Z" fill="white"/>
<path d="M103.342 58.9626H96.8828V65.4214H103.342V58.9626Z" fill="#5FDBFD"/>
<path d="M103.342 52.5044H96.8828V58.9631H103.342V52.5044Z" fill="#5FDBFD"/>
<path d="M103.342 46.0452H96.8828V52.5039H103.342V46.0452Z" fill="#9CE9FE"/>
<path d="M103.342 39.5869H96.8828V46.0456H103.342V39.5869Z" fill="#9CE9FE"/>
<path d="M103.342 33.1277H96.8828V39.5864H103.342V33.1277Z" fill="#9CE9FE"/>
<path d="M103.342 26.6694H96.8828V33.1282H103.342V26.6694Z" fill="#9CE9FE"/>
<path d="M103.342 20.2102H96.8828V26.6689H103.342V20.2102Z" fill="#CAF1FC"/>
<path d="M103.342 13.752H96.8828V20.2107H103.342V13.752Z" fill="#CAF1FC"/>
<path d="M103.342 7.29272H96.8828V13.7514H103.342V7.29272Z" fill="#CAF1FC"/>
<path d="M103.342 0.834473H96.8828V7.2932H103.342V0.834473Z" fill="white"/>
<path d="M96.8806 58.9626H90.4219V65.4214H96.8806V58.9626Z" fill="#5FDBFD"/>
<path d="M96.8806 52.5044H90.4219V58.9631H96.8806V52.5044Z" fill="#5FDBFD"/>
<path d="M96.8806 46.0452H90.4219V52.5039H96.8806V46.0452Z" fill="#5FDBFD"/>
<path d="M96.8806 39.5869H90.4219V46.0456H96.8806V39.5869Z" fill="#9CE9FE"/>
<path d="M96.8806 33.1277H90.4219V39.5864H96.8806V33.1277Z" fill="#9CE9FE"/>
<path d="M96.8806 26.6694H90.4219V33.1282H96.8806V26.6694Z" fill="#9CE9FE"/>
<path d="M96.8806 20.2102H90.4219V26.6689H96.8806V20.2102Z" fill="#9CE9FE"/>
<path d="M96.8806 13.752H90.4219V20.2107H96.8806V13.752Z" fill="#CAF1FC"/>
<path d="M96.8806 7.29272H90.4219V13.7514H96.8806V7.29272Z" fill="#CAF1FC"/>
<path d="M96.8806 0.834473H90.4219V7.2932H96.8806V0.834473Z" fill="white"/>
<path d="M90.4236 58.9626H83.9648V65.4214H90.4236V58.9626Z" fill="#5FDBFD"/>
<path d="M90.4236 52.5044H83.9648V58.9631H90.4236V52.5044Z" fill="#5FDBFD"/>
<path d="M90.4236 46.0452H83.9648V52.5039H90.4236V46.0452Z" fill="#5FDBFD"/>
<path d="M90.4236 39.5869H83.9648V46.0456H90.4236V39.5869Z" fill="#5FDBFD"/>
<path d="M90.4236 33.1277H83.9648V39.5864H90.4236V33.1277Z" fill="#9CE9FE"/>
<path d="M90.4236 26.6694H83.9648V33.1282H90.4236V26.6694Z" fill="#9CE9FE"/>
<path d="M90.4236 20.2102H83.9648V26.6689H90.4236V20.2102Z" fill="#9CE9FE"/>
<path d="M90.4236 13.752H83.9648V20.2107H90.4236V13.752Z" fill="#CAF1FC"/>
<path d="M90.4236 7.29272H83.9648V13.7514H90.4236V7.29272Z" fill="#CAF1FC"/>
<path d="M90.4236 0.834473H83.9648V7.2932H90.4236V0.834473Z" fill="white"/>
<path d="M83.9626 52.5044H77.5039V58.9631H83.9626V52.5044Z" fill="#5FDBFD"/>
<path d="M83.9626 46.0452H77.5039V52.5039H83.9626V46.0452Z" fill="#5FDBFD"/>
<path d="M83.9626 39.5869H77.5039V46.0456H83.9626V39.5869Z" fill="#5FDBFD"/>
<path d="M83.9626 33.1277H77.5039V39.5864H83.9626V33.1277Z" fill="#5FDBFD"/>
<path d="M83.9626 26.6694H77.5039V33.1282H83.9626V26.6694Z" fill="#9CE9FE"/>
<path d="M83.9626 20.2102H77.5039V26.6689H83.9626V20.2102Z" fill="#9CE9FE"/>
<path d="M83.9626 13.752H77.5039V20.2107H83.9626V13.752Z" fill="#CAF1FC"/>
<path d="M83.9626 7.29272H77.5039V13.7514H83.9626V7.29272Z" fill="white"/>
<path d="M83.9626 0.834473H77.5039V7.2932H83.9626V0.834473Z" fill="white"/>
<path d="M77.5056 52.5044H71.0469V58.9631H77.5056V52.5044Z" fill="#5FDBFD"/>
<path d="M77.5056 46.0452H71.0469V52.5039H77.5056V46.0452Z" fill="#5FDBFD"/>
<path d="M77.5056 39.5869H71.0469V46.0456H77.5056V39.5869Z" fill="#5FDBFD"/>
<path d="M77.5056 33.1277H71.0469V39.5864H77.5056V33.1277Z" fill="#5FDBFD"/>
<path d="M77.5056 26.6694H71.0469V33.1282H77.5056V26.6694Z" fill="#9CE9FE"/>
<path d="M77.5056 20.2102H71.0469V26.6689H77.5056V20.2102Z" fill="#CAF1FC"/>
<path d="M77.5056 13.752H71.0469V20.2107H77.5056V13.752Z" fill="#CAF1FC"/>
<path d="M77.5056 7.29272H71.0469V13.7514H77.5056V7.29272Z" fill="white"/>
<path d="M71.0486 52.5044H64.5898V58.9631H71.0486V52.5044Z" fill="#5FDBFD"/>
<path d="M71.0486 46.0452H64.5898V52.5039H71.0486V46.0452Z" fill="#5FDBFD"/>
<path d="M71.0486 39.5869H64.5898V46.0456H71.0486V39.5869Z" fill="#5FDBFD"/>
<path d="M71.0486 33.1277H64.5898V39.5864H71.0486V33.1277Z" fill="#9CE9FE"/>
<path d="M71.0486 26.6694H64.5898V33.1282H71.0486V26.6694Z" fill="#CAF1FC"/>
<path d="M71.0486 20.2102H64.5898V26.6689H71.0486V20.2102Z" fill="#CAF1FC"/>
<path d="M71.0486 13.752H64.5898V20.2107H71.0486V13.752Z" fill="white"/>
<path d="M64.5837 52.5044H58.125V58.9631H64.5837V52.5044Z" fill="#CAF1FC"/>
<path d="M64.5837 46.0452H58.125V52.5039H64.5837V46.0452Z" fill="#5FDBFD"/>
<path d="M64.5837 39.5869H58.125V46.0456H64.5837V39.5869Z" fill="#9CE9FE"/>
<path d="M64.5837 33.1277H58.125V39.5864H64.5837V33.1277Z" fill="#9CE9FE"/>
<path d="M64.5837 26.6694H58.125V33.1282H64.5837V26.6694Z" fill="#CAF1FC"/>
<path d="M64.5837 20.2102H58.125V26.6689H64.5837V20.2102Z" fill="white"/>
<path d="M58.1306 58.9626H51.6719V65.4214H58.1306V58.9626Z" fill="#9CE9FE"/>
<path d="M58.1306 52.5044H51.6719V58.9631H58.1306V52.5044Z" fill="#CAF1FC"/>
<path d="M58.1306 46.0452H51.6719V52.5039H58.1306V46.0452Z" fill="#CAF1FC"/>
<path d="M58.1306 39.5869H51.6719V46.0456H58.1306V39.5869Z" fill="#CAF1FC"/>
<path d="M58.1306 33.1277H51.6719V39.5864H58.1306V33.1277Z" fill="#CAF1FC"/>
<path d="M58.1306 26.6694H51.6719V33.1282H58.1306V26.6694Z" fill="#9CE9FE"/>
<path d="M51.6736 58.9626H45.2148V65.4214H51.6736V58.9626Z" fill="#9CE9FE"/>
<path d="M51.6736 52.5044H45.2148V58.9631H51.6736V52.5044Z" fill="#9CE9FE"/>
<path d="M51.6736 46.0452H45.2148V52.5039H51.6736V46.0452Z" fill="#CAF1FC"/>
<path d="M51.6736 39.5869H45.2148V46.0456H51.6736V39.5869Z" fill="#CAF1FC"/>
<path d="M51.6736 33.1277H45.2148V39.5864H51.6736V33.1277Z" fill="white"/>
<path d="M51.6736 26.6694H45.2148V33.1282H51.6736V26.6694Z" fill="white"/>
<path d="M51.6736 20.2102H45.2148V26.6689H51.6736V20.2102Z" fill="white"/>
<path d="M45.2087 58.9626H38.75V65.4214H45.2087V58.9626Z" fill="#5FDBFD"/>
<path d="M45.2087 52.5044H38.75V58.9631H45.2087V52.5044Z" fill="#9CE9FE"/>
<path d="M45.2087 46.0452H38.75V52.5039H45.2087V46.0452Z" fill="#CAF1FC"/>
<path d="M45.2087 39.5869H38.75V46.0456H45.2087V39.5869Z" fill="#CAF1FC"/>
<path d="M45.2087 33.1277H38.75V39.5864H45.2087V33.1277Z" fill="#CAF1FC"/>
<path d="M45.2087 26.6694H38.75V33.1282H45.2087V26.6694Z" fill="white"/>
<path d="M45.2087 20.2102H38.75V26.6689H45.2087V20.2102Z" fill="white"/>
<path d="M38.7517 58.9626H32.293V65.4214H38.7517V58.9626Z" fill="#5FDBFD"/>
<path d="M38.7517 52.5044H32.293V58.9631H38.7517V52.5044Z" fill="#9CE9FE"/>
<path d="M38.7517 46.0452H32.293V52.5039H38.7517V46.0452Z" fill="#9CE9FE"/>
<path d="M38.7517 39.5869H32.293V46.0456H38.7517V39.5869Z" fill="#CAF1FC"/>
<path d="M38.7517 33.1277H32.293V39.5864H38.7517V33.1277Z" fill="#CAF1FC"/>
<path d="M38.7517 26.6694H32.293V33.1282H38.7517V26.6694Z" fill="#CAF1FC"/>
<path d="M38.7517 20.2102H32.293V26.6689H38.7517V20.2102Z" fill="white"/>
<path d="M38.7517 13.752H32.293V20.2107H38.7517V13.752Z" fill="white"/>
<path d="M32.2908 58.9626H25.832V65.4214H32.2908V58.9626Z" fill="#5FDBFD"/>
<path d="M32.2908 52.5044H25.832V58.9631H32.2908V52.5044Z" fill="#9CE9FE"/>
<path d="M32.2908 46.0452H25.832V52.5039H32.2908V46.0452Z" fill="#9CE9FE"/>
<path d="M32.2908 39.5869H25.832V46.0456H32.2908V39.5869Z" fill="#9CE9FE"/>
<path d="M32.2908 33.1277H25.832V39.5864H32.2908V33.1277Z" fill="#CAF1FC"/>
<path d="M32.2908 26.6694H25.832V33.1282H32.2908V26.6694Z" fill="#CAF1FC"/>
<path d="M32.2908 20.2102H25.832V26.6689H32.2908V20.2102Z" fill="#CAF1FC"/>
<path d="M32.2908 13.752H25.832V20.2107H32.2908V13.752Z" fill="white"/>
<path d="M25.8337 58.9626H19.375V65.4214H25.8337V58.9626Z" fill="#5FDBFD"/>
<path d="M25.8337 52.5044H19.375V58.9631H25.8337V52.5044Z" fill="#5FDBFD"/>
<path d="M25.8337 46.0452H19.375V52.5039H25.8337V46.0452Z" fill="#9CE9FE"/>
<path d="M25.8337 39.5869H19.375V46.0456H25.8337V39.5869Z" fill="#9CE9FE"/>
<path d="M25.8337 33.1277H19.375V39.5864H25.8337V33.1277Z" fill="#9CE9FE"/>
<path d="M25.8337 26.6694H19.375V33.1282H25.8337V26.6694Z" fill="#CAF1FC"/>
<path d="M25.8337 20.2102H19.375V26.6689H25.8337V20.2102Z" fill="#CAF1FC"/>
<path d="M25.8337 13.752H19.375V20.2107H25.8337V13.752Z" fill="white"/>
<path d="M19.3767 52.5044H12.918V58.9631H19.3767V52.5044Z" fill="#5FDBFD"/>
<path d="M19.3767 46.0452H12.918V52.5039H19.3767V46.0452Z" fill="#5FDBFD"/>
<path d="M19.3767 39.5869H12.918V46.0456H19.3767V39.5869Z" fill="#9CE9FE"/>
<path d="M19.3767 33.1277H12.918V39.5864H19.3767V33.1277Z" fill="#CAF1FC"/>
<path d="M19.3767 26.6694H12.918V33.1282H19.3767V26.6694Z" fill="#CAF1FC"/>
<path d="M19.3767 20.2102H12.918V26.6689H19.3767V20.2102Z" fill="white"/>
<path d="M12.9158 52.5044H6.45703V58.9631H12.9158V52.5044Z" fill="#5FDBFD"/>
<path d="M12.9158 46.0452H6.45703V52.5039H12.9158V46.0452Z" fill="#9CE9FE"/>
<path d="M12.9158 39.5869H6.45703V46.0456H12.9158V39.5869Z" fill="#CAF1FC"/>
<path d="M12.9158 33.1277H6.45703V39.5864H12.9158V33.1277Z" fill="white"/>
<path d="M12.9158 26.6694H6.45703V33.1282H12.9158V26.6694Z" fill="white"/>
<path d="M6.45872 39.5869H0V46.0456H6.45872V39.5869Z" fill="#CAF1FC"/>
<path d="M6.45872 33.1277H0V39.5864H6.45872V33.1277Z" fill="white"/>
</svg>
