<svg width="408" height="227" viewBox="0 0 408 227" fill="none" xmlns="http://www.w3.org/2000/svg">
<path d="M408 191.158H398V203.105H388V215.053H378V227H30V215.053H20V203.105H10V191.158H0V59.7373H408V191.158ZM378 11.9473H388V23.8945H398V35.8418H408V59.7363H0V35.8418H10V23.8945H20V11.9473H30V0H378V11.9473Z" fill="#D0376D"/>
<rect x="68.0508" y="50.3481" width="7.21053" height="6.88889" fill="#FDE1D3"/>
<rect x="60.8398" y="43.4595" width="7.21053" height="6.88889" fill="#FDE1D3"/>
<rect x="53.6289" y="43.4595" width="7.21053" height="6.88889" fill="#FDE1D3"/>
<rect x="46.418" y="49.8887" width="7.21053" height="6.88889" fill="#FDE1D3"/>
<rect x="39.2109" y="57.2368" width="7.21053" height="6.88889" fill="#FDE1D3"/>
<rect x="39.2109" y="63.6665" width="7.21053" height="6.88889" fill="#FDE1D3"/>
<rect x="46.418" y="70.5557" width="7.21053" height="6.88889" fill="#FDE1D3"/>
<rect x="53.6289" y="77.4443" width="7.21053" height="6.88889" fill="#FDE1D3"/>
<rect x="60.8398" y="84.3335" width="7.21053" height="6.88889" fill="#FDE1D3"/>
<rect x="68.0508" y="91.2222" width="7.21053" height="6.88889" fill="#FDE1D3"/>
<rect x="75.2617" y="98.1113" width="7.21053" height="6.88889" fill="#FDE1D3"/>
<rect x="82.4727" y="91.2222" width="7.21053" height="6.88889" fill="#FDE1D3"/>
<rect x="89.6836" y="84.3335" width="7.21053" height="6.88889" fill="#FDE1D3"/>
<rect x="96.8926" y="77.4443" width="7.21053" height="6.88889" fill="#FDE1D3"/>
<rect x="104.104" y="70.5557" width="7.21053" height="6.88889" fill="#FDE1D3"/>
<rect x="111.314" y="63.6665" width="7.21053" height="6.88889" fill="#FDE1D3"/>
<rect x="111.314" y="57.2368" width="7.21053" height="6.88889" fill="#FDE1D3"/>
<rect x="104.104" y="49.8887" width="7.21053" height="6.88889" fill="#FDE1D3"/>
<rect x="96.8926" y="43" width="7.21053" height="6.88889" fill="#FDE1D3"/>
<rect x="89.6836" y="43" width="7.21053" height="6.88889" fill="#FDE1D3"/>
<rect x="82.4727" y="49.8887" width="7.21053" height="6.88889" fill="#FDE1D3"/>
<rect x="75.2617" y="57.2368" width="7.21053" height="6.88889" fill="#FDE1D3"/>
<rect x="60.8398" y="56.7778" width="7.21053" height="6.88889" fill="#FFDBF7"/>
<rect x="53.6289" y="63.6665" width="7.21053" height="6.88889" fill="#FFDBF7"/>
<rect x="68.0508" y="98.1113" width="7.21053" height="6.88889" fill="white"/>
<rect x="60.8398" y="91.2222" width="7.21053" height="6.88889" fill="white"/>
<rect x="75.2617" y="50.3481" width="7.21053" height="6.88889" fill="white"/>
<rect x="53.6289" y="84.3335" width="7.21053" height="6.88889" fill="white"/>
<rect x="46.418" y="77.4443" width="7.21053" height="6.88889" fill="white"/>
<rect x="39.2109" y="70.5557" width="7.21053" height="6.88889" fill="white"/>
<rect x="32" y="63.6665" width="7.21053" height="6.88889" fill="white"/>
<rect x="32" y="57.2368" width="7.21053" height="6.88889" fill="white"/>
<rect x="39.2109" y="50.3481" width="7.21053" height="6.88889" fill="white"/>
<rect x="46.418" y="43.4595" width="7.21053" height="6.88889" fill="white"/>
<rect x="82.4727" y="43" width="7.21053" height="6.88889" fill="white"/>
<path d="M154.813 47.52C154.813 48.164 154.757 48.724 154.645 49.2C154.757 49.648 154.813 50.208 154.813 50.88C154.813 51.524 154.757 52.084 154.645 52.56H152.965C153.077 53.008 153.133 53.568 153.133 54.24C153.133 54.884 153.077 55.444 152.965 55.92H144.565C144.677 56.368 144.733 56.928 144.733 57.6C144.733 58.244 144.677 58.804 144.565 59.28C144.677 59.728 144.733 60.288 144.733 60.96C144.733 61.604 144.677 62.164 144.565 62.64C144.677 63.088 144.733 63.648 144.733 64.32C144.733 64.964 144.677 65.524 144.565 66H141.205C141.093 65.524 141.037 64.964 141.037 64.32C141.037 63.648 141.093 63.088 141.205 62.64C141.093 62.164 141.037 61.604 141.037 60.96C141.037 60.288 141.093 59.728 141.205 59.28C141.093 58.804 141.037 58.244 141.037 57.6C141.037 56.928 141.093 56.368 141.205 55.92C141.093 55.444 141.037 54.884 141.037 54.24C141.037 53.568 141.093 53.008 141.205 52.56C141.093 52.084 141.037 51.524 141.037 50.88C141.037 50.208 141.093 49.648 141.205 49.2C141.093 48.724 141.037 48.164 141.037 47.52C141.037 46.848 141.093 46.288 141.205 45.84C141.093 45.364 141.037 44.804 141.037 44.16C141.037 43.488 141.093 42.928 141.205 42.48H152.965C153.077 42.928 153.133 43.488 153.133 44.16C153.133 44.804 153.077 45.364 152.965 45.84H154.645C154.757 46.288 154.813 46.848 154.813 47.52ZM151.285 52.56C151.173 52.084 151.117 51.524 151.117 50.88C151.117 50.208 151.173 49.648 151.285 49.2C151.173 48.724 151.117 48.164 151.117 47.52C151.117 46.848 151.173 46.288 151.285 45.84H144.565C144.677 46.288 144.733 46.848 144.733 47.52C144.733 48.164 144.677 48.724 144.565 49.2C144.677 49.648 144.733 50.208 144.733 50.88C144.733 51.524 144.677 52.084 144.565 52.56H151.285ZM163.062 45.84C162.95 45.364 162.894 44.804 162.894 44.16C162.894 43.488 162.95 42.928 163.062 42.48H166.422C166.534 42.928 166.59 43.488 166.59 44.16C166.59 44.804 166.534 45.364 166.422 45.84H163.062ZM169.782 62.64C169.894 63.088 169.95 63.648 169.95 64.32C169.95 64.964 169.894 65.524 169.782 66H159.702C159.59 65.524 159.534 64.964 159.534 64.32C159.534 63.648 159.59 63.088 159.702 62.64H163.062C162.95 62.164 162.894 61.604 162.894 60.96C162.894 60.288 162.95 59.728 163.062 59.28C162.95 58.804 162.894 58.244 162.894 57.6C162.894 56.928 162.95 56.368 163.062 55.92C162.95 55.444 162.894 54.884 162.894 54.24C162.894 53.568 162.95 53.008 163.062 52.56H160.542C160.43 52.084 160.374 51.524 160.374 50.88C160.374 50.208 160.43 49.648 160.542 49.2H166.422C166.534 49.648 166.59 50.208 166.59 50.88C166.59 51.524 166.534 52.084 166.422 52.56C166.534 53.008 166.59 53.568 166.59 54.24C166.59 54.884 166.534 55.444 166.422 55.92C166.534 56.368 166.59 56.928 166.59 57.6C166.59 58.244 166.534 58.804 166.422 59.28C166.534 59.728 166.59 60.288 166.59 60.96C166.59 61.604 166.534 62.164 166.422 62.64H169.782ZM188.278 59.28C188.39 59.728 188.446 60.288 188.446 60.96C188.446 61.604 188.39 62.164 188.278 62.64H186.598C186.71 63.088 186.766 63.648 186.766 64.32C186.766 64.964 186.71 65.524 186.598 66H178.198C178.086 65.524 178.03 64.964 178.03 64.32C178.03 63.648 178.086 63.088 178.198 62.64H176.518C176.406 62.164 176.35 61.604 176.35 60.96C176.35 60.288 176.406 59.728 176.518 59.28H174.838C174.726 58.804 174.67 58.244 174.67 57.6C174.67 56.928 174.726 56.368 174.838 55.92H176.518C176.406 55.444 176.35 54.884 176.35 54.24C176.35 53.568 176.406 53.008 176.518 52.56H178.198C178.086 52.084 178.03 51.524 178.03 50.88C178.03 50.208 178.086 49.648 178.198 49.2H186.598C186.71 49.648 186.766 50.208 186.766 50.88C186.766 51.524 186.71 52.084 186.598 52.56H188.278C188.39 53.008 188.446 53.568 188.446 54.24C188.446 54.884 188.39 55.444 188.278 55.92H184.918C184.806 55.444 184.75 54.884 184.75 54.24C184.75 53.568 184.806 53.008 184.918 52.56H179.878C179.99 53.008 180.046 53.568 180.046 54.24C180.046 54.884 179.99 55.444 179.878 55.92H178.198C178.31 56.368 178.366 56.928 178.366 57.6C178.366 58.244 178.31 58.804 178.198 59.28H179.878C179.99 59.728 180.046 60.288 180.046 60.96C180.046 61.604 179.99 62.164 179.878 62.64H184.918C184.806 62.164 184.75 61.604 184.75 60.96C184.75 60.288 184.806 59.728 184.918 59.28H188.278ZM205.095 62.64C205.207 63.088 205.263 63.648 205.263 64.32C205.263 64.964 205.207 65.524 205.095 66H199.215C199.103 65.524 199.047 64.964 199.047 64.32C199.047 63.648 199.103 63.088 199.215 62.64H197.535C197.423 62.164 197.367 61.604 197.367 60.96C197.367 60.288 197.423 59.728 197.535 59.28H195.015C195.127 59.728 195.183 60.288 195.183 60.96C195.183 61.604 195.127 62.164 195.015 62.64C195.127 63.088 195.183 63.648 195.183 64.32C195.183 64.964 195.127 65.524 195.015 66H191.655C191.543 65.524 191.487 64.964 191.487 64.32C191.487 63.648 191.543 63.088 191.655 62.64C191.543 62.164 191.487 61.604 191.487 60.96C191.487 60.288 191.543 59.728 191.655 59.28C191.543 58.804 191.487 58.244 191.487 57.6C191.487 56.928 191.543 56.368 191.655 55.92C191.543 55.444 191.487 54.884 191.487 54.24C191.487 53.568 191.543 53.008 191.655 52.56C191.543 52.084 191.487 51.524 191.487 50.88C191.487 50.208 191.543 49.648 191.655 49.2C191.543 48.724 191.487 48.164 191.487 47.52C191.487 46.848 191.543 46.288 191.655 45.84C191.543 45.364 191.487 44.804 191.487 44.16C191.487 43.488 191.543 42.928 191.655 42.48H195.015C195.127 42.928 195.183 43.488 195.183 44.16C195.183 44.804 195.127 45.364 195.015 45.84C195.127 46.288 195.183 46.848 195.183 47.52C195.183 48.164 195.127 48.724 195.015 49.2C195.127 49.648 195.183 50.208 195.183 50.88C195.183 51.524 195.127 52.084 195.015 52.56C195.127 53.008 195.183 53.568 195.183 54.24C195.183 54.884 195.127 55.444 195.015 55.92H197.535C197.423 55.444 197.367 54.884 197.367 54.24C197.367 53.568 197.423 53.008 197.535 52.56H199.215C199.103 52.084 199.047 51.524 199.047 50.88C199.047 50.208 199.103 49.648 199.215 49.2H204.255C204.367 49.648 204.423 50.208 204.423 50.88C204.423 51.524 204.367 52.084 204.255 52.56H200.895C201.007 53.008 201.063 53.568 201.063 54.24C201.063 54.884 201.007 55.444 200.895 55.92H199.215C199.327 56.368 199.383 56.928 199.383 57.6C199.383 58.244 199.327 58.804 199.215 59.28H200.895C201.007 59.728 201.063 60.288 201.063 60.96C201.063 61.604 201.007 62.164 200.895 62.64H205.095ZM238.895 44.16C238.895 44.804 238.839 45.364 238.727 45.84C238.839 46.288 238.895 46.848 238.895 47.52C238.895 48.164 238.839 48.724 238.727 49.2H237.047C237.159 49.648 237.215 50.208 237.215 50.88C237.215 51.524 237.159 52.084 237.047 52.56H235.367C235.479 53.008 235.535 53.568 235.535 54.24C235.535 54.884 235.479 55.444 235.367 55.92H233.687C233.799 56.368 233.855 56.928 233.855 57.6C233.855 58.244 233.799 58.804 233.687 59.28C233.799 59.728 233.855 60.288 233.855 60.96C233.855 61.604 233.799 62.164 233.687 62.64C233.799 63.088 233.855 63.648 233.855 64.32C233.855 64.964 233.799 65.524 233.687 66H230.327C230.215 65.524 230.159 64.964 230.159 64.32C230.159 63.648 230.215 63.088 230.327 62.64C230.215 62.164 230.159 61.604 230.159 60.96C230.159 60.288 230.215 59.728 230.327 59.28C230.215 58.804 230.159 58.244 230.159 57.6C230.159 56.928 230.215 56.368 230.327 55.92H228.647C228.535 55.444 228.479 54.884 228.479 54.24C228.479 53.568 228.535 53.008 228.647 52.56H226.967C226.855 52.084 226.799 51.524 226.799 50.88C226.799 50.208 226.855 49.648 226.967 49.2H225.287C225.175 48.724 225.119 48.164 225.119 47.52C225.119 46.848 225.175 46.288 225.287 45.84C225.175 45.364 225.119 44.804 225.119 44.16C225.119 43.488 225.175 42.928 225.287 42.48H228.647C228.759 42.928 228.815 43.488 228.815 44.16C228.815 44.804 228.759 45.364 228.647 45.84C228.759 46.288 228.815 46.848 228.815 47.52C228.815 48.164 228.759 48.724 228.647 49.2H230.327C230.439 49.648 230.495 50.208 230.495 50.88C230.495 51.524 230.439 52.084 230.327 52.56H233.687C233.575 52.084 233.519 51.524 233.519 50.88C233.519 50.208 233.575 49.648 233.687 49.2H235.367C235.255 48.724 235.199 48.164 235.199 47.52C235.199 46.848 235.255 46.288 235.367 45.84C235.255 45.364 235.199 44.804 235.199 44.16C235.199 43.488 235.255 42.928 235.367 42.48H238.727C238.839 42.928 238.895 43.488 238.895 44.16ZM255.712 57.6C255.712 58.244 255.656 58.804 255.544 59.28H254.284C254.396 59.728 254.452 60.288 254.452 60.96C254.452 61.604 254.396 62.164 254.284 62.64H252.184C252.296 63.088 252.352 63.648 252.352 64.32C252.352 64.964 252.296 65.524 252.184 66H245.464C245.352 65.524 245.296 64.964 245.296 64.32C245.296 63.648 245.352 63.088 245.464 62.64H243.364C243.252 62.164 243.196 61.604 243.196 60.96C243.196 60.288 243.252 59.728 243.364 59.28H242.104C241.992 58.804 241.936 58.244 241.936 57.6C241.936 56.928 241.992 56.368 242.104 55.92H243.364C243.252 55.444 243.196 54.884 243.196 54.24C243.196 53.568 243.252 53.008 243.364 52.56H245.464C245.352 52.084 245.296 51.524 245.296 50.88C245.296 50.208 245.352 49.648 245.464 49.2H252.184C252.296 49.648 252.352 50.208 252.352 50.88C252.352 51.524 252.296 52.084 252.184 52.56H254.284C254.396 53.008 254.452 53.568 254.452 54.24C254.452 54.884 254.396 55.444 254.284 55.92H255.544C255.656 56.368 255.712 56.928 255.712 57.6ZM252.184 59.28C252.072 58.804 252.016 58.244 252.016 57.6C252.016 56.928 252.072 56.368 252.184 55.92H250.924C250.812 55.444 250.756 54.884 250.756 54.24C250.756 53.568 250.812 53.008 250.924 52.56H246.724C246.836 53.008 246.892 53.568 246.892 54.24C246.892 54.884 246.836 55.444 246.724 55.92H245.464C245.576 56.368 245.632 56.928 245.632 57.6C245.632 58.244 245.576 58.804 245.464 59.28H246.724C246.836 59.728 246.892 60.288 246.892 60.96C246.892 61.604 246.836 62.164 246.724 62.64H250.924C250.812 62.164 250.756 61.604 250.756 60.96C250.756 60.288 250.812 59.728 250.924 59.28H252.184ZM263.708 60.96C263.708 61.604 263.652 62.164 263.54 62.64H267.74C267.852 63.088 267.908 63.648 267.908 64.32C267.908 64.964 267.852 65.524 267.74 66H261.02C260.908 65.524 260.852 64.964 260.852 64.32C260.852 63.648 260.908 63.088 261.02 62.64H258.92C258.808 62.164 258.752 61.604 258.752 60.96C258.752 60.288 258.808 59.728 258.92 59.28C258.808 58.804 258.752 58.244 258.752 57.6C258.752 56.928 258.808 56.368 258.92 55.92C258.808 55.444 258.752 54.884 258.752 54.24C258.752 53.568 258.808 53.008 258.92 52.56C258.808 52.084 258.752 51.524 258.752 50.88C258.752 50.208 258.808 49.648 258.92 49.2H262.28C262.392 49.648 262.448 50.208 262.448 50.88C262.448 51.524 262.392 52.084 262.28 52.56C262.392 53.008 262.448 53.568 262.448 54.24C262.448 54.884 262.392 55.444 262.28 55.92C262.392 56.368 262.448 56.928 262.448 57.6C262.448 58.244 262.392 58.804 262.28 59.28H263.54C263.652 59.728 263.708 60.288 263.708 60.96ZM272.36 52.56C272.472 53.008 272.528 53.568 272.528 54.24C272.528 54.884 272.472 55.444 272.36 55.92C272.472 56.368 272.528 56.928 272.528 57.6C272.528 58.244 272.472 58.804 272.36 59.28C272.472 59.728 272.528 60.288 272.528 60.96C272.528 61.604 272.472 62.164 272.36 62.64C272.472 63.088 272.528 63.648 272.528 64.32C272.528 64.964 272.472 65.524 272.36 66H269C268.888 65.524 268.832 64.964 268.832 64.32C268.832 63.648 268.888 63.088 269 62.64H267.74C267.628 62.164 267.572 61.604 267.572 60.96C267.572 60.288 267.628 59.728 267.74 59.28H269C268.888 58.804 268.832 58.244 268.832 57.6C268.832 56.928 268.888 56.368 269 55.92C268.888 55.444 268.832 54.884 268.832 54.24C268.832 53.568 268.888 53.008 269 52.56C268.888 52.084 268.832 51.524 268.832 50.88C268.832 50.208 268.888 49.648 269 49.2H272.36C272.472 49.648 272.528 50.208 272.528 50.88C272.528 51.524 272.472 52.084 272.36 52.56ZM289.177 52.56C289.289 53.008 289.345 53.568 289.345 54.24C289.345 54.884 289.289 55.444 289.177 55.92H285.817C285.705 55.444 285.649 54.884 285.649 54.24C285.649 53.568 285.705 53.008 285.817 52.56H282.877C282.989 53.008 283.045 53.568 283.045 54.24C283.045 54.884 282.989 55.444 282.877 55.92H281.617C281.729 56.368 281.785 56.928 281.785 57.6C281.785 58.244 281.729 58.804 281.617 59.28C281.729 59.728 281.785 60.288 281.785 60.96C281.785 61.604 281.729 62.164 281.617 62.64H284.137C284.249 63.088 284.305 63.648 284.305 64.32C284.305 64.964 284.249 65.524 284.137 66H275.737C275.625 65.524 275.569 64.964 275.569 64.32C275.569 63.648 275.625 63.088 275.737 62.64H278.257C278.145 62.164 278.089 61.604 278.089 60.96C278.089 60.288 278.145 59.728 278.257 59.28C278.145 58.804 278.089 58.244 278.089 57.6C278.089 56.928 278.145 56.368 278.257 55.92C278.145 55.444 278.089 54.884 278.089 54.24C278.089 53.568 278.145 53.008 278.257 52.56H275.737C275.625 52.084 275.569 51.524 275.569 50.88C275.569 50.208 275.625 49.648 275.737 49.2H279.937C280.049 49.648 280.105 50.208 280.105 50.88C280.105 51.524 280.049 52.084 279.937 52.56H281.617C281.505 52.084 281.449 51.524 281.449 50.88C281.449 50.208 281.505 49.648 281.617 49.2H287.917C288.029 49.648 288.085 50.208 288.085 50.88C288.085 51.524 288.029 52.084 287.917 52.56H289.177ZM154.813 102.96C154.813 103.604 154.757 104.164 154.645 104.64C154.757 105.088 154.813 105.648 154.813 106.32C154.813 106.964 154.757 107.524 154.645 108H151.285C151.173 107.524 151.117 106.964 151.117 106.32C151.117 105.648 151.173 105.088 151.285 104.64C151.173 104.164 151.117 103.604 151.117 102.96C151.117 102.288 151.173 101.728 151.285 101.28H144.565C144.677 101.728 144.733 102.288 144.733 102.96C144.733 103.604 144.677 104.164 144.565 104.64C144.677 105.088 144.733 105.648 144.733 106.32C144.733 106.964 144.677 107.524 144.565 108H141.205C141.093 107.524 141.037 106.964 141.037 106.32C141.037 105.648 141.093 105.088 141.205 104.64C141.093 104.164 141.037 103.604 141.037 102.96C141.037 102.288 141.093 101.728 141.205 101.28H142.465C142.353 100.804 142.297 100.244 142.297 99.6C142.297 98.928 142.353 98.368 142.465 97.92C142.353 97.444 142.297 96.884 142.297 96.24C142.297 95.568 142.353 95.008 142.465 94.56H143.305C143.193 94.084 143.137 93.524 143.137 92.88C143.137 92.208 143.193 91.648 143.305 91.2H144.565C144.453 90.724 144.397 90.164 144.397 89.52C144.397 88.848 144.453 88.288 144.565 87.84H145.405C145.293 87.364 145.237 86.804 145.237 86.16C145.237 85.488 145.293 84.928 145.405 84.48H150.445C150.557 84.928 150.613 85.488 150.613 86.16C150.613 86.804 150.557 87.364 150.445 87.84H151.285C151.397 88.288 151.453 88.848 151.453 89.52C151.453 90.164 151.397 90.724 151.285 91.2H152.545C152.657 91.648 152.713 92.208 152.713 92.88C152.713 93.524 152.657 94.084 152.545 94.56H153.385C153.497 95.008 153.553 95.568 153.553 96.24C153.553 96.884 153.497 97.444 153.385 97.92C153.497 98.368 153.553 98.928 153.553 99.6C153.553 100.244 153.497 100.804 153.385 101.28H154.645C154.757 101.728 154.813 102.288 154.813 102.96ZM150.025 97.92C149.913 97.444 149.857 96.884 149.857 96.24C149.857 95.568 149.913 95.008 150.025 94.56H149.185C149.073 94.084 149.017 93.524 149.017 92.88C149.017 92.208 149.073 91.648 149.185 91.2H146.665C146.777 91.648 146.833 92.208 146.833 92.88C146.833 93.524 146.777 94.084 146.665 94.56H145.825C145.937 95.008 145.993 95.568 145.993 96.24C145.993 96.884 145.937 97.444 145.825 97.92H150.025ZM171.63 92.88C171.63 93.524 171.574 94.084 171.462 94.56H170.202C170.314 95.008 170.37 95.568 170.37 96.24C170.37 96.884 170.314 97.444 170.202 97.92H168.942C169.054 98.368 169.11 98.928 169.11 99.6C169.11 100.244 169.054 100.804 168.942 101.28H168.102C168.214 101.728 168.27 102.288 168.27 102.96C168.27 103.604 168.214 104.164 168.102 104.64H166.422C166.534 105.088 166.59 105.648 166.59 106.32C166.59 106.964 166.534 107.524 166.422 108H163.062C162.95 107.524 162.894 106.964 162.894 106.32C162.894 105.648 162.95 105.088 163.062 104.64H161.382C161.27 104.164 161.214 103.604 161.214 102.96C161.214 102.288 161.27 101.728 161.382 101.28H160.542C160.43 100.804 160.374 100.244 160.374 99.6C160.374 98.928 160.43 98.368 160.542 97.92H159.282C159.17 97.444 159.114 96.884 159.114 96.24C159.114 95.568 159.17 95.008 159.282 94.56H158.022C157.91 94.084 157.854 93.524 157.854 92.88C157.854 92.208 157.91 91.648 158.022 91.2H161.382C161.494 91.648 161.55 92.208 161.55 92.88C161.55 93.524 161.494 94.084 161.382 94.56H162.642C162.754 95.008 162.81 95.568 162.81 96.24C162.81 96.884 162.754 97.444 162.642 97.92H163.902C164.014 98.368 164.07 98.928 164.07 99.6C164.07 100.244 164.014 100.804 163.902 101.28H165.582C165.47 100.804 165.414 100.244 165.414 99.6C165.414 98.928 165.47 98.368 165.582 97.92H166.842C166.73 97.444 166.674 96.884 166.674 96.24C166.674 95.568 166.73 95.008 166.842 94.56H168.102C167.99 94.084 167.934 93.524 167.934 92.88C167.934 92.208 167.99 91.648 168.102 91.2H171.462C171.574 91.648 171.63 92.208 171.63 92.88ZM188.278 104.64C188.39 105.088 188.446 105.648 188.446 106.32C188.446 106.964 188.39 107.524 188.278 108H184.918C184.806 107.524 184.75 106.964 184.75 106.32C184.75 105.648 184.806 105.088 184.918 104.64H183.238C183.126 104.164 183.07 103.604 183.07 102.96C183.07 102.288 183.126 101.728 183.238 101.28H178.198C178.31 101.728 178.366 102.288 178.366 102.96C178.366 103.604 178.31 104.164 178.198 104.64H183.238C183.35 105.088 183.406 105.648 183.406 106.32C183.406 106.964 183.35 107.524 183.238 108H176.518C176.406 107.524 176.35 106.964 176.35 106.32C176.35 105.648 176.406 105.088 176.518 104.64H174.838C174.726 104.164 174.67 103.604 174.67 102.96C174.67 102.288 174.726 101.728 174.838 101.28H176.518C176.406 100.804 176.35 100.244 176.35 99.6C176.35 98.928 176.406 98.368 176.518 97.92H183.238C183.126 97.444 183.07 96.884 183.07 96.24C183.07 95.568 183.126 95.008 183.238 94.56H177.358C177.246 94.084 177.19 93.524 177.19 92.88C177.19 92.208 177.246 91.648 177.358 91.2H184.918C185.03 91.648 185.086 92.208 185.086 92.88C185.086 93.524 185.03 94.084 184.918 94.56H186.598C186.71 95.008 186.766 95.568 186.766 96.24C186.766 96.884 186.71 97.444 186.598 97.92C186.71 98.368 186.766 98.928 186.766 99.6C186.766 100.244 186.71 100.804 186.598 101.28C186.71 101.728 186.766 102.288 186.766 102.96C186.766 103.604 186.71 104.164 186.598 104.64H188.278ZM203.415 104.64C203.527 105.088 203.583 105.648 203.583 106.32C203.583 106.964 203.527 107.524 203.415 108H196.695C196.583 107.524 196.527 106.964 196.527 106.32C196.527 105.648 196.583 105.088 196.695 104.64H195.015C194.903 104.164 194.847 103.604 194.847 102.96C194.847 102.288 194.903 101.728 195.015 101.28C194.903 100.804 194.847 100.244 194.847 99.6C194.847 98.928 194.903 98.368 195.015 97.92C194.903 97.444 194.847 96.884 194.847 96.24C194.847 95.568 194.903 95.008 195.015 94.56H191.655C191.543 94.084 191.487 93.524 191.487 92.88C191.487 92.208 191.543 91.648 191.655 91.2H195.015C194.903 90.724 194.847 90.164 194.847 89.52C194.847 88.848 194.903 88.288 195.015 87.84C194.903 87.364 194.847 86.804 194.847 86.16C194.847 85.488 194.903 84.928 195.015 84.48H198.375C198.487 84.928 198.543 85.488 198.543 86.16C198.543 86.804 198.487 87.364 198.375 87.84C198.487 88.288 198.543 88.848 198.543 89.52C198.543 90.164 198.487 90.724 198.375 91.2H203.415C203.527 91.648 203.583 92.208 203.583 92.88C203.583 93.524 203.527 94.084 203.415 94.56H198.375C198.487 95.008 198.543 95.568 198.543 96.24C198.543 96.884 198.487 97.444 198.375 97.92C198.487 98.368 198.543 98.928 198.543 99.6C198.543 100.244 198.487 100.804 198.375 101.28C198.487 101.728 198.543 102.288 198.543 102.96C198.543 103.604 198.487 104.164 198.375 104.64H203.415ZM221.911 104.64C222.023 105.088 222.079 105.648 222.079 106.32C222.079 106.964 222.023 107.524 221.911 108H218.551C218.439 107.524 218.383 106.964 218.383 106.32C218.383 105.648 218.439 105.088 218.551 104.64H216.871C216.759 104.164 216.703 103.604 216.703 102.96C216.703 102.288 216.759 101.728 216.871 101.28H211.831C211.943 101.728 211.999 102.288 211.999 102.96C211.999 103.604 211.943 104.164 211.831 104.64H216.871C216.983 105.088 217.039 105.648 217.039 106.32C217.039 106.964 216.983 107.524 216.871 108H210.151C210.039 107.524 209.983 106.964 209.983 106.32C209.983 105.648 210.039 105.088 210.151 104.64H208.471C208.359 104.164 208.303 103.604 208.303 102.96C208.303 102.288 208.359 101.728 208.471 101.28H210.151C210.039 100.804 209.983 100.244 209.983 99.6C209.983 98.928 210.039 98.368 210.151 97.92H216.871C216.759 97.444 216.703 96.884 216.703 96.24C216.703 95.568 216.759 95.008 216.871 94.56H210.991C210.879 94.084 210.823 93.524 210.823 92.88C210.823 92.208 210.879 91.648 210.991 91.2H218.551C218.663 91.648 218.719 92.208 218.719 92.88C218.719 93.524 218.663 94.084 218.551 94.56H220.231C220.343 95.008 220.399 95.568 220.399 96.24C220.399 96.884 220.343 97.444 220.231 97.92C220.343 98.368 220.399 98.928 220.399 99.6C220.399 100.244 220.343 100.804 220.231 101.28C220.343 101.728 220.399 102.288 220.399 102.96C220.399 103.604 220.343 104.164 220.231 104.64H221.911ZM238.727 94.56C238.839 95.008 238.895 95.568 238.895 96.24C238.895 96.884 238.839 97.444 238.727 97.92H235.367C235.255 97.444 235.199 96.884 235.199 96.24C235.199 95.568 235.255 95.008 235.367 94.56H232.427C232.539 95.008 232.595 95.568 232.595 96.24C232.595 96.884 232.539 97.444 232.427 97.92H231.167C231.279 98.368 231.335 98.928 231.335 99.6C231.335 100.244 231.279 100.804 231.167 101.28C231.279 101.728 231.335 102.288 231.335 102.96C231.335 103.604 231.279 104.164 231.167 104.64H233.687C233.799 105.088 233.855 105.648 233.855 106.32C233.855 106.964 233.799 107.524 233.687 108H225.287C225.175 107.524 225.119 106.964 225.119 106.32C225.119 105.648 225.175 105.088 225.287 104.64H227.807C227.695 104.164 227.639 103.604 227.639 102.96C227.639 102.288 227.695 101.728 227.807 101.28C227.695 100.804 227.639 100.244 227.639 99.6C227.639 98.928 227.695 98.368 227.807 97.92C227.695 97.444 227.639 96.884 227.639 96.24C227.639 95.568 227.695 95.008 227.807 94.56H225.287C225.175 94.084 225.119 93.524 225.119 92.88C225.119 92.208 225.175 91.648 225.287 91.2H229.487C229.599 91.648 229.655 92.208 229.655 92.88C229.655 93.524 229.599 94.084 229.487 94.56H231.167C231.055 94.084 230.999 93.524 230.999 92.88C230.999 92.208 231.055 91.648 231.167 91.2H237.467C237.579 91.648 237.635 92.208 237.635 92.88C237.635 93.524 237.579 94.084 237.467 94.56H238.727Z" fill="white"/>
<path d="M43.8125 153.445H46.7422C46.6484 154.562 46.3359 155.559 45.8047 156.434C45.2734 157.301 44.5273 157.984 43.5664 158.484C42.6055 158.984 41.4375 159.234 40.0625 159.234C39.0078 159.234 38.0586 159.047 37.2148 158.672C36.3711 158.289 35.6484 157.75 35.0469 157.055C34.4453 156.352 33.9844 155.504 33.6641 154.512C33.3516 153.52 33.1953 152.41 33.1953 151.184V149.766C33.1953 148.539 33.3555 147.43 33.6758 146.438C34.0039 145.445 34.4727 144.598 35.082 143.895C35.6914 143.184 36.4219 142.641 37.2734 142.266C38.1328 141.891 39.0977 141.703 40.168 141.703C41.5273 141.703 42.6758 141.953 43.6133 142.453C44.5508 142.953 45.2773 143.645 45.793 144.527C46.3164 145.41 46.6367 146.422 46.7539 147.562H43.8242C43.7461 146.828 43.5742 146.199 43.3086 145.676C43.0508 145.152 42.668 144.754 42.1602 144.48C41.6523 144.199 40.9883 144.059 40.168 144.059C39.4961 144.059 38.9102 144.184 38.4102 144.434C37.9102 144.684 37.4922 145.051 37.1562 145.535C36.8203 146.02 36.5664 146.617 36.3945 147.328C36.2305 148.031 36.1484 148.836 36.1484 149.742V151.184C36.1484 152.043 36.2227 152.824 36.3711 153.527C36.5273 154.223 36.7617 154.82 37.0742 155.32C37.3945 155.82 37.8008 156.207 38.293 156.48C38.7852 156.754 39.375 156.891 40.0625 156.891C40.8984 156.891 41.5742 156.758 42.0898 156.492C42.6133 156.227 43.0078 155.84 43.2734 155.332C43.5469 154.816 43.7266 154.188 43.8125 153.445ZM51.9219 141V159H49.1094V141H51.9219ZM51.4297 152.191L50.5156 152.18C50.5234 151.305 50.6445 150.496 50.8789 149.754C51.1211 149.012 51.457 148.367 51.8867 147.82C52.3242 147.266 52.8477 146.84 53.457 146.543C54.0664 146.238 54.7422 146.086 55.4844 146.086C56.1094 146.086 56.6719 146.172 57.1719 146.344C57.6797 146.516 58.1172 146.793 58.4844 147.176C58.8516 147.551 59.1289 148.043 59.3164 148.652C59.5117 149.254 59.6094 149.988 59.6094 150.855V159H56.7734V150.832C56.7734 150.223 56.6836 149.738 56.5039 149.379C56.332 149.02 56.0781 148.762 55.7422 148.605C55.4062 148.441 54.9961 148.359 54.5117 148.359C54.0039 148.359 53.5547 148.461 53.1641 148.664C52.7812 148.867 52.4609 149.145 52.2031 149.496C51.9453 149.848 51.75 150.254 51.6172 150.715C51.4922 151.176 51.4297 151.668 51.4297 152.191ZM61.9297 152.801V152.531C61.9297 151.617 62.0625 150.77 62.3281 149.988C62.5938 149.199 62.9766 148.516 63.4766 147.938C63.9844 147.352 64.6016 146.898 65.3281 146.578C66.0625 146.25 66.8906 146.086 67.8125 146.086C68.7422 146.086 69.5703 146.25 70.2969 146.578C71.0312 146.898 71.6523 147.352 72.1602 147.938C72.668 148.516 73.0547 149.199 73.3203 149.988C73.5859 150.77 73.7188 151.617 73.7188 152.531V152.801C73.7188 153.715 73.5859 154.562 73.3203 155.344C73.0547 156.125 72.668 156.809 72.1602 157.395C71.6523 157.973 71.0352 158.426 70.3086 158.754C69.582 159.074 68.7578 159.234 67.8359 159.234C66.9062 159.234 66.0742 159.074 65.3398 158.754C64.6133 158.426 63.9961 157.973 63.4883 157.395C62.9805 156.809 62.5938 156.125 62.3281 155.344C62.0625 154.562 61.9297 153.715 61.9297 152.801ZM64.7539 152.531V152.801C64.7539 153.371 64.8125 153.91 64.9297 154.418C65.0469 154.926 65.2305 155.371 65.4805 155.754C65.7305 156.137 66.0508 156.438 66.4414 156.656C66.832 156.875 67.2969 156.984 67.8359 156.984C68.3594 156.984 68.8125 156.875 69.1953 156.656C69.5859 156.438 69.9062 156.137 70.1562 155.754C70.4062 155.371 70.5898 154.926 70.707 154.418C70.832 153.91 70.8945 153.371 70.8945 152.801V152.531C70.8945 151.969 70.832 151.438 70.707 150.938C70.5898 150.43 70.4023 149.98 70.1445 149.59C69.8945 149.199 69.5742 148.895 69.1836 148.676C68.8008 148.449 68.3438 148.336 67.8125 148.336C67.2812 148.336 66.8203 148.449 66.4297 148.676C66.0469 148.895 65.7305 149.199 65.4805 149.59C65.2305 149.98 65.0469 150.43 64.9297 150.938C64.8125 151.438 64.7539 151.969 64.7539 152.531ZM75.5469 152.801V152.531C75.5469 151.617 75.6797 150.77 75.9453 149.988C76.2109 149.199 76.5938 148.516 77.0938 147.938C77.6016 147.352 78.2188 146.898 78.9453 146.578C79.6797 146.25 80.5078 146.086 81.4297 146.086C82.3594 146.086 83.1875 146.25 83.9141 146.578C84.6484 146.898 85.2695 147.352 85.7773 147.938C86.2852 148.516 86.6719 149.199 86.9375 149.988C87.2031 150.77 87.3359 151.617 87.3359 152.531V152.801C87.3359 153.715 87.2031 154.562 86.9375 155.344C86.6719 156.125 86.2852 156.809 85.7773 157.395C85.2695 157.973 84.6523 158.426 83.9258 158.754C83.1992 159.074 82.375 159.234 81.4531 159.234C80.5234 159.234 79.6914 159.074 78.957 158.754C78.2305 158.426 77.6133 157.973 77.1055 157.395C76.5977 156.809 76.2109 156.125 75.9453 155.344C75.6797 154.562 75.5469 153.715 75.5469 152.801ZM78.3711 152.531V152.801C78.3711 153.371 78.4297 153.91 78.5469 154.418C78.6641 154.926 78.8477 155.371 79.0977 155.754C79.3477 156.137 79.668 156.438 80.0586 156.656C80.4492 156.875 80.9141 156.984 81.4531 156.984C81.9766 156.984 82.4297 156.875 82.8125 156.656C83.2031 156.438 83.5234 156.137 83.7734 155.754C84.0234 155.371 84.207 154.926 84.3242 154.418C84.4492 153.91 84.5117 153.371 84.5117 152.801V152.531C84.5117 151.969 84.4492 151.438 84.3242 150.938C84.207 150.43 84.0195 149.98 83.7617 149.59C83.5117 149.199 83.1914 148.895 82.8008 148.676C82.418 148.449 81.9609 148.336 81.4297 148.336C80.8984 148.336 80.4375 148.449 80.0469 148.676C79.6641 148.895 79.3477 149.199 79.0977 149.59C78.8477 149.98 78.6641 150.43 78.5469 150.938C78.4297 151.438 78.3711 151.969 78.3711 152.531ZM96.8164 155.566C96.8164 155.285 96.7461 155.031 96.6055 154.805C96.4648 154.57 96.1953 154.359 95.7969 154.172C95.4062 153.984 94.8281 153.812 94.0625 153.656C93.3906 153.508 92.7734 153.332 92.2109 153.129C91.6562 152.918 91.1797 152.664 90.7812 152.367C90.3828 152.07 90.0742 151.719 89.8555 151.312C89.6367 150.906 89.5273 150.438 89.5273 149.906C89.5273 149.391 89.6406 148.902 89.8672 148.441C90.0938 147.98 90.418 147.574 90.8398 147.223C91.2617 146.871 91.7734 146.594 92.375 146.391C92.9844 146.188 93.6641 146.086 94.4141 146.086C95.4766 146.086 96.3867 146.266 97.1445 146.625C97.9102 146.977 98.4961 147.457 98.9023 148.066C99.3086 148.668 99.5117 149.348 99.5117 150.105H96.6875C96.6875 149.77 96.6016 149.457 96.4297 149.168C96.2656 148.871 96.0156 148.633 95.6797 148.453C95.3438 148.266 94.9219 148.172 94.4141 148.172C93.9297 148.172 93.5273 148.25 93.207 148.406C92.8945 148.555 92.6602 148.75 92.5039 148.992C92.3555 149.234 92.2812 149.5 92.2812 149.789C92.2812 150 92.3203 150.191 92.3984 150.363C92.4844 150.527 92.625 150.68 92.8203 150.82C93.0156 150.953 93.2812 151.078 93.6172 151.195C93.9609 151.312 94.3906 151.426 94.9062 151.535C95.875 151.738 96.707 152 97.4023 152.32C98.1055 152.633 98.6445 153.039 99.0195 153.539C99.3945 154.031 99.582 154.656 99.582 155.414C99.582 155.977 99.4609 156.492 99.2188 156.961C98.9844 157.422 98.6406 157.824 98.1875 158.168C97.7344 158.504 97.1914 158.766 96.5586 158.953C95.9336 159.141 95.2305 159.234 94.4492 159.234C93.3008 159.234 92.3281 159.031 91.5312 158.625C90.7344 158.211 90.1289 157.684 89.7148 157.043C89.3086 156.395 89.1055 155.723 89.1055 155.027H91.8359C91.8672 155.551 92.0117 155.969 92.2695 156.281C92.5352 156.586 92.8633 156.809 93.2539 156.949C93.6523 157.082 94.0625 157.148 94.4844 157.148C94.9922 157.148 95.418 157.082 95.7617 156.949C96.1055 156.809 96.3672 156.621 96.5469 156.387C96.7266 156.145 96.8164 155.871 96.8164 155.566ZM107.645 159.234C106.707 159.234 105.859 159.082 105.102 158.777C104.352 158.465 103.711 158.031 103.18 157.477C102.656 156.922 102.254 156.27 101.973 155.52C101.691 154.77 101.551 153.961 101.551 153.094V152.625C101.551 151.633 101.695 150.734 101.984 149.93C102.273 149.125 102.676 148.438 103.191 147.867C103.707 147.289 104.316 146.848 105.02 146.543C105.723 146.238 106.484 146.086 107.305 146.086C108.211 146.086 109.004 146.238 109.684 146.543C110.363 146.848 110.926 147.277 111.371 147.832C111.824 148.379 112.16 149.031 112.379 149.789C112.605 150.547 112.719 151.383 112.719 152.297V153.504H102.922V151.477H109.93V151.254C109.914 150.746 109.812 150.27 109.625 149.824C109.445 149.379 109.168 149.02 108.793 148.746C108.418 148.473 107.918 148.336 107.293 148.336C106.824 148.336 106.406 148.438 106.039 148.641C105.68 148.836 105.379 149.121 105.137 149.496C104.895 149.871 104.707 150.324 104.574 150.855C104.449 151.379 104.387 151.969 104.387 152.625V153.094C104.387 153.648 104.461 154.164 104.609 154.641C104.766 155.109 104.992 155.52 105.289 155.871C105.586 156.223 105.945 156.5 106.367 156.703C106.789 156.898 107.27 156.996 107.809 156.996C108.488 156.996 109.094 156.859 109.625 156.586C110.156 156.312 110.617 155.926 111.008 155.426L112.496 156.867C112.223 157.266 111.867 157.648 111.43 158.016C110.992 158.375 110.457 158.668 109.824 158.895C109.199 159.121 108.473 159.234 107.645 159.234ZM124.578 157.617L128.023 146.32H131.047L125.961 160.934C125.844 161.246 125.691 161.586 125.504 161.953C125.316 162.32 125.07 162.668 124.766 162.996C124.469 163.332 124.098 163.602 123.652 163.805C123.207 164.016 122.668 164.121 122.035 164.121C121.785 164.121 121.543 164.098 121.309 164.051C121.082 164.012 120.867 163.969 120.664 163.922L120.652 161.766C120.73 161.773 120.824 161.781 120.934 161.789C121.051 161.797 121.145 161.801 121.215 161.801C121.684 161.801 122.074 161.742 122.387 161.625C122.699 161.516 122.953 161.336 123.148 161.086C123.352 160.836 123.523 160.5 123.664 160.078L124.578 157.617ZM122.633 146.32L125.645 155.812L126.148 158.789L124.191 159.293L119.586 146.32H122.633ZM131.938 152.801V152.531C131.938 151.617 132.07 150.77 132.336 149.988C132.602 149.199 132.984 148.516 133.484 147.938C133.992 147.352 134.609 146.898 135.336 146.578C136.07 146.25 136.898 146.086 137.82 146.086C138.75 146.086 139.578 146.25 140.305 146.578C141.039 146.898 141.66 147.352 142.168 147.938C142.676 148.516 143.062 149.199 143.328 149.988C143.594 150.77 143.727 151.617 143.727 152.531V152.801C143.727 153.715 143.594 154.562 143.328 155.344C143.062 156.125 142.676 156.809 142.168 157.395C141.66 157.973 141.043 158.426 140.316 158.754C139.59 159.074 138.766 159.234 137.844 159.234C136.914 159.234 136.082 159.074 135.348 158.754C134.621 158.426 134.004 157.973 133.496 157.395C132.988 156.809 132.602 156.125 132.336 155.344C132.07 154.562 131.938 153.715 131.938 152.801ZM134.762 152.531V152.801C134.762 153.371 134.82 153.91 134.938 154.418C135.055 154.926 135.238 155.371 135.488 155.754C135.738 156.137 136.059 156.438 136.449 156.656C136.84 156.875 137.305 156.984 137.844 156.984C138.367 156.984 138.82 156.875 139.203 156.656C139.594 156.438 139.914 156.137 140.164 155.754C140.414 155.371 140.598 154.926 140.715 154.418C140.84 153.91 140.902 153.371 140.902 152.801V152.531C140.902 151.969 140.84 151.438 140.715 150.938C140.598 150.43 140.41 149.98 140.152 149.59C139.902 149.199 139.582 148.895 139.191 148.676C138.809 148.449 138.352 148.336 137.82 148.336C137.289 148.336 136.828 148.449 136.438 148.676C136.055 148.895 135.738 149.199 135.488 149.59C135.238 149.98 135.055 150.43 134.938 150.938C134.82 151.438 134.762 151.969 134.762 152.531ZM153.723 156.012V146.32H156.559V159H153.887L153.723 156.012ZM154.121 153.375L155.07 153.352C155.07 154.203 154.977 154.988 154.789 155.707C154.602 156.418 154.312 157.039 153.922 157.57C153.531 158.094 153.031 158.504 152.422 158.801C151.812 159.09 151.082 159.234 150.23 159.234C149.613 159.234 149.047 159.145 148.531 158.965C148.016 158.785 147.57 158.508 147.195 158.133C146.828 157.758 146.543 157.27 146.34 156.668C146.137 156.066 146.035 155.348 146.035 154.512V146.32H148.859V154.535C148.859 154.996 148.914 155.383 149.023 155.695C149.133 156 149.281 156.246 149.469 156.434C149.656 156.621 149.875 156.754 150.125 156.832C150.375 156.91 150.641 156.949 150.922 156.949C151.727 156.949 152.359 156.793 152.82 156.48C153.289 156.16 153.621 155.73 153.816 155.191C154.02 154.652 154.121 154.047 154.121 153.375ZM162.289 148.734V159H159.465V146.32H162.16L162.289 148.734ZM166.168 146.238L166.145 148.863C165.973 148.832 165.785 148.809 165.582 148.793C165.387 148.777 165.191 148.77 164.996 148.77C164.512 148.77 164.086 148.84 163.719 148.98C163.352 149.113 163.043 149.309 162.793 149.566C162.551 149.816 162.363 150.121 162.23 150.48C162.098 150.84 162.02 151.242 161.996 151.688L161.352 151.734C161.352 150.938 161.43 150.199 161.586 149.52C161.742 148.84 161.977 148.242 162.289 147.727C162.609 147.211 163.008 146.809 163.484 146.52C163.969 146.23 164.527 146.086 165.16 146.086C165.332 146.086 165.516 146.102 165.711 146.133C165.914 146.164 166.066 146.199 166.168 146.238ZM176.938 146.32V159H174.102V146.32H176.938ZM173.914 142.992C173.914 142.562 174.055 142.207 174.336 141.926C174.625 141.637 175.023 141.492 175.531 141.492C176.031 141.492 176.426 141.637 176.715 141.926C177.004 142.207 177.148 142.562 177.148 142.992C177.148 143.414 177.004 143.766 176.715 144.047C176.426 144.328 176.031 144.469 175.531 144.469C175.023 144.469 174.625 144.328 174.336 144.047C174.055 143.766 173.914 143.414 173.914 142.992ZM182.832 149.027V159H180.008V146.32H182.668L182.832 149.027ZM182.328 152.191L181.414 152.18C181.422 151.281 181.547 150.457 181.789 149.707C182.039 148.957 182.383 148.312 182.82 147.773C183.266 147.234 183.797 146.82 184.414 146.531C185.031 146.234 185.719 146.086 186.477 146.086C187.086 146.086 187.637 146.172 188.129 146.344C188.629 146.508 189.055 146.777 189.406 147.152C189.766 147.527 190.039 148.016 190.227 148.617C190.414 149.211 190.508 149.941 190.508 150.809V159H187.672V150.797C187.672 150.188 187.582 149.707 187.402 149.355C187.23 148.996 186.977 148.742 186.641 148.594C186.312 148.438 185.902 148.359 185.41 148.359C184.926 148.359 184.492 148.461 184.109 148.664C183.727 148.867 183.402 149.145 183.137 149.496C182.879 149.848 182.68 150.254 182.539 150.715C182.398 151.176 182.328 151.668 182.328 152.191ZM199.074 150.586V152.836H192.875V150.586H199.074ZM209.668 146.32H212.234V158.648C212.234 159.789 211.992 160.758 211.508 161.555C211.023 162.352 210.348 162.957 209.48 163.371C208.613 163.793 207.609 164.004 206.469 164.004C205.984 164.004 205.445 163.934 204.852 163.793C204.266 163.652 203.695 163.426 203.141 163.113C202.594 162.809 202.137 162.406 201.77 161.906L203.094 160.242C203.547 160.781 204.047 161.176 204.594 161.426C205.141 161.676 205.715 161.801 206.316 161.801C206.965 161.801 207.516 161.68 207.969 161.438C208.43 161.203 208.785 160.855 209.035 160.395C209.285 159.934 209.41 159.371 209.41 158.707V149.191L209.668 146.32ZM201.055 152.801V152.555C201.055 151.594 201.172 150.719 201.406 149.93C201.641 149.133 201.977 148.449 202.414 147.879C202.852 147.301 203.383 146.859 204.008 146.555C204.633 146.242 205.34 146.086 206.129 146.086C206.949 146.086 207.648 146.234 208.227 146.531C208.812 146.828 209.301 147.254 209.691 147.809C210.082 148.355 210.387 149.012 210.605 149.777C210.832 150.535 211 151.379 211.109 152.309V153.094C211.008 154 210.836 154.828 210.594 155.578C210.352 156.328 210.031 156.977 209.633 157.523C209.234 158.07 208.742 158.492 208.156 158.789C207.578 159.086 206.895 159.234 206.105 159.234C205.332 159.234 204.633 159.074 204.008 158.754C203.391 158.434 202.859 157.984 202.414 157.406C201.977 156.828 201.641 156.148 201.406 155.367C201.172 154.578 201.055 153.723 201.055 152.801ZM203.879 152.555V152.801C203.879 153.379 203.934 153.918 204.043 154.418C204.16 154.918 204.336 155.359 204.57 155.742C204.812 156.117 205.117 156.414 205.484 156.633C205.859 156.844 206.301 156.949 206.809 156.949C207.473 156.949 208.016 156.809 208.438 156.527C208.867 156.246 209.195 155.867 209.422 155.391C209.656 154.906 209.82 154.367 209.914 153.773V151.652C209.867 151.191 209.77 150.762 209.621 150.363C209.48 149.965 209.289 149.617 209.047 149.32C208.805 149.016 208.5 148.781 208.133 148.617C207.766 148.445 207.332 148.359 206.832 148.359C206.324 148.359 205.883 148.469 205.508 148.688C205.133 148.906 204.824 149.207 204.582 149.59C204.348 149.973 204.172 150.418 204.055 150.926C203.938 151.434 203.879 151.977 203.879 152.555ZM222.312 156.457V150.41C222.312 149.957 222.23 149.566 222.066 149.238C221.902 148.91 221.652 148.656 221.316 148.477C220.988 148.297 220.574 148.207 220.074 148.207C219.613 148.207 219.215 148.285 218.879 148.441C218.543 148.598 218.281 148.809 218.094 149.074C217.906 149.34 217.812 149.641 217.812 149.977H215C215 149.477 215.121 148.992 215.363 148.523C215.605 148.055 215.957 147.637 216.418 147.27C216.879 146.902 217.43 146.613 218.07 146.402C218.711 146.191 219.43 146.086 220.227 146.086C221.18 146.086 222.023 146.246 222.758 146.566C223.5 146.887 224.082 147.371 224.504 148.02C224.934 148.66 225.148 149.465 225.148 150.434V156.07C225.148 156.648 225.188 157.168 225.266 157.629C225.352 158.082 225.473 158.477 225.629 158.812V159H222.734C222.602 158.695 222.496 158.309 222.418 157.84C222.348 157.363 222.312 156.902 222.312 156.457ZM222.723 151.289L222.746 153.035H220.719C220.195 153.035 219.734 153.086 219.336 153.188C218.938 153.281 218.605 153.422 218.34 153.609C218.074 153.797 217.875 154.023 217.742 154.289C217.609 154.555 217.543 154.855 217.543 155.191C217.543 155.527 217.621 155.836 217.777 156.117C217.934 156.391 218.16 156.605 218.457 156.762C218.762 156.918 219.129 156.996 219.559 156.996C220.137 156.996 220.641 156.879 221.07 156.645C221.508 156.402 221.852 156.109 222.102 155.766C222.352 155.414 222.484 155.082 222.5 154.77L223.414 156.023C223.32 156.344 223.16 156.688 222.934 157.055C222.707 157.422 222.41 157.773 222.043 158.109C221.684 158.438 221.25 158.707 220.742 158.918C220.242 159.129 219.664 159.234 219.008 159.234C218.18 159.234 217.441 159.07 216.793 158.742C216.145 158.406 215.637 157.957 215.27 157.395C214.902 156.824 214.719 156.18 214.719 155.461C214.719 154.789 214.844 154.195 215.094 153.68C215.352 153.156 215.727 152.719 216.219 152.367C216.719 152.016 217.328 151.75 218.047 151.57C218.766 151.383 219.586 151.289 220.508 151.289H222.723ZM230.926 148.898V159H228.102V146.32H230.762L230.926 148.898ZM230.469 152.191L229.508 152.18C229.508 151.305 229.617 150.496 229.836 149.754C230.055 149.012 230.375 148.367 230.797 147.82C231.219 147.266 231.742 146.84 232.367 146.543C233 146.238 233.73 146.086 234.559 146.086C235.137 146.086 235.664 146.172 236.141 146.344C236.625 146.508 237.043 146.77 237.395 147.129C237.754 147.488 238.027 147.949 238.215 148.512C238.41 149.074 238.508 149.754 238.508 150.551V159H235.684V150.797C235.684 150.18 235.59 149.695 235.402 149.344C235.223 148.992 234.961 148.742 234.617 148.594C234.281 148.438 233.879 148.359 233.41 148.359C232.879 148.359 232.426 148.461 232.051 148.664C231.684 148.867 231.383 149.145 231.148 149.496C230.914 149.848 230.742 150.254 230.633 150.715C230.523 151.176 230.469 151.668 230.469 152.191ZM238.332 151.441L237.008 151.734C237.008 150.969 237.113 150.246 237.324 149.566C237.543 148.879 237.859 148.277 238.273 147.762C238.695 147.238 239.215 146.828 239.832 146.531C240.449 146.234 241.156 146.086 241.953 146.086C242.602 146.086 243.18 146.176 243.688 146.355C244.203 146.527 244.641 146.801 245 147.176C245.359 147.551 245.633 148.039 245.82 148.641C246.008 149.234 246.102 149.953 246.102 150.797V159H243.266V150.785C243.266 150.145 243.172 149.648 242.984 149.297C242.805 148.945 242.547 148.703 242.211 148.57C241.875 148.43 241.473 148.359 241.004 148.359C240.566 148.359 240.18 148.441 239.844 148.605C239.516 148.762 239.238 148.984 239.012 149.273C238.785 149.555 238.613 149.879 238.496 150.246C238.387 150.613 238.332 151.012 238.332 151.441ZM254.598 159.234C253.66 159.234 252.812 159.082 252.055 158.777C251.305 158.465 250.664 158.031 250.133 157.477C249.609 156.922 249.207 156.27 248.926 155.52C248.645 154.77 248.504 153.961 248.504 153.094V152.625C248.504 151.633 248.648 150.734 248.938 149.93C249.227 149.125 249.629 148.438 250.145 147.867C250.66 147.289 251.27 146.848 251.973 146.543C252.676 146.238 253.438 146.086 254.258 146.086C255.164 146.086 255.957 146.238 256.637 146.543C257.316 146.848 257.879 147.277 258.324 147.832C258.777 148.379 259.113 149.031 259.332 149.789C259.559 150.547 259.672 151.383 259.672 152.297V153.504H249.875V151.477H256.883V151.254C256.867 150.746 256.766 150.27 256.578 149.824C256.398 149.379 256.121 149.02 255.746 148.746C255.371 148.473 254.871 148.336 254.246 148.336C253.777 148.336 253.359 148.438 252.992 148.641C252.633 148.836 252.332 149.121 252.09 149.496C251.848 149.871 251.66 150.324 251.527 150.855C251.402 151.379 251.34 151.969 251.34 152.625V153.094C251.34 153.648 251.414 154.164 251.562 154.641C251.719 155.109 251.945 155.52 252.242 155.871C252.539 156.223 252.898 156.5 253.32 156.703C253.742 156.898 254.223 156.996 254.762 156.996C255.441 156.996 256.047 156.859 256.578 156.586C257.109 156.312 257.57 155.926 257.961 155.426L259.449 156.867C259.176 157.266 258.82 157.648 258.383 158.016C257.945 158.375 257.41 158.668 256.777 158.895C256.152 159.121 255.426 159.234 254.598 159.234ZM273.031 156.984C273.492 156.984 273.906 156.895 274.273 156.715C274.648 156.527 274.949 156.27 275.176 155.941C275.41 155.613 275.539 155.234 275.562 154.805H278.223C278.207 155.625 277.965 156.371 277.496 157.043C277.027 157.715 276.406 158.25 275.633 158.648C274.859 159.039 274.004 159.234 273.066 159.234C272.098 159.234 271.254 159.07 270.535 158.742C269.816 158.406 269.219 157.945 268.742 157.359C268.266 156.773 267.906 156.098 267.664 155.332C267.43 154.566 267.312 153.746 267.312 152.871V152.461C267.312 151.586 267.43 150.766 267.664 150C267.906 149.227 268.266 148.547 268.742 147.961C269.219 147.375 269.816 146.918 270.535 146.59C271.254 146.254 272.094 146.086 273.055 146.086C274.07 146.086 274.961 146.289 275.727 146.695C276.492 147.094 277.094 147.652 277.531 148.371C277.977 149.082 278.207 149.91 278.223 150.855H275.562C275.539 150.387 275.422 149.965 275.211 149.59C275.008 149.207 274.719 148.902 274.344 148.676C273.977 148.449 273.535 148.336 273.02 148.336C272.449 148.336 271.977 148.453 271.602 148.688C271.227 148.914 270.934 149.227 270.723 149.625C270.512 150.016 270.359 150.457 270.266 150.949C270.18 151.434 270.137 151.938 270.137 152.461V152.871C270.137 153.395 270.18 153.902 270.266 154.395C270.352 154.887 270.5 155.328 270.711 155.719C270.93 156.102 271.227 156.41 271.602 156.645C271.977 156.871 272.453 156.984 273.031 156.984ZM283.18 141V159H280.367V141H283.18ZM282.688 152.191L281.773 152.18C281.781 151.305 281.902 150.496 282.137 149.754C282.379 149.012 282.715 148.367 283.145 147.82C283.582 147.266 284.105 146.84 284.715 146.543C285.324 146.238 286 146.086 286.742 146.086C287.367 146.086 287.93 146.172 288.43 146.344C288.938 146.516 289.375 146.793 289.742 147.176C290.109 147.551 290.387 148.043 290.574 148.652C290.77 149.254 290.867 149.988 290.867 150.855V159H288.031V150.832C288.031 150.223 287.941 149.738 287.762 149.379C287.59 149.02 287.336 148.762 287 148.605C286.664 148.441 286.254 148.359 285.77 148.359C285.262 148.359 284.812 148.461 284.422 148.664C284.039 148.867 283.719 149.145 283.461 149.496C283.203 149.848 283.008 150.254 282.875 150.715C282.75 151.176 282.688 151.668 282.688 152.191ZM300.875 156.457V150.41C300.875 149.957 300.793 149.566 300.629 149.238C300.465 148.91 300.215 148.656 299.879 148.477C299.551 148.297 299.137 148.207 298.637 148.207C298.176 148.207 297.777 148.285 297.441 148.441C297.105 148.598 296.844 148.809 296.656 149.074C296.469 149.34 296.375 149.641 296.375 149.977H293.562C293.562 149.477 293.684 148.992 293.926 148.523C294.168 148.055 294.52 147.637 294.98 147.27C295.441 146.902 295.992 146.613 296.633 146.402C297.273 146.191 297.992 146.086 298.789 146.086C299.742 146.086 300.586 146.246 301.32 146.566C302.062 146.887 302.645 147.371 303.066 148.02C303.496 148.66 303.711 149.465 303.711 150.434V156.07C303.711 156.648 303.75 157.168 303.828 157.629C303.914 158.082 304.035 158.477 304.191 158.812V159H301.297C301.164 158.695 301.059 158.309 300.98 157.84C300.91 157.363 300.875 156.902 300.875 156.457ZM301.285 151.289L301.309 153.035H299.281C298.758 153.035 298.297 153.086 297.898 153.188C297.5 153.281 297.168 153.422 296.902 153.609C296.637 153.797 296.438 154.023 296.305 154.289C296.172 154.555 296.105 154.855 296.105 155.191C296.105 155.527 296.184 155.836 296.34 156.117C296.496 156.391 296.723 156.605 297.02 156.762C297.324 156.918 297.691 156.996 298.121 156.996C298.699 156.996 299.203 156.879 299.633 156.645C300.07 156.402 300.414 156.109 300.664 155.766C300.914 155.414 301.047 155.082 301.062 154.77L301.977 156.023C301.883 156.344 301.723 156.688 301.496 157.055C301.27 157.422 300.973 157.773 300.605 158.109C300.246 158.438 299.812 158.707 299.305 158.918C298.805 159.129 298.227 159.234 297.57 159.234C296.742 159.234 296.004 159.07 295.355 158.742C294.707 158.406 294.199 157.957 293.832 157.395C293.465 156.824 293.281 156.18 293.281 155.461C293.281 154.789 293.406 154.195 293.656 153.68C293.914 153.156 294.289 152.719 294.781 152.367C295.281 152.016 295.891 151.75 296.609 151.57C297.328 151.383 298.148 151.289 299.07 151.289H301.285ZM309.5 148.734V159H306.676V146.32H309.371L309.5 148.734ZM313.379 146.238L313.355 148.863C313.184 148.832 312.996 148.809 312.793 148.793C312.598 148.777 312.402 148.77 312.207 148.77C311.723 148.77 311.297 148.84 310.93 148.98C310.562 149.113 310.254 149.309 310.004 149.566C309.762 149.816 309.574 150.121 309.441 150.48C309.309 150.84 309.23 151.242 309.207 151.688L308.562 151.734C308.562 150.938 308.641 150.199 308.797 149.52C308.953 148.84 309.188 148.242 309.5 147.727C309.82 147.211 310.219 146.809 310.695 146.52C311.18 146.23 311.738 146.086 312.371 146.086C312.543 146.086 312.727 146.102 312.922 146.133C313.125 146.164 313.277 146.199 313.379 146.238ZM321.875 156.457V150.41C321.875 149.957 321.793 149.566 321.629 149.238C321.465 148.91 321.215 148.656 320.879 148.477C320.551 148.297 320.137 148.207 319.637 148.207C319.176 148.207 318.777 148.285 318.441 148.441C318.105 148.598 317.844 148.809 317.656 149.074C317.469 149.34 317.375 149.641 317.375 149.977H314.562C314.562 149.477 314.684 148.992 314.926 148.523C315.168 148.055 315.52 147.637 315.98 147.27C316.441 146.902 316.992 146.613 317.633 146.402C318.273 146.191 318.992 146.086 319.789 146.086C320.742 146.086 321.586 146.246 322.32 146.566C323.062 146.887 323.645 147.371 324.066 148.02C324.496 148.66 324.711 149.465 324.711 150.434V156.07C324.711 156.648 324.75 157.168 324.828 157.629C324.914 158.082 325.035 158.477 325.191 158.812V159H322.297C322.164 158.695 322.059 158.309 321.98 157.84C321.91 157.363 321.875 156.902 321.875 156.457ZM322.285 151.289L322.309 153.035H320.281C319.758 153.035 319.297 153.086 318.898 153.188C318.5 153.281 318.168 153.422 317.902 153.609C317.637 153.797 317.438 154.023 317.305 154.289C317.172 154.555 317.105 154.855 317.105 155.191C317.105 155.527 317.184 155.836 317.34 156.117C317.496 156.391 317.723 156.605 318.02 156.762C318.324 156.918 318.691 156.996 319.121 156.996C319.699 156.996 320.203 156.879 320.633 156.645C321.07 156.402 321.414 156.109 321.664 155.766C321.914 155.414 322.047 155.082 322.062 154.77L322.977 156.023C322.883 156.344 322.723 156.688 322.496 157.055C322.27 157.422 321.973 157.773 321.605 158.109C321.246 158.438 320.812 158.707 320.305 158.918C319.805 159.129 319.227 159.234 318.57 159.234C317.742 159.234 317.004 159.07 316.355 158.742C315.707 158.406 315.199 157.957 314.832 157.395C314.465 156.824 314.281 156.18 314.281 155.461C314.281 154.789 314.406 154.195 314.656 153.68C314.914 153.156 315.289 152.719 315.781 152.367C316.281 152.016 316.891 151.75 317.609 151.57C318.328 151.383 319.148 151.289 320.07 151.289H322.285ZM332.844 156.984C333.305 156.984 333.719 156.895 334.086 156.715C334.461 156.527 334.762 156.27 334.988 155.941C335.223 155.613 335.352 155.234 335.375 154.805H338.035C338.02 155.625 337.777 156.371 337.309 157.043C336.84 157.715 336.219 158.25 335.445 158.648C334.672 159.039 333.816 159.234 332.879 159.234C331.91 159.234 331.066 159.07 330.348 158.742C329.629 158.406 329.031 157.945 328.555 157.359C328.078 156.773 327.719 156.098 327.477 155.332C327.242 154.566 327.125 153.746 327.125 152.871V152.461C327.125 151.586 327.242 150.766 327.477 150C327.719 149.227 328.078 148.547 328.555 147.961C329.031 147.375 329.629 146.918 330.348 146.59C331.066 146.254 331.906 146.086 332.867 146.086C333.883 146.086 334.773 146.289 335.539 146.695C336.305 147.094 336.906 147.652 337.344 148.371C337.789 149.082 338.02 149.91 338.035 150.855H335.375C335.352 150.387 335.234 149.965 335.023 149.59C334.82 149.207 334.531 148.902 334.156 148.676C333.789 148.449 333.348 148.336 332.832 148.336C332.262 148.336 331.789 148.453 331.414 148.688C331.039 148.914 330.746 149.227 330.535 149.625C330.324 150.016 330.172 150.457 330.078 150.949C329.992 151.434 329.949 151.938 329.949 152.461V152.871C329.949 153.395 329.992 153.902 330.078 154.395C330.164 154.887 330.312 155.328 330.523 155.719C330.742 156.102 331.039 156.41 331.414 156.645C331.789 156.871 332.266 156.984 332.844 156.984ZM346.016 146.32V148.383H338.867V146.32H346.016ZM340.93 143.215H343.754V155.496C343.754 155.887 343.809 156.188 343.918 156.398C344.035 156.602 344.195 156.738 344.398 156.809C344.602 156.879 344.84 156.914 345.113 156.914C345.309 156.914 345.496 156.902 345.676 156.879C345.855 156.855 346 156.832 346.109 156.809L346.121 158.965C345.887 159.035 345.613 159.098 345.301 159.152C344.996 159.207 344.645 159.234 344.246 159.234C343.598 159.234 343.023 159.121 342.523 158.895C342.023 158.66 341.633 158.281 341.352 157.758C341.07 157.234 340.93 156.539 340.93 155.672V143.215ZM353.785 159.234C352.848 159.234 352 159.082 351.242 158.777C350.492 158.465 349.852 158.031 349.32 157.477C348.797 156.922 348.395 156.27 348.113 155.52C347.832 154.77 347.691 153.961 347.691 153.094V152.625C347.691 151.633 347.836 150.734 348.125 149.93C348.414 149.125 348.816 148.438 349.332 147.867C349.848 147.289 350.457 146.848 351.16 146.543C351.863 146.238 352.625 146.086 353.445 146.086C354.352 146.086 355.145 146.238 355.824 146.543C356.504 146.848 357.066 147.277 357.512 147.832C357.965 148.379 358.301 149.031 358.52 149.789C358.746 150.547 358.859 151.383 358.859 152.297V153.504H349.062V151.477H356.07V151.254C356.055 150.746 355.953 150.27 355.766 149.824C355.586 149.379 355.309 149.02 354.934 148.746C354.559 148.473 354.059 148.336 353.434 148.336C352.965 148.336 352.547 148.438 352.18 148.641C351.82 148.836 351.52 149.121 351.277 149.496C351.035 149.871 350.848 150.324 350.715 150.855C350.59 151.379 350.527 151.969 350.527 152.625V153.094C350.527 153.648 350.602 154.164 350.75 154.641C350.906 155.109 351.133 155.52 351.43 155.871C351.727 156.223 352.086 156.5 352.508 156.703C352.93 156.898 353.41 156.996 353.949 156.996C354.629 156.996 355.234 156.859 355.766 156.586C356.297 156.312 356.758 155.926 357.148 155.426L358.637 156.867C358.363 157.266 358.008 157.648 357.57 158.016C357.133 158.375 356.598 158.668 355.965 158.895C355.34 159.121 354.613 159.234 353.785 159.234ZM363.898 148.734V159H361.074V146.32H363.77L363.898 148.734ZM367.777 146.238L367.754 148.863C367.582 148.832 367.395 148.809 367.191 148.793C366.996 148.777 366.801 148.77 366.605 148.77C366.121 148.77 365.695 148.84 365.328 148.98C364.961 149.113 364.652 149.309 364.402 149.566C364.16 149.816 363.973 150.121 363.84 150.48C363.707 150.84 363.629 151.242 363.605 151.688L362.961 151.734C362.961 150.938 363.039 150.199 363.195 149.52C363.352 148.84 363.586 148.242 363.898 147.727C364.219 147.211 364.617 146.809 365.094 146.52C365.578 146.23 366.137 146.086 366.77 146.086C366.941 146.086 367.125 146.102 367.32 146.133C367.523 146.164 367.676 146.199 367.777 146.238ZM40.6016 184.457V178.41C40.6016 177.957 40.5195 177.566 40.3555 177.238C40.1914 176.91 39.9414 176.656 39.6055 176.477C39.2773 176.297 38.8633 176.207 38.3633 176.207C37.9023 176.207 37.5039 176.285 37.168 176.441C36.832 176.598 36.5703 176.809 36.3828 177.074C36.1953 177.34 36.1016 177.641 36.1016 177.977H33.2891C33.2891 177.477 33.4102 176.992 33.6523 176.523C33.8945 176.055 34.2461 175.637 34.707 175.27C35.168 174.902 35.7188 174.613 36.3594 174.402C37 174.191 37.7188 174.086 38.5156 174.086C39.4688 174.086 40.3125 174.246 41.0469 174.566C41.7891 174.887 42.3711 175.371 42.793 176.02C43.2227 176.66 43.4375 177.465 43.4375 178.434V184.07C43.4375 184.648 43.4766 185.168 43.5547 185.629C43.6406 186.082 43.7617 186.477 43.918 186.812V187H41.0234C40.8906 186.695 40.7852 186.309 40.707 185.84C40.6367 185.363 40.6016 184.902 40.6016 184.457ZM41.0117 179.289L41.0352 181.035H39.0078C38.4844 181.035 38.0234 181.086 37.625 181.188C37.2266 181.281 36.8945 181.422 36.6289 181.609C36.3633 181.797 36.1641 182.023 36.0312 182.289C35.8984 182.555 35.832 182.855 35.832 183.191C35.832 183.527 35.9102 183.836 36.0664 184.117C36.2227 184.391 36.4492 184.605 36.7461 184.762C37.0508 184.918 37.418 184.996 37.8477 184.996C38.4258 184.996 38.9297 184.879 39.3594 184.645C39.7969 184.402 40.1406 184.109 40.3906 183.766C40.6406 183.414 40.7734 183.082 40.7891 182.77L41.7031 184.023C41.6094 184.344 41.4492 184.688 41.2227 185.055C40.9961 185.422 40.6992 185.773 40.332 186.109C39.9727 186.438 39.5391 186.707 39.0312 186.918C38.5312 187.129 37.9531 187.234 37.2969 187.234C36.4688 187.234 35.7305 187.07 35.082 186.742C34.4336 186.406 33.9258 185.957 33.5586 185.395C33.1914 184.824 33.0078 184.18 33.0078 183.461C33.0078 182.789 33.1328 182.195 33.3828 181.68C33.6406 181.156 34.0156 180.719 34.5078 180.367C35.0078 180.016 35.6172 179.75 36.3359 179.57C37.0547 179.383 37.875 179.289 38.7969 179.289H41.0117ZM49.1914 177.027V187H46.3672V174.32H49.0273L49.1914 177.027ZM48.6875 180.191L47.7734 180.18C47.7812 179.281 47.9062 178.457 48.1484 177.707C48.3984 176.957 48.7422 176.312 49.1797 175.773C49.625 175.234 50.1562 174.82 50.7734 174.531C51.3906 174.234 52.0781 174.086 52.8359 174.086C53.4453 174.086 53.9961 174.172 54.4883 174.344C54.9883 174.508 55.4141 174.777 55.7656 175.152C56.125 175.527 56.3984 176.016 56.5859 176.617C56.7734 177.211 56.8672 177.941 56.8672 178.809V187H54.0312V178.797C54.0312 178.188 53.9414 177.707 53.7617 177.355C53.5898 176.996 53.3359 176.742 53 176.594C52.6719 176.438 52.2617 176.359 51.7695 176.359C51.2852 176.359 50.8516 176.461 50.4688 176.664C50.0859 176.867 49.7617 177.145 49.4961 177.496C49.2383 177.848 49.0391 178.254 48.8984 178.715C48.7578 179.176 48.6875 179.668 48.6875 180.191ZM67.4844 184.375V169H70.3203V187H67.7539L67.4844 184.375ZM59.2344 180.801V180.555C59.2344 179.594 59.3477 178.719 59.5742 177.93C59.8008 177.133 60.1289 176.449 60.5586 175.879C60.9883 175.301 61.5117 174.859 62.1289 174.555C62.7461 174.242 63.4414 174.086 64.2148 174.086C64.9805 174.086 65.6523 174.234 66.2305 174.531C66.8086 174.828 67.3008 175.254 67.707 175.809C68.1133 176.355 68.4375 177.012 68.6797 177.777C68.9219 178.535 69.0938 179.379 69.1953 180.309V181.094C69.0938 182 68.9219 182.828 68.6797 183.578C68.4375 184.328 68.1133 184.977 67.707 185.523C67.3008 186.07 66.8047 186.492 66.2188 186.789C65.6406 187.086 64.9648 187.234 64.1914 187.234C63.4258 187.234 62.7344 187.074 62.1172 186.754C61.5078 186.434 60.9883 185.984 60.5586 185.406C60.1289 184.828 59.8008 184.148 59.5742 183.367C59.3477 182.578 59.2344 181.723 59.2344 180.801ZM62.0586 180.555V180.801C62.0586 181.379 62.1094 181.918 62.2109 182.418C62.3203 182.918 62.4883 183.359 62.7148 183.742C62.9414 184.117 63.2344 184.414 63.5938 184.633C63.9609 184.844 64.3984 184.949 64.9062 184.949C65.5469 184.949 66.0742 184.809 66.4883 184.527C66.9023 184.246 67.2266 183.867 67.4609 183.391C67.7031 182.906 67.8672 182.367 67.9531 181.773V179.652C67.9062 179.191 67.8086 178.762 67.6602 178.363C67.5195 177.965 67.3281 177.617 67.0859 177.32C66.8438 177.016 66.543 176.781 66.1836 176.617C65.832 176.445 65.4141 176.359 64.9297 176.359C64.4141 176.359 63.9766 176.469 63.6172 176.688C63.2578 176.906 62.9609 177.207 62.7266 177.59C62.5 177.973 62.332 178.418 62.2227 178.926C62.1133 179.434 62.0586 179.977 62.0586 180.555ZM86.3633 183.566C86.3633 183.285 86.293 183.031 86.1523 182.805C86.0117 182.57 85.7422 182.359 85.3438 182.172C84.9531 181.984 84.375 181.812 83.6094 181.656C82.9375 181.508 82.3203 181.332 81.7578 181.129C81.2031 180.918 80.7266 180.664 80.3281 180.367C79.9297 180.07 79.6211 179.719 79.4023 179.312C79.1836 178.906 79.0742 178.438 79.0742 177.906C79.0742 177.391 79.1875 176.902 79.4141 176.441C79.6406 175.98 79.9648 175.574 80.3867 175.223C80.8086 174.871 81.3203 174.594 81.9219 174.391C82.5312 174.188 83.2109 174.086 83.9609 174.086C85.0234 174.086 85.9336 174.266 86.6914 174.625C87.457 174.977 88.043 175.457 88.4492 176.066C88.8555 176.668 89.0586 177.348 89.0586 178.105H86.2344C86.2344 177.77 86.1484 177.457 85.9766 177.168C85.8125 176.871 85.5625 176.633 85.2266 176.453C84.8906 176.266 84.4688 176.172 83.9609 176.172C83.4766 176.172 83.0742 176.25 82.7539 176.406C82.4414 176.555 82.207 176.75 82.0508 176.992C81.9023 177.234 81.8281 177.5 81.8281 177.789C81.8281 178 81.8672 178.191 81.9453 178.363C82.0312 178.527 82.1719 178.68 82.3672 178.82C82.5625 178.953 82.8281 179.078 83.1641 179.195C83.5078 179.312 83.9375 179.426 84.4531 179.535C85.4219 179.738 86.2539 180 86.9492 180.32C87.6523 180.633 88.1914 181.039 88.5664 181.539C88.9414 182.031 89.1289 182.656 89.1289 183.414C89.1289 183.977 89.0078 184.492 88.7656 184.961C88.5312 185.422 88.1875 185.824 87.7344 186.168C87.2812 186.504 86.7383 186.766 86.1055 186.953C85.4805 187.141 84.7773 187.234 83.9961 187.234C82.8477 187.234 81.875 187.031 81.0781 186.625C80.2812 186.211 79.6758 185.684 79.2617 185.043C78.8555 184.395 78.6523 183.723 78.6523 183.027H81.3828C81.4141 183.551 81.5586 183.969 81.8164 184.281C82.082 184.586 82.4102 184.809 82.8008 184.949C83.1992 185.082 83.6094 185.148 84.0312 185.148C84.5391 185.148 84.9648 185.082 85.3086 184.949C85.6523 184.809 85.9141 184.621 86.0938 184.387C86.2734 184.145 86.3633 183.871 86.3633 183.566ZM97.4141 174.32V176.383H90.2656V174.32H97.4141ZM92.3281 171.215H95.1523V183.496C95.1523 183.887 95.207 184.188 95.3164 184.398C95.4336 184.602 95.5938 184.738 95.7969 184.809C96 184.879 96.2383 184.914 96.5117 184.914C96.707 184.914 96.8945 184.902 97.0742 184.879C97.2539 184.855 97.3984 184.832 97.5078 184.809L97.5195 186.965C97.2852 187.035 97.0117 187.098 96.6992 187.152C96.3945 187.207 96.043 187.234 95.6445 187.234C94.9961 187.234 94.4219 187.121 93.9219 186.895C93.4219 186.66 93.0312 186.281 92.75 185.758C92.4688 185.234 92.3281 184.539 92.3281 183.672V171.215ZM106.742 184.457V178.41C106.742 177.957 106.66 177.566 106.496 177.238C106.332 176.91 106.082 176.656 105.746 176.477C105.418 176.297 105.004 176.207 104.504 176.207C104.043 176.207 103.645 176.285 103.309 176.441C102.973 176.598 102.711 176.809 102.523 177.074C102.336 177.34 102.242 177.641 102.242 177.977H99.4297C99.4297 177.477 99.5508 176.992 99.793 176.523C100.035 176.055 100.387 175.637 100.848 175.27C101.309 174.902 101.859 174.613 102.5 174.402C103.141 174.191 103.859 174.086 104.656 174.086C105.609 174.086 106.453 174.246 107.188 174.566C107.93 174.887 108.512 175.371 108.934 176.02C109.363 176.66 109.578 177.465 109.578 178.434V184.07C109.578 184.648 109.617 185.168 109.695 185.629C109.781 186.082 109.902 186.477 110.059 186.812V187H107.164C107.031 186.695 106.926 186.309 106.848 185.84C106.777 185.363 106.742 184.902 106.742 184.457ZM107.152 179.289L107.176 181.035H105.148C104.625 181.035 104.164 181.086 103.766 181.188C103.367 181.281 103.035 181.422 102.77 181.609C102.504 181.797 102.305 182.023 102.172 182.289C102.039 182.555 101.973 182.855 101.973 183.191C101.973 183.527 102.051 183.836 102.207 184.117C102.363 184.391 102.59 184.605 102.887 184.762C103.191 184.918 103.559 184.996 103.988 184.996C104.566 184.996 105.07 184.879 105.5 184.645C105.938 184.402 106.281 184.109 106.531 183.766C106.781 183.414 106.914 183.082 106.93 182.77L107.844 184.023C107.75 184.344 107.59 184.688 107.363 185.055C107.137 185.422 106.84 185.773 106.473 186.109C106.113 186.438 105.68 186.707 105.172 186.918C104.672 187.129 104.094 187.234 103.438 187.234C102.609 187.234 101.871 187.07 101.223 186.742C100.574 186.406 100.066 185.957 99.6992 185.395C99.332 184.824 99.1484 184.18 99.1484 183.461C99.1484 182.789 99.2734 182.195 99.5234 181.68C99.7812 181.156 100.156 180.719 100.648 180.367C101.148 180.016 101.758 179.75 102.477 179.57C103.195 179.383 104.016 179.289 104.938 179.289H107.152ZM115.367 176.734V187H112.543V174.32H115.238L115.367 176.734ZM119.246 174.238L119.223 176.863C119.051 176.832 118.863 176.809 118.66 176.793C118.465 176.777 118.27 176.77 118.074 176.77C117.59 176.77 117.164 176.84 116.797 176.98C116.43 177.113 116.121 177.309 115.871 177.566C115.629 177.816 115.441 178.121 115.309 178.48C115.176 178.84 115.098 179.242 115.074 179.688L114.43 179.734C114.43 178.938 114.508 178.199 114.664 177.52C114.82 176.84 115.055 176.242 115.367 175.727C115.688 175.211 116.086 174.809 116.562 174.52C117.047 174.23 117.605 174.086 118.238 174.086C118.41 174.086 118.594 174.102 118.789 174.133C118.992 174.164 119.145 174.199 119.246 174.238ZM127.414 174.32V176.383H120.266V174.32H127.414ZM122.328 171.215H125.152V183.496C125.152 183.887 125.207 184.188 125.316 184.398C125.434 184.602 125.594 184.738 125.797 184.809C126 184.879 126.238 184.914 126.512 184.914C126.707 184.914 126.895 184.902 127.074 184.879C127.254 184.855 127.398 184.832 127.508 184.809L127.52 186.965C127.285 187.035 127.012 187.098 126.699 187.152C126.395 187.207 126.043 187.234 125.645 187.234C124.996 187.234 124.422 187.121 123.922 186.895C123.422 186.66 123.031 186.281 122.75 185.758C122.469 185.234 122.328 184.539 122.328 183.672V171.215ZM141.383 174.32V176.383H134.234V174.32H141.383ZM136.297 171.215H139.121V183.496C139.121 183.887 139.176 184.188 139.285 184.398C139.402 184.602 139.562 184.738 139.766 184.809C139.969 184.879 140.207 184.914 140.48 184.914C140.676 184.914 140.863 184.902 141.043 184.879C141.223 184.855 141.367 184.832 141.477 184.809L141.488 186.965C141.254 187.035 140.98 187.098 140.668 187.152C140.363 187.207 140.012 187.234 139.613 187.234C138.965 187.234 138.391 187.121 137.891 186.895C137.391 186.66 137 186.281 136.719 185.758C136.438 185.234 136.297 184.539 136.297 183.672V171.215ZM146.352 169V187H143.539V169H146.352ZM145.859 180.191L144.945 180.18C144.953 179.305 145.074 178.496 145.309 177.754C145.551 177.012 145.887 176.367 146.316 175.82C146.754 175.266 147.277 174.84 147.887 174.543C148.496 174.238 149.172 174.086 149.914 174.086C150.539 174.086 151.102 174.172 151.602 174.344C152.109 174.516 152.547 174.793 152.914 175.176C153.281 175.551 153.559 176.043 153.746 176.652C153.941 177.254 154.039 177.988 154.039 178.855V187H151.203V178.832C151.203 178.223 151.113 177.738 150.934 177.379C150.762 177.02 150.508 176.762 150.172 176.605C149.836 176.441 149.426 176.359 148.941 176.359C148.434 176.359 147.984 176.461 147.594 176.664C147.211 176.867 146.891 177.145 146.633 177.496C146.375 177.848 146.18 178.254 146.047 178.715C145.922 179.176 145.859 179.668 145.859 180.191ZM162.488 187.234C161.551 187.234 160.703 187.082 159.945 186.777C159.195 186.465 158.555 186.031 158.023 185.477C157.5 184.922 157.098 184.27 156.816 183.52C156.535 182.77 156.395 181.961 156.395 181.094V180.625C156.395 179.633 156.539 178.734 156.828 177.93C157.117 177.125 157.52 176.438 158.035 175.867C158.551 175.289 159.16 174.848 159.863 174.543C160.566 174.238 161.328 174.086 162.148 174.086C163.055 174.086 163.848 174.238 164.527 174.543C165.207 174.848 165.77 175.277 166.215 175.832C166.668 176.379 167.004 177.031 167.223 177.789C167.449 178.547 167.562 179.383 167.562 180.297V181.504H157.766V179.477H164.773V179.254C164.758 178.746 164.656 178.27 164.469 177.824C164.289 177.379 164.012 177.02 163.637 176.746C163.262 176.473 162.762 176.336 162.137 176.336C161.668 176.336 161.25 176.438 160.883 176.641C160.523 176.836 160.223 177.121 159.98 177.496C159.738 177.871 159.551 178.324 159.418 178.855C159.293 179.379 159.23 179.969 159.23 180.625V181.094C159.23 181.648 159.305 182.164 159.453 182.641C159.609 183.109 159.836 183.52 160.133 183.871C160.43 184.223 160.789 184.5 161.211 184.703C161.633 184.898 162.113 184.996 162.652 184.996C163.332 184.996 163.938 184.859 164.469 184.586C165 184.312 165.461 183.926 165.852 183.426L167.34 184.867C167.066 185.266 166.711 185.648 166.273 186.016C165.836 186.375 165.301 186.668 164.668 186.895C164.043 187.121 163.316 187.234 162.488 187.234ZM183.465 191.875V176.84L183.793 174.32H186.312V191.875H183.465ZM175.227 180.789V180.543C175.227 179.582 175.336 178.707 175.555 177.918C175.773 177.121 176.098 176.438 176.527 175.867C176.957 175.297 177.48 174.859 178.098 174.555C178.715 174.242 179.426 174.086 180.23 174.086C181.012 174.086 181.691 174.234 182.27 174.531C182.855 174.828 183.348 175.254 183.746 175.809C184.152 176.355 184.477 177.008 184.719 177.766C184.961 178.523 185.137 179.367 185.246 180.297V181.082C185.145 181.988 184.973 182.816 184.73 183.566C184.488 184.316 184.164 184.965 183.758 185.512C183.352 186.059 182.855 186.484 182.27 186.789C181.684 187.086 180.996 187.234 180.207 187.234C179.418 187.234 178.715 187.074 178.098 186.754C177.48 186.434 176.957 185.984 176.527 185.406C176.105 184.82 175.781 184.137 175.555 183.355C175.336 182.566 175.227 181.711 175.227 180.789ZM178.051 180.543V180.789C178.051 181.367 178.102 181.91 178.203 182.418C178.312 182.918 178.484 183.363 178.719 183.754C178.953 184.137 179.25 184.438 179.609 184.656C179.969 184.875 180.402 184.984 180.91 184.984C181.574 184.984 182.117 184.84 182.539 184.551C182.969 184.262 183.297 183.875 183.523 183.391C183.758 182.898 183.922 182.355 184.016 181.762V179.641C183.961 179.18 183.863 178.75 183.723 178.352C183.582 177.945 183.387 177.594 183.137 177.297C182.895 176.992 182.59 176.758 182.223 176.594C181.863 176.422 181.434 176.336 180.934 176.336C180.426 176.336 179.988 176.445 179.621 176.664C179.254 176.883 178.953 177.188 178.719 177.578C178.492 177.961 178.324 178.406 178.215 178.914C178.105 179.422 178.051 179.965 178.051 180.543ZM196.965 184.012V174.32H199.801V187H197.129L196.965 184.012ZM197.363 181.375L198.312 181.352C198.312 182.203 198.219 182.988 198.031 183.707C197.844 184.418 197.555 185.039 197.164 185.57C196.773 186.094 196.273 186.504 195.664 186.801C195.055 187.09 194.324 187.234 193.473 187.234C192.855 187.234 192.289 187.145 191.773 186.965C191.258 186.785 190.812 186.508 190.438 186.133C190.07 185.758 189.785 185.27 189.582 184.668C189.379 184.066 189.277 183.348 189.277 182.512V174.32H192.102V182.535C192.102 182.996 192.156 183.383 192.266 183.695C192.375 184 192.523 184.246 192.711 184.434C192.898 184.621 193.117 184.754 193.367 184.832C193.617 184.91 193.883 184.949 194.164 184.949C194.969 184.949 195.602 184.793 196.062 184.48C196.531 184.16 196.863 183.73 197.059 183.191C197.262 182.652 197.363 182.047 197.363 181.375ZM208.285 187.234C207.348 187.234 206.5 187.082 205.742 186.777C204.992 186.465 204.352 186.031 203.82 185.477C203.297 184.922 202.895 184.27 202.613 183.52C202.332 182.77 202.191 181.961 202.191 181.094V180.625C202.191 179.633 202.336 178.734 202.625 177.93C202.914 177.125 203.316 176.438 203.832 175.867C204.348 175.289 204.957 174.848 205.66 174.543C206.363 174.238 207.125 174.086 207.945 174.086C208.852 174.086 209.645 174.238 210.324 174.543C211.004 174.848 211.566 175.277 212.012 175.832C212.465 176.379 212.801 177.031 213.02 177.789C213.246 178.547 213.359 179.383 213.359 180.297V181.504H203.562V179.477H210.57V179.254C210.555 178.746 210.453 178.27 210.266 177.824C210.086 177.379 209.809 177.02 209.434 176.746C209.059 176.473 208.559 176.336 207.934 176.336C207.465 176.336 207.047 176.438 206.68 176.641C206.32 176.836 206.02 177.121 205.777 177.496C205.535 177.871 205.348 178.324 205.215 178.855C205.09 179.379 205.027 179.969 205.027 180.625V181.094C205.027 181.648 205.102 182.164 205.25 182.641C205.406 183.109 205.633 183.52 205.93 183.871C206.227 184.223 206.586 184.5 207.008 184.703C207.43 184.898 207.91 184.996 208.449 184.996C209.129 184.996 209.734 184.859 210.266 184.586C210.797 184.312 211.258 183.926 211.648 183.426L213.137 184.867C212.863 185.266 212.508 185.648 212.07 186.016C211.633 186.375 211.098 186.668 210.465 186.895C209.84 187.121 209.113 187.234 208.285 187.234ZM222.676 183.566C222.676 183.285 222.605 183.031 222.465 182.805C222.324 182.57 222.055 182.359 221.656 182.172C221.266 181.984 220.688 181.812 219.922 181.656C219.25 181.508 218.633 181.332 218.07 181.129C217.516 180.918 217.039 180.664 216.641 180.367C216.242 180.07 215.934 179.719 215.715 179.312C215.496 178.906 215.387 178.438 215.387 177.906C215.387 177.391 215.5 176.902 215.727 176.441C215.953 175.98 216.277 175.574 216.699 175.223C217.121 174.871 217.633 174.594 218.234 174.391C218.844 174.188 219.523 174.086 220.273 174.086C221.336 174.086 222.246 174.266 223.004 174.625C223.77 174.977 224.355 175.457 224.762 176.066C225.168 176.668 225.371 177.348 225.371 178.105H222.547C222.547 177.77 222.461 177.457 222.289 177.168C222.125 176.871 221.875 176.633 221.539 176.453C221.203 176.266 220.781 176.172 220.273 176.172C219.789 176.172 219.387 176.25 219.066 176.406C218.754 176.555 218.52 176.75 218.363 176.992C218.215 177.234 218.141 177.5 218.141 177.789C218.141 178 218.18 178.191 218.258 178.363C218.344 178.527 218.484 178.68 218.68 178.82C218.875 178.953 219.141 179.078 219.477 179.195C219.82 179.312 220.25 179.426 220.766 179.535C221.734 179.738 222.566 180 223.262 180.32C223.965 180.633 224.504 181.039 224.879 181.539C225.254 182.031 225.441 182.656 225.441 183.414C225.441 183.977 225.32 184.492 225.078 184.961C224.844 185.422 224.5 185.824 224.047 186.168C223.594 186.504 223.051 186.766 222.418 186.953C221.793 187.141 221.09 187.234 220.309 187.234C219.16 187.234 218.188 187.031 217.391 186.625C216.594 186.211 215.988 185.684 215.574 185.043C215.168 184.395 214.965 183.723 214.965 183.027H217.695C217.727 183.551 217.871 183.969 218.129 184.281C218.395 184.586 218.723 184.809 219.113 184.949C219.512 185.082 219.922 185.148 220.344 185.148C220.852 185.148 221.277 185.082 221.621 184.949C221.965 184.809 222.227 184.621 222.406 184.387C222.586 184.145 222.676 183.871 222.676 183.566ZM233.727 174.32V176.383H226.578V174.32H233.727ZM228.641 171.215H231.465V183.496C231.465 183.887 231.52 184.188 231.629 184.398C231.746 184.602 231.906 184.738 232.109 184.809C232.312 184.879 232.551 184.914 232.824 184.914C233.02 184.914 233.207 184.902 233.387 184.879C233.566 184.855 233.711 184.832 233.82 184.809L233.832 186.965C233.598 187.035 233.324 187.098 233.012 187.152C232.707 187.207 232.355 187.234 231.957 187.234C231.309 187.234 230.734 187.121 230.234 186.895C229.734 186.66 229.344 186.281 229.062 185.758C228.781 185.234 228.641 184.539 228.641 183.672V171.215ZM236.023 185.594C236.023 185.156 236.172 184.789 236.469 184.492C236.766 184.188 237.168 184.035 237.676 184.035C238.191 184.035 238.594 184.188 238.883 184.492C239.18 184.789 239.328 185.156 239.328 185.594C239.328 186.031 239.18 186.398 238.883 186.695C238.594 186.992 238.191 187.141 237.676 187.141C237.168 187.141 236.766 186.992 236.469 186.695C236.172 186.398 236.023 186.031 236.023 185.594Z" fill="white"/>
</svg>
