<svg width="408" height="227" viewBox="0 0 408 227" fill="none" xmlns="http://www.w3.org/2000/svg">
<path d="M398 203.105H388V215.053H378V227H30V215.053H20V203.105H10V191.158H398V203.105ZM408 191.157H0V59.7373H408V191.157ZM378 11.9473H388V23.8945H398V35.8418H408V59.7363H0V35.8418H10V23.8945H20V11.9473H30V0H378V11.9473Z" fill="#D0376D"/>
<rect x="65.8418" y="78.4443" width="7.21053" height="6.88889" fill="#F99ECF"/>
<rect x="73.0527" y="78.4443" width="7.21053" height="6.88889" fill="#F99ECF"/>
<rect x="80.2637" y="78.4443" width="7.21053" height="6.88889" fill="#F99ECF"/>
<rect x="80.2637" y="71.5557" width="7.21053" height="6.88889" fill="#F99ECF"/>
<rect x="80.2637" y="64.6665" width="7.21053" height="6.88889" fill="#F99ECF"/>
<rect x="73.0527" y="51.3481" width="7.21053" height="6.88889" fill="#FDE1D3"/>
<rect x="65.8418" y="44.4595" width="7.21053" height="6.88889" fill="#FDE1D3"/>
<rect x="58.6309" y="44.4595" width="7.21053" height="6.88889" fill="#FDE1D3"/>
<rect x="51.4219" y="50.8887" width="7.21053" height="6.88889" fill="#FDE1D3"/>
<rect x="44.2109" y="58.2368" width="7.21053" height="6.88889" fill="#FDE1D3"/>
<rect x="44.2109" y="64.6665" width="7.21053" height="6.88889" fill="#FDE1D3"/>
<rect x="51.4219" y="71.5557" width="7.21053" height="6.88889" fill="#FDE1D3"/>
<rect x="58.6309" y="78.4443" width="7.21053" height="6.88889" fill="#FDE1D3"/>
<rect x="65.8418" y="85.3335" width="7.21053" height="6.88889" fill="#FDE1D3"/>
<rect x="73.0527" y="92.2222" width="7.21053" height="6.88889" fill="#FDE1D3"/>
<rect x="80.2637" y="99.1113" width="7.21053" height="6.88889" fill="#FDE1D3"/>
<rect x="87.4746" y="92.2222" width="7.21053" height="6.88889" fill="#FDE1D3"/>
<rect x="94.6836" y="85.3335" width="7.21053" height="6.88889" fill="#FDE1D3"/>
<rect x="101.895" y="78.4443" width="7.21053" height="6.88889" fill="#FDE1D3"/>
<rect x="109.105" y="71.5557" width="7.21053" height="6.88889" fill="#FDE1D3"/>
<rect x="116.316" y="64.6665" width="7.21053" height="6.88889" fill="#FDE1D3"/>
<rect x="116.316" y="58.2368" width="7.21053" height="6.88889" fill="#FDE1D3"/>
<rect x="109.105" y="50.8887" width="7.21053" height="6.88889" fill="#FDE1D3"/>
<rect x="101.895" y="44" width="7.21053" height="6.88889" fill="#FDE1D3"/>
<rect x="94.6836" y="44" width="7.21053" height="6.88889" fill="#FDE1D3"/>
<rect x="87.4746" y="50.8887" width="7.21053" height="6.88889" fill="#FDE1D3"/>
<rect x="80.2637" y="58.2368" width="7.21053" height="6.88889" fill="#FDE1D3"/>
<rect x="65.8418" y="51.3481" width="7.21053" height="6.88889" fill="#F99ECF"/>
<rect x="58.6309" y="51.3481" width="7.21053" height="6.88889" fill="#F99ECF"/>
<rect x="51.4219" y="57.7778" width="7.21053" height="6.88889" fill="#F99ECF"/>
<rect x="65.8418" y="57.7778" width="7.21053" height="6.88889" fill="#FFDBF7"/>
<rect x="58.6309" y="64.6665" width="7.21053" height="6.88889" fill="#FFDBF7"/>
<rect x="58.6309" y="57.7778" width="7.21053" height="6.88889" fill="#F99ECF"/>
<rect x="73.0527" y="58.2368" width="7.21053" height="6.88889" fill="#F99ECF"/>
<rect x="73.0527" y="64.6665" width="7.21053" height="6.88889" fill="#F99ECF"/>
<rect x="73.0527" y="71.5557" width="7.21053" height="6.88889" fill="#F99ECF"/>
<rect x="65.8418" y="71.5557" width="7.21053" height="6.88889" fill="#F99ECF"/>
<rect x="65.8418" y="64.6665" width="7.21053" height="6.88889" fill="#F99ECF"/>
<rect x="58.6309" y="71.5557" width="7.21053" height="6.88889" fill="#F99ECF"/>
<rect x="51.4219" y="64.6665" width="7.21053" height="6.88889" fill="#F99ECF"/>
<rect x="80.2637" y="92.2222" width="7.21053" height="6.88889" fill="#F99ECF"/>
<rect x="87.4746" y="85.3335" width="7.21053" height="6.88889" fill="#F99ECF"/>
<rect x="80.2637" y="85.3335" width="7.21053" height="6.88889" fill="#F99ECF"/>
<rect x="73.0527" y="85.3335" width="7.21053" height="6.88889" fill="#F99ECF"/>
<rect x="94.6836" y="78.4443" width="7.21053" height="6.88889" fill="#F99ECF"/>
<rect x="94.6836" y="71.5557" width="7.21053" height="6.88889" fill="#F99ECF"/>
<rect x="94.6836" y="64.6665" width="7.21053" height="6.88889" fill="#F99ECF"/>
<rect x="87.4746" y="57.7778" width="7.21053" height="6.88889" fill="#F99ECF"/>
<rect x="87.4746" y="64.6665" width="7.21053" height="6.88889" fill="#F99ECF"/>
<rect x="87.4746" y="71.5557" width="7.21053" height="6.88889" fill="#F99ECF"/>
<rect x="87.4746" y="78.4443" width="7.21053" height="6.88889" fill="#F99ECF"/>
<rect x="94.6836" y="57.7778" width="7.21053" height="6.88889" fill="#F99ECF"/>
<rect x="94.6836" y="50.8887" width="7.21053" height="6.88889" fill="#F99ECF"/>
<rect x="101.895" y="50.8887" width="7.21053" height="6.88889" fill="#F99ECF"/>
<rect x="101.895" y="57.7778" width="7.21053" height="6.88889" fill="#F99ECF"/>
<rect x="101.895" y="64.6665" width="7.21053" height="6.88889" fill="#F99ECF"/>
<rect x="101.895" y="71.5557" width="7.21053" height="6.88889" fill="#F99ECF"/>
<rect x="109.105" y="57.7778" width="7.21053" height="6.88889" fill="#F99ECF"/>
<rect x="109.105" y="64.6665" width="7.21053" height="6.88889" fill="#F99ECF"/>
<rect x="73.0527" y="99.1113" width="7.21053" height="6.88889" fill="white"/>
<rect x="65.8418" y="92.2222" width="7.21053" height="6.88889" fill="white"/>
<rect x="80.2637" y="51.3481" width="7.21053" height="6.88889" fill="white"/>
<rect x="58.6309" y="85.3335" width="7.21053" height="6.88889" fill="white"/>
<rect x="51.4219" y="78.4443" width="7.21053" height="6.88889" fill="white"/>
<rect x="44.2109" y="71.5557" width="7.21053" height="6.88889" fill="white"/>
<rect x="37" y="64.6665" width="7.21053" height="6.88889" fill="white"/>
<rect x="37" y="58.2368" width="7.21053" height="6.88889" fill="white"/>
<rect x="44.2109" y="51.3481" width="7.21053" height="6.88889" fill="white"/>
<rect x="51.4219" y="44.4595" width="7.21053" height="6.88889" fill="white"/>
<rect x="87.4746" y="44" width="7.21053" height="6.88889" fill="white"/>
<path d="M157.645 46.84C157.757 47.288 157.813 47.848 157.813 48.52C157.813 49.164 157.757 49.724 157.645 50.2C157.757 50.648 157.813 51.208 157.813 51.88C157.813 52.524 157.757 53.084 157.645 53.56C157.757 54.008 157.813 54.568 157.813 55.24C157.813 55.884 157.757 56.444 157.645 56.92C157.757 57.368 157.813 57.928 157.813 58.6C157.813 59.244 157.757 59.804 157.645 60.28C157.757 60.728 157.813 61.288 157.813 61.96C157.813 62.604 157.757 63.164 157.645 63.64H155.965C156.077 64.088 156.133 64.648 156.133 65.32C156.133 65.964 156.077 66.524 155.965 67H145.885C145.773 66.524 145.717 65.964 145.717 65.32C145.717 64.648 145.773 64.088 145.885 63.64H144.205C144.093 63.164 144.037 62.604 144.037 61.96C144.037 61.288 144.093 60.728 144.205 60.28C144.093 59.804 144.037 59.244 144.037 58.6C144.037 57.928 144.093 57.368 144.205 56.92C144.093 56.444 144.037 55.884 144.037 55.24C144.037 54.568 144.093 54.008 144.205 53.56C144.093 53.084 144.037 52.524 144.037 51.88C144.037 51.208 144.093 50.648 144.205 50.2C144.093 49.724 144.037 49.164 144.037 48.52C144.037 47.848 144.093 47.288 144.205 46.84C144.093 46.364 144.037 45.804 144.037 45.16C144.037 44.488 144.093 43.928 144.205 43.48H147.565C147.677 43.928 147.733 44.488 147.733 45.16C147.733 45.804 147.677 46.364 147.565 46.84C147.677 47.288 147.733 47.848 147.733 48.52C147.733 49.164 147.677 49.724 147.565 50.2C147.677 50.648 147.733 51.208 147.733 51.88C147.733 52.524 147.677 53.084 147.565 53.56C147.677 54.008 147.733 54.568 147.733 55.24C147.733 55.884 147.677 56.444 147.565 56.92C147.677 57.368 147.733 57.928 147.733 58.6C147.733 59.244 147.677 59.804 147.565 60.28C147.677 60.728 147.733 61.288 147.733 61.96C147.733 62.604 147.677 63.164 147.565 63.64H154.285C154.173 63.164 154.117 62.604 154.117 61.96C154.117 61.288 154.173 60.728 154.285 60.28C154.173 59.804 154.117 59.244 154.117 58.6C154.117 57.928 154.173 57.368 154.285 56.92C154.173 56.444 154.117 55.884 154.117 55.24C154.117 54.568 154.173 54.008 154.285 53.56C154.173 53.084 154.117 52.524 154.117 51.88C154.117 51.208 154.173 50.648 154.285 50.2C154.173 49.724 154.117 49.164 154.117 48.52C154.117 47.848 154.173 47.288 154.285 46.84C154.173 46.364 154.117 45.804 154.117 45.16C154.117 44.488 154.173 43.928 154.285 43.48H157.645C157.757 43.928 157.813 44.488 157.813 45.16C157.813 45.804 157.757 46.364 157.645 46.84ZM164.13 51.88C164.13 52.524 164.074 53.084 163.962 53.56H165.642C165.754 54.008 165.81 54.568 165.81 55.24C165.81 55.884 165.754 56.444 165.642 56.92H164.382C164.494 57.368 164.55 57.928 164.55 58.6C164.55 59.244 164.494 59.804 164.382 60.28C164.494 60.728 164.55 61.288 164.55 61.96C164.55 62.604 164.494 63.164 164.382 63.64C164.494 64.088 164.55 64.648 164.55 65.32C164.55 65.964 164.494 66.524 164.382 67H161.022C160.91 66.524 160.854 65.964 160.854 65.32C160.854 64.648 160.91 64.088 161.022 63.64C160.91 63.164 160.854 62.604 160.854 61.96C160.854 61.288 160.91 60.728 161.022 60.28C160.91 59.804 160.854 59.244 160.854 58.6C160.854 57.928 160.91 57.368 161.022 56.92C160.91 56.444 160.854 55.884 160.854 55.24C160.854 54.568 160.91 54.008 161.022 53.56C160.91 53.084 160.854 52.524 160.854 51.88C160.854 51.208 160.91 50.648 161.022 50.2H163.962C164.074 50.648 164.13 51.208 164.13 51.88ZM174.462 56.92C174.574 57.368 174.63 57.928 174.63 58.6C174.63 59.244 174.574 59.804 174.462 60.28C174.574 60.728 174.63 61.288 174.63 61.96C174.63 62.604 174.574 63.164 174.462 63.64C174.574 64.088 174.63 64.648 174.63 65.32C174.63 65.964 174.574 66.524 174.462 67H171.102C170.99 66.524 170.934 65.964 170.934 65.32C170.934 64.648 170.99 64.088 171.102 63.64C170.99 63.164 170.934 62.604 170.934 61.96C170.934 61.288 170.99 60.728 171.102 60.28C170.99 59.804 170.934 59.244 170.934 58.6C170.934 57.928 170.99 57.368 171.102 56.92C170.99 56.444 170.934 55.884 170.934 55.24C170.934 54.568 170.99 54.008 171.102 53.56H165.642C165.53 53.084 165.474 52.524 165.474 51.88C165.474 51.208 165.53 50.648 165.642 50.2H172.362C172.474 50.648 172.53 51.208 172.53 51.88C172.53 52.524 172.474 53.084 172.362 53.56H174.462C174.574 54.008 174.63 54.568 174.63 55.24C174.63 55.884 174.574 56.444 174.462 56.92ZM189.598 63.64C189.71 64.088 189.766 64.648 189.766 65.32C189.766 65.964 189.71 66.524 189.598 67H179.518C179.406 66.524 179.35 65.964 179.35 65.32C179.35 64.648 179.406 64.088 179.518 63.64H182.878C182.766 63.164 182.71 62.604 182.71 61.96C182.71 61.288 182.766 60.728 182.878 60.28C182.766 59.804 182.71 59.244 182.71 58.6C182.71 57.928 182.766 57.368 182.878 56.92C182.766 56.444 182.71 55.884 182.71 55.24C182.71 54.568 182.766 54.008 182.878 53.56C182.766 53.084 182.71 52.524 182.71 51.88C182.71 51.208 182.766 50.648 182.878 50.2C182.766 49.724 182.71 49.164 182.71 48.52C182.71 47.848 182.766 47.288 182.878 46.84H180.358C180.246 46.364 180.19 45.804 180.19 45.16C180.19 44.488 180.246 43.928 180.358 43.48H186.238C186.35 43.928 186.406 44.488 186.406 45.16C186.406 45.804 186.35 46.364 186.238 46.84C186.35 47.288 186.406 47.848 186.406 48.52C186.406 49.164 186.35 49.724 186.238 50.2C186.35 50.648 186.406 51.208 186.406 51.88C186.406 52.524 186.35 53.084 186.238 53.56C186.35 54.008 186.406 54.568 186.406 55.24C186.406 55.884 186.35 56.444 186.238 56.92C186.35 57.368 186.406 57.928 186.406 58.6C186.406 59.244 186.35 59.804 186.238 60.28C186.35 60.728 186.406 61.288 186.406 61.96C186.406 62.604 186.35 63.164 186.238 63.64H189.598ZM208.263 58.6C208.263 59.244 208.207 59.804 208.095 60.28H206.835C206.947 60.728 207.003 61.288 207.003 61.96C207.003 62.604 206.947 63.164 206.835 63.64H204.735C204.847 64.088 204.903 64.648 204.903 65.32C204.903 65.964 204.847 66.524 204.735 67H198.015C197.903 66.524 197.847 65.964 197.847 65.32C197.847 64.648 197.903 64.088 198.015 63.64H195.915C195.803 63.164 195.747 62.604 195.747 61.96C195.747 61.288 195.803 60.728 195.915 60.28H194.655C194.543 59.804 194.487 59.244 194.487 58.6C194.487 57.928 194.543 57.368 194.655 56.92H195.915C195.803 56.444 195.747 55.884 195.747 55.24C195.747 54.568 195.803 54.008 195.915 53.56H198.015C197.903 53.084 197.847 52.524 197.847 51.88C197.847 51.208 197.903 50.648 198.015 50.2H204.735C204.847 50.648 204.903 51.208 204.903 51.88C204.903 52.524 204.847 53.084 204.735 53.56H206.835C206.947 54.008 207.003 54.568 207.003 55.24C207.003 55.884 206.947 56.444 206.835 56.92H208.095C208.207 57.368 208.263 57.928 208.263 58.6ZM204.735 60.28C204.623 59.804 204.567 59.244 204.567 58.6C204.567 57.928 204.623 57.368 204.735 56.92H203.475C203.363 56.444 203.307 55.884 203.307 55.24C203.307 54.568 203.363 54.008 203.475 53.56H199.275C199.387 54.008 199.443 54.568 199.443 55.24C199.443 55.884 199.387 56.444 199.275 56.92H198.015C198.127 57.368 198.183 57.928 198.183 58.6C198.183 59.244 198.127 59.804 198.015 60.28H199.275C199.387 60.728 199.443 61.288 199.443 61.96C199.443 62.604 199.387 63.164 199.275 63.64H203.475C203.363 63.164 203.307 62.604 203.307 61.96C203.307 61.288 203.363 60.728 203.475 60.28H204.735ZM224.911 60.28C225.023 60.728 225.079 61.288 225.079 61.96C225.079 62.604 225.023 63.164 224.911 63.64H223.231C223.343 64.088 223.399 64.648 223.399 65.32C223.399 65.964 223.343 66.524 223.231 67H214.831C214.719 66.524 214.663 65.964 214.663 65.32C214.663 64.648 214.719 64.088 214.831 63.64H213.151C213.039 63.164 212.983 62.604 212.983 61.96C212.983 61.288 213.039 60.728 213.151 60.28H211.471C211.359 59.804 211.303 59.244 211.303 58.6C211.303 57.928 211.359 57.368 211.471 56.92H213.151C213.039 56.444 212.983 55.884 212.983 55.24C212.983 54.568 213.039 54.008 213.151 53.56H214.831C214.719 53.084 214.663 52.524 214.663 51.88C214.663 51.208 214.719 50.648 214.831 50.2H223.231C223.343 50.648 223.399 51.208 223.399 51.88C223.399 52.524 223.343 53.084 223.231 53.56H224.911C225.023 54.008 225.079 54.568 225.079 55.24C225.079 55.884 225.023 56.444 224.911 56.92H221.551C221.439 56.444 221.383 55.884 221.383 55.24C221.383 54.568 221.439 54.008 221.551 53.56H216.511C216.623 54.008 216.679 54.568 216.679 55.24C216.679 55.884 216.623 56.444 216.511 56.92H214.831C214.943 57.368 214.999 57.928 214.999 58.6C214.999 59.244 214.943 59.804 214.831 60.28H216.511C216.623 60.728 216.679 61.288 216.679 61.96C216.679 62.604 216.623 63.164 216.511 63.64H221.551C221.439 63.164 221.383 62.604 221.383 61.96C221.383 61.288 221.439 60.728 221.551 60.28H224.911ZM241.727 63.64C241.839 64.088 241.895 64.648 241.895 65.32C241.895 65.964 241.839 66.524 241.727 67H235.847C235.735 66.524 235.679 65.964 235.679 65.32C235.679 64.648 235.735 64.088 235.847 63.64H234.167C234.055 63.164 233.999 62.604 233.999 61.96C233.999 61.288 234.055 60.728 234.167 60.28H231.647C231.759 60.728 231.815 61.288 231.815 61.96C231.815 62.604 231.759 63.164 231.647 63.64C231.759 64.088 231.815 64.648 231.815 65.32C231.815 65.964 231.759 66.524 231.647 67H228.287C228.175 66.524 228.119 65.964 228.119 65.32C228.119 64.648 228.175 64.088 228.287 63.64C228.175 63.164 228.119 62.604 228.119 61.96C228.119 61.288 228.175 60.728 228.287 60.28C228.175 59.804 228.119 59.244 228.119 58.6C228.119 57.928 228.175 57.368 228.287 56.92C228.175 56.444 228.119 55.884 228.119 55.24C228.119 54.568 228.175 54.008 228.287 53.56C228.175 53.084 228.119 52.524 228.119 51.88C228.119 51.208 228.175 50.648 228.287 50.2C228.175 49.724 228.119 49.164 228.119 48.52C228.119 47.848 228.175 47.288 228.287 46.84C228.175 46.364 228.119 45.804 228.119 45.16C228.119 44.488 228.175 43.928 228.287 43.48H231.647C231.759 43.928 231.815 44.488 231.815 45.16C231.815 45.804 231.759 46.364 231.647 46.84C231.759 47.288 231.815 47.848 231.815 48.52C231.815 49.164 231.759 49.724 231.647 50.2C231.759 50.648 231.815 51.208 231.815 51.88C231.815 52.524 231.759 53.084 231.647 53.56C231.759 54.008 231.815 54.568 231.815 55.24C231.815 55.884 231.759 56.444 231.647 56.92H234.167C234.055 56.444 233.999 55.884 233.999 55.24C233.999 54.568 234.055 54.008 234.167 53.56H235.847C235.735 53.084 235.679 52.524 235.679 51.88C235.679 51.208 235.735 50.648 235.847 50.2H240.887C240.999 50.648 241.055 51.208 241.055 51.88C241.055 52.524 240.999 53.084 240.887 53.56H237.527C237.639 54.008 237.695 54.568 237.695 55.24C237.695 55.884 237.639 56.444 237.527 56.92H235.847C235.959 57.368 236.015 57.928 236.015 58.6C236.015 59.244 235.959 59.804 235.847 60.28H237.527C237.639 60.728 237.695 61.288 237.695 61.96C237.695 62.604 237.639 63.164 237.527 63.64H241.727ZM157.645 105.64C157.757 106.088 157.813 106.648 157.813 107.32C157.813 107.964 157.757 108.524 157.645 109H154.285C154.173 108.524 154.117 107.964 154.117 107.32C154.117 106.648 154.173 106.088 154.285 105.64H153.025C152.913 105.164 152.857 104.604 152.857 103.96C152.857 103.288 152.913 102.728 153.025 102.28H151.765C151.653 101.804 151.597 101.244 151.597 100.6C151.597 99.928 151.653 99.368 151.765 98.92H147.565C147.677 99.368 147.733 99.928 147.733 100.6C147.733 101.244 147.677 101.804 147.565 102.28C147.677 102.728 147.733 103.288 147.733 103.96C147.733 104.604 147.677 105.164 147.565 105.64C147.677 106.088 147.733 106.648 147.733 107.32C147.733 107.964 147.677 108.524 147.565 109H144.205C144.093 108.524 144.037 107.964 144.037 107.32C144.037 106.648 144.093 106.088 144.205 105.64C144.093 105.164 144.037 104.604 144.037 103.96C144.037 103.288 144.093 102.728 144.205 102.28C144.093 101.804 144.037 101.244 144.037 100.6C144.037 99.928 144.093 99.368 144.205 98.92C144.093 98.444 144.037 97.884 144.037 97.24C144.037 96.568 144.093 96.008 144.205 95.56C144.093 95.084 144.037 94.524 144.037 93.88C144.037 93.208 144.093 92.648 144.205 92.2C144.093 91.724 144.037 91.164 144.037 90.52C144.037 89.848 144.093 89.288 144.205 88.84C144.093 88.364 144.037 87.804 144.037 87.16C144.037 86.488 144.093 85.928 144.205 85.48H155.965C156.077 85.928 156.133 86.488 156.133 87.16C156.133 87.804 156.077 88.364 155.965 88.84H157.645C157.757 89.288 157.813 89.848 157.813 90.52C157.813 91.164 157.757 91.724 157.645 92.2H156.805C156.917 92.648 156.973 93.208 156.973 93.88C156.973 94.524 156.917 95.084 156.805 95.56H154.285C154.397 96.008 154.453 96.568 154.453 97.24C154.453 97.884 154.397 98.444 154.285 98.92H155.125C155.237 99.368 155.293 99.928 155.293 100.6C155.293 101.244 155.237 101.804 155.125 102.28H156.385C156.497 102.728 156.553 103.288 156.553 103.96C156.553 104.604 156.497 105.164 156.385 105.64H157.645ZM153.445 95.56C153.333 95.084 153.277 94.524 153.277 93.88C153.277 93.208 153.333 92.648 153.445 92.2C153.333 91.724 153.277 91.164 153.277 90.52C153.277 89.848 153.333 89.288 153.445 88.84H147.565C147.677 89.288 147.733 89.848 147.733 90.52C147.733 91.164 147.677 91.724 147.565 92.2C147.677 92.648 147.733 93.208 147.733 93.88C147.733 94.524 147.677 95.084 147.565 95.56H153.445ZM174.63 97.24C174.63 97.884 174.574 98.444 174.462 98.92C174.574 99.368 174.63 99.928 174.63 100.6C174.63 101.244 174.574 101.804 174.462 102.28H165.642C165.754 102.728 165.81 103.288 165.81 103.96C165.81 104.604 165.754 105.164 165.642 105.64H172.782C172.894 106.088 172.95 106.648 172.95 107.32C172.95 107.964 172.894 108.524 172.782 109H164.382C164.27 108.524 164.214 107.964 164.214 107.32C164.214 106.648 164.27 106.088 164.382 105.64H162.282C162.17 105.164 162.114 104.604 162.114 103.96C162.114 103.288 162.17 102.728 162.282 102.28H161.022C160.91 101.804 160.854 101.244 160.854 100.6C160.854 99.928 160.91 99.368 161.022 98.92H162.282C162.17 98.444 162.114 97.884 162.114 97.24C162.114 96.568 162.17 96.008 162.282 95.56H164.382C164.27 95.084 164.214 94.524 164.214 93.88C164.214 93.208 164.27 92.648 164.382 92.2H172.782C172.894 92.648 172.95 93.208 172.95 93.88C172.95 94.524 172.894 95.084 172.782 95.56H174.462C174.574 96.008 174.63 96.568 174.63 97.24ZM171.102 98.92C170.99 98.444 170.934 97.884 170.934 97.24C170.934 96.568 170.99 96.008 171.102 95.56H165.642C165.754 96.008 165.81 96.568 165.81 97.24C165.81 97.884 165.754 98.444 165.642 98.92H171.102ZM191.446 93.88C191.446 94.524 191.39 95.084 191.278 95.56C191.39 96.008 191.446 96.568 191.446 97.24C191.446 97.884 191.39 98.444 191.278 98.92H190.018C190.13 99.368 190.186 99.928 190.186 100.6C190.186 101.244 190.13 101.804 190.018 102.28C190.13 102.728 190.186 103.288 190.186 103.96C190.186 104.604 190.13 105.164 190.018 105.64H189.178C189.29 106.088 189.346 106.648 189.346 107.32C189.346 107.964 189.29 108.524 189.178 109H186.658C186.546 108.524 186.49 107.964 186.49 107.32C186.49 106.648 186.546 106.088 186.658 105.64H185.818C185.706 105.164 185.65 104.604 185.65 103.96C185.65 103.288 185.706 102.728 185.818 102.28H183.298C183.41 102.728 183.466 103.288 183.466 103.96C183.466 104.604 183.41 105.164 183.298 105.64H182.458C182.57 106.088 182.626 106.648 182.626 107.32C182.626 107.964 182.57 108.524 182.458 109H179.938C179.826 108.524 179.77 107.964 179.77 107.32C179.77 106.648 179.826 106.088 179.938 105.64H179.098C178.986 105.164 178.93 104.604 178.93 103.96C178.93 103.288 178.986 102.728 179.098 102.28C178.986 101.804 178.93 101.244 178.93 100.6C178.93 99.928 178.986 99.368 179.098 98.92H177.838C177.726 98.444 177.67 97.884 177.67 97.24C177.67 96.568 177.726 96.008 177.838 95.56C177.726 95.084 177.67 94.524 177.67 93.88C177.67 93.208 177.726 92.648 177.838 92.2H181.198C181.31 92.648 181.366 93.208 181.366 93.88C181.366 94.524 181.31 95.084 181.198 95.56C181.31 96.008 181.366 96.568 181.366 97.24C181.366 97.884 181.31 98.444 181.198 98.92C181.31 99.368 181.366 99.928 181.366 100.6C181.366 101.244 181.31 101.804 181.198 102.28H182.458C182.346 101.804 182.29 101.244 182.29 100.6C182.29 99.928 182.346 99.368 182.458 98.92H183.298C183.186 98.444 183.13 97.884 183.13 97.24C183.13 96.568 183.186 96.008 183.298 95.56C183.186 95.084 183.13 94.524 183.13 93.88C183.13 93.208 183.186 92.648 183.298 92.2H185.818C185.93 92.648 185.986 93.208 185.986 93.88C185.986 94.524 185.93 95.084 185.818 95.56C185.93 96.008 185.986 96.568 185.986 97.24C185.986 97.884 185.93 98.444 185.818 98.92H186.658C186.77 99.368 186.826 99.928 186.826 100.6C186.826 101.244 186.77 101.804 186.658 102.28H187.918C187.806 101.804 187.75 101.244 187.75 100.6C187.75 99.928 187.806 99.368 187.918 98.92C187.806 98.444 187.75 97.884 187.75 97.24C187.75 96.568 187.806 96.008 187.918 95.56C187.806 95.084 187.75 94.524 187.75 93.88C187.75 93.208 187.806 92.648 187.918 92.2H191.278C191.39 92.648 191.446 93.208 191.446 93.88ZM208.095 105.64C208.207 106.088 208.263 106.648 208.263 107.32C208.263 107.964 208.207 108.524 208.095 109H204.735C204.623 108.524 204.567 107.964 204.567 107.32C204.567 106.648 204.623 106.088 204.735 105.64H203.055C202.943 105.164 202.887 104.604 202.887 103.96C202.887 103.288 202.943 102.728 203.055 102.28H198.015C198.127 102.728 198.183 103.288 198.183 103.96C198.183 104.604 198.127 105.164 198.015 105.64H203.055C203.167 106.088 203.223 106.648 203.223 107.32C203.223 107.964 203.167 108.524 203.055 109H196.335C196.223 108.524 196.167 107.964 196.167 107.32C196.167 106.648 196.223 106.088 196.335 105.64H194.655C194.543 105.164 194.487 104.604 194.487 103.96C194.487 103.288 194.543 102.728 194.655 102.28H196.335C196.223 101.804 196.167 101.244 196.167 100.6C196.167 99.928 196.223 99.368 196.335 98.92H203.055C202.943 98.444 202.887 97.884 202.887 97.24C202.887 96.568 202.943 96.008 203.055 95.56H197.175C197.063 95.084 197.007 94.524 197.007 93.88C197.007 93.208 197.063 92.648 197.175 92.2H204.735C204.847 92.648 204.903 93.208 204.903 93.88C204.903 94.524 204.847 95.084 204.735 95.56H206.415C206.527 96.008 206.583 96.568 206.583 97.24C206.583 97.884 206.527 98.444 206.415 98.92C206.527 99.368 206.583 99.928 206.583 100.6C206.583 101.244 206.527 101.804 206.415 102.28C206.527 102.728 206.583 103.288 206.583 103.96C206.583 104.604 206.527 105.164 206.415 105.64H208.095ZM224.911 95.56C225.023 96.008 225.079 96.568 225.079 97.24C225.079 97.884 225.023 98.444 224.911 98.92H221.551C221.439 98.444 221.383 97.884 221.383 97.24C221.383 96.568 221.439 96.008 221.551 95.56H218.611C218.723 96.008 218.779 96.568 218.779 97.24C218.779 97.884 218.723 98.444 218.611 98.92H217.351C217.463 99.368 217.519 99.928 217.519 100.6C217.519 101.244 217.463 101.804 217.351 102.28C217.463 102.728 217.519 103.288 217.519 103.96C217.519 104.604 217.463 105.164 217.351 105.64H219.871C219.983 106.088 220.039 106.648 220.039 107.32C220.039 107.964 219.983 108.524 219.871 109H211.471C211.359 108.524 211.303 107.964 211.303 107.32C211.303 106.648 211.359 106.088 211.471 105.64H213.991C213.879 105.164 213.823 104.604 213.823 103.96C213.823 103.288 213.879 102.728 213.991 102.28C213.879 101.804 213.823 101.244 213.823 100.6C213.823 99.928 213.879 99.368 213.991 98.92C213.879 98.444 213.823 97.884 213.823 97.24C213.823 96.568 213.879 96.008 213.991 95.56H211.471C211.359 95.084 211.303 94.524 211.303 93.88C211.303 93.208 211.359 92.648 211.471 92.2H215.671C215.783 92.648 215.839 93.208 215.839 93.88C215.839 94.524 215.783 95.084 215.671 95.56H217.351C217.239 95.084 217.183 94.524 217.183 93.88C217.183 93.208 217.239 92.648 217.351 92.2H223.651C223.763 92.648 223.819 93.208 223.819 93.88C223.819 94.524 223.763 95.084 223.651 95.56H224.911ZM241.727 88.84C241.839 89.288 241.895 89.848 241.895 90.52C241.895 91.164 241.839 91.724 241.727 92.2C241.839 92.648 241.895 93.208 241.895 93.88C241.895 94.524 241.839 95.084 241.727 95.56C241.839 96.008 241.895 96.568 241.895 97.24C241.895 97.884 241.839 98.444 241.727 98.92C241.839 99.368 241.895 99.928 241.895 100.6C241.895 101.244 241.839 101.804 241.727 102.28C241.839 102.728 241.895 103.288 241.895 103.96C241.895 104.604 241.839 105.164 241.727 105.64C241.839 106.088 241.895 106.648 241.895 107.32C241.895 107.964 241.839 108.524 241.727 109H238.367C238.255 108.524 238.199 107.964 238.199 107.32C238.199 106.648 238.255 106.088 238.367 105.64H237.107C236.995 105.164 236.939 104.604 236.939 103.96C236.939 103.288 236.995 102.728 237.107 102.28H238.367C238.255 101.804 238.199 101.244 238.199 100.6C238.199 99.928 238.255 99.368 238.367 98.92H237.107C236.995 98.444 236.939 97.884 236.939 97.24C236.939 96.568 236.995 96.008 237.107 95.56H238.367C238.255 95.084 238.199 94.524 238.199 93.88C238.199 93.208 238.255 92.648 238.367 92.2C238.255 91.724 238.199 91.164 238.199 90.52C238.199 89.848 238.255 89.288 238.367 88.84C238.255 88.364 238.199 87.804 238.199 87.16C238.199 86.488 238.255 85.928 238.367 85.48H241.727C241.839 85.928 241.895 86.488 241.895 87.16C241.895 87.804 241.839 88.364 241.727 88.84ZM236.435 93.88C236.435 94.524 236.379 95.084 236.267 95.56H232.067C232.179 96.008 232.235 96.568 232.235 97.24C232.235 97.884 232.179 98.444 232.067 98.92H230.807C230.919 99.368 230.975 99.928 230.975 100.6C230.975 101.244 230.919 101.804 230.807 102.28H232.067C232.179 102.728 232.235 103.288 232.235 103.96C232.235 104.604 232.179 105.164 232.067 105.64H236.267C236.379 106.088 236.435 106.648 236.435 107.32C236.435 107.964 236.379 108.524 236.267 109H231.647C231.535 108.524 231.479 107.964 231.479 107.32C231.479 106.648 231.535 106.088 231.647 105.64H229.547C229.435 105.164 229.379 104.604 229.379 103.96C229.379 103.288 229.435 102.728 229.547 102.28H228.287C228.175 101.804 228.119 101.244 228.119 100.6C228.119 99.928 228.175 99.368 228.287 98.92H229.547C229.435 98.444 229.379 97.884 229.379 97.24C229.379 96.568 229.435 96.008 229.547 95.56H231.647C231.535 95.084 231.479 94.524 231.479 93.88C231.479 93.208 231.535 92.648 231.647 92.2H236.267C236.379 92.648 236.435 93.208 236.435 93.88ZM257.872 103.96C257.872 104.604 257.816 105.164 257.704 105.64H256.024C256.136 106.088 256.192 106.648 256.192 107.32C256.192 107.964 256.136 108.524 256.024 109H246.784C246.672 108.524 246.616 107.964 246.616 107.32C246.616 106.648 246.672 106.088 246.784 105.64H254.344C254.232 105.164 254.176 104.604 254.176 103.96C254.176 103.288 254.232 102.728 254.344 102.28H247.624C247.512 101.804 247.456 101.244 247.456 100.6C247.456 99.928 247.512 99.368 247.624 98.92H245.944C245.832 98.444 245.776 97.884 245.776 97.24C245.776 96.568 245.832 96.008 245.944 95.56H247.624C247.512 95.084 247.456 94.524 247.456 93.88C247.456 93.208 247.512 92.648 247.624 92.2H256.864C256.976 92.648 257.032 93.208 257.032 93.88C257.032 94.524 256.976 95.084 256.864 95.56H249.304C249.416 96.008 249.472 96.568 249.472 97.24C249.472 97.884 249.416 98.444 249.304 98.92H256.024C256.136 99.368 256.192 99.928 256.192 100.6C256.192 101.244 256.136 101.804 256.024 102.28H257.704C257.816 102.728 257.872 103.288 257.872 103.96Z" fill="white"/>
<path d="M68.9023 156.668V159H59.8438V156.668H68.9023ZM60.6758 141.938V159H57.7344V141.938H60.6758ZM67.7188 149.062V151.359H59.8438V149.062H67.7188ZM68.8438 141.938V144.281H59.8438V141.938H68.8438ZM78.1719 156.457V150.41C78.1719 149.957 78.0898 149.566 77.9258 149.238C77.7617 148.91 77.5117 148.656 77.1758 148.477C76.8477 148.297 76.4336 148.207 75.9336 148.207C75.4727 148.207 75.0742 148.285 74.7383 148.441C74.4023 148.598 74.1406 148.809 73.9531 149.074C73.7656 149.34 73.6719 149.641 73.6719 149.977H70.8594C70.8594 149.477 70.9805 148.992 71.2227 148.523C71.4648 148.055 71.8164 147.637 72.2773 147.27C72.7383 146.902 73.2891 146.613 73.9297 146.402C74.5703 146.191 75.2891 146.086 76.0859 146.086C77.0391 146.086 77.8828 146.246 78.6172 146.566C79.3594 146.887 79.9414 147.371 80.3633 148.02C80.793 148.66 81.0078 149.465 81.0078 150.434V156.07C81.0078 156.648 81.0469 157.168 81.125 157.629C81.2109 158.082 81.332 158.477 81.4883 158.812V159H78.5938C78.4609 158.695 78.3555 158.309 78.2773 157.84C78.207 157.363 78.1719 156.902 78.1719 156.457ZM78.582 151.289L78.6055 153.035H76.5781C76.0547 153.035 75.5938 153.086 75.1953 153.188C74.7969 153.281 74.4648 153.422 74.1992 153.609C73.9336 153.797 73.7344 154.023 73.6016 154.289C73.4688 154.555 73.4023 154.855 73.4023 155.191C73.4023 155.527 73.4805 155.836 73.6367 156.117C73.793 156.391 74.0195 156.605 74.3164 156.762C74.6211 156.918 74.9883 156.996 75.418 156.996C75.9961 156.996 76.5 156.879 76.9297 156.645C77.3672 156.402 77.7109 156.109 77.9609 155.766C78.2109 155.414 78.3438 155.082 78.3594 154.77L79.2734 156.023C79.1797 156.344 79.0195 156.688 78.793 157.055C78.5664 157.422 78.2695 157.773 77.9023 158.109C77.543 158.438 77.1094 158.707 76.6016 158.918C76.1016 159.129 75.5234 159.234 74.8672 159.234C74.0391 159.234 73.3008 159.07 72.6523 158.742C72.0039 158.406 71.4961 157.957 71.1289 157.395C70.7617 156.824 70.5781 156.18 70.5781 155.461C70.5781 154.789 70.7031 154.195 70.9531 153.68C71.2109 153.156 71.5859 152.719 72.0781 152.367C72.5781 152.016 73.1875 151.75 73.9062 151.57C74.625 151.383 75.4453 151.289 76.3672 151.289H78.582ZM86.7969 148.734V159H83.9727V146.32H86.668L86.7969 148.734ZM90.6758 146.238L90.6523 148.863C90.4805 148.832 90.293 148.809 90.0898 148.793C89.8945 148.777 89.6992 148.77 89.5039 148.77C89.0195 148.77 88.5938 148.84 88.2266 148.98C87.8594 149.113 87.5508 149.309 87.3008 149.566C87.0586 149.816 86.8711 150.121 86.7383 150.48C86.6055 150.84 86.5273 151.242 86.5039 151.688L85.8594 151.734C85.8594 150.938 85.9375 150.199 86.0938 149.52C86.25 148.84 86.4844 148.242 86.7969 147.727C87.1172 147.211 87.5156 146.809 87.9922 146.52C88.4766 146.23 89.0352 146.086 89.668 146.086C89.8398 146.086 90.0234 146.102 90.2188 146.133C90.4219 146.164 90.5742 146.199 90.6758 146.238ZM95.2461 149.027V159H92.4219V146.32H95.082L95.2461 149.027ZM94.7422 152.191L93.8281 152.18C93.8359 151.281 93.9609 150.457 94.2031 149.707C94.4531 148.957 94.7969 148.312 95.2344 147.773C95.6797 147.234 96.2109 146.82 96.8281 146.531C97.4453 146.234 98.1328 146.086 98.8906 146.086C99.5 146.086 100.051 146.172 100.543 146.344C101.043 146.508 101.469 146.777 101.82 147.152C102.18 147.527 102.453 148.016 102.641 148.617C102.828 149.211 102.922 149.941 102.922 150.809V159H100.086V150.797C100.086 150.188 99.9961 149.707 99.8164 149.355C99.6445 148.996 99.3906 148.742 99.0547 148.594C98.7266 148.438 98.3164 148.359 97.8242 148.359C97.3398 148.359 96.9062 148.461 96.5234 148.664C96.1406 148.867 95.8164 149.145 95.5508 149.496C95.293 149.848 95.0938 150.254 94.9531 150.715C94.8125 151.176 94.7422 151.668 94.7422 152.191ZM111.793 141H114.617V156.293L114.348 159H111.793V141ZM122.891 152.543V152.789C122.891 153.727 122.785 154.59 122.574 155.379C122.371 156.16 122.059 156.84 121.637 157.418C121.223 157.996 120.707 158.445 120.09 158.766C119.48 159.078 118.773 159.234 117.969 159.234C117.18 159.234 116.492 159.086 115.906 158.789C115.32 158.492 114.828 158.07 114.43 157.523C114.039 156.977 113.723 156.324 113.48 155.566C113.238 154.809 113.066 153.973 112.965 153.059V152.273C113.066 151.352 113.238 150.516 113.48 149.766C113.723 149.008 114.039 148.355 114.43 147.809C114.828 147.254 115.316 146.828 115.895 146.531C116.48 146.234 117.164 146.086 117.945 146.086C118.758 146.086 119.473 146.242 120.09 146.555C120.715 146.867 121.234 147.312 121.648 147.891C122.062 148.461 122.371 149.141 122.574 149.93C122.785 150.719 122.891 151.59 122.891 152.543ZM120.066 152.789V152.543C120.066 151.973 120.02 151.438 119.926 150.938C119.832 150.43 119.676 149.984 119.457 149.602C119.246 149.219 118.957 148.918 118.59 148.699C118.23 148.473 117.781 148.359 117.242 148.359C116.742 148.359 116.312 148.445 115.953 148.617C115.594 148.789 115.293 149.023 115.051 149.32C114.809 149.617 114.617 149.961 114.477 150.352C114.344 150.742 114.254 151.164 114.207 151.617V153.738C114.277 154.324 114.426 154.863 114.652 155.355C114.887 155.84 115.215 156.23 115.637 156.527C116.059 156.816 116.602 156.961 117.266 156.961C117.789 156.961 118.23 156.855 118.59 156.645C118.949 156.434 119.234 156.141 119.445 155.766C119.664 155.383 119.82 154.938 119.914 154.43C120.016 153.922 120.066 153.375 120.066 152.789ZM132.43 156.457V150.41C132.43 149.957 132.348 149.566 132.184 149.238C132.02 148.91 131.77 148.656 131.434 148.477C131.105 148.297 130.691 148.207 130.191 148.207C129.73 148.207 129.332 148.285 128.996 148.441C128.66 148.598 128.398 148.809 128.211 149.074C128.023 149.34 127.93 149.641 127.93 149.977H125.117C125.117 149.477 125.238 148.992 125.48 148.523C125.723 148.055 126.074 147.637 126.535 147.27C126.996 146.902 127.547 146.613 128.188 146.402C128.828 146.191 129.547 146.086 130.344 146.086C131.297 146.086 132.141 146.246 132.875 146.566C133.617 146.887 134.199 147.371 134.621 148.02C135.051 148.66 135.266 149.465 135.266 150.434V156.07C135.266 156.648 135.305 157.168 135.383 157.629C135.469 158.082 135.59 158.477 135.746 158.812V159H132.852C132.719 158.695 132.613 158.309 132.535 157.84C132.465 157.363 132.43 156.902 132.43 156.457ZM132.84 151.289L132.863 153.035H130.836C130.312 153.035 129.852 153.086 129.453 153.188C129.055 153.281 128.723 153.422 128.457 153.609C128.191 153.797 127.992 154.023 127.859 154.289C127.727 154.555 127.66 154.855 127.66 155.191C127.66 155.527 127.738 155.836 127.895 156.117C128.051 156.391 128.277 156.605 128.574 156.762C128.879 156.918 129.246 156.996 129.676 156.996C130.254 156.996 130.758 156.879 131.188 156.645C131.625 156.402 131.969 156.109 132.219 155.766C132.469 155.414 132.602 155.082 132.617 154.77L133.531 156.023C133.438 156.344 133.277 156.688 133.051 157.055C132.824 157.422 132.527 157.773 132.16 158.109C131.801 158.438 131.367 158.707 130.859 158.918C130.359 159.129 129.781 159.234 129.125 159.234C128.297 159.234 127.559 159.07 126.91 158.742C126.262 158.406 125.754 157.957 125.387 157.395C125.02 156.824 124.836 156.18 124.836 155.461C124.836 154.789 124.961 154.195 125.211 153.68C125.469 153.156 125.844 152.719 126.336 152.367C126.836 152.016 127.445 151.75 128.164 151.57C128.883 151.383 129.703 151.289 130.625 151.289H132.84ZM145.953 156.375V141H148.789V159H146.223L145.953 156.375ZM137.703 152.801V152.555C137.703 151.594 137.816 150.719 138.043 149.93C138.27 149.133 138.598 148.449 139.027 147.879C139.457 147.301 139.98 146.859 140.598 146.555C141.215 146.242 141.91 146.086 142.684 146.086C143.449 146.086 144.121 146.234 144.699 146.531C145.277 146.828 145.77 147.254 146.176 147.809C146.582 148.355 146.906 149.012 147.148 149.777C147.391 150.535 147.562 151.379 147.664 152.309V153.094C147.562 154 147.391 154.828 147.148 155.578C146.906 156.328 146.582 156.977 146.176 157.523C145.77 158.07 145.273 158.492 144.688 158.789C144.109 159.086 143.434 159.234 142.66 159.234C141.895 159.234 141.203 159.074 140.586 158.754C139.977 158.434 139.457 157.984 139.027 157.406C138.598 156.828 138.27 156.148 138.043 155.367C137.816 154.578 137.703 153.723 137.703 152.801ZM140.527 152.555V152.801C140.527 153.379 140.578 153.918 140.68 154.418C140.789 154.918 140.957 155.359 141.184 155.742C141.41 156.117 141.703 156.414 142.062 156.633C142.43 156.844 142.867 156.949 143.375 156.949C144.016 156.949 144.543 156.809 144.957 156.527C145.371 156.246 145.695 155.867 145.93 155.391C146.172 154.906 146.336 154.367 146.422 153.773V151.652C146.375 151.191 146.277 150.762 146.129 150.363C145.988 149.965 145.797 149.617 145.555 149.32C145.312 149.016 145.012 148.781 144.652 148.617C144.301 148.445 143.883 148.359 143.398 148.359C142.883 148.359 142.445 148.469 142.086 148.688C141.727 148.906 141.43 149.207 141.195 149.59C140.969 149.973 140.801 150.418 140.691 150.926C140.582 151.434 140.527 151.977 140.527 152.555ZM159.863 146.32H162.43V158.648C162.43 159.789 162.188 160.758 161.703 161.555C161.219 162.352 160.543 162.957 159.676 163.371C158.809 163.793 157.805 164.004 156.664 164.004C156.18 164.004 155.641 163.934 155.047 163.793C154.461 163.652 153.891 163.426 153.336 163.113C152.789 162.809 152.332 162.406 151.965 161.906L153.289 160.242C153.742 160.781 154.242 161.176 154.789 161.426C155.336 161.676 155.91 161.801 156.512 161.801C157.16 161.801 157.711 161.68 158.164 161.438C158.625 161.203 158.98 160.855 159.23 160.395C159.48 159.934 159.605 159.371 159.605 158.707V149.191L159.863 146.32ZM151.25 152.801V152.555C151.25 151.594 151.367 150.719 151.602 149.93C151.836 149.133 152.172 148.449 152.609 147.879C153.047 147.301 153.578 146.859 154.203 146.555C154.828 146.242 155.535 146.086 156.324 146.086C157.145 146.086 157.844 146.234 158.422 146.531C159.008 146.828 159.496 147.254 159.887 147.809C160.277 148.355 160.582 149.012 160.801 149.777C161.027 150.535 161.195 151.379 161.305 152.309V153.094C161.203 154 161.031 154.828 160.789 155.578C160.547 156.328 160.227 156.977 159.828 157.523C159.43 158.07 158.938 158.492 158.352 158.789C157.773 159.086 157.09 159.234 156.301 159.234C155.527 159.234 154.828 159.074 154.203 158.754C153.586 158.434 153.055 157.984 152.609 157.406C152.172 156.828 151.836 156.148 151.602 155.367C151.367 154.578 151.25 153.723 151.25 152.801ZM154.074 152.555V152.801C154.074 153.379 154.129 153.918 154.238 154.418C154.355 154.918 154.531 155.359 154.766 155.742C155.008 156.117 155.312 156.414 155.68 156.633C156.055 156.844 156.496 156.949 157.004 156.949C157.668 156.949 158.211 156.809 158.633 156.527C159.062 156.246 159.391 155.867 159.617 155.391C159.852 154.906 160.016 154.367 160.109 153.773V151.652C160.062 151.191 159.965 150.762 159.816 150.363C159.676 149.965 159.484 149.617 159.242 149.32C159 149.016 158.695 148.781 158.328 148.617C157.961 148.445 157.527 148.359 157.027 148.359C156.52 148.359 156.078 148.469 155.703 148.688C155.328 148.906 155.02 149.207 154.777 149.59C154.543 149.973 154.367 150.418 154.25 150.926C154.133 151.434 154.074 151.977 154.074 152.555ZM170.949 159.234C170.012 159.234 169.164 159.082 168.406 158.777C167.656 158.465 167.016 158.031 166.484 157.477C165.961 156.922 165.559 156.27 165.277 155.52C164.996 154.77 164.855 153.961 164.855 153.094V152.625C164.855 151.633 165 150.734 165.289 149.93C165.578 149.125 165.98 148.438 166.496 147.867C167.012 147.289 167.621 146.848 168.324 146.543C169.027 146.238 169.789 146.086 170.609 146.086C171.516 146.086 172.309 146.238 172.988 146.543C173.668 146.848 174.23 147.277 174.676 147.832C175.129 148.379 175.465 149.031 175.684 149.789C175.91 150.547 176.023 151.383 176.023 152.297V153.504H166.227V151.477H173.234V151.254C173.219 150.746 173.117 150.27 172.93 149.824C172.75 149.379 172.473 149.02 172.098 148.746C171.723 148.473 171.223 148.336 170.598 148.336C170.129 148.336 169.711 148.438 169.344 148.641C168.984 148.836 168.684 149.121 168.441 149.496C168.199 149.871 168.012 150.324 167.879 150.855C167.754 151.379 167.691 151.969 167.691 152.625V153.094C167.691 153.648 167.766 154.164 167.914 154.641C168.07 155.109 168.297 155.52 168.594 155.871C168.891 156.223 169.25 156.5 169.672 156.703C170.094 156.898 170.574 156.996 171.113 156.996C171.793 156.996 172.398 156.859 172.93 156.586C173.461 156.312 173.922 155.926 174.312 155.426L175.801 156.867C175.527 157.266 175.172 157.648 174.734 158.016C174.297 158.375 173.762 158.668 173.129 158.895C172.504 159.121 171.777 159.234 170.949 159.234ZM185.34 155.566C185.34 155.285 185.27 155.031 185.129 154.805C184.988 154.57 184.719 154.359 184.32 154.172C183.93 153.984 183.352 153.812 182.586 153.656C181.914 153.508 181.297 153.332 180.734 153.129C180.18 152.918 179.703 152.664 179.305 152.367C178.906 152.07 178.598 151.719 178.379 151.312C178.16 150.906 178.051 150.438 178.051 149.906C178.051 149.391 178.164 148.902 178.391 148.441C178.617 147.98 178.941 147.574 179.363 147.223C179.785 146.871 180.297 146.594 180.898 146.391C181.508 146.188 182.188 146.086 182.938 146.086C184 146.086 184.91 146.266 185.668 146.625C186.434 146.977 187.02 147.457 187.426 148.066C187.832 148.668 188.035 149.348 188.035 150.105H185.211C185.211 149.77 185.125 149.457 184.953 149.168C184.789 148.871 184.539 148.633 184.203 148.453C183.867 148.266 183.445 148.172 182.938 148.172C182.453 148.172 182.051 148.25 181.73 148.406C181.418 148.555 181.184 148.75 181.027 148.992C180.879 149.234 180.805 149.5 180.805 149.789C180.805 150 180.844 150.191 180.922 150.363C181.008 150.527 181.148 150.68 181.344 150.82C181.539 150.953 181.805 151.078 182.141 151.195C182.484 151.312 182.914 151.426 183.43 151.535C184.398 151.738 185.23 152 185.926 152.32C186.629 152.633 187.168 153.039 187.543 153.539C187.918 154.031 188.105 154.656 188.105 155.414C188.105 155.977 187.984 156.492 187.742 156.961C187.508 157.422 187.164 157.824 186.711 158.168C186.258 158.504 185.715 158.766 185.082 158.953C184.457 159.141 183.754 159.234 182.973 159.234C181.824 159.234 180.852 159.031 180.055 158.625C179.258 158.211 178.652 157.684 178.238 157.043C177.832 156.395 177.629 155.723 177.629 155.027H180.359C180.391 155.551 180.535 155.969 180.793 156.281C181.059 156.586 181.387 156.809 181.777 156.949C182.176 157.082 182.586 157.148 183.008 157.148C183.516 157.148 183.941 157.082 184.285 156.949C184.629 156.809 184.891 156.621 185.07 156.387C185.25 156.145 185.34 155.871 185.34 155.566ZM193.227 156.281L193.215 158.297C193.215 159.094 193.016 159.914 192.617 160.758C192.219 161.602 191.691 162.297 191.035 162.844L189.523 161.965C189.742 161.613 189.941 161.258 190.121 160.898C190.301 160.539 190.445 160.156 190.555 159.75C190.664 159.344 190.719 158.895 190.719 158.402V156.281H193.227ZM207.102 156.984C207.562 156.984 207.977 156.895 208.344 156.715C208.719 156.527 209.02 156.27 209.246 155.941C209.48 155.613 209.609 155.234 209.633 154.805H212.293C212.277 155.625 212.035 156.371 211.566 157.043C211.098 157.715 210.477 158.25 209.703 158.648C208.93 159.039 208.074 159.234 207.137 159.234C206.168 159.234 205.324 159.07 204.605 158.742C203.887 158.406 203.289 157.945 202.812 157.359C202.336 156.773 201.977 156.098 201.734 155.332C201.5 154.566 201.383 153.746 201.383 152.871V152.461C201.383 151.586 201.5 150.766 201.734 150C201.977 149.227 202.336 148.547 202.812 147.961C203.289 147.375 203.887 146.918 204.605 146.59C205.324 146.254 206.164 146.086 207.125 146.086C208.141 146.086 209.031 146.289 209.797 146.695C210.562 147.094 211.164 147.652 211.602 148.371C212.047 149.082 212.277 149.91 212.293 150.855H209.633C209.609 150.387 209.492 149.965 209.281 149.59C209.078 149.207 208.789 148.902 208.414 148.676C208.047 148.449 207.605 148.336 207.09 148.336C206.52 148.336 206.047 148.453 205.672 148.688C205.297 148.914 205.004 149.227 204.793 149.625C204.582 150.016 204.43 150.457 204.336 150.949C204.25 151.434 204.207 151.938 204.207 152.461V152.871C204.207 153.395 204.25 153.902 204.336 154.395C204.422 154.887 204.57 155.328 204.781 155.719C205 156.102 205.297 156.41 205.672 156.645C206.047 156.871 206.523 156.984 207.102 156.984ZM213.922 152.801V152.531C213.922 151.617 214.055 150.77 214.32 149.988C214.586 149.199 214.969 148.516 215.469 147.938C215.977 147.352 216.594 146.898 217.32 146.578C218.055 146.25 218.883 146.086 219.805 146.086C220.734 146.086 221.562 146.25 222.289 146.578C223.023 146.898 223.645 147.352 224.152 147.938C224.66 148.516 225.047 149.199 225.312 149.988C225.578 150.77 225.711 151.617 225.711 152.531V152.801C225.711 153.715 225.578 154.562 225.312 155.344C225.047 156.125 224.66 156.809 224.152 157.395C223.645 157.973 223.027 158.426 222.301 158.754C221.574 159.074 220.75 159.234 219.828 159.234C218.898 159.234 218.066 159.074 217.332 158.754C216.605 158.426 215.988 157.973 215.48 157.395C214.973 156.809 214.586 156.125 214.32 155.344C214.055 154.562 213.922 153.715 213.922 152.801ZM216.746 152.531V152.801C216.746 153.371 216.805 153.91 216.922 154.418C217.039 154.926 217.223 155.371 217.473 155.754C217.723 156.137 218.043 156.438 218.434 156.656C218.824 156.875 219.289 156.984 219.828 156.984C220.352 156.984 220.805 156.875 221.188 156.656C221.578 156.438 221.898 156.137 222.148 155.754C222.398 155.371 222.582 154.926 222.699 154.418C222.824 153.91 222.887 153.371 222.887 152.801V152.531C222.887 151.969 222.824 151.438 222.699 150.938C222.582 150.43 222.395 149.98 222.137 149.59C221.887 149.199 221.566 148.895 221.176 148.676C220.793 148.449 220.336 148.336 219.805 148.336C219.273 148.336 218.812 148.449 218.422 148.676C218.039 148.895 217.723 149.199 217.473 149.59C217.223 149.98 217.039 150.43 216.922 150.938C216.805 151.438 216.746 151.969 216.746 152.531ZM231.102 146.32V159H228.266V146.32H231.102ZM228.078 142.992C228.078 142.562 228.219 142.207 228.5 141.926C228.789 141.637 229.188 141.492 229.695 141.492C230.195 141.492 230.59 141.637 230.879 141.926C231.168 142.207 231.312 142.562 231.312 142.992C231.312 143.414 231.168 143.766 230.879 144.047C230.59 144.328 230.195 144.469 229.695 144.469C229.188 144.469 228.789 144.328 228.5 144.047C228.219 143.766 228.078 143.414 228.078 142.992ZM236.996 149.027V159H234.172V146.32H236.832L236.996 149.027ZM236.492 152.191L235.578 152.18C235.586 151.281 235.711 150.457 235.953 149.707C236.203 148.957 236.547 148.312 236.984 147.773C237.43 147.234 237.961 146.82 238.578 146.531C239.195 146.234 239.883 146.086 240.641 146.086C241.25 146.086 241.801 146.172 242.293 146.344C242.793 146.508 243.219 146.777 243.57 147.152C243.93 147.527 244.203 148.016 244.391 148.617C244.578 149.211 244.672 149.941 244.672 150.809V159H241.836V150.797C241.836 150.188 241.746 149.707 241.566 149.355C241.395 148.996 241.141 148.742 240.805 148.594C240.477 148.438 240.066 148.359 239.574 148.359C239.09 148.359 238.656 148.461 238.273 148.664C237.891 148.867 237.566 149.145 237.301 149.496C237.043 149.848 236.844 150.254 236.703 150.715C236.562 151.176 236.492 151.668 236.492 152.191ZM254.668 155.566C254.668 155.285 254.598 155.031 254.457 154.805C254.316 154.57 254.047 154.359 253.648 154.172C253.258 153.984 252.68 153.812 251.914 153.656C251.242 153.508 250.625 153.332 250.062 153.129C249.508 152.918 249.031 152.664 248.633 152.367C248.234 152.07 247.926 151.719 247.707 151.312C247.488 150.906 247.379 150.438 247.379 149.906C247.379 149.391 247.492 148.902 247.719 148.441C247.945 147.98 248.27 147.574 248.691 147.223C249.113 146.871 249.625 146.594 250.227 146.391C250.836 146.188 251.516 146.086 252.266 146.086C253.328 146.086 254.238 146.266 254.996 146.625C255.762 146.977 256.348 147.457 256.754 148.066C257.16 148.668 257.363 149.348 257.363 150.105H254.539C254.539 149.77 254.453 149.457 254.281 149.168C254.117 148.871 253.867 148.633 253.531 148.453C253.195 148.266 252.773 148.172 252.266 148.172C251.781 148.172 251.379 148.25 251.059 148.406C250.746 148.555 250.512 148.75 250.355 148.992C250.207 149.234 250.133 149.5 250.133 149.789C250.133 150 250.172 150.191 250.25 150.363C250.336 150.527 250.477 150.68 250.672 150.82C250.867 150.953 251.133 151.078 251.469 151.195C251.812 151.312 252.242 151.426 252.758 151.535C253.727 151.738 254.559 152 255.254 152.32C255.957 152.633 256.496 153.039 256.871 153.539C257.246 154.031 257.434 154.656 257.434 155.414C257.434 155.977 257.312 156.492 257.07 156.961C256.836 157.422 256.492 157.824 256.039 158.168C255.586 158.504 255.043 158.766 254.41 158.953C253.785 159.141 253.082 159.234 252.301 159.234C251.152 159.234 250.18 159.031 249.383 158.625C248.586 158.211 247.98 157.684 247.566 157.043C247.16 156.395 246.957 155.723 246.957 155.027H249.688C249.719 155.551 249.863 155.969 250.121 156.281C250.387 156.586 250.715 156.809 251.105 156.949C251.504 157.082 251.914 157.148 252.336 157.148C252.844 157.148 253.27 157.082 253.613 156.949C253.957 156.809 254.219 156.621 254.398 156.387C254.578 156.145 254.668 155.871 254.668 155.566ZM268.801 149.719L271.742 147.738C272.234 147.41 272.586 147.09 272.797 146.777C273.008 146.457 273.113 146.059 273.113 145.582C273.113 145.176 272.957 144.801 272.645 144.457C272.332 144.113 271.891 143.941 271.32 143.941C270.922 143.941 270.586 144.035 270.312 144.223C270.039 144.402 269.832 144.645 269.691 144.949C269.559 145.246 269.492 145.578 269.492 145.945C269.492 146.297 269.582 146.66 269.762 147.035C269.941 147.402 270.188 147.789 270.5 148.195C270.812 148.594 271.164 149.023 271.555 149.484L279.617 159H276.348L269.762 151.254C269.191 150.566 268.688 149.938 268.25 149.367C267.812 148.789 267.473 148.23 267.23 147.691C266.988 147.145 266.867 146.582 266.867 146.004C266.867 145.113 267.051 144.348 267.418 143.707C267.785 143.066 268.305 142.574 268.977 142.23C269.648 141.879 270.434 141.703 271.332 141.703C272.199 141.703 272.945 141.879 273.57 142.23C274.203 142.574 274.688 143.031 275.023 143.602C275.367 144.172 275.539 144.797 275.539 145.477C275.539 146.016 275.441 146.508 275.246 146.953C275.051 147.398 274.781 147.805 274.438 148.172C274.094 148.539 273.695 148.887 273.242 149.215L269.668 151.816C269.254 152.152 268.945 152.477 268.742 152.789C268.547 153.094 268.418 153.375 268.355 153.633C268.293 153.891 268.262 154.117 268.262 154.312C268.262 154.812 268.367 155.266 268.578 155.672C268.797 156.078 269.113 156.402 269.527 156.645C269.949 156.879 270.461 156.996 271.062 156.996C271.711 156.996 272.34 156.852 272.949 156.562C273.559 156.266 274.105 155.848 274.59 155.309C275.074 154.77 275.457 154.125 275.738 153.375C276.027 152.625 276.172 151.793 276.172 150.879H278.609C278.609 151.707 278.527 152.492 278.363 153.234C278.207 153.977 277.953 154.664 277.602 155.297C277.258 155.93 276.805 156.496 276.242 156.996C276.188 157.051 276.125 157.121 276.055 157.207C275.992 157.285 275.93 157.352 275.867 157.406C275.195 158.023 274.441 158.484 273.605 158.789C272.777 159.086 271.895 159.234 270.957 159.234C269.824 159.234 268.844 159.027 268.016 158.613C267.188 158.199 266.547 157.629 266.094 156.902C265.648 156.176 265.426 155.344 265.426 154.406C265.426 153.711 265.57 153.102 265.859 152.578C266.148 152.047 266.543 151.555 267.043 151.102C267.551 150.641 268.137 150.18 268.801 149.719ZM290.281 141V159H287.445V141H290.281ZM298.965 159.234C298.027 159.234 297.18 159.082 296.422 158.777C295.672 158.465 295.031 158.031 294.5 157.477C293.977 156.922 293.574 156.27 293.293 155.52C293.012 154.77 292.871 153.961 292.871 153.094V152.625C292.871 151.633 293.016 150.734 293.305 149.93C293.594 149.125 293.996 148.438 294.512 147.867C295.027 147.289 295.637 146.848 296.34 146.543C297.043 146.238 297.805 146.086 298.625 146.086C299.531 146.086 300.324 146.238 301.004 146.543C301.684 146.848 302.246 147.277 302.691 147.832C303.145 148.379 303.48 149.031 303.699 149.789C303.926 150.547 304.039 151.383 304.039 152.297V153.504H294.242V151.477H301.25V151.254C301.234 150.746 301.133 150.27 300.945 149.824C300.766 149.379 300.488 149.02 300.113 148.746C299.738 148.473 299.238 148.336 298.613 148.336C298.145 148.336 297.727 148.438 297.359 148.641C297 148.836 296.699 149.121 296.457 149.496C296.215 149.871 296.027 150.324 295.895 150.855C295.77 151.379 295.707 151.969 295.707 152.625V153.094C295.707 153.648 295.781 154.164 295.93 154.641C296.086 155.109 296.312 155.52 296.609 155.871C296.906 156.223 297.266 156.5 297.688 156.703C298.109 156.898 298.59 156.996 299.129 156.996C299.809 156.996 300.414 156.859 300.945 156.586C301.477 156.312 301.938 155.926 302.328 155.426L303.816 156.867C303.543 157.266 303.188 157.648 302.75 158.016C302.312 158.375 301.777 158.668 301.145 158.895C300.52 159.121 299.793 159.234 298.965 159.234ZM310.203 156.762L313.309 146.32H316.238L311.832 159H310.004L310.203 156.762ZM307.824 146.32L310.988 156.809L311.141 159H309.312L304.883 146.32H307.824ZM323.41 159.234C322.473 159.234 321.625 159.082 320.867 158.777C320.117 158.465 319.477 158.031 318.945 157.477C318.422 156.922 318.02 156.27 317.738 155.52C317.457 154.77 317.316 153.961 317.316 153.094V152.625C317.316 151.633 317.461 150.734 317.75 149.93C318.039 149.125 318.441 148.438 318.957 147.867C319.473 147.289 320.082 146.848 320.785 146.543C321.488 146.238 322.25 146.086 323.07 146.086C323.977 146.086 324.77 146.238 325.449 146.543C326.129 146.848 326.691 147.277 327.137 147.832C327.59 148.379 327.926 149.031 328.145 149.789C328.371 150.547 328.484 151.383 328.484 152.297V153.504H318.688V151.477H325.695V151.254C325.68 150.746 325.578 150.27 325.391 149.824C325.211 149.379 324.934 149.02 324.559 148.746C324.184 148.473 323.684 148.336 323.059 148.336C322.59 148.336 322.172 148.438 321.805 148.641C321.445 148.836 321.145 149.121 320.902 149.496C320.66 149.871 320.473 150.324 320.34 150.855C320.215 151.379 320.152 151.969 320.152 152.625V153.094C320.152 153.648 320.227 154.164 320.375 154.641C320.531 155.109 320.758 155.52 321.055 155.871C321.352 156.223 321.711 156.5 322.133 156.703C322.555 156.898 323.035 156.996 323.574 156.996C324.254 156.996 324.859 156.859 325.391 156.586C325.922 156.312 326.383 155.926 326.773 155.426L328.262 156.867C327.988 157.266 327.633 157.648 327.195 158.016C326.758 158.375 326.223 158.668 325.59 158.895C324.965 159.121 324.238 159.234 323.41 159.234ZM333.711 141V159H330.875V141H333.711ZM65.082 184.012V174.32H67.918V187H65.2461L65.082 184.012ZM65.4805 181.375L66.4297 181.352C66.4297 182.203 66.3359 182.988 66.1484 183.707C65.9609 184.418 65.6719 185.039 65.2812 185.57C64.8906 186.094 64.3906 186.504 63.7812 186.801C63.1719 187.09 62.4414 187.234 61.5898 187.234C60.9727 187.234 60.4062 187.145 59.8906 186.965C59.375 186.785 58.9297 186.508 58.5547 186.133C58.1875 185.758 57.9023 185.27 57.6992 184.668C57.4961 184.066 57.3945 183.348 57.3945 182.512V174.32H60.2188V182.535C60.2188 182.996 60.2734 183.383 60.3828 183.695C60.4922 184 60.6406 184.246 60.8281 184.434C61.0156 184.621 61.2344 184.754 61.4844 184.832C61.7344 184.91 62 184.949 62.2812 184.949C63.0859 184.949 63.7188 184.793 64.1797 184.48C64.6484 184.16 64.9805 183.73 65.1758 183.191C65.3789 182.652 65.4805 182.047 65.4805 181.375ZM73.6484 176.758V191.875H70.8242V174.32H73.4258L73.6484 176.758ZM81.9102 180.543V180.789C81.9102 181.711 81.8008 182.566 81.582 183.355C81.3711 184.137 81.0547 184.82 80.6328 185.406C80.2188 185.984 79.707 186.434 79.0977 186.754C78.4883 187.074 77.7852 187.234 76.9883 187.234C76.1992 187.234 75.5078 187.09 74.9141 186.801C74.3281 186.504 73.832 186.086 73.4258 185.547C73.0195 185.008 72.6914 184.375 72.4414 183.648C72.1992 182.914 72.0273 182.109 71.9258 181.234V180.285C72.0273 179.355 72.1992 178.512 72.4414 177.754C72.6914 176.996 73.0195 176.344 73.4258 175.797C73.832 175.25 74.3281 174.828 74.9141 174.531C75.5 174.234 76.1836 174.086 76.9648 174.086C77.7617 174.086 78.4688 174.242 79.0859 174.555C79.7031 174.859 80.2227 175.297 80.6445 175.867C81.0664 176.43 81.3828 177.109 81.5938 177.906C81.8047 178.695 81.9102 179.574 81.9102 180.543ZM79.0859 180.789V180.543C79.0859 179.957 79.0312 179.414 78.9219 178.914C78.8125 178.406 78.6406 177.961 78.4062 177.578C78.1719 177.195 77.8711 176.898 77.5039 176.688C77.1445 176.469 76.7109 176.359 76.2031 176.359C75.7031 176.359 75.2734 176.445 74.9141 176.617C74.5547 176.781 74.2539 177.012 74.0117 177.309C73.7695 177.605 73.582 177.953 73.4492 178.352C73.3164 178.742 73.2227 179.168 73.168 179.629V181.902C73.2617 182.465 73.4219 182.98 73.6484 183.449C73.875 183.918 74.1953 184.293 74.6094 184.574C75.0312 184.848 75.5703 184.984 76.2266 184.984C76.7344 184.984 77.168 184.875 77.5273 184.656C77.8867 184.438 78.1797 184.137 78.4062 183.754C78.6406 183.363 78.8125 182.914 78.9219 182.406C79.0312 181.898 79.0859 181.359 79.0859 180.789ZM87.5703 169.938L87.2891 181.973H84.875L84.582 169.938H87.5703ZM84.5 185.664C84.5 185.234 84.6406 184.875 84.9219 184.586C85.2109 184.289 85.6094 184.141 86.1172 184.141C86.6172 184.141 87.0117 184.289 87.3008 184.586C87.5898 184.875 87.7344 185.234 87.7344 185.664C87.7344 186.078 87.5898 186.434 87.3008 186.73C87.0117 187.02 86.6172 187.164 86.1172 187.164C85.6094 187.164 85.2109 187.02 84.9219 186.73C84.6406 186.434 84.5 186.078 84.5 185.664Z" fill="white"/>
</svg>
