<svg width="216" height="77" viewBox="0 0 216 77" fill="none" xmlns="http://www.w3.org/2000/svg">
<rect x="17.7305" width="5.91034" height="5.91034" fill="#392F2D"/>
<rect x="23.6426" width="5.91034" height="5.91034" fill="#392F2D"/>
<rect x="29.5527" width="5.91034" height="5.91034" fill="#392F2D"/>
<rect x="35.4629" width="5.91034" height="5.91034" fill="#392F2D"/>
<rect x="41.373" width="5.91034" height="5.91034" fill="#392F2D"/>
<rect x="47.2832" width="5.91034" height="5.91034" fill="#392F2D"/>
<rect x="53.1934" width="5.91034" height="5.91034" fill="#392F2D"/>
<rect x="59.1035" width="5.91034" height="5.91034" fill="#392F2D"/>
<rect x="65.0137" width="5.91034" height="5.91034" fill="#392F2D"/>
<rect x="70.9238" width="5.91034" height="5.91034" fill="#392F2D"/>
<rect x="76.834" width="5.91034" height="5.91034" fill="#392F2D"/>
<rect x="82.7461" width="5.91034" height="5.91034" fill="#392F2D"/>
<rect x="88.6562" width="5.91034" height="5.91034" fill="#392F2D"/>
<rect x="94.5664" width="5.91034" height="5.91034" fill="#392F2D"/>
<rect x="100.477" width="5.91034" height="5.91034" fill="#392F2D"/>
<rect x="106.387" width="5.91034" height="5.91034" fill="#392F2D"/>
<rect x="112.297" width="5.91034" height="5.91034" fill="#392F2D"/>
<rect x="118.207" width="5.91034" height="5.91034" fill="#392F2D"/>
<rect x="11.8203" y="5.9104" width="5.91034" height="5.91034" fill="#392F2D"/>
<rect x="17.7305" y="5.9104" width="5.91034" height="5.91034" fill="#F0D212"/>
<rect x="23.6426" y="5.9104" width="5.91034" height="5.91034" fill="#F0D212"/>
<rect x="29.5527" y="5.9104" width="5.91034" height="5.91034" fill="#F0D212"/>
<rect x="35.4629" y="5.9104" width="5.91034" height="5.91034" fill="#F0D212"/>
<rect x="41.373" y="5.9104" width="5.91034" height="5.91034" fill="#F0D212"/>
<rect x="47.2832" y="5.9104" width="5.91034" height="5.91034" fill="#F0D212"/>
<rect x="53.1934" y="5.9104" width="5.91034" height="5.91034" fill="#F0D212"/>
<rect x="59.1035" y="5.9104" width="5.91034" height="5.91034" fill="#F0D212"/>
<rect x="65.0137" y="5.9104" width="5.91034" height="5.91034" fill="#F0D212"/>
<rect x="70.9238" y="5.9104" width="5.91034" height="5.91034" fill="#F0D212"/>
<rect x="76.834" y="5.9104" width="5.91034" height="5.91034" fill="#F0D212"/>
<rect x="82.7461" y="5.9104" width="5.91034" height="5.91034" fill="#F0D212"/>
<rect x="88.6562" y="5.9104" width="5.91034" height="5.91034" fill="#F0D212"/>
<rect x="94.5664" y="5.9104" width="5.91034" height="5.91034" fill="#F0D212"/>
<rect x="100.477" y="5.9104" width="5.91034" height="5.91034" fill="#F0D212"/>
<rect x="106.387" y="5.9104" width="5.91034" height="5.91034" fill="#F0D212"/>
<rect x="112.297" y="5.9104" width="5.91034" height="5.91034" fill="#F0D212"/>
<rect x="118.207" y="5.9104" width="5.91034" height="5.91034" fill="#F0D212"/>
<rect x="5.91016" y="11.8208" width="5.91034" height="5.91034" fill="#392F2D"/>
<rect x="11.8203" y="11.8208" width="5.91034" height="5.91034" fill="#F0D212"/>
<rect x="17.7305" y="11.8208" width="5.91034" height="5.91034" fill="#F0D212"/>
<rect x="23.6426" y="11.8208" width="5.91034" height="5.91034" fill="#F0D212"/>
<rect x="29.5527" y="11.8208" width="5.91034" height="5.91034" fill="#F0D212"/>
<rect x="35.4629" y="11.8208" width="5.91034" height="5.91034" fill="#F0D212"/>
<rect x="41.373" y="11.8208" width="5.91034" height="5.91034" fill="#F0D212"/>
<rect x="47.2832" y="11.8208" width="5.91034" height="5.91034" fill="#F0D212"/>
<rect x="53.1934" y="11.8208" width="5.91034" height="5.91034" fill="#F0D212"/>
<rect x="59.1035" y="11.8208" width="5.91034" height="5.91034" fill="#F0D212"/>
<rect x="65.0137" y="11.8208" width="5.91034" height="5.91034" fill="#F0D212"/>
<rect x="70.9238" y="11.8208" width="5.91034" height="5.91034" fill="#F0D212"/>
<rect x="76.834" y="11.8208" width="5.91034" height="5.91034" fill="#F0D212"/>
<rect x="82.7461" y="11.8208" width="5.91034" height="5.91034" fill="#F0D212"/>
<rect x="88.6562" y="11.8208" width="5.91034" height="5.91034" fill="#F0D212"/>
<rect x="94.5664" y="11.8208" width="5.91034" height="5.91034" fill="#F0D212"/>
<rect x="100.477" y="11.8208" width="5.91034" height="5.91034" fill="#F0D212"/>
<rect x="106.387" y="11.8208" width="5.91034" height="5.91034" fill="#F0D212"/>
<rect x="112.297" y="11.8208" width="5.91034" height="5.91034" fill="#F0D212"/>
<rect x="118.207" y="11.8208" width="5.91034" height="5.91034" fill="#F0D212"/>
<rect y="17.7312" width="5.91034" height="5.91034" fill="#392F2D"/>
<rect x="5.91016" y="17.7312" width="5.91034" height="5.91034" fill="#F0D212"/>
<rect x="11.8203" y="17.7312" width="5.91034" height="5.91034" fill="#F0D212"/>
<rect x="17.7305" y="17.7312" width="5.91034" height="5.91034" fill="#F0D212"/>
<rect x="23.6426" y="17.7312" width="5.91034" height="5.91034" fill="#F0D212"/>
<rect x="29.5527" y="17.7312" width="5.91034" height="5.91034" fill="#F0D212"/>
<rect x="35.4629" y="17.7312" width="5.91034" height="5.91034" fill="#F0D212"/>
<rect x="41.373" y="17.7312" width="5.91034" height="5.91034" fill="#F0D212"/>
<rect x="47.2832" y="17.7312" width="5.91034" height="5.91034" fill="#F0D212"/>
<rect x="53.1934" y="17.7312" width="5.91034" height="5.91034" fill="#F0D212"/>
<rect x="59.1035" y="17.7312" width="5.91034" height="5.91034" fill="#F0D212"/>
<rect x="65.0137" y="17.7312" width="5.91034" height="5.91034" fill="#F0D212"/>
<rect x="70.9238" y="17.7312" width="5.91034" height="5.91034" fill="#F0D212"/>
<rect x="76.834" y="17.7312" width="5.91034" height="5.91034" fill="#F0D212"/>
<rect x="82.7461" y="17.7312" width="5.91034" height="5.91034" fill="#F0D212"/>
<rect x="88.6562" y="17.7312" width="5.91034" height="5.91034" fill="#F0D212"/>
<rect x="94.5664" y="17.7312" width="5.91034" height="5.91034" fill="#F0D212"/>
<rect x="100.477" y="17.7312" width="5.91034" height="5.91034" fill="#F0D212"/>
<rect x="106.387" y="17.7312" width="5.91034" height="5.91034" fill="#F0D212"/>
<rect x="112.297" y="17.7312" width="5.91034" height="5.91034" fill="#F0D212"/>
<rect x="118.207" y="17.7312" width="5.91034" height="5.91034" fill="#F0D212"/>
<rect y="23.6414" width="5.91034" height="5.91034" fill="#392F2D"/>
<rect x="5.91016" y="23.6414" width="5.91034" height="5.91034" fill="#F0D212"/>
<rect x="11.8203" y="23.6414" width="5.91034" height="5.91034" fill="#F0D212"/>
<rect x="17.7305" y="23.6414" width="5.91034" height="5.91034" fill="#F0D212"/>
<rect x="23.6426" y="23.6414" width="5.91034" height="5.91034" fill="#F0D212"/>
<rect x="29.5527" y="23.6414" width="5.91034" height="5.91034" fill="#F0D212"/>
<rect x="35.4629" y="23.6414" width="5.91034" height="5.91034" fill="#F0D212"/>
<rect x="41.373" y="23.6414" width="5.91034" height="5.91034" fill="#F0D212"/>
<rect x="47.2832" y="23.6414" width="5.91034" height="5.91034" fill="#F0D212"/>
<rect x="53.1934" y="23.6414" width="5.91034" height="5.91034" fill="#F0D212"/>
<rect x="59.1035" y="23.6414" width="5.91034" height="5.91034" fill="#F0D212"/>
<rect x="65.0137" y="23.6414" width="5.91034" height="5.91034" fill="#F0D212"/>
<rect x="70.9238" y="23.6414" width="5.91034" height="5.91034" fill="#F0D212"/>
<rect x="76.834" y="23.6414" width="5.91034" height="5.91034" fill="#F0D212"/>
<rect x="82.7461" y="23.6414" width="5.91034" height="5.91034" fill="#F0D212"/>
<rect x="88.6562" y="23.6414" width="5.91034" height="5.91034" fill="#F0D212"/>
<rect x="94.5664" y="23.6414" width="5.91034" height="5.91034" fill="#F0D212"/>
<rect x="100.477" y="23.6414" width="5.91034" height="5.91034" fill="#F0D212"/>
<rect x="106.387" y="23.6414" width="5.91034" height="5.91034" fill="#F0D212"/>
<rect x="112.297" y="23.6414" width="5.91034" height="5.91034" fill="#F0D212"/>
<rect x="118.207" y="23.6414" width="5.91034" height="5.91034" fill="#F0D212"/>
<rect y="29.5518" width="5.91034" height="5.91034" fill="#392F2D"/>
<rect x="5.91016" y="29.5518" width="5.91034" height="5.91034" fill="#F0D212"/>
<rect x="11.8203" y="29.5518" width="5.91034" height="5.91034" fill="#F0D212"/>
<rect x="17.7305" y="29.5518" width="5.91034" height="5.91034" fill="#F0D212"/>
<rect x="23.6426" y="29.5518" width="5.91034" height="5.91034" fill="#F0D212"/>
<rect x="29.5527" y="29.5518" width="5.91034" height="5.91034" fill="#F0D212"/>
<rect x="35.4629" y="29.5518" width="5.91034" height="5.91034" fill="#F0D212"/>
<rect x="41.373" y="29.5518" width="5.91034" height="5.91034" fill="#F0D212"/>
<rect x="47.2832" y="29.5518" width="5.91034" height="5.91034" fill="#F0D212"/>
<rect x="53.1934" y="29.5518" width="5.91034" height="5.91034" fill="#F0D212"/>
<rect x="59.1035" y="29.5518" width="5.91034" height="5.91034" fill="#F0D212"/>
<rect x="65.0137" y="29.5518" width="5.91034" height="5.91034" fill="#F0D212"/>
<rect x="70.9238" y="29.5518" width="5.91034" height="5.91034" fill="#F0D212"/>
<rect x="76.834" y="29.5518" width="5.91034" height="5.91034" fill="#F0D212"/>
<rect x="82.7461" y="29.5518" width="5.91034" height="5.91034" fill="#F0D212"/>
<rect x="88.6562" y="29.5518" width="5.91034" height="5.91034" fill="#F0D212"/>
<rect x="94.5664" y="29.5518" width="5.91034" height="5.91034" fill="#F0D212"/>
<rect x="100.477" y="29.5518" width="5.91034" height="5.91034" fill="#F0D212"/>
<rect x="106.387" y="29.5518" width="5.91034" height="5.91034" fill="#F0D212"/>
<rect x="112.297" y="29.5518" width="5.91034" height="5.91034" fill="#F0D212"/>
<rect x="118.207" y="29.5518" width="5.91034" height="5.91034" fill="#F0D212"/>
<rect y="35.4622" width="5.91034" height="5.91034" fill="#392F2D"/>
<rect x="5.91016" y="35.4622" width="5.91034" height="5.91034" fill="#F0D212"/>
<rect x="11.8203" y="35.4622" width="5.91034" height="5.91034" fill="#F0D212"/>
<rect x="17.7305" y="35.4622" width="5.91034" height="5.91034" fill="#F0D212"/>
<rect x="23.6426" y="35.4622" width="5.91034" height="5.91034" fill="#F0D212"/>
<rect x="29.5527" y="35.4622" width="5.91034" height="5.91034" fill="#F0D212"/>
<rect x="35.4629" y="35.4622" width="5.91034" height="5.91034" fill="#F0D212"/>
<rect x="41.373" y="35.4622" width="5.91034" height="5.91034" fill="#F0D212"/>
<rect x="47.2832" y="35.4622" width="5.91034" height="5.91034" fill="#F0D212"/>
<rect x="53.1934" y="35.4622" width="5.91034" height="5.91034" fill="#F0D212"/>
<rect x="59.1035" y="35.4622" width="5.91034" height="5.91034" fill="#F0D212"/>
<rect x="65.0137" y="35.4622" width="5.91034" height="5.91034" fill="#F0D212"/>
<rect x="70.9238" y="35.4622" width="5.91034" height="5.91034" fill="#F0D212"/>
<rect x="76.834" y="35.4622" width="5.91034" height="5.91034" fill="#F0D212"/>
<rect x="82.7461" y="35.4622" width="5.91034" height="5.91034" fill="#F0D212"/>
<rect x="88.6562" y="35.4622" width="5.91034" height="5.91034" fill="#F0D212"/>
<rect x="94.5664" y="35.4622" width="5.91034" height="5.91034" fill="#F0D212"/>
<rect x="100.477" y="35.4622" width="5.91034" height="5.91034" fill="#F0D212"/>
<rect x="106.387" y="35.4622" width="5.91034" height="5.91034" fill="#F0D212"/>
<rect x="112.297" y="35.4622" width="5.91034" height="5.91034" fill="#F0D212"/>
<rect x="118.207" y="35.4622" width="5.91034" height="5.91034" fill="#F0D212"/>
<rect y="41.3726" width="5.91034" height="5.91034" fill="#392F2D"/>
<rect x="5.91016" y="41.3726" width="5.91034" height="5.91034" fill="#F0D212"/>
<rect x="11.8203" y="41.3726" width="5.91034" height="5.91034" fill="#F0D212"/>
<rect x="17.7305" y="41.3726" width="5.91034" height="5.91034" fill="#F0D212"/>
<rect x="23.6426" y="41.3726" width="5.91034" height="5.91034" fill="#F0D212"/>
<rect x="29.5527" y="41.3726" width="5.91034" height="5.91034" fill="#F0D212"/>
<rect x="35.4629" y="41.3726" width="5.91034" height="5.91034" fill="#F0D212"/>
<rect x="41.373" y="41.3726" width="5.91034" height="5.91034" fill="#F0D212"/>
<rect x="47.2832" y="41.3726" width="5.91034" height="5.91034" fill="#F0D212"/>
<rect x="53.1934" y="41.3726" width="5.91034" height="5.91034" fill="#F0D212"/>
<rect x="59.1035" y="41.3726" width="5.91034" height="5.91034" fill="#F0D212"/>
<rect x="65.0137" y="41.3726" width="5.91034" height="5.91034" fill="#F0D212"/>
<rect x="70.9238" y="41.3726" width="5.91034" height="5.91034" fill="#F0D212"/>
<rect x="76.834" y="41.3726" width="5.91034" height="5.91034" fill="#F0D212"/>
<rect x="82.7461" y="41.3726" width="5.91034" height="5.91034" fill="#F0D212"/>
<rect x="88.6562" y="41.3726" width="5.91034" height="5.91034" fill="#F0D212"/>
<rect x="94.5664" y="41.3726" width="5.91034" height="5.91034" fill="#F0D212"/>
<rect x="100.477" y="41.3726" width="5.91034" height="5.91034" fill="#F0D212"/>
<rect x="106.387" y="41.3726" width="5.91034" height="5.91034" fill="#F0D212"/>
<rect x="112.297" y="41.3726" width="5.91034" height="5.91034" fill="#F0D212"/>
<rect x="118.207" y="41.3726" width="5.91034" height="5.91034" fill="#F0D212"/>
<rect y="47.2827" width="5.91034" height="5.91034" fill="#392F2D"/>
<rect x="5.91016" y="47.2827" width="5.91034" height="5.91034" fill="#F0D212"/>
<rect x="11.8203" y="47.2827" width="5.91034" height="5.91034" fill="#F0D212"/>
<rect x="17.7305" y="47.2827" width="5.91034" height="5.91034" fill="#F0D212"/>
<rect x="23.6426" y="47.2827" width="5.91034" height="5.91034" fill="#F0D212"/>
<rect x="29.5527" y="47.2827" width="5.91034" height="5.91034" fill="#F0D212"/>
<rect x="35.4629" y="47.2827" width="5.91034" height="5.91034" fill="#F0D212"/>
<rect x="41.373" y="47.2827" width="5.91034" height="5.91034" fill="#F0D212"/>
<rect x="47.2832" y="47.2827" width="5.91034" height="5.91034" fill="#F0D212"/>
<rect x="53.1934" y="47.2827" width="5.91034" height="5.91034" fill="#F0D212"/>
<rect x="59.1035" y="47.2827" width="5.91034" height="5.91034" fill="#F0D212"/>
<rect x="65.0137" y="47.2827" width="5.91034" height="5.91034" fill="#F0D212"/>
<rect x="70.9238" y="47.2827" width="5.91034" height="5.91034" fill="#F0D212"/>
<rect x="76.834" y="47.2827" width="5.91034" height="5.91034" fill="#F0D212"/>
<rect x="82.7461" y="47.2827" width="5.91034" height="5.91034" fill="#F0D212"/>
<rect x="88.6562" y="47.2827" width="5.91034" height="5.91034" fill="#F0D212"/>
<rect x="94.5664" y="47.2827" width="5.91034" height="5.91034" fill="#F0D212"/>
<rect x="100.477" y="47.2827" width="5.91034" height="5.91034" fill="#F0D212"/>
<rect x="106.387" y="47.2827" width="5.91034" height="5.91034" fill="#F0D212"/>
<rect x="112.297" y="47.2827" width="5.91034" height="5.91034" fill="#F0D212"/>
<rect x="118.207" y="47.2827" width="5.91034" height="5.91034" fill="#F0D212"/>
<rect y="53.1931" width="5.91034" height="5.91034" fill="#392F2D"/>
<rect x="5.91016" y="53.1931" width="5.91034" height="5.91034" fill="#F0D212"/>
<rect x="11.8203" y="53.1931" width="5.91034" height="5.91034" fill="#F0D212"/>
<rect x="17.7305" y="53.1931" width="5.91034" height="5.91034" fill="#F0D212"/>
<rect x="23.6406" y="53.1931" width="5.91034" height="5.91034" fill="#F0D212"/>
<rect x="29.5508" y="53.1931" width="5.91034" height="5.91034" fill="#F0D212"/>
<rect x="35.4609" y="53.1931" width="5.91034" height="5.91034" fill="#F0D212"/>
<rect x="41.3711" y="53.1931" width="5.91034" height="5.91034" fill="#F0D212"/>
<rect x="47.2812" y="53.1931" width="5.91034" height="5.91034" fill="#F0D212"/>
<rect x="53.1934" y="53.1931" width="5.91034" height="5.91034" fill="#F0D212"/>
<rect x="59.1035" y="53.1931" width="5.91034" height="5.91034" fill="#F0D212"/>
<rect x="65.0137" y="53.1931" width="5.91034" height="5.91034" fill="#F0D212"/>
<rect x="70.9238" y="53.1931" width="5.91034" height="5.91034" fill="#F0D212"/>
<rect x="76.834" y="53.1931" width="5.91034" height="5.91034" fill="#F0D212"/>
<rect x="82.7441" y="53.1931" width="5.91034" height="5.91034" fill="#F0D212"/>
<rect x="88.6543" y="53.1931" width="5.91034" height="5.91034" fill="#F0D212"/>
<rect x="94.5645" y="53.1931" width="5.91034" height="5.91034" fill="#F0D212"/>
<rect x="100.475" y="53.1931" width="5.91034" height="5.91034" fill="#F0D212"/>
<rect x="106.385" y="53.1931" width="5.91034" height="5.91034" fill="#F0D212"/>
<rect x="112.295" y="53.1931" width="5.91034" height="5.91034" fill="#F0D212"/>
<rect x="118.207" y="53.1931" width="5.91034" height="5.91034" fill="#F0D212"/>
<rect x="16.1699" y="58.9028" width="5.98729" height="6.06646" fill="#F0D212"/>
<rect x="22.1562" y="58.9028" width="5.98729" height="6.06646" fill="#F0D212"/>
<rect x="28.1445" y="58.9028" width="5.98729" height="6.06646" fill="#F0D212"/>
<rect x="34.1328" y="58.9028" width="5.98729" height="6.06646" fill="#F0D212"/>
<rect x="40.1191" y="58.9028" width="5.98729" height="6.06646" fill="#F0D212"/>
<rect x="46.1074" y="58.9028" width="5.98729" height="6.06646" fill="#F0D212"/>
<rect x="52.0938" y="58.9028" width="5.98729" height="6.06646" fill="#F0D212"/>
<rect x="58.082" y="58.9028" width="5.98729" height="6.06646" fill="#F0D212"/>
<rect x="64.0684" y="58.9028" width="5.98729" height="6.06646" fill="#F0D212"/>
<rect x="70.0566" y="58.9028" width="5.98729" height="6.06646" fill="#F0D212"/>
<rect x="76.043" y="58.9028" width="5.98729" height="6.06646" fill="#F0D212"/>
<rect x="82.0293" y="58.9028" width="5.98729" height="6.06646" fill="#F0D212"/>
<rect x="88.0176" y="58.9028" width="5.98729" height="6.06646" fill="#F0D212"/>
<rect x="94.0039" y="58.9028" width="5.98729" height="6.06646" fill="#F0D212"/>
<rect x="99.9922" y="58.9028" width="5.98729" height="6.06646" fill="#F0D212"/>
<rect x="105.979" y="58.9028" width="5.98729" height="6.06646" fill="#F0D212"/>
<rect x="111.967" y="58.9028" width="5.98729" height="6.06646" fill="#F0D212"/>
<rect x="117.955" y="58.9028" width="5.98729" height="6.06646" fill="#F0D212"/>
<rect x="5.91016" y="59.1035" width="5.91034" height="5.91034" fill="#392F2D"/>
<rect x="11.8203" y="59.1035" width="5.91034" height="5.91034" fill="#F0D212"/>
<rect x="11.8203" y="65.0139" width="5.91034" height="5.91034" fill="#392F2D"/>
<rect x="17.7305" y="65.0139" width="5.91034" height="5.91034" fill="#F0D212"/>
<rect x="23.6426" y="65.0139" width="5.91034" height="5.91034" fill="#F0D212"/>
<rect x="29.5527" y="65.0139" width="5.91034" height="5.91034" fill="#F0D212"/>
<rect x="35.4629" y="65.0139" width="5.91034" height="5.91034" fill="#F0D212"/>
<rect x="41.373" y="65.0139" width="5.91034" height="5.91034" fill="#F0D212"/>
<rect x="47.2832" y="65.0139" width="5.91034" height="5.91034" fill="#F0D212"/>
<rect x="53.1934" y="65.0139" width="5.91034" height="5.91034" fill="#F0D212"/>
<rect x="59.1035" y="65.0139" width="5.91034" height="5.91034" fill="#F0D212"/>
<rect x="65.0137" y="65.0139" width="5.91034" height="5.91034" fill="#F0D212"/>
<rect x="70.9238" y="65.0139" width="5.91034" height="5.91034" fill="#F0D212"/>
<rect x="76.834" y="65.0139" width="5.91034" height="5.91034" fill="#F0D212"/>
<rect x="82.7461" y="65.0139" width="5.91034" height="5.91034" fill="#F0D212"/>
<rect x="88.6562" y="65.0139" width="5.91034" height="5.91034" fill="#F0D212"/>
<rect x="94.5664" y="65.0139" width="5.91034" height="5.91034" fill="#F0D212"/>
<rect x="100.477" y="65.0139" width="5.91034" height="5.91034" fill="#F0D212"/>
<rect x="106.387" y="65.0139" width="5.91034" height="5.91034" fill="#F0D212"/>
<rect x="112.297" y="65.0139" width="5.91034" height="5.91034" fill="#F0D212"/>
<rect x="118.207" y="65.0139" width="5.91034" height="5.91034" fill="#F0D212"/>
<rect x="17.7305" y="70.9241" width="5.91034" height="5.91034" fill="#392F2D"/>
<rect x="23.6426" y="70.9241" width="5.91034" height="5.91034" fill="#392F2D"/>
<rect x="29.5527" y="70.9241" width="5.91034" height="5.91034" fill="#392F2D"/>
<rect x="35.4629" y="70.9241" width="5.91034" height="5.91034" fill="#392F2D"/>
<rect x="41.373" y="70.9241" width="5.91034" height="5.91034" fill="#392F2D"/>
<rect x="47.2832" y="70.9241" width="5.91034" height="5.91034" fill="#392F2D"/>
<rect x="53.1934" y="70.9241" width="5.91034" height="5.91034" fill="#392F2D"/>
<rect x="59.1035" y="70.9241" width="5.91034" height="5.91034" fill="#392F2D"/>
<rect x="65.0137" y="70.9241" width="5.91034" height="5.91034" fill="#392F2D"/>
<rect x="70.9238" y="70.9241" width="5.91034" height="5.91034" fill="#392F2D"/>
<rect x="76.834" y="70.9241" width="5.91034" height="5.91034" fill="#392F2D"/>
<rect x="82.7461" y="70.9241" width="5.91034" height="5.91034" fill="#392F2D"/>
<rect x="88.6562" y="70.9241" width="5.91034" height="5.91034" fill="#392F2D"/>
<rect x="94.5664" y="70.9241" width="5.91034" height="5.91034" fill="#392F2D"/>
<rect x="100.477" y="70.9241" width="5.91034" height="5.91034" fill="#392F2D"/>
<rect x="106.387" y="70.9241" width="5.91034" height="5.91034" fill="#392F2D"/>
<rect x="112.297" y="70.9241" width="5.91034" height="5.91034" fill="#392F2D"/>
<rect x="118.207" y="70.9241" width="5.91034" height="5.91034" fill="#392F2D"/>
<rect x="18.4453" y="64.0994" width="5.91034" height="5.91034" fill="#D2B709"/>
<rect x="24.3555" y="64.0994" width="5.91034" height="5.91034" fill="#D2B709"/>
<rect x="30.2656" y="64.0994" width="5.91034" height="5.91034" fill="#D2B709"/>
<rect x="36.1758" y="64.0994" width="5.91034" height="5.91034" fill="#D2B709"/>
<rect x="42.0859" y="64.0994" width="5.91034" height="5.91034" fill="#D2B709"/>
<rect x="47.9961" y="64.0994" width="5.91034" height="5.91034" fill="#D2B709"/>
<rect x="53.9062" y="64.0994" width="5.91034" height="5.91034" fill="#D2B709"/>
<rect x="59.8184" y="64.0994" width="5.91034" height="5.91034" fill="#D2B709"/>
<rect x="65.7285" y="64.0994" width="5.91034" height="5.91034" fill="#D2B709"/>
<rect x="71.6387" y="64.0994" width="5.91034" height="5.91034" fill="#D2B709"/>
<rect x="77.5488" y="64.0994" width="5.91034" height="5.91034" fill="#D2B709"/>
<rect x="83.459" y="64.0994" width="5.91034" height="5.91034" fill="#D2B709"/>
<rect x="89.3691" y="64.0994" width="5.91034" height="5.91034" fill="#D2B709"/>
<rect x="95.2793" y="64.0994" width="5.91034" height="5.91034" fill="#D2B709"/>
<rect x="101.189" y="64.0994" width="5.91034" height="5.91034" fill="#D2B709"/>
<rect x="107.1" y="64.0994" width="5.91034" height="5.91034" fill="#D2B709"/>
<rect x="113.01" y="64.0994" width="5.91034" height="5.91034" fill="#D2B709"/>
<rect x="118.92" y="64.0994" width="5.91034" height="5.91034" fill="#D2B709"/>
<rect x="124.117" width="5.91034" height="5.91034" fill="#392F2D"/>
<rect x="124.117" y="5.9104" width="5.91034" height="5.91034" fill="#F0D212"/>
<rect x="124.117" y="11.8208" width="5.91034" height="5.91034" fill="#F0D212"/>
<rect x="124.117" y="17.7312" width="5.91034" height="5.91034" fill="#F0D212"/>
<rect x="124.117" y="23.6414" width="5.91034" height="5.91034" fill="#F0D212"/>
<rect x="124.117" y="29.5518" width="5.91034" height="5.91034" fill="#F0D212"/>
<rect x="124.117" y="35.4622" width="5.91034" height="5.91034" fill="#F0D212"/>
<rect x="124.117" y="41.3726" width="5.91034" height="5.91034" fill="#F0D212"/>
<rect x="124.117" y="47.2827" width="5.91034" height="5.91034" fill="#F0D212"/>
<rect x="124.117" y="53.1931" width="5.91034" height="5.91034" fill="#F0D212"/>
<rect x="123.939" y="58.9028" width="5.98729" height="6.06646" fill="#F0D212"/>
<rect x="124.117" y="65.0139" width="5.91034" height="5.91034" fill="#F0D212"/>
<rect x="124.117" y="70.9241" width="5.91034" height="5.91034" fill="#392F2D"/>
<rect x="123.068" y="64.2556" width="7.13701" height="5.70961" fill="#D2B709"/>
<rect x="129.828" y="0.000244141" width="5.91034" height="5.91034" fill="#392F2D"/>
<rect x="129.828" y="5.91064" width="5.91034" height="5.91034" fill="#F0D212"/>
<rect x="129.828" y="11.821" width="5.91034" height="5.91034" fill="#F0D212"/>
<rect x="129.828" y="17.7312" width="5.91034" height="5.91034" fill="#F0D212"/>
<rect x="129.828" y="23.6416" width="5.91034" height="5.91034" fill="#F0D212"/>
<rect x="129.828" y="29.552" width="5.91034" height="5.91034" fill="#F0D212"/>
<rect x="129.828" y="35.4624" width="5.91034" height="5.91034" fill="#F0D212"/>
<rect x="129.828" y="41.3726" width="5.91034" height="5.91034" fill="#F0D212"/>
<rect x="129.828" y="47.283" width="5.91034" height="5.91034" fill="#F0D212"/>
<rect x="129.828" y="53.1934" width="5.91034" height="5.91034" fill="#F0D212"/>
<rect x="129.65" y="58.9028" width="5.98729" height="6.06646" fill="#F0D212"/>
<rect x="129.828" y="65.0139" width="5.91034" height="5.91034" fill="#F0D212"/>
<rect x="129.828" y="70.9243" width="5.91034" height="5.91034" fill="#392F2D"/>
<rect x="128.779" y="64.2556" width="7.13701" height="5.70961" fill="#D2B709"/>
<rect x="135.537" width="5.91034" height="5.91034" fill="#392F2D"/>
<rect x="135.537" y="5.9104" width="5.91034" height="5.91034" fill="#F0D212"/>
<rect x="135.537" y="11.8208" width="5.91034" height="5.91034" fill="#F0D212"/>
<rect x="135.537" y="17.7312" width="5.91034" height="5.91034" fill="#F0D212"/>
<rect x="135.537" y="23.6414" width="5.91034" height="5.91034" fill="#F0D212"/>
<rect x="135.537" y="29.5518" width="5.91034" height="5.91034" fill="#F0D212"/>
<rect x="135.537" y="35.4622" width="5.91034" height="5.91034" fill="#F0D212"/>
<rect x="135.537" y="41.3726" width="5.91034" height="5.91034" fill="#F0D212"/>
<rect x="135.537" y="47.2827" width="5.91034" height="5.91034" fill="#F0D212"/>
<rect x="135.537" y="53.1931" width="5.91034" height="5.91034" fill="#F0D212"/>
<rect x="135.361" y="58.9028" width="5.98729" height="6.06646" fill="#F0D212"/>
<rect x="135.537" y="65.0139" width="5.91034" height="5.91034" fill="#F0D212"/>
<rect x="135.537" y="70.9241" width="5.91034" height="5.91034" fill="#392F2D"/>
<rect x="134.488" y="64.2556" width="7.13701" height="5.70961" fill="#D2B709"/>
<rect x="141.246" width="5.91034" height="5.91034" fill="#392F2D"/>
<rect x="141.246" y="5.9104" width="5.91034" height="5.91034" fill="#F0D212"/>
<rect x="141.246" y="11.8208" width="5.91034" height="5.91034" fill="#F0D212"/>
<rect x="141.246" y="17.7312" width="5.91034" height="5.91034" fill="#F0D212"/>
<rect x="141.246" y="23.6414" width="5.91034" height="5.91034" fill="#F0D212"/>
<rect x="141.246" y="29.5518" width="5.91034" height="5.91034" fill="#F0D212"/>
<rect x="141.246" y="35.4622" width="5.91034" height="5.91034" fill="#F0D212"/>
<rect x="141.246" y="41.3726" width="5.91034" height="5.91034" fill="#F0D212"/>
<rect x="141.246" y="47.2827" width="5.91034" height="5.91034" fill="#F0D212"/>
<rect x="141.246" y="53.1931" width="5.91034" height="5.91034" fill="#F0D212"/>
<rect x="141.068" y="58.9028" width="5.98729" height="6.06646" fill="#F0D212"/>
<rect x="141.246" y="65.0139" width="5.91034" height="5.91034" fill="#F0D212"/>
<rect x="141.246" y="70.9241" width="5.91034" height="5.91034" fill="#392F2D"/>
<rect x="140.197" y="64.2556" width="7.13701" height="5.70961" fill="#D2B709"/>
<rect x="146.957" y="0.000244141" width="5.91034" height="5.91034" fill="#392F2D"/>
<rect x="146.957" y="5.91064" width="5.91034" height="5.91034" fill="#F0D212"/>
<rect x="146.957" y="11.821" width="5.91034" height="5.91034" fill="#F0D212"/>
<rect x="146.957" y="17.7312" width="5.91034" height="5.91034" fill="#F0D212"/>
<rect x="146.957" y="23.6416" width="5.91034" height="5.91034" fill="#F0D212"/>
<rect x="146.957" y="29.552" width="5.91034" height="5.91034" fill="#F0D212"/>
<rect x="146.957" y="35.4624" width="5.91034" height="5.91034" fill="#F0D212"/>
<rect x="146.957" y="41.3726" width="5.91034" height="5.91034" fill="#F0D212"/>
<rect x="146.957" y="47.283" width="5.91034" height="5.91034" fill="#F0D212"/>
<rect x="146.957" y="53.1934" width="5.91034" height="5.91034" fill="#F0D212"/>
<rect x="146.779" y="58.9028" width="5.98729" height="6.06646" fill="#F0D212"/>
<rect x="146.957" y="65.0139" width="5.91034" height="5.91034" fill="#F0D212"/>
<rect x="146.957" y="70.9243" width="5.91034" height="5.91034" fill="#392F2D"/>
<rect x="145.908" y="64.2556" width="7.13701" height="5.70961" fill="#D2B709"/>
<rect x="152.666" width="5.91034" height="5.91034" fill="#392F2D"/>
<rect x="152.666" y="5.9104" width="5.91034" height="5.91034" fill="#F0D212"/>
<rect x="152.666" y="11.8208" width="5.91034" height="5.91034" fill="#F0D212"/>
<rect x="152.666" y="17.7312" width="5.91034" height="5.91034" fill="#F0D212"/>
<rect x="152.666" y="23.6414" width="5.91034" height="5.91034" fill="#F0D212"/>
<rect x="152.666" y="29.5518" width="5.91034" height="5.91034" fill="#F0D212"/>
<rect x="152.666" y="35.4622" width="5.91034" height="5.91034" fill="#F0D212"/>
<rect x="152.666" y="41.3726" width="5.91034" height="5.91034" fill="#F0D212"/>
<rect x="152.666" y="47.2827" width="5.91034" height="5.91034" fill="#F0D212"/>
<rect x="152.666" y="53.1931" width="5.91034" height="5.91034" fill="#F0D212"/>
<rect x="152.488" y="58.9028" width="5.98729" height="6.06646" fill="#F0D212"/>
<rect x="152.666" y="65.0139" width="5.91034" height="5.91034" fill="#F0D212"/>
<rect x="152.666" y="70.9241" width="5.91034" height="5.91034" fill="#392F2D"/>
<rect x="151.617" y="64.2556" width="7.13701" height="5.70961" fill="#D2B709"/>
<rect x="158.375" width="5.91034" height="5.91034" fill="#392F2D"/>
<rect x="158.375" y="5.9104" width="5.91034" height="5.91034" fill="#F0D212"/>
<rect x="158.375" y="11.8208" width="5.91034" height="5.91034" fill="#F0D212"/>
<rect x="158.375" y="17.7312" width="5.91034" height="5.91034" fill="#F0D212"/>
<rect x="158.375" y="23.6414" width="5.91034" height="5.91034" fill="#F0D212"/>
<rect x="158.375" y="29.5518" width="5.91034" height="5.91034" fill="#F0D212"/>
<rect x="158.375" y="35.4622" width="5.91034" height="5.91034" fill="#F0D212"/>
<rect x="158.375" y="41.3726" width="5.91034" height="5.91034" fill="#F0D212"/>
<rect x="158.375" y="47.2827" width="5.91034" height="5.91034" fill="#F0D212"/>
<rect x="158.375" y="53.1931" width="5.91034" height="5.91034" fill="#F0D212"/>
<rect x="158.197" y="58.9028" width="5.98729" height="6.06646" fill="#F0D212"/>
<rect x="158.375" y="65.0139" width="5.91034" height="5.91034" fill="#F0D212"/>
<rect x="158.375" y="70.9241" width="5.91034" height="5.91034" fill="#392F2D"/>
<rect x="157.326" y="64.2556" width="7.13701" height="5.70961" fill="#D2B709"/>
<rect x="164.086" y="0.000244141" width="5.91034" height="5.91034" fill="#392F2D"/>
<rect x="164.086" y="5.91064" width="5.91034" height="5.91034" fill="#F0D212"/>
<rect x="164.086" y="11.821" width="5.91034" height="5.91034" fill="#F0D212"/>
<rect x="164.086" y="17.7312" width="5.91034" height="5.91034" fill="#F0D212"/>
<rect x="164.086" y="23.6416" width="5.91034" height="5.91034" fill="#F0D212"/>
<rect x="164.086" y="29.552" width="5.91034" height="5.91034" fill="#F0D212"/>
<rect x="164.086" y="35.4624" width="5.91034" height="5.91034" fill="#F0D212"/>
<rect x="164.086" y="41.3726" width="5.91034" height="5.91034" fill="#F0D212"/>
<rect x="164.086" y="47.283" width="5.91034" height="5.91034" fill="#F0D212"/>
<rect x="164.086" y="53.1934" width="5.91034" height="5.91034" fill="#F0D212"/>
<rect x="163.908" y="58.9028" width="5.98729" height="6.06646" fill="#F0D212"/>
<rect x="164.086" y="65.0139" width="5.91034" height="5.91034" fill="#F0D212"/>
<rect x="164.086" y="70.9243" width="5.91034" height="5.91034" fill="#392F2D"/>
<rect x="163.037" y="64.2556" width="7.13701" height="5.70961" fill="#D2B709"/>
<rect x="169.795" width="5.91034" height="5.91034" fill="#392F2D"/>
<rect x="169.795" y="5.9104" width="5.91034" height="5.91034" fill="#F0D212"/>
<rect x="169.795" y="11.8208" width="5.91034" height="5.91034" fill="#F0D212"/>
<rect x="169.795" y="17.7312" width="5.91034" height="5.91034" fill="#F0D212"/>
<rect x="169.795" y="23.6414" width="5.91034" height="5.91034" fill="#F0D212"/>
<rect x="169.795" y="29.5518" width="5.91034" height="5.91034" fill="#F0D212"/>
<rect x="169.795" y="35.4622" width="5.91034" height="5.91034" fill="#F0D212"/>
<rect x="169.795" y="41.3726" width="5.91034" height="5.91034" fill="#F0D212"/>
<rect x="169.795" y="47.2827" width="5.91034" height="5.91034" fill="#F0D212"/>
<rect x="169.795" y="53.1931" width="5.91034" height="5.91034" fill="#F0D212"/>
<rect x="169.617" y="58.9028" width="5.98729" height="6.06646" fill="#F0D212"/>
<rect x="169.795" y="65.0139" width="5.91034" height="5.91034" fill="#F0D212"/>
<rect x="169.795" y="70.9241" width="5.91034" height="5.91034" fill="#392F2D"/>
<rect x="168.746" y="64.2556" width="7.13701" height="5.70961" fill="#D2B709"/>
<rect x="175.504" y="0.000244141" width="5.91034" height="5.91034" fill="#392F2D"/>
<rect x="175.504" y="5.91064" width="5.91034" height="5.91034" fill="#F0D212"/>
<rect x="175.504" y="11.821" width="5.91034" height="5.91034" fill="#F0D212"/>
<rect x="175.504" y="17.7312" width="5.91034" height="5.91034" fill="#F0D212"/>
<rect x="175.504" y="23.6416" width="5.91034" height="5.91034" fill="#F0D212"/>
<rect x="175.504" y="29.552" width="5.91034" height="5.91034" fill="#F0D212"/>
<rect x="175.504" y="35.4624" width="5.91034" height="5.91034" fill="#F0D212"/>
<rect x="175.504" y="41.3726" width="5.91034" height="5.91034" fill="#F0D212"/>
<rect x="175.504" y="47.283" width="5.91034" height="5.91034" fill="#F0D212"/>
<rect x="175.504" y="53.1934" width="5.91034" height="5.91034" fill="#F0D212"/>
<rect x="175.326" y="58.9028" width="5.98729" height="6.06646" fill="#F0D212"/>
<rect x="175.504" y="65.0139" width="5.91034" height="5.91034" fill="#F0D212"/>
<rect x="175.504" y="70.9243" width="5.91034" height="5.91034" fill="#392F2D"/>
<rect x="174.455" y="64.2556" width="7.13701" height="5.70961" fill="#D2B709"/>
<rect x="181.215" y="0.000244141" width="5.91034" height="5.91034" fill="#392F2D"/>
<rect x="181.215" y="5.91064" width="5.91034" height="5.91034" fill="#F0D212"/>
<rect x="181.215" y="11.821" width="5.91034" height="5.91034" fill="#F0D212"/>
<rect x="181.215" y="17.7312" width="5.91034" height="5.91034" fill="#F0D212"/>
<rect x="181.215" y="23.6416" width="5.91034" height="5.91034" fill="#F0D212"/>
<rect x="181.215" y="29.552" width="5.91034" height="5.91034" fill="#F0D212"/>
<rect x="181.215" y="35.4624" width="5.91034" height="5.91034" fill="#F0D212"/>
<rect x="181.215" y="41.3726" width="5.91034" height="5.91034" fill="#F0D212"/>
<rect x="181.215" y="47.283" width="5.91034" height="5.91034" fill="#F0D212"/>
<rect x="181.215" y="53.1934" width="5.91034" height="5.91034" fill="#F0D212"/>
<rect x="181.037" y="58.9028" width="5.98729" height="6.06646" fill="#F0D212"/>
<rect x="181.215" y="65.0139" width="5.91034" height="5.91034" fill="#F0D212"/>
<rect x="181.215" y="70.9243" width="5.91034" height="5.91034" fill="#392F2D"/>
<rect x="180.166" y="64.2556" width="7.13701" height="5.70961" fill="#D2B709"/>
<rect x="186.924" width="5.91034" height="5.91034" fill="#392F2D"/>
<rect x="186.924" y="5.9104" width="5.91034" height="5.91034" fill="#F0D212"/>
<rect x="186.924" y="11.8208" width="5.91034" height="5.91034" fill="#F0D212"/>
<rect x="186.924" y="17.7312" width="5.91034" height="5.91034" fill="#F0D212"/>
<rect x="186.924" y="23.6414" width="5.91034" height="5.91034" fill="#F0D212"/>
<rect x="186.924" y="29.5518" width="5.91034" height="5.91034" fill="#F0D212"/>
<rect x="186.924" y="35.4622" width="5.91034" height="5.91034" fill="#F0D212"/>
<rect x="186.924" y="41.3726" width="5.91034" height="5.91034" fill="#F0D212"/>
<rect x="186.924" y="47.2827" width="5.91034" height="5.91034" fill="#F0D212"/>
<rect x="186.924" y="53.1931" width="5.91034" height="5.91034" fill="#F0D212"/>
<rect x="186.746" y="58.9028" width="5.98729" height="6.06646" fill="#F0D212"/>
<rect x="186.924" y="65.0139" width="5.91034" height="5.91034" fill="#F0D212"/>
<rect x="186.924" y="70.9241" width="5.91034" height="5.91034" fill="#392F2D"/>
<rect x="185.875" y="64.2556" width="7.13701" height="5.70961" fill="#D2B709"/>
<rect width="5.91034" height="5.91034" transform="matrix(-1 0 0 1 197.629 0)" fill="#392F2D"/>
<rect width="5.91034" height="5.91034" transform="matrix(-1 0 0 1 191.717 0)" fill="#392F2D"/>
<rect width="5.91034" height="5.91034" transform="matrix(-1 0 0 1 185.807 0)" fill="#392F2D"/>
<rect width="5.91034" height="5.91034" transform="matrix(-1 0 0 1 179.896 0)" fill="#392F2D"/>
<rect width="5.91034" height="5.91034" transform="matrix(-1 0 0 1 173.986 0)" fill="#392F2D"/>
<rect width="5.91034" height="5.91034" transform="matrix(-1 0 0 1 168.076 0)" fill="#392F2D"/>
<rect width="5.91034" height="5.91034" transform="matrix(-1 0 0 1 162.166 0)" fill="#392F2D"/>
<rect width="5.91034" height="5.91034" transform="matrix(-1 0 0 1 156.256 0)" fill="#392F2D"/>
<rect width="5.91034" height="5.91034" transform="matrix(-1 0 0 1 150.346 0)" fill="#392F2D"/>
<rect width="5.91034" height="5.91034" transform="matrix(-1 0 0 1 144.436 0)" fill="#392F2D"/>
<rect width="5.91034" height="5.91034" transform="matrix(-1 0 0 1 138.525 0)" fill="#392F2D"/>
<rect width="5.91034" height="5.91034" transform="matrix(-1 0 0 1 132.613 0)" fill="#392F2D"/>
<rect width="5.91034" height="5.91034" transform="matrix(-1 0 0 1 126.703 0)" fill="#392F2D"/>
<rect width="5.91034" height="5.91034" transform="matrix(-1 0 0 1 120.793 0)" fill="#392F2D"/>
<rect width="5.91034" height="5.91034" transform="matrix(-1 0 0 1 114.883 0)" fill="#392F2D"/>
<rect width="5.91034" height="5.91034" transform="matrix(-1 0 0 1 108.973 0)" fill="#392F2D"/>
<rect width="5.91034" height="5.91034" transform="matrix(-1 0 0 1 103.062 0)" fill="#392F2D"/>
<rect width="5.91034" height="5.91034" transform="matrix(-1 0 0 1 97.1523 0)" fill="#392F2D"/>
<rect width="5.91034" height="5.91034" transform="matrix(-1 0 0 1 91.2422 0)" fill="#392F2D"/>
<rect width="5.91034" height="5.91034" transform="matrix(-1 0 0 1 85.332 0)" fill="#392F2D"/>
<rect width="5.91034" height="5.91034" transform="matrix(-1 0 0 1 203.539 5.9104)" fill="#392F2D"/>
<rect width="5.91034" height="5.91034" transform="matrix(-1 0 0 1 197.629 5.9104)" fill="#F0D212"/>
<rect width="5.91034" height="5.91034" transform="matrix(-1 0 0 1 191.717 5.9104)" fill="#F0D212"/>
<rect width="5.91034" height="5.91034" transform="matrix(-1 0 0 1 185.807 5.9104)" fill="#F0D212"/>
<rect width="5.91034" height="5.91034" transform="matrix(-1 0 0 1 179.896 5.9104)" fill="#F0D212"/>
<rect width="5.91034" height="5.91034" transform="matrix(-1 0 0 1 173.986 5.9104)" fill="#F0D212"/>
<rect width="5.91034" height="5.91034" transform="matrix(-1 0 0 1 168.076 5.9104)" fill="#F0D212"/>
<rect width="5.91034" height="5.91034" transform="matrix(-1 0 0 1 162.166 5.9104)" fill="#F0D212"/>
<rect width="5.91034" height="5.91034" transform="matrix(-1 0 0 1 156.256 5.9104)" fill="#F0D212"/>
<rect width="5.91034" height="5.91034" transform="matrix(-1 0 0 1 150.346 5.9104)" fill="#F0D212"/>
<rect width="5.91034" height="5.91034" transform="matrix(-1 0 0 1 144.436 5.9104)" fill="#F0D212"/>
<rect width="5.91034" height="5.91034" transform="matrix(-1 0 0 1 138.525 5.9104)" fill="#F0D212"/>
<rect width="5.91034" height="5.91034" transform="matrix(-1 0 0 1 132.613 5.9104)" fill="#F0D212"/>
<rect width="5.91034" height="5.91034" transform="matrix(-1 0 0 1 126.703 5.9104)" fill="#F0D212"/>
<rect width="5.91034" height="5.91034" transform="matrix(-1 0 0 1 120.793 5.9104)" fill="#F0D212"/>
<rect width="5.91034" height="5.91034" transform="matrix(-1 0 0 1 114.883 5.9104)" fill="#F0D212"/>
<rect width="5.91034" height="5.91034" transform="matrix(-1 0 0 1 108.973 5.9104)" fill="#F0D212"/>
<rect width="5.91034" height="5.91034" transform="matrix(-1 0 0 1 103.062 5.9104)" fill="#F0D212"/>
<rect width="5.91034" height="5.91034" transform="matrix(-1 0 0 1 97.1523 5.9104)" fill="#F0D212"/>
<rect width="5.91034" height="5.91034" transform="matrix(-1 0 0 1 91.2422 5.9104)" fill="#F0D212"/>
<rect width="5.91034" height="5.91034" transform="matrix(-1 0 0 1 85.332 5.9104)" fill="#F0D212"/>
<rect width="5.91034" height="5.91034" transform="matrix(-1 0 0 1 209.449 11.8208)" fill="#392F2D"/>
<rect width="5.91034" height="5.91034" transform="matrix(-1 0 0 1 203.539 11.8208)" fill="#F0D212"/>
<rect width="5.91034" height="5.91034" transform="matrix(-1 0 0 1 197.629 11.8208)" fill="#F0D212"/>
<rect width="5.91034" height="5.91034" transform="matrix(-1 0 0 1 191.717 11.8208)" fill="#F0D212"/>
<rect width="5.91034" height="5.91034" transform="matrix(-1 0 0 1 185.807 11.8208)" fill="#F0D212"/>
<rect width="5.91034" height="5.91034" transform="matrix(-1 0 0 1 179.896 11.8208)" fill="#F0D212"/>
<rect width="5.91034" height="5.91034" transform="matrix(-1 0 0 1 173.986 11.8208)" fill="#F0D212"/>
<rect width="5.91034" height="5.91034" transform="matrix(-1 0 0 1 168.076 11.8208)" fill="#F0D212"/>
<rect width="5.91034" height="5.91034" transform="matrix(-1 0 0 1 162.166 11.8208)" fill="#F0D212"/>
<rect width="5.91034" height="5.91034" transform="matrix(-1 0 0 1 156.256 11.8208)" fill="#F0D212"/>
<rect width="5.91034" height="5.91034" transform="matrix(-1 0 0 1 150.346 11.8208)" fill="#F0D212"/>
<rect width="5.91034" height="5.91034" transform="matrix(-1 0 0 1 144.436 11.8208)" fill="#F0D212"/>
<rect width="5.91034" height="5.91034" transform="matrix(-1 0 0 1 138.525 11.8208)" fill="#F0D212"/>
<rect width="5.91034" height="5.91034" transform="matrix(-1 0 0 1 132.613 11.8208)" fill="#F0D212"/>
<rect width="5.91034" height="5.91034" transform="matrix(-1 0 0 1 126.703 11.8208)" fill="#F0D212"/>
<rect width="5.91034" height="5.91034" transform="matrix(-1 0 0 1 120.793 11.8208)" fill="#F0D212"/>
<rect width="5.91034" height="5.91034" transform="matrix(-1 0 0 1 114.883 11.8208)" fill="#F0D212"/>
<rect width="5.91034" height="5.91034" transform="matrix(-1 0 0 1 108.973 11.8208)" fill="#F0D212"/>
<rect width="5.91034" height="5.91034" transform="matrix(-1 0 0 1 103.062 11.8208)" fill="#F0D212"/>
<rect width="5.91034" height="5.91034" transform="matrix(-1 0 0 1 97.1523 11.8208)" fill="#F0D212"/>
<rect width="5.91034" height="5.91034" transform="matrix(-1 0 0 1 91.2422 11.8208)" fill="#F0D212"/>
<rect width="5.91034" height="5.91034" transform="matrix(-1 0 0 1 85.332 11.8208)" fill="#F0D212"/>
<rect width="5.91034" height="5.91034" transform="matrix(-1 0 0 1 215.359 17.7312)" fill="#392F2D"/>
<rect width="5.91034" height="5.91034" transform="matrix(-1 0 0 1 209.449 17.7312)" fill="#F0D212"/>
<rect width="5.91034" height="5.91034" transform="matrix(-1 0 0 1 203.539 17.7312)" fill="#F0D212"/>
<rect width="5.91034" height="5.91034" transform="matrix(-1 0 0 1 197.629 17.7312)" fill="#F0D212"/>
<rect width="5.91034" height="5.91034" transform="matrix(-1 0 0 1 191.717 17.7312)" fill="#F0D212"/>
<rect width="5.91034" height="5.91034" transform="matrix(-1 0 0 1 185.807 17.7312)" fill="#F0D212"/>
<rect width="5.91034" height="5.91034" transform="matrix(-1 0 0 1 179.896 17.7312)" fill="#F0D212"/>
<rect width="5.91034" height="5.91034" transform="matrix(-1 0 0 1 173.986 17.7312)" fill="#F0D212"/>
<rect width="5.91034" height="5.91034" transform="matrix(-1 0 0 1 168.076 17.7312)" fill="#F0D212"/>
<rect width="5.91034" height="5.91034" transform="matrix(-1 0 0 1 162.166 17.7312)" fill="#F0D212"/>
<rect width="5.91034" height="5.91034" transform="matrix(-1 0 0 1 156.256 17.7312)" fill="#F0D212"/>
<rect width="5.91034" height="5.91034" transform="matrix(-1 0 0 1 150.346 17.7312)" fill="#F0D212"/>
<rect width="5.91034" height="5.91034" transform="matrix(-1 0 0 1 144.436 17.7312)" fill="#F0D212"/>
<rect width="5.91034" height="5.91034" transform="matrix(-1 0 0 1 138.525 17.7312)" fill="#F0D212"/>
<rect width="5.91034" height="5.91034" transform="matrix(-1 0 0 1 132.613 17.7312)" fill="#F0D212"/>
<rect width="5.91034" height="5.91034" transform="matrix(-1 0 0 1 126.703 17.7312)" fill="#F0D212"/>
<rect width="5.91034" height="5.91034" transform="matrix(-1 0 0 1 120.793 17.7312)" fill="#F0D212"/>
<rect width="5.91034" height="5.91034" transform="matrix(-1 0 0 1 114.883 17.7312)" fill="#F0D212"/>
<rect width="5.91034" height="5.91034" transform="matrix(-1 0 0 1 108.973 17.7312)" fill="#F0D212"/>
<rect width="5.91034" height="5.91034" transform="matrix(-1 0 0 1 103.062 17.7312)" fill="#F0D212"/>
<rect width="5.91034" height="5.91034" transform="matrix(-1 0 0 1 97.1523 17.7312)" fill="#F0D212"/>
<rect width="5.91034" height="5.91034" transform="matrix(-1 0 0 1 91.2422 17.7312)" fill="#F0D212"/>
<rect width="5.91034" height="5.91034" transform="matrix(-1 0 0 1 85.332 17.7312)" fill="#F0D212"/>
<rect width="5.91034" height="5.91034" transform="matrix(-1 0 0 1 215.359 23.6414)" fill="#392F2D"/>
<rect width="5.91034" height="5.91034" transform="matrix(-1 0 0 1 209.449 23.6414)" fill="#F0D212"/>
<rect width="5.91034" height="5.91034" transform="matrix(-1 0 0 1 203.539 23.6414)" fill="#F0D212"/>
<rect width="5.91034" height="5.91034" transform="matrix(-1 0 0 1 197.629 23.6414)" fill="#F0D212"/>
<rect width="5.91034" height="5.91034" transform="matrix(-1 0 0 1 191.717 23.6414)" fill="#F0D212"/>
<rect width="5.91034" height="5.91034" transform="matrix(-1 0 0 1 185.807 23.6414)" fill="#F0D212"/>
<rect width="5.91034" height="5.91034" transform="matrix(-1 0 0 1 179.896 23.6414)" fill="#F0D212"/>
<rect width="5.91034" height="5.91034" transform="matrix(-1 0 0 1 173.986 23.6414)" fill="#F0D212"/>
<rect width="5.91034" height="5.91034" transform="matrix(-1 0 0 1 168.076 23.6414)" fill="#F0D212"/>
<rect width="5.91034" height="5.91034" transform="matrix(-1 0 0 1 162.166 23.6414)" fill="#F0D212"/>
<rect width="5.91034" height="5.91034" transform="matrix(-1 0 0 1 156.256 23.6414)" fill="#F0D212"/>
<rect width="5.91034" height="5.91034" transform="matrix(-1 0 0 1 150.346 23.6414)" fill="#F0D212"/>
<rect width="5.91034" height="5.91034" transform="matrix(-1 0 0 1 144.436 23.6414)" fill="#F0D212"/>
<rect width="5.91034" height="5.91034" transform="matrix(-1 0 0 1 138.525 23.6414)" fill="#F0D212"/>
<rect width="5.91034" height="5.91034" transform="matrix(-1 0 0 1 132.613 23.6414)" fill="#F0D212"/>
<rect width="5.91034" height="5.91034" transform="matrix(-1 0 0 1 126.703 23.6414)" fill="#F0D212"/>
<rect width="5.91034" height="5.91034" transform="matrix(-1 0 0 1 120.793 23.6414)" fill="#F0D212"/>
<rect width="5.91034" height="5.91034" transform="matrix(-1 0 0 1 114.883 23.6414)" fill="#F0D212"/>
<rect width="5.91034" height="5.91034" transform="matrix(-1 0 0 1 108.973 23.6414)" fill="#F0D212"/>
<rect width="5.91034" height="5.91034" transform="matrix(-1 0 0 1 103.062 23.6414)" fill="#F0D212"/>
<rect width="5.91034" height="5.91034" transform="matrix(-1 0 0 1 97.1523 23.6414)" fill="#F0D212"/>
<rect width="5.91034" height="5.91034" transform="matrix(-1 0 0 1 91.2422 23.6414)" fill="#F0D212"/>
<rect width="5.91034" height="5.91034" transform="matrix(-1 0 0 1 85.332 23.6414)" fill="#F0D212"/>
<rect width="5.91034" height="5.91034" transform="matrix(-1 0 0 1 215.359 29.5518)" fill="#392F2D"/>
<rect width="5.91034" height="5.91034" transform="matrix(-1 0 0 1 209.449 29.5518)" fill="#F0D212"/>
<rect width="5.91034" height="5.91034" transform="matrix(-1 0 0 1 203.539 29.5518)" fill="#F0D212"/>
<rect width="5.91034" height="5.91034" transform="matrix(-1 0 0 1 197.629 29.5518)" fill="#F0D212"/>
<rect width="5.91034" height="5.91034" transform="matrix(-1 0 0 1 191.717 29.5518)" fill="#F0D212"/>
<rect width="5.91034" height="5.91034" transform="matrix(-1 0 0 1 185.807 29.5518)" fill="#F0D212"/>
<rect width="5.91034" height="5.91034" transform="matrix(-1 0 0 1 179.896 29.5518)" fill="#F0D212"/>
<rect width="5.91034" height="5.91034" transform="matrix(-1 0 0 1 173.986 29.5518)" fill="#F0D212"/>
<rect width="5.91034" height="5.91034" transform="matrix(-1 0 0 1 168.076 29.5518)" fill="#F0D212"/>
<rect width="5.91034" height="5.91034" transform="matrix(-1 0 0 1 162.166 29.5518)" fill="#F0D212"/>
<rect width="5.91034" height="5.91034" transform="matrix(-1 0 0 1 156.256 29.5518)" fill="#F0D212"/>
<rect width="5.91034" height="5.91034" transform="matrix(-1 0 0 1 150.346 29.5518)" fill="#F0D212"/>
<rect width="5.91034" height="5.91034" transform="matrix(-1 0 0 1 144.436 29.5518)" fill="#F0D212"/>
<rect width="5.91034" height="5.91034" transform="matrix(-1 0 0 1 138.525 29.5518)" fill="#F0D212"/>
<rect width="5.91034" height="5.91034" transform="matrix(-1 0 0 1 132.613 29.5518)" fill="#F0D212"/>
<rect width="5.91034" height="5.91034" transform="matrix(-1 0 0 1 126.703 29.5518)" fill="#F0D212"/>
<rect width="5.91034" height="5.91034" transform="matrix(-1 0 0 1 120.793 29.5518)" fill="#F0D212"/>
<rect width="5.91034" height="5.91034" transform="matrix(-1 0 0 1 114.883 29.5518)" fill="#F0D212"/>
<rect width="5.91034" height="5.91034" transform="matrix(-1 0 0 1 108.973 29.5518)" fill="#F0D212"/>
<rect width="5.91034" height="5.91034" transform="matrix(-1 0 0 1 103.062 29.5518)" fill="#F0D212"/>
<rect width="5.91034" height="5.91034" transform="matrix(-1 0 0 1 97.1523 29.5518)" fill="#F0D212"/>
<rect width="5.91034" height="5.91034" transform="matrix(-1 0 0 1 91.2422 29.5518)" fill="#F0D212"/>
<rect width="5.91034" height="5.91034" transform="matrix(-1 0 0 1 85.332 29.5518)" fill="#F0D212"/>
<rect width="5.91034" height="5.91034" transform="matrix(-1 0 0 1 215.359 35.4622)" fill="#392F2D"/>
<rect width="5.91034" height="5.91034" transform="matrix(-1 0 0 1 209.449 35.4622)" fill="#F0D212"/>
<rect width="5.91034" height="5.91034" transform="matrix(-1 0 0 1 203.539 35.4622)" fill="#F0D212"/>
<rect width="5.91034" height="5.91034" transform="matrix(-1 0 0 1 197.629 35.4622)" fill="#F0D212"/>
<rect width="5.91034" height="5.91034" transform="matrix(-1 0 0 1 191.717 35.4622)" fill="#F0D212"/>
<rect width="5.91034" height="5.91034" transform="matrix(-1 0 0 1 185.807 35.4622)" fill="#F0D212"/>
<rect width="5.91034" height="5.91034" transform="matrix(-1 0 0 1 179.896 35.4622)" fill="#F0D212"/>
<rect width="5.91034" height="5.91034" transform="matrix(-1 0 0 1 173.986 35.4622)" fill="#F0D212"/>
<rect width="5.91034" height="5.91034" transform="matrix(-1 0 0 1 168.076 35.4622)" fill="#F0D212"/>
<rect width="5.91034" height="5.91034" transform="matrix(-1 0 0 1 162.166 35.4622)" fill="#F0D212"/>
<rect width="5.91034" height="5.91034" transform="matrix(-1 0 0 1 156.256 35.4622)" fill="#F0D212"/>
<rect width="5.91034" height="5.91034" transform="matrix(-1 0 0 1 150.346 35.4622)" fill="#F0D212"/>
<rect width="5.91034" height="5.91034" transform="matrix(-1 0 0 1 144.436 35.4622)" fill="#F0D212"/>
<rect width="5.91034" height="5.91034" transform="matrix(-1 0 0 1 138.525 35.4622)" fill="#F0D212"/>
<rect width="5.91034" height="5.91034" transform="matrix(-1 0 0 1 132.613 35.4622)" fill="#F0D212"/>
<rect width="5.91034" height="5.91034" transform="matrix(-1 0 0 1 126.703 35.4622)" fill="#F0D212"/>
<rect width="5.91034" height="5.91034" transform="matrix(-1 0 0 1 120.793 35.4622)" fill="#F0D212"/>
<rect width="5.91034" height="5.91034" transform="matrix(-1 0 0 1 114.883 35.4622)" fill="#F0D212"/>
<rect width="5.91034" height="5.91034" transform="matrix(-1 0 0 1 108.973 35.4622)" fill="#F0D212"/>
<rect width="5.91034" height="5.91034" transform="matrix(-1 0 0 1 103.062 35.4622)" fill="#F0D212"/>
<rect width="5.91034" height="5.91034" transform="matrix(-1 0 0 1 97.1523 35.4622)" fill="#F0D212"/>
<rect width="5.91034" height="5.91034" transform="matrix(-1 0 0 1 91.2422 35.4622)" fill="#F0D212"/>
<rect width="5.91034" height="5.91034" transform="matrix(-1 0 0 1 85.332 35.4622)" fill="#F0D212"/>
<rect width="5.91034" height="5.91034" transform="matrix(-1 0 0 1 215.359 41.3726)" fill="#392F2D"/>
<rect width="5.91034" height="5.91034" transform="matrix(-1 0 0 1 209.449 41.3726)" fill="#F0D212"/>
<rect width="5.91034" height="5.91034" transform="matrix(-1 0 0 1 203.539 41.3726)" fill="#F0D212"/>
<rect width="5.91034" height="5.91034" transform="matrix(-1 0 0 1 197.629 41.3726)" fill="#F0D212"/>
<rect width="5.91034" height="5.91034" transform="matrix(-1 0 0 1 191.717 41.3726)" fill="#F0D212"/>
<rect width="5.91034" height="5.91034" transform="matrix(-1 0 0 1 185.807 41.3726)" fill="#F0D212"/>
<rect width="5.91034" height="5.91034" transform="matrix(-1 0 0 1 179.896 41.3726)" fill="#F0D212"/>
<rect width="5.91034" height="5.91034" transform="matrix(-1 0 0 1 173.986 41.3726)" fill="#F0D212"/>
<rect width="5.91034" height="5.91034" transform="matrix(-1 0 0 1 168.076 41.3726)" fill="#F0D212"/>
<rect width="5.91034" height="5.91034" transform="matrix(-1 0 0 1 162.166 41.3726)" fill="#F0D212"/>
<rect width="5.91034" height="5.91034" transform="matrix(-1 0 0 1 156.256 41.3726)" fill="#F0D212"/>
<rect width="5.91034" height="5.91034" transform="matrix(-1 0 0 1 150.346 41.3726)" fill="#F0D212"/>
<rect width="5.91034" height="5.91034" transform="matrix(-1 0 0 1 144.436 41.3726)" fill="#F0D212"/>
<rect width="5.91034" height="5.91034" transform="matrix(-1 0 0 1 138.525 41.3726)" fill="#F0D212"/>
<rect width="5.91034" height="5.91034" transform="matrix(-1 0 0 1 132.613 41.3726)" fill="#F0D212"/>
<rect width="5.91034" height="5.91034" transform="matrix(-1 0 0 1 126.703 41.3726)" fill="#F0D212"/>
<rect width="5.91034" height="5.91034" transform="matrix(-1 0 0 1 120.793 41.3726)" fill="#F0D212"/>
<rect width="5.91034" height="5.91034" transform="matrix(-1 0 0 1 114.883 41.3726)" fill="#F0D212"/>
<rect width="5.91034" height="5.91034" transform="matrix(-1 0 0 1 108.973 41.3726)" fill="#F0D212"/>
<rect width="5.91034" height="5.91034" transform="matrix(-1 0 0 1 103.062 41.3726)" fill="#F0D212"/>
<rect width="5.91034" height="5.91034" transform="matrix(-1 0 0 1 97.1523 41.3726)" fill="#F0D212"/>
<rect width="5.91034" height="5.91034" transform="matrix(-1 0 0 1 91.2422 41.3726)" fill="#F0D212"/>
<rect width="5.91034" height="5.91034" transform="matrix(-1 0 0 1 85.332 41.3726)" fill="#F0D212"/>
<rect width="5.91034" height="5.91034" transform="matrix(-1 0 0 1 215.359 47.2827)" fill="#392F2D"/>
<rect width="5.91034" height="5.91034" transform="matrix(-1 0 0 1 209.449 47.2827)" fill="#F0D212"/>
<rect width="5.91034" height="5.91034" transform="matrix(-1 0 0 1 203.539 47.2827)" fill="#F0D212"/>
<rect width="5.91034" height="5.91034" transform="matrix(-1 0 0 1 197.629 47.2827)" fill="#F0D212"/>
<rect width="5.91034" height="5.91034" transform="matrix(-1 0 0 1 191.717 47.2827)" fill="#F0D212"/>
<rect width="5.91034" height="5.91034" transform="matrix(-1 0 0 1 185.807 47.2827)" fill="#F0D212"/>
<rect width="5.91034" height="5.91034" transform="matrix(-1 0 0 1 179.896 47.2827)" fill="#F0D212"/>
<rect width="5.91034" height="5.91034" transform="matrix(-1 0 0 1 173.986 47.2827)" fill="#F0D212"/>
<rect width="5.91034" height="5.91034" transform="matrix(-1 0 0 1 168.076 47.2827)" fill="#F0D212"/>
<rect width="5.91034" height="5.91034" transform="matrix(-1 0 0 1 162.166 47.2827)" fill="#F0D212"/>
<rect width="5.91034" height="5.91034" transform="matrix(-1 0 0 1 156.256 47.2827)" fill="#F0D212"/>
<rect width="5.91034" height="5.91034" transform="matrix(-1 0 0 1 150.346 47.2827)" fill="#F0D212"/>
<rect width="5.91034" height="5.91034" transform="matrix(-1 0 0 1 144.436 47.2827)" fill="#F0D212"/>
<rect width="5.91034" height="5.91034" transform="matrix(-1 0 0 1 138.525 47.2827)" fill="#F0D212"/>
<rect width="5.91034" height="5.91034" transform="matrix(-1 0 0 1 132.613 47.2827)" fill="#F0D212"/>
<rect width="5.91034" height="5.91034" transform="matrix(-1 0 0 1 126.703 47.2827)" fill="#F0D212"/>
<rect width="5.91034" height="5.91034" transform="matrix(-1 0 0 1 120.793 47.2827)" fill="#F0D212"/>
<rect width="5.91034" height="5.91034" transform="matrix(-1 0 0 1 114.883 47.2827)" fill="#F0D212"/>
<rect width="5.91034" height="5.91034" transform="matrix(-1 0 0 1 108.973 47.2827)" fill="#F0D212"/>
<rect width="5.91034" height="5.91034" transform="matrix(-1 0 0 1 103.062 47.2827)" fill="#F0D212"/>
<rect width="5.91034" height="5.91034" transform="matrix(-1 0 0 1 97.1523 47.2827)" fill="#F0D212"/>
<rect width="5.91034" height="5.91034" transform="matrix(-1 0 0 1 91.2422 47.2827)" fill="#F0D212"/>
<rect width="5.91034" height="5.91034" transform="matrix(-1 0 0 1 85.332 47.2827)" fill="#F0D212"/>
<rect width="5.91034" height="5.91034" transform="matrix(-1 0 0 1 215.359 53.1931)" fill="#392F2D"/>
<rect width="5.91034" height="5.91034" transform="matrix(-1 0 0 1 209.449 53.1931)" fill="#F0D212"/>
<rect width="5.91034" height="5.91034" transform="matrix(-1 0 0 1 203.539 53.1931)" fill="#F0D212"/>
<rect width="5.91034" height="5.91034" transform="matrix(-1 0 0 1 197.629 53.1931)" fill="#F0D212"/>
<rect width="5.91034" height="5.91034" transform="matrix(-1 0 0 1 191.719 53.1931)" fill="#F0D212"/>
<rect width="5.91034" height="5.91034" transform="matrix(-1 0 0 1 185.809 53.1931)" fill="#F0D212"/>
<rect width="5.91034" height="5.91034" transform="matrix(-1 0 0 1 179.898 53.1931)" fill="#F0D212"/>
<rect width="5.91034" height="5.91034" transform="matrix(-1 0 0 1 173.988 53.1931)" fill="#F0D212"/>
<rect width="5.91034" height="5.91034" transform="matrix(-1 0 0 1 168.078 53.1931)" fill="#F0D212"/>
<rect width="5.91034" height="5.91034" transform="matrix(-1 0 0 1 162.166 53.1931)" fill="#F0D212"/>
<rect width="5.91034" height="5.91034" transform="matrix(-1 0 0 1 156.256 53.1931)" fill="#F0D212"/>
<rect width="5.91034" height="5.91034" transform="matrix(-1 0 0 1 150.346 53.1931)" fill="#F0D212"/>
<rect width="5.91034" height="5.91034" transform="matrix(-1 0 0 1 144.436 53.1931)" fill="#F0D212"/>
<rect width="5.91034" height="5.91034" transform="matrix(-1 0 0 1 138.525 53.1931)" fill="#F0D212"/>
<rect width="5.91034" height="5.91034" transform="matrix(-1 0 0 1 132.615 53.1931)" fill="#F0D212"/>
<rect width="5.91034" height="5.91034" transform="matrix(-1 0 0 1 126.705 53.1931)" fill="#F0D212"/>
<rect width="5.91034" height="5.91034" transform="matrix(-1 0 0 1 120.795 53.1931)" fill="#F0D212"/>
<rect width="5.91034" height="5.91034" transform="matrix(-1 0 0 1 114.885 53.1931)" fill="#F0D212"/>
<rect width="5.91034" height="5.91034" transform="matrix(-1 0 0 1 108.975 53.1931)" fill="#F0D212"/>
<rect width="5.91034" height="5.91034" transform="matrix(-1 0 0 1 103.064 53.1931)" fill="#F0D212"/>
<rect width="5.91034" height="5.91034" transform="matrix(-1 0 0 1 97.1523 53.1931)" fill="#F0D212"/>
<rect width="5.91034" height="5.91034" transform="matrix(-1 0 0 1 91.2422 53.1931)" fill="#F0D212"/>
<rect width="5.91034" height="5.91034" transform="matrix(-1 0 0 1 85.332 53.1931)" fill="#F0D212"/>
<rect width="5.98729" height="6.06646" transform="matrix(-1 0 0 1 199.189 58.9028)" fill="#F0D212"/>
<rect width="5.98729" height="6.06646" transform="matrix(-1 0 0 1 193.203 58.9028)" fill="#F0D212"/>
<rect width="5.98729" height="6.06646" transform="matrix(-1 0 0 1 187.215 58.9028)" fill="#F0D212"/>
<rect width="5.98729" height="6.06646" transform="matrix(-1 0 0 1 181.227 58.9028)" fill="#F0D212"/>
<rect width="5.98729" height="6.06646" transform="matrix(-1 0 0 1 175.24 58.9028)" fill="#F0D212"/>
<rect width="5.98729" height="6.06646" transform="matrix(-1 0 0 1 169.252 58.9028)" fill="#F0D212"/>
<rect width="5.98729" height="6.06646" transform="matrix(-1 0 0 1 163.266 58.9028)" fill="#F0D212"/>
<rect width="5.98729" height="6.06646" transform="matrix(-1 0 0 1 157.277 58.9028)" fill="#F0D212"/>
<rect width="5.98729" height="6.06646" transform="matrix(-1 0 0 1 151.291 58.9028)" fill="#F0D212"/>
<rect width="5.98729" height="6.06646" transform="matrix(-1 0 0 1 145.303 58.9028)" fill="#F0D212"/>
<rect width="5.98729" height="6.06646" transform="matrix(-1 0 0 1 139.316 58.9028)" fill="#F0D212"/>
<rect width="5.98729" height="6.06646" transform="matrix(-1 0 0 1 133.33 58.9028)" fill="#F0D212"/>
<rect width="5.98729" height="6.06646" transform="matrix(-1 0 0 1 127.342 58.9028)" fill="#F0D212"/>
<rect width="5.98729" height="6.06646" transform="matrix(-1 0 0 1 121.355 58.9028)" fill="#F0D212"/>
<rect width="5.98729" height="6.06646" transform="matrix(-1 0 0 1 115.367 58.9028)" fill="#F0D212"/>
<rect width="5.98729" height="6.06646" transform="matrix(-1 0 0 1 109.381 58.9028)" fill="#F0D212"/>
<rect width="5.98729" height="6.06646" transform="matrix(-1 0 0 1 103.393 58.9028)" fill="#F0D212"/>
<rect width="5.98729" height="6.06646" transform="matrix(-1 0 0 1 97.4043 58.9028)" fill="#F0D212"/>
<rect width="5.98729" height="6.06646" transform="matrix(-1 0 0 1 91.418 58.9028)" fill="#F0D212"/>
<rect width="5.98729" height="6.06646" transform="matrix(-1 0 0 1 85.4297 58.9028)" fill="#F0D212"/>
<rect width="5.91034" height="5.91034" transform="matrix(-1 0 0 1 209.449 59.1035)" fill="#392F2D"/>
<rect width="5.91034" height="5.91034" transform="matrix(-1 0 0 1 203.539 59.1035)" fill="#F0D212"/>
<rect width="5.91034" height="5.91034" transform="matrix(-1 0 0 1 203.539 65.0139)" fill="#392F2D"/>
<rect width="5.91034" height="5.91034" transform="matrix(-1 0 0 1 197.629 65.0139)" fill="#F0D212"/>
<rect width="5.91034" height="5.91034" transform="matrix(-1 0 0 1 191.717 65.0139)" fill="#F0D212"/>
<rect width="5.91034" height="5.91034" transform="matrix(-1 0 0 1 185.807 65.0139)" fill="#F0D212"/>
<rect width="5.91034" height="5.91034" transform="matrix(-1 0 0 1 179.896 65.0139)" fill="#F0D212"/>
<rect width="5.91034" height="5.91034" transform="matrix(-1 0 0 1 173.986 65.0139)" fill="#F0D212"/>
<rect width="5.91034" height="5.91034" transform="matrix(-1 0 0 1 168.076 65.0139)" fill="#F0D212"/>
<rect width="5.91034" height="5.91034" transform="matrix(-1 0 0 1 162.166 65.0139)" fill="#F0D212"/>
<rect width="5.91034" height="5.91034" transform="matrix(-1 0 0 1 156.256 65.0139)" fill="#F0D212"/>
<rect width="5.91034" height="5.91034" transform="matrix(-1 0 0 1 150.346 65.0139)" fill="#F0D212"/>
<rect width="5.91034" height="5.91034" transform="matrix(-1 0 0 1 144.436 65.0139)" fill="#F0D212"/>
<rect width="5.91034" height="5.91034" transform="matrix(-1 0 0 1 138.525 65.0139)" fill="#F0D212"/>
<rect width="5.91034" height="5.91034" transform="matrix(-1 0 0 1 132.613 65.0139)" fill="#F0D212"/>
<rect width="5.91034" height="5.91034" transform="matrix(-1 0 0 1 126.703 65.0139)" fill="#F0D212"/>
<rect width="5.91034" height="5.91034" transform="matrix(-1 0 0 1 120.793 65.0139)" fill="#F0D212"/>
<rect width="5.91034" height="5.91034" transform="matrix(-1 0 0 1 114.883 65.0139)" fill="#F0D212"/>
<rect width="5.91034" height="5.91034" transform="matrix(-1 0 0 1 108.973 65.0139)" fill="#F0D212"/>
<rect width="5.91034" height="5.91034" transform="matrix(-1 0 0 1 103.062 65.0139)" fill="#F0D212"/>
<rect width="5.91034" height="5.91034" transform="matrix(-1 0 0 1 97.1523 65.0139)" fill="#F0D212"/>
<rect width="5.91034" height="5.91034" transform="matrix(-1 0 0 1 91.2422 65.0139)" fill="#F0D212"/>
<rect width="5.91034" height="5.91034" transform="matrix(-1 0 0 1 85.332 65.0139)" fill="#F0D212"/>
<rect width="5.91034" height="5.91034" transform="matrix(-1 0 0 1 197.629 70.9241)" fill="#392F2D"/>
<rect width="5.91034" height="5.91034" transform="matrix(-1 0 0 1 191.717 70.9241)" fill="#392F2D"/>
<rect width="5.91034" height="5.91034" transform="matrix(-1 0 0 1 185.807 70.9241)" fill="#392F2D"/>
<rect width="5.91034" height="5.91034" transform="matrix(-1 0 0 1 179.896 70.9241)" fill="#392F2D"/>
<rect width="5.91034" height="5.91034" transform="matrix(-1 0 0 1 173.986 70.9241)" fill="#392F2D"/>
<rect width="5.91034" height="5.91034" transform="matrix(-1 0 0 1 168.076 70.9241)" fill="#392F2D"/>
<rect width="5.91034" height="5.91034" transform="matrix(-1 0 0 1 162.166 70.9241)" fill="#392F2D"/>
<rect width="5.91034" height="5.91034" transform="matrix(-1 0 0 1 156.256 70.9241)" fill="#392F2D"/>
<rect width="5.91034" height="5.91034" transform="matrix(-1 0 0 1 150.346 70.9241)" fill="#392F2D"/>
<rect width="5.91034" height="5.91034" transform="matrix(-1 0 0 1 144.436 70.9241)" fill="#392F2D"/>
<rect width="5.91034" height="5.91034" transform="matrix(-1 0 0 1 138.525 70.9241)" fill="#392F2D"/>
<rect width="5.91034" height="5.91034" transform="matrix(-1 0 0 1 132.613 70.9241)" fill="#392F2D"/>
<rect width="5.91034" height="5.91034" transform="matrix(-1 0 0 1 126.703 70.9241)" fill="#392F2D"/>
<rect width="5.91034" height="5.91034" transform="matrix(-1 0 0 1 120.793 70.9241)" fill="#392F2D"/>
<rect width="5.91034" height="5.91034" transform="matrix(-1 0 0 1 114.883 70.9241)" fill="#392F2D"/>
<rect width="5.91034" height="5.91034" transform="matrix(-1 0 0 1 108.973 70.9241)" fill="#392F2D"/>
<rect width="5.91034" height="5.91034" transform="matrix(-1 0 0 1 103.062 70.9241)" fill="#392F2D"/>
<rect width="5.91034" height="5.91034" transform="matrix(-1 0 0 1 97.1523 70.9241)" fill="#392F2D"/>
<rect width="5.91034" height="5.91034" transform="matrix(-1 0 0 1 91.2422 70.9241)" fill="#392F2D"/>
<rect width="5.91034" height="5.91034" transform="matrix(-1 0 0 1 85.332 70.9241)" fill="#392F2D"/>
<rect width="5.91034" height="5.91034" transform="matrix(-1 0 0 1 196.914 64.0994)" fill="#D2B709"/>
<rect width="5.91034" height="5.91034" transform="matrix(-1 0 0 1 191.004 64.0994)" fill="#D2B709"/>
<rect width="5.91034" height="5.91034" transform="matrix(-1 0 0 1 185.094 64.0994)" fill="#D2B709"/>
<rect width="5.91034" height="5.91034" transform="matrix(-1 0 0 1 179.184 64.0994)" fill="#D2B709"/>
<rect width="5.91034" height="5.91034" transform="matrix(-1 0 0 1 173.273 64.0994)" fill="#D2B709"/>
<rect width="5.91034" height="5.91034" transform="matrix(-1 0 0 1 167.363 64.0994)" fill="#D2B709"/>
<rect width="5.91034" height="5.91034" transform="matrix(-1 0 0 1 161.453 64.0994)" fill="#D2B709"/>
<rect width="5.91034" height="5.91034" transform="matrix(-1 0 0 1 155.541 64.0994)" fill="#D2B709"/>
<rect width="5.91034" height="5.91034" transform="matrix(-1 0 0 1 149.631 64.0994)" fill="#D2B709"/>
<rect width="5.91034" height="5.91034" transform="matrix(-1 0 0 1 143.721 64.0994)" fill="#D2B709"/>
<rect width="5.91034" height="5.91034" transform="matrix(-1 0 0 1 137.811 64.0994)" fill="#D2B709"/>
<rect width="5.91034" height="5.91034" transform="matrix(-1 0 0 1 131.9 64.0994)" fill="#D2B709"/>
<rect width="5.91034" height="5.91034" transform="matrix(-1 0 0 1 125.99 64.0994)" fill="#D2B709"/>
<rect width="5.91034" height="5.91034" transform="matrix(-1 0 0 1 120.08 64.0994)" fill="#D2B709"/>
<rect width="5.91034" height="5.91034" transform="matrix(-1 0 0 1 114.17 64.0994)" fill="#D2B709"/>
<rect width="5.91034" height="5.91034" transform="matrix(-1 0 0 1 108.26 64.0994)" fill="#D2B709"/>
<rect width="5.91034" height="5.91034" transform="matrix(-1 0 0 1 102.35 64.0994)" fill="#D2B709"/>
<rect width="5.91034" height="5.91034" transform="matrix(-1 0 0 1 96.4395 64.0994)" fill="#D2B709"/>
<rect width="5.91034" height="5.91034" transform="matrix(-1 0 0 1 90.5273 64.0994)" fill="#D2B709"/>
<rect width="5.91034" height="5.91034" transform="matrix(-1 0 0 1 84.6172 64.0994)" fill="#D2B709"/>
<path d="M87.8925 25.8757C87.8925 26.5761 87.8316 27.1851 87.7098 27.7028H84.9692C85.091 28.19 85.1519 28.799 85.1519 29.5299C85.1519 30.2302 85.091 30.8393 84.9692 31.3569C85.091 31.8441 85.1519 32.4532 85.1519 33.184C85.1519 33.8844 85.091 34.4934 84.9692 35.0111C85.091 35.4983 85.1519 36.1073 85.1519 36.8382C85.1519 37.5385 85.091 38.1476 84.9692 38.6652C85.091 39.1525 85.1519 39.7615 85.1519 40.4923C85.1519 41.1927 85.091 41.8017 84.9692 42.3194C85.091 42.8066 85.1519 43.4156 85.1519 44.1465C85.1519 44.8468 85.091 45.4559 84.9692 45.9735H83.1421C83.2639 46.4608 83.3248 47.0698 83.3248 47.8006C83.3248 48.501 83.2639 49.11 83.1421 49.6277H75.8338C75.712 49.11 75.6511 48.501 75.6511 47.8006C75.6511 47.0698 75.712 46.4608 75.8338 45.9735H74.0068C73.885 45.4559 73.8241 44.8468 73.8241 44.1465C73.8241 43.4156 73.885 42.8066 74.0068 42.3194H77.6609C77.7827 42.8066 77.8436 43.4156 77.8436 44.1465C77.8436 44.8468 77.7827 45.4559 77.6609 45.9735H81.3151C81.1933 45.4559 81.1324 44.8468 81.1324 44.1465C81.1324 43.4156 81.1933 42.8066 81.3151 42.3194C81.1933 41.8017 81.1324 41.1927 81.1324 40.4923C81.1324 39.7615 81.1933 39.1525 81.3151 38.6652C81.1933 38.1476 81.1324 37.5385 81.1324 36.8382C81.1324 36.1073 81.1933 35.4983 81.3151 35.0111C81.1933 34.4934 81.1324 33.8844 81.1324 33.184C81.1324 32.4532 81.1933 31.8441 81.3151 31.3569C81.1933 30.8393 81.1324 30.2302 81.1324 29.5299C81.1324 28.799 81.1933 28.19 81.3151 27.7028H78.5745C78.4526 27.1851 78.3917 26.5761 78.3917 25.8757C78.3917 25.1449 78.4526 24.5358 78.5745 24.0486H87.7098C87.8316 24.5358 87.8925 25.1449 87.8925 25.8757ZM107.095 40.4923C107.095 41.1927 107.034 41.8017 106.912 42.3194H105.542C105.663 42.8066 105.724 43.4156 105.724 44.1465C105.724 44.8468 105.663 45.4559 105.542 45.9735H103.258C103.38 46.4608 103.441 47.0698 103.441 47.8006C103.441 48.501 103.38 49.11 103.258 49.6277H95.9495C95.8277 49.11 95.7668 48.501 95.7668 47.8006C95.7668 47.0698 95.8277 46.4608 95.9495 45.9735H93.6657C93.5439 45.4559 93.483 44.8468 93.483 44.1465C93.483 43.4156 93.5439 42.8066 93.6657 42.3194H92.2954C92.1736 41.8017 92.1127 41.1927 92.1127 40.4923C92.1127 39.7615 92.1736 39.1525 92.2954 38.6652H93.6657C93.5439 38.1476 93.483 37.5385 93.483 36.8382C93.483 36.1073 93.5439 35.4983 93.6657 35.0111H95.9495C95.8277 34.4934 95.7668 33.8844 95.7668 33.184C95.7668 32.4532 95.8277 31.8441 95.9495 31.3569H103.258C103.38 31.8441 103.441 32.4532 103.441 33.184C103.441 33.8844 103.38 34.4934 103.258 35.0111H105.542C105.663 35.4983 105.724 36.1073 105.724 36.8382C105.724 37.5385 105.663 38.1476 105.542 38.6652H106.912C107.034 39.1525 107.095 39.7615 107.095 40.4923ZM103.258 42.3194C103.136 41.8017 103.075 41.1927 103.075 40.4923C103.075 39.7615 103.136 39.1525 103.258 38.6652H101.888C101.766 38.1476 101.705 37.5385 101.705 36.8382C101.705 36.1073 101.766 35.4983 101.888 35.0111H97.3198C97.4416 35.4983 97.5025 36.1073 97.5025 36.8382C97.5025 37.5385 97.4416 38.1476 97.3198 38.6652H95.9495C96.0713 39.1525 96.1322 39.7615 96.1322 40.4923C96.1322 41.1927 96.0713 41.8017 95.9495 42.3194H97.3198C97.4416 42.8066 97.5025 43.4156 97.5025 44.1465C97.5025 44.8468 97.4416 45.4559 97.3198 45.9735H101.888C101.766 45.4559 101.705 44.8468 101.705 44.1465C101.705 43.4156 101.766 42.8066 101.888 42.3194H103.258ZM116.065 27.7028C115.943 27.1851 115.882 26.5761 115.882 25.8757C115.882 25.1449 115.943 24.5358 116.065 24.0486H119.719C119.841 24.5358 119.902 25.1449 119.902 25.8757C119.902 26.5761 119.841 27.1851 119.719 27.7028H116.065ZM123.373 45.9735C123.495 46.4608 123.556 47.0698 123.556 47.8006C123.556 48.501 123.495 49.11 123.373 49.6277H112.411C112.289 49.11 112.228 48.501 112.228 47.8006C112.228 47.0698 112.289 46.4608 112.411 45.9735H116.065C115.943 45.4559 115.882 44.8468 115.882 44.1465C115.882 43.4156 115.943 42.8066 116.065 42.3194C115.943 41.8017 115.882 41.1927 115.882 40.4923C115.882 39.7615 115.943 39.1525 116.065 38.6652C115.943 38.1476 115.882 37.5385 115.882 36.8382C115.882 36.1073 115.943 35.4983 116.065 35.0111H113.325C113.203 34.4934 113.142 33.8844 113.142 33.184C113.142 32.4532 113.203 31.8441 113.325 31.3569H119.719C119.841 31.8441 119.902 32.4532 119.902 33.184C119.902 33.8844 119.841 34.4934 119.719 35.0111C119.841 35.4983 119.902 36.1073 119.902 36.8382C119.902 37.5385 119.841 38.1476 119.719 38.6652C119.841 39.1525 119.902 39.7615 119.902 40.4923C119.902 41.1927 119.841 41.8017 119.719 42.3194C119.841 42.8066 119.902 43.4156 119.902 44.1465C119.902 44.8468 119.841 45.4559 119.719 45.9735H123.373ZM132.253 33.184C132.253 33.8844 132.192 34.4934 132.07 35.0111H133.897C134.019 35.4983 134.08 36.1073 134.08 36.8382C134.08 37.5385 134.019 38.1476 133.897 38.6652H132.527C132.649 39.1525 132.709 39.7615 132.709 40.4923C132.709 41.1927 132.649 41.8017 132.527 42.3194C132.649 42.8066 132.709 43.4156 132.709 44.1465C132.709 44.8468 132.649 45.4559 132.527 45.9735C132.649 46.4608 132.709 47.0698 132.709 47.8006C132.709 48.501 132.649 49.11 132.527 49.6277H128.873C128.751 49.11 128.69 48.501 128.69 47.8006C128.69 47.0698 128.751 46.4608 128.873 45.9735C128.751 45.4559 128.69 44.8468 128.69 44.1465C128.69 43.4156 128.751 42.8066 128.873 42.3194C128.751 41.8017 128.69 41.1927 128.69 40.4923C128.69 39.7615 128.751 39.1525 128.873 38.6652C128.751 38.1476 128.69 37.5385 128.69 36.8382C128.69 36.1073 128.751 35.4983 128.873 35.0111C128.751 34.4934 128.69 33.8844 128.69 33.184C128.69 32.4532 128.751 31.8441 128.873 31.3569H132.07C132.192 31.8441 132.253 32.4532 132.253 33.184ZM143.489 38.6652C143.611 39.1525 143.672 39.7615 143.672 40.4923C143.672 41.1927 143.611 41.8017 143.489 42.3194C143.611 42.8066 143.672 43.4156 143.672 44.1465C143.672 44.8468 143.611 45.4559 143.489 45.9735C143.611 46.4608 143.672 47.0698 143.672 47.8006C143.672 48.501 143.611 49.11 143.489 49.6277H139.835C139.713 49.11 139.652 48.501 139.652 47.8006C139.652 47.0698 139.713 46.4608 139.835 45.9735C139.713 45.4559 139.652 44.8468 139.652 44.1465C139.652 43.4156 139.713 42.8066 139.835 42.3194C139.713 41.8017 139.652 41.1927 139.652 40.4923C139.652 39.7615 139.713 39.1525 139.835 38.6652C139.713 38.1476 139.652 37.5385 139.652 36.8382C139.652 36.1073 139.713 35.4983 139.835 35.0111H133.897C133.775 34.4934 133.714 33.8844 133.714 33.184C133.714 32.4532 133.775 31.8441 133.897 31.3569H141.205C141.327 31.8441 141.388 32.4532 141.388 33.184C141.388 33.8844 141.327 34.4934 141.205 35.0111H143.489C143.611 35.4983 143.672 36.1073 143.672 36.8382C143.672 37.5385 143.611 38.1476 143.489 38.6652Z" fill="#1D152A"/>
</svg>
