<svg width="473" height="109" viewBox="0 0 473 109" fill="none" xmlns="http://www.w3.org/2000/svg">
<rect x="25.4062" y="0.96875" width="8.28125" height="8.28125" fill="#372D24"/>
<rect x="33.6875" y="0.96875" width="8.28125" height="8.28125" fill="#372D24"/>
<rect x="41.9688" y="0.96875" width="8.28125" height="8.28125" fill="#372D24"/>
<rect x="50.25" y="0.96875" width="8.28125" height="8.28125" fill="#372D24"/>
<rect x="58.5312" y="0.96875" width="8.28125" height="8.28125" fill="#372D24"/>
<rect x="66.8125" y="0.96875" width="8.28125" height="8.28125" fill="#372D24"/>
<rect x="75.0938" y="0.96875" width="8.28125" height="8.28125" fill="#372D24"/>
<rect x="83.375" y="0.96875" width="8.28125" height="8.28125" fill="#372D24"/>
<rect x="91.6562" y="0.96875" width="8.28125" height="8.28125" fill="#372D24"/>
<rect x="99.9375" y="0.96875" width="8.28125" height="8.28125" fill="#372D24"/>
<rect x="108.219" y="0.96875" width="8.28125" height="8.28125" fill="#372D24"/>
<rect x="116.5" y="0.96875" width="8.28125" height="8.28125" fill="#372D24"/>
<rect x="124.781" y="0.96875" width="8.28125" height="8.28125" fill="#372D24"/>
<rect x="133.062" y="0.96875" width="8.28125" height="8.28125" fill="#372D24"/>
<rect x="141.344" y="0.96875" width="8.28125" height="8.28125" fill="#372D24"/>
<rect x="149.625" y="0.96875" width="8.28125" height="8.28125" fill="#372D24"/>
<rect x="157.906" y="0.96875" width="8.28125" height="8.28125" fill="#372D24"/>
<rect x="166.188" y="0.96875" width="8.28125" height="8.28125" fill="#372D24"/>
<rect x="17.125" y="9.25" width="8.28125" height="8.28125" fill="#372D24"/>
<rect x="25.4062" y="9.25" width="8.28125" height="8.28125" fill="#D0376D"/>
<rect x="33.6875" y="9.25" width="8.28125" height="8.28125" fill="#D0376D"/>
<rect x="41.9688" y="9.25" width="8.28125" height="8.28125" fill="#D0376D"/>
<rect x="50.25" y="9.25" width="8.28125" height="8.28125" fill="#D0376D"/>
<rect x="58.5312" y="9.25" width="8.28125" height="8.28125" fill="#D0376D"/>
<rect x="66.8125" y="9.25" width="8.28125" height="8.28125" fill="#D0376D"/>
<rect x="75.0938" y="9.25" width="8.28125" height="8.28125" fill="#D0376D"/>
<rect x="83.375" y="9.25" width="8.28125" height="8.28125" fill="#D0376D"/>
<rect x="91.6562" y="9.25" width="8.28125" height="8.28125" fill="#D0376D"/>
<rect x="99.9375" y="9.25" width="8.28125" height="8.28125" fill="#D0376D"/>
<rect x="108.219" y="9.25" width="8.28125" height="8.28125" fill="#D0376D"/>
<rect x="116.5" y="9.25" width="8.28125" height="8.28125" fill="#D0376D"/>
<rect x="124.781" y="9.25" width="8.28125" height="8.28125" fill="#D0376D"/>
<rect x="133.062" y="9.25" width="8.28125" height="8.28125" fill="#D0376D"/>
<rect x="141.344" y="9.25" width="8.28125" height="8.28125" fill="#D0376D"/>
<rect x="149.625" y="9.25" width="8.28125" height="8.28125" fill="#D0376D"/>
<rect x="157.906" y="9.25" width="8.28125" height="8.28125" fill="#D0376D"/>
<rect x="166.188" y="9.25" width="8.28125" height="8.28125" fill="#D0376D"/>
<rect x="8.84375" y="17.5312" width="8.28125" height="8.28125" fill="#372D24"/>
<rect x="17.125" y="17.5312" width="8.28125" height="8.28125" fill="#D0376D"/>
<rect x="25.4062" y="17.5312" width="8.28125" height="8.28125" fill="#D0376D"/>
<rect x="33.6875" y="17.5312" width="8.28125" height="8.28125" fill="#D0376D"/>
<rect x="41.9688" y="17.5312" width="8.28125" height="8.28125" fill="#D0376D"/>
<rect x="50.25" y="17.5312" width="8.28125" height="8.28125" fill="#D0376D"/>
<rect x="58.5312" y="17.5312" width="8.28125" height="8.28125" fill="#D0376D"/>
<rect x="66.8125" y="17.5312" width="8.28125" height="8.28125" fill="#D0376D"/>
<rect x="75.0938" y="17.5312" width="8.28125" height="8.28125" fill="#D0376D"/>
<rect x="83.375" y="17.5312" width="8.28125" height="8.28125" fill="#D0376D"/>
<rect x="91.6562" y="17.5312" width="8.28125" height="8.28125" fill="#D0376D"/>
<rect x="99.9375" y="17.5312" width="8.28125" height="8.28125" fill="#D0376D"/>
<rect x="108.219" y="17.5312" width="8.28125" height="8.28125" fill="#D0376D"/>
<rect x="116.5" y="17.5312" width="8.28125" height="8.28125" fill="#D0376D"/>
<rect x="124.781" y="17.5312" width="8.28125" height="8.28125" fill="#D0376D"/>
<rect x="133.062" y="17.5312" width="8.28125" height="8.28125" fill="#D0376D"/>
<rect x="141.344" y="17.5312" width="8.28125" height="8.28125" fill="#D0376D"/>
<rect x="149.625" y="17.5312" width="8.28125" height="8.28125" fill="#D0376D"/>
<rect x="157.906" y="17.5312" width="8.28125" height="8.28125" fill="#D0376D"/>
<rect x="166.188" y="17.5312" width="8.28125" height="8.28125" fill="#D0376D"/>
<rect x="0.5625" y="25.8125" width="8.28125" height="8.28125" fill="#372D24"/>
<rect x="8.84375" y="25.8125" width="8.28125" height="8.28125" fill="#D0376D"/>
<rect x="17.125" y="25.8125" width="8.28125" height="8.28125" fill="#D0376D"/>
<rect x="25.4062" y="25.8125" width="8.28125" height="8.28125" fill="#D0376D"/>
<rect x="33.6875" y="25.8125" width="8.28125" height="8.28125" fill="#D0376D"/>
<rect x="41.9688" y="25.8125" width="8.28125" height="8.28125" fill="#D0376D"/>
<rect x="50.25" y="25.8125" width="8.28125" height="8.28125" fill="#D0376D"/>
<rect x="58.5312" y="25.8125" width="8.28125" height="8.28125" fill="#D0376D"/>
<rect x="66.8125" y="25.8125" width="8.28125" height="8.28125" fill="#D0376D"/>
<rect x="75.0938" y="25.8125" width="8.28125" height="8.28125" fill="#D0376D"/>
<rect x="83.375" y="25.8125" width="8.28125" height="8.28125" fill="#D0376D"/>
<rect x="91.6562" y="25.8125" width="8.28125" height="8.28125" fill="#D0376D"/>
<rect x="99.9375" y="25.8125" width="8.28125" height="8.28125" fill="#D0376D"/>
<rect x="108.219" y="25.8125" width="8.28125" height="8.28125" fill="#D0376D"/>
<rect x="116.5" y="25.8125" width="8.28125" height="8.28125" fill="#D0376D"/>
<rect x="124.781" y="25.8125" width="8.28125" height="8.28125" fill="#D0376D"/>
<rect x="133.062" y="25.8125" width="8.28125" height="8.28125" fill="#D0376D"/>
<rect x="141.344" y="25.8125" width="8.28125" height="8.28125" fill="#D0376D"/>
<rect x="149.625" y="25.8125" width="8.28125" height="8.28125" fill="#D0376D"/>
<rect x="157.906" y="25.8125" width="8.28125" height="8.28125" fill="#D0376D"/>
<rect x="166.188" y="25.8125" width="8.28125" height="8.28125" fill="#D0376D"/>
<rect x="0.5625" y="34.0938" width="8.28125" height="8.28125" fill="#372D24"/>
<rect x="8.84375" y="34.0938" width="8.28125" height="8.28125" fill="#D0376D"/>
<rect x="17.125" y="34.0938" width="8.28125" height="8.28125" fill="#D0376D"/>
<rect x="25.4062" y="34.0938" width="8.28125" height="8.28125" fill="#D0376D"/>
<rect x="33.6875" y="34.0938" width="8.28125" height="8.28125" fill="#D0376D"/>
<rect x="41.9688" y="34.0938" width="8.28125" height="8.28125" fill="#D0376D"/>
<rect x="50.25" y="34.0938" width="8.28125" height="8.28125" fill="#D0376D"/>
<rect x="58.5312" y="34.0938" width="8.28125" height="8.28125" fill="#D0376D"/>
<rect x="66.8125" y="34.0938" width="8.28125" height="8.28125" fill="#D0376D"/>
<rect x="75.0938" y="34.0938" width="8.28125" height="8.28125" fill="#D0376D"/>
<rect x="83.375" y="34.0938" width="8.28125" height="8.28125" fill="#D0376D"/>
<rect x="91.6562" y="34.0938" width="8.28125" height="8.28125" fill="#D0376D"/>
<rect x="99.9375" y="34.0938" width="8.28125" height="8.28125" fill="#D0376D"/>
<rect x="108.219" y="34.0938" width="8.28125" height="8.28125" fill="#D0376D"/>
<rect x="116.5" y="34.0938" width="8.28125" height="8.28125" fill="#D0376D"/>
<rect x="124.781" y="34.0938" width="8.28125" height="8.28125" fill="#D0376D"/>
<rect x="133.062" y="34.0938" width="8.28125" height="8.28125" fill="#D0376D"/>
<rect x="141.344" y="34.0938" width="8.28125" height="8.28125" fill="#D0376D"/>
<rect x="149.625" y="34.0938" width="8.28125" height="8.28125" fill="#D0376D"/>
<rect x="157.906" y="34.0938" width="8.28125" height="8.28125" fill="#D0376D"/>
<rect x="166.188" y="34.0938" width="8.28125" height="8.28125" fill="#D0376D"/>
<rect x="0.5625" y="42.375" width="8.28125" height="8.28125" fill="#372D24"/>
<rect x="8.84375" y="42.375" width="8.28125" height="8.28125" fill="#D0376D"/>
<rect x="17.125" y="42.375" width="8.28125" height="8.28125" fill="#D0376D"/>
<rect x="25.4062" y="42.375" width="8.28125" height="8.28125" fill="#D0376D"/>
<rect x="33.6875" y="42.375" width="8.28125" height="8.28125" fill="#D0376D"/>
<rect x="41.9688" y="42.375" width="8.28125" height="8.28125" fill="#D0376D"/>
<rect x="50.25" y="42.375" width="8.28125" height="8.28125" fill="#D0376D"/>
<rect x="58.5312" y="42.375" width="8.28125" height="8.28125" fill="#D0376D"/>
<rect x="66.8125" y="42.375" width="8.28125" height="8.28125" fill="#D0376D"/>
<rect x="75.0938" y="42.375" width="8.28125" height="8.28125" fill="#D0376D"/>
<rect x="83.375" y="42.375" width="8.28125" height="8.28125" fill="#D0376D"/>
<rect x="91.6562" y="42.375" width="8.28125" height="8.28125" fill="#D0376D"/>
<rect x="99.9375" y="42.375" width="8.28125" height="8.28125" fill="#D0376D"/>
<rect x="108.219" y="42.375" width="8.28125" height="8.28125" fill="#D0376D"/>
<rect x="116.5" y="42.375" width="8.28125" height="8.28125" fill="#D0376D"/>
<rect x="124.781" y="42.375" width="8.28125" height="8.28125" fill="#D0376D"/>
<rect x="133.062" y="42.375" width="8.28125" height="8.28125" fill="#D0376D"/>
<rect x="141.344" y="42.375" width="8.28125" height="8.28125" fill="#D0376D"/>
<rect x="149.625" y="42.375" width="8.28125" height="8.28125" fill="#D0376D"/>
<rect x="157.906" y="42.375" width="8.28125" height="8.28125" fill="#D0376D"/>
<rect x="166.188" y="42.375" width="8.28125" height="8.28125" fill="#D0376D"/>
<rect x="0.5625" y="50.6562" width="8.28125" height="8.28125" fill="#372D24"/>
<rect x="8.84375" y="50.6562" width="8.28125" height="8.28125" fill="#D0376D"/>
<rect x="17.125" y="50.6562" width="8.28125" height="8.28125" fill="#D0376D"/>
<rect x="25.4062" y="50.6562" width="8.28125" height="8.28125" fill="#D0376D"/>
<rect x="33.6875" y="50.6562" width="8.28125" height="8.28125" fill="#D0376D"/>
<rect x="41.9688" y="50.6562" width="8.28125" height="8.28125" fill="#D0376D"/>
<rect x="50.25" y="50.6562" width="8.28125" height="8.28125" fill="#D0376D"/>
<rect x="58.5312" y="50.6562" width="8.28125" height="8.28125" fill="#D0376D"/>
<rect x="66.8125" y="50.6562" width="8.28125" height="8.28125" fill="#D0376D"/>
<rect x="75.0938" y="50.6562" width="8.28125" height="8.28125" fill="#D0376D"/>
<rect x="83.375" y="50.6562" width="8.28125" height="8.28125" fill="#D0376D"/>
<rect x="91.6562" y="50.6562" width="8.28125" height="8.28125" fill="#D0376D"/>
<rect x="99.9375" y="50.6562" width="8.28125" height="8.28125" fill="#D0376D"/>
<rect x="108.219" y="50.6562" width="8.28125" height="8.28125" fill="#D0376D"/>
<rect x="116.5" y="50.6562" width="8.28125" height="8.28125" fill="#D0376D"/>
<rect x="124.781" y="50.6562" width="8.28125" height="8.28125" fill="#D0376D"/>
<rect x="133.062" y="50.6562" width="8.28125" height="8.28125" fill="#D0376D"/>
<rect x="141.344" y="50.6562" width="8.28125" height="8.28125" fill="#D0376D"/>
<rect x="149.625" y="50.6562" width="8.28125" height="8.28125" fill="#D0376D"/>
<rect x="157.906" y="50.6562" width="8.28125" height="8.28125" fill="#D0376D"/>
<rect x="166.188" y="50.6562" width="8.28125" height="8.28125" fill="#D0376D"/>
<rect x="0.5625" y="58.9375" width="8.28125" height="8.28125" fill="#372D24"/>
<rect x="8.84375" y="58.9375" width="8.28125" height="8.28125" fill="#D0376D"/>
<rect x="17.125" y="58.9375" width="8.28125" height="8.28125" fill="#D0376D"/>
<rect x="25.4062" y="58.9375" width="8.28125" height="8.28125" fill="#D0376D"/>
<rect x="33.6875" y="58.9375" width="8.28125" height="8.28125" fill="#D0376D"/>
<rect x="41.9688" y="58.9375" width="8.28125" height="8.28125" fill="#D0376D"/>
<rect x="50.25" y="58.9375" width="8.28125" height="8.28125" fill="#D0376D"/>
<rect x="58.5312" y="58.9375" width="8.28125" height="8.28125" fill="#D0376D"/>
<rect x="66.8125" y="58.9375" width="8.28125" height="8.28125" fill="#D0376D"/>
<rect x="75.0938" y="58.9375" width="8.28125" height="8.28125" fill="#D0376D"/>
<rect x="83.375" y="58.9375" width="8.28125" height="8.28125" fill="#D0376D"/>
<rect x="91.6562" y="58.9375" width="8.28125" height="8.28125" fill="#D0376D"/>
<rect x="99.9375" y="58.9375" width="8.28125" height="8.28125" fill="#D0376D"/>
<rect x="108.219" y="58.9375" width="8.28125" height="8.28125" fill="#D0376D"/>
<rect x="116.5" y="58.9375" width="8.28125" height="8.28125" fill="#D0376D"/>
<rect x="124.781" y="58.9375" width="8.28125" height="8.28125" fill="#D0376D"/>
<rect x="133.062" y="58.9375" width="8.28125" height="8.28125" fill="#D0376D"/>
<rect x="141.344" y="58.9375" width="8.28125" height="8.28125" fill="#D0376D"/>
<rect x="149.625" y="58.9375" width="8.28125" height="8.28125" fill="#D0376D"/>
<rect x="157.906" y="58.9375" width="8.28125" height="8.28125" fill="#D0376D"/>
<rect x="166.188" y="58.9375" width="8.28125" height="8.28125" fill="#D0376D"/>
<rect x="0.5625" y="67.2188" width="8.28125" height="8.28125" fill="#372D24"/>
<rect x="8.84375" y="67.2188" width="8.28125" height="8.28125" fill="#D0376D"/>
<rect x="17.125" y="67.2188" width="8.28125" height="8.28125" fill="#D0376D"/>
<rect x="25.4062" y="67.2188" width="8.28125" height="8.28125" fill="#D0376D"/>
<rect x="33.6875" y="67.2188" width="8.28125" height="8.28125" fill="#D0376D"/>
<rect x="41.9688" y="67.2188" width="8.28125" height="8.28125" fill="#D0376D"/>
<rect x="50.25" y="67.2188" width="8.28125" height="8.28125" fill="#D0376D"/>
<rect x="58.5312" y="67.2188" width="8.28125" height="8.28125" fill="#D0376D"/>
<rect x="66.8125" y="67.2188" width="8.28125" height="8.28125" fill="#D0376D"/>
<rect x="75.0938" y="67.2188" width="8.28125" height="8.28125" fill="#D0376D"/>
<rect x="83.375" y="67.2188" width="8.28125" height="8.28125" fill="#D0376D"/>
<rect x="91.6562" y="67.2188" width="8.28125" height="8.28125" fill="#D0376D"/>
<rect x="99.9375" y="67.2188" width="8.28125" height="8.28125" fill="#D0376D"/>
<rect x="108.219" y="67.2188" width="8.28125" height="8.28125" fill="#D0376D"/>
<rect x="116.5" y="67.2188" width="8.28125" height="8.28125" fill="#D0376D"/>
<rect x="124.781" y="67.2188" width="8.28125" height="8.28125" fill="#D0376D"/>
<rect x="133.062" y="67.2188" width="8.28125" height="8.28125" fill="#D0376D"/>
<rect x="141.344" y="67.2188" width="8.28125" height="8.28125" fill="#D0376D"/>
<rect x="149.625" y="67.2188" width="8.28125" height="8.28125" fill="#D0376D"/>
<rect x="157.906" y="67.2188" width="8.28125" height="8.28125" fill="#D0376D"/>
<rect x="166.188" y="67.2188" width="8.28125" height="8.28125" fill="#D0376D"/>
<rect x="0.5625" y="75.5" width="8.28125" height="8.28125" fill="#372D24"/>
<rect x="8.84375" y="75.5" width="8.28125" height="8.28125" fill="#D0376D"/>
<rect x="17.125" y="75.5" width="8.28125" height="8.28125" fill="#D0376D"/>
<rect x="25.4062" y="75.5" width="8.28125" height="8.28125" fill="#D0376D"/>
<rect x="33.6875" y="75.5" width="8.28125" height="8.28125" fill="#D0376D"/>
<rect x="41.9688" y="75.5" width="8.28125" height="8.28125" fill="#D0376D"/>
<rect x="50.25" y="75.5" width="8.28125" height="8.28125" fill="#D0376D"/>
<rect x="58.5312" y="75.5" width="8.28125" height="8.28125" fill="#D0376D"/>
<rect x="66.8125" y="75.5" width="8.28125" height="8.28125" fill="#D0376D"/>
<rect x="75.0938" y="75.5" width="8.28125" height="8.28125" fill="#D0376D"/>
<rect x="83.375" y="75.5" width="8.28125" height="8.28125" fill="#D0376D"/>
<rect x="91.6562" y="75.5" width="8.28125" height="8.28125" fill="#D0376D"/>
<rect x="99.9375" y="75.5" width="8.28125" height="8.28125" fill="#D0376D"/>
<rect x="108.219" y="75.5" width="8.28125" height="8.28125" fill="#D0376D"/>
<rect x="116.5" y="75.5" width="8.28125" height="8.28125" fill="#D0376D"/>
<rect x="124.781" y="75.5" width="8.28125" height="8.28125" fill="#D0376D"/>
<rect x="133.062" y="75.5" width="8.28125" height="8.28125" fill="#D0376D"/>
<rect x="141.344" y="75.5" width="8.28125" height="8.28125" fill="#D0376D"/>
<rect x="149.625" y="75.5" width="8.28125" height="8.28125" fill="#D0376D"/>
<rect x="157.906" y="75.5" width="8.28125" height="8.28125" fill="#D0376D"/>
<rect x="166.188" y="75.5" width="8.28125" height="8.28125" fill="#D0376D"/>
<rect x="23.2188" y="83.5" width="8.38906" height="8.5" fill="#D0376D"/>
<rect x="31.6074" y="83.5" width="8.38906" height="8.5" fill="#D0376D"/>
<rect x="39.9961" y="83.5" width="8.38906" height="8.5" fill="#D0376D"/>
<rect x="48.3867" y="83.5" width="8.38906" height="8.5" fill="#D0376D"/>
<rect x="56.7754" y="83.5" width="8.38906" height="8.5" fill="#D0376D"/>
<rect x="65.1641" y="83.5" width="8.38906" height="8.5" fill="#D0376D"/>
<rect x="73.5527" y="83.5" width="8.38906" height="8.5" fill="#D0376D"/>
<rect x="81.9414" y="83.5" width="8.38906" height="8.5" fill="#D0376D"/>
<rect x="90.332" y="83.5" width="8.38906" height="8.5" fill="#D0376D"/>
<rect x="98.7207" y="83.5" width="8.38906" height="8.5" fill="#D0376D"/>
<rect x="107.109" y="83.5" width="8.38906" height="8.5" fill="#D0376D"/>
<rect x="115.498" y="83.5" width="8.38906" height="8.5" fill="#D0376D"/>
<rect x="123.887" y="83.5" width="8.38906" height="8.5" fill="#D0376D"/>
<rect x="132.277" y="83.5" width="8.38906" height="8.5" fill="#D0376D"/>
<rect x="140.666" y="83.5" width="8.38906" height="8.5" fill="#D0376D"/>
<rect x="149.055" y="83.5" width="8.38906" height="8.5" fill="#D0376D"/>
<rect x="157.443" y="83.5" width="8.38906" height="8.5" fill="#D0376D"/>
<rect x="165.832" y="83.5" width="8.38906" height="8.5" fill="#D0376D"/>
<rect x="8.84375" y="83.7812" width="8.28125" height="8.28125" fill="#372D24"/>
<rect x="17.125" y="83.7812" width="8.28125" height="8.28125" fill="#D0376D"/>
<rect x="17.125" y="92.0625" width="8.28125" height="8.28125" fill="#372D24"/>
<rect x="25.4062" y="92.0625" width="8.28125" height="8.28125" fill="#D0376D"/>
<rect x="33.6875" y="92.0625" width="8.28125" height="8.28125" fill="#D0376D"/>
<rect x="41.9688" y="92.0625" width="8.28125" height="8.28125" fill="#D0376D"/>
<rect x="50.25" y="92.0625" width="8.28125" height="8.28125" fill="#D0376D"/>
<rect x="58.5312" y="92.0625" width="8.28125" height="8.28125" fill="#D0376D"/>
<rect x="66.8125" y="92.0625" width="8.28125" height="8.28125" fill="#D0376D"/>
<rect x="75.0938" y="92.0625" width="8.28125" height="8.28125" fill="#D0376D"/>
<rect x="83.375" y="92.0625" width="8.28125" height="8.28125" fill="#D0376D"/>
<rect x="91.6562" y="92.0625" width="8.28125" height="8.28125" fill="#D0376D"/>
<rect x="99.9375" y="92.0625" width="8.28125" height="8.28125" fill="#D0376D"/>
<rect x="108.219" y="92.0625" width="8.28125" height="8.28125" fill="#D0376D"/>
<rect x="116.5" y="92.0625" width="8.28125" height="8.28125" fill="#D0376D"/>
<rect x="124.781" y="92.0625" width="8.28125" height="8.28125" fill="#D0376D"/>
<rect x="133.062" y="92.0625" width="8.28125" height="8.28125" fill="#D0376D"/>
<rect x="141.344" y="92.0625" width="8.28125" height="8.28125" fill="#D0376D"/>
<rect x="149.625" y="92.0625" width="8.28125" height="8.28125" fill="#D0376D"/>
<rect x="157.906" y="92.0625" width="8.28125" height="8.28125" fill="#D0376D"/>
<rect x="166.188" y="92.0625" width="8.28125" height="8.28125" fill="#D0376D"/>
<rect x="25.4062" y="100.344" width="8.28125" height="8.28125" fill="#372D24"/>
<rect x="33.6875" y="100.344" width="8.28125" height="8.28125" fill="#372D24"/>
<rect x="41.9688" y="100.344" width="8.28125" height="8.28125" fill="#372D24"/>
<rect x="50.25" y="100.344" width="8.28125" height="8.28125" fill="#372D24"/>
<rect x="58.5312" y="100.344" width="8.28125" height="8.28125" fill="#372D24"/>
<rect x="66.8125" y="100.344" width="8.28125" height="8.28125" fill="#372D24"/>
<rect x="75.0938" y="100.344" width="8.28125" height="8.28125" fill="#372D24"/>
<rect x="83.375" y="100.344" width="8.28125" height="8.28125" fill="#372D24"/>
<rect x="91.6562" y="100.344" width="8.28125" height="8.28125" fill="#372D24"/>
<rect x="99.9375" y="100.344" width="8.28125" height="8.28125" fill="#372D24"/>
<rect x="108.219" y="100.344" width="8.28125" height="8.28125" fill="#372D24"/>
<rect x="116.5" y="100.344" width="8.28125" height="8.28125" fill="#372D24"/>
<rect x="124.781" y="100.344" width="8.28125" height="8.28125" fill="#372D24"/>
<rect x="133.062" y="100.344" width="8.28125" height="8.28125" fill="#372D24"/>
<rect x="141.344" y="100.344" width="8.28125" height="8.28125" fill="#372D24"/>
<rect x="149.625" y="100.344" width="8.28125" height="8.28125" fill="#372D24"/>
<rect x="157.906" y="100.344" width="8.28125" height="8.28125" fill="#372D24"/>
<rect x="166.188" y="100.344" width="8.28125" height="8.28125" fill="#372D24"/>
<rect x="26.4062" y="90.7812" width="8.28125" height="8.28125" fill="#B22E62"/>
<rect x="34.6875" y="90.7812" width="8.28125" height="8.28125" fill="#B22E62"/>
<rect x="42.9688" y="90.7812" width="8.28125" height="8.28125" fill="#B22E62"/>
<rect x="51.25" y="90.7812" width="8.28125" height="8.28125" fill="#B22E62"/>
<rect x="59.5312" y="90.7812" width="8.28125" height="8.28125" fill="#B22E62"/>
<rect x="67.8125" y="90.7812" width="8.28125" height="8.28125" fill="#B22E62"/>
<rect x="76.0938" y="90.7812" width="8.28125" height="8.28125" fill="#B22E62"/>
<rect x="84.375" y="90.7812" width="8.28125" height="8.28125" fill="#B22E62"/>
<rect x="92.6562" y="90.7812" width="8.28125" height="8.28125" fill="#B22E62"/>
<rect x="100.938" y="90.7812" width="8.28125" height="8.28125" fill="#B22E62"/>
<rect x="109.219" y="90.7812" width="8.28125" height="8.28125" fill="#B22E62"/>
<rect x="117.5" y="90.7812" width="8.28125" height="8.28125" fill="#B22E62"/>
<rect x="125.781" y="90.7812" width="8.28125" height="8.28125" fill="#B22E62"/>
<rect x="134.062" y="90.7812" width="8.28125" height="8.28125" fill="#B22E62"/>
<rect x="142.344" y="90.7812" width="8.28125" height="8.28125" fill="#B22E62"/>
<rect x="150.625" y="90.7812" width="8.28125" height="8.28125" fill="#B22E62"/>
<rect x="158.906" y="90.7812" width="8.28125" height="8.28125" fill="#B22E62"/>
<rect x="167.188" y="90.7812" width="8.28125" height="8.28125" fill="#B22E62"/>
<rect x="174.469" y="0.96875" width="8.28125" height="8.28125" fill="#372D24"/>
<rect x="174.469" y="9.25" width="8.28125" height="8.28125" fill="#D0376D"/>
<rect x="174.469" y="17.5312" width="8.28125" height="8.28125" fill="#D0376D"/>
<rect x="174.469" y="25.8125" width="8.28125" height="8.28125" fill="#D0376D"/>
<rect x="174.469" y="34.0938" width="8.28125" height="8.28125" fill="#D0376D"/>
<rect x="174.469" y="42.375" width="8.28125" height="8.28125" fill="#D0376D"/>
<rect x="174.469" y="50.6562" width="8.28125" height="8.28125" fill="#D0376D"/>
<rect x="174.469" y="58.9375" width="8.28125" height="8.28125" fill="#D0376D"/>
<rect x="174.469" y="67.2188" width="8.28125" height="8.28125" fill="#D0376D"/>
<rect x="174.469" y="75.5" width="8.28125" height="8.28125" fill="#D0376D"/>
<rect x="174.223" y="83.5" width="8.38906" height="8.5" fill="#D0376D"/>
<rect x="174.469" y="92.0625" width="8.28125" height="8.28125" fill="#D0376D"/>
<rect x="174.469" y="100.344" width="8.28125" height="8.28125" fill="#372D24"/>
<rect x="173" y="91" width="10" height="8" fill="#B22E62"/>
<rect x="182.469" y="0.96875" width="8.28125" height="8.28125" fill="#372D24"/>
<rect x="182.469" y="9.25" width="8.28125" height="8.28125" fill="#D0376D"/>
<rect x="182.469" y="17.5312" width="8.28125" height="8.28125" fill="#D0376D"/>
<rect x="182.469" y="25.8125" width="8.28125" height="8.28125" fill="#D0376D"/>
<rect x="182.469" y="34.0938" width="8.28125" height="8.28125" fill="#D0376D"/>
<rect x="182.469" y="42.375" width="8.28125" height="8.28125" fill="#D0376D"/>
<rect x="182.469" y="50.6562" width="8.28125" height="8.28125" fill="#D0376D"/>
<rect x="182.469" y="58.9375" width="8.28125" height="8.28125" fill="#D0376D"/>
<rect x="182.469" y="67.2188" width="8.28125" height="8.28125" fill="#D0376D"/>
<rect x="182.469" y="75.5" width="8.28125" height="8.28125" fill="#D0376D"/>
<rect x="182.223" y="83.5" width="8.38906" height="8.5" fill="#D0376D"/>
<rect x="182.469" y="92.0625" width="8.28125" height="8.28125" fill="#D0376D"/>
<rect x="182.469" y="100.344" width="8.28125" height="8.28125" fill="#372D24"/>
<rect x="181" y="91" width="10" height="8" fill="#B22E62"/>
<rect x="190.469" y="0.96875" width="8.28125" height="8.28125" fill="#372D24"/>
<rect x="190.469" y="9.25" width="8.28125" height="8.28125" fill="#D0376D"/>
<rect x="190.469" y="17.5312" width="8.28125" height="8.28125" fill="#D0376D"/>
<rect x="190.469" y="25.8125" width="8.28125" height="8.28125" fill="#D0376D"/>
<rect x="190.469" y="34.0938" width="8.28125" height="8.28125" fill="#D0376D"/>
<rect x="190.469" y="42.375" width="8.28125" height="8.28125" fill="#D0376D"/>
<rect x="190.469" y="50.6562" width="8.28125" height="8.28125" fill="#D0376D"/>
<rect x="190.469" y="58.9375" width="8.28125" height="8.28125" fill="#D0376D"/>
<rect x="190.469" y="67.2188" width="8.28125" height="8.28125" fill="#D0376D"/>
<rect x="190.469" y="75.5" width="8.28125" height="8.28125" fill="#D0376D"/>
<rect x="190.223" y="83.5" width="8.38906" height="8.5" fill="#D0376D"/>
<rect x="190.469" y="92.0625" width="8.28125" height="8.28125" fill="#D0376D"/>
<rect x="190.469" y="100.344" width="8.28125" height="8.28125" fill="#372D24"/>
<rect x="189" y="91" width="10" height="8" fill="#B22E62"/>
<rect x="198.469" y="0.96875" width="8.28125" height="8.28125" fill="#372D24"/>
<rect x="198.469" y="9.25" width="8.28125" height="8.28125" fill="#D0376D"/>
<rect x="198.469" y="17.5312" width="8.28125" height="8.28125" fill="#D0376D"/>
<rect x="198.469" y="25.8125" width="8.28125" height="8.28125" fill="#D0376D"/>
<rect x="198.469" y="34.0938" width="8.28125" height="8.28125" fill="#D0376D"/>
<rect x="198.469" y="42.375" width="8.28125" height="8.28125" fill="#D0376D"/>
<rect x="198.469" y="50.6562" width="8.28125" height="8.28125" fill="#D0376D"/>
<rect x="198.469" y="58.9375" width="8.28125" height="8.28125" fill="#D0376D"/>
<rect x="198.469" y="67.2188" width="8.28125" height="8.28125" fill="#D0376D"/>
<rect x="198.469" y="75.5" width="8.28125" height="8.28125" fill="#D0376D"/>
<rect x="198.223" y="83.5" width="8.38906" height="8.5" fill="#D0376D"/>
<rect x="198.469" y="92.0625" width="8.28125" height="8.28125" fill="#D0376D"/>
<rect x="198.469" y="100.344" width="8.28125" height="8.28125" fill="#372D24"/>
<rect x="197" y="91" width="10" height="8" fill="#B22E62"/>
<rect x="206.469" y="0.96875" width="8.28125" height="8.28125" fill="#372D24"/>
<rect x="206.469" y="9.25" width="8.28125" height="8.28125" fill="#D0376D"/>
<rect x="206.469" y="17.5312" width="8.28125" height="8.28125" fill="#D0376D"/>
<rect x="206.469" y="25.8125" width="8.28125" height="8.28125" fill="#D0376D"/>
<rect x="206.469" y="34.0938" width="8.28125" height="8.28125" fill="#D0376D"/>
<rect x="206.469" y="42.375" width="8.28125" height="8.28125" fill="#D0376D"/>
<rect x="206.469" y="50.6562" width="8.28125" height="8.28125" fill="#D0376D"/>
<rect x="206.469" y="58.9375" width="8.28125" height="8.28125" fill="#D0376D"/>
<rect x="206.469" y="67.2188" width="8.28125" height="8.28125" fill="#D0376D"/>
<rect x="206.469" y="75.5" width="8.28125" height="8.28125" fill="#D0376D"/>
<rect x="206.223" y="83.5" width="8.38906" height="8.5" fill="#D0376D"/>
<rect x="206.469" y="92.0625" width="8.28125" height="8.28125" fill="#D0376D"/>
<rect x="206.469" y="100.344" width="8.28125" height="8.28125" fill="#372D24"/>
<rect x="205" y="91" width="10" height="8" fill="#B22E62"/>
<rect x="214.469" y="0.96875" width="8.28125" height="8.28125" fill="#372D24"/>
<rect x="214.469" y="9.25" width="8.28125" height="8.28125" fill="#D0376D"/>
<rect x="214.469" y="17.5312" width="8.28125" height="8.28125" fill="#D0376D"/>
<rect x="214.469" y="25.8125" width="8.28125" height="8.28125" fill="#D0376D"/>
<rect x="214.469" y="34.0938" width="8.28125" height="8.28125" fill="#D0376D"/>
<rect x="214.469" y="42.375" width="8.28125" height="8.28125" fill="#D0376D"/>
<rect x="214.469" y="50.6562" width="8.28125" height="8.28125" fill="#D0376D"/>
<rect x="214.469" y="58.9375" width="8.28125" height="8.28125" fill="#D0376D"/>
<rect x="214.469" y="67.2188" width="8.28125" height="8.28125" fill="#D0376D"/>
<rect x="214.469" y="75.5" width="8.28125" height="8.28125" fill="#D0376D"/>
<rect x="214.223" y="83.5" width="8.38906" height="8.5" fill="#D0376D"/>
<rect x="214.469" y="92.0625" width="8.28125" height="8.28125" fill="#D0376D"/>
<rect x="214.469" y="100.344" width="8.28125" height="8.28125" fill="#372D24"/>
<rect x="213" y="91" width="10" height="8" fill="#B22E62"/>
<rect x="222.469" y="0.96875" width="8.28125" height="8.28125" fill="#372D24"/>
<rect x="222.469" y="9.25" width="8.28125" height="8.28125" fill="#D0376D"/>
<rect x="222.469" y="17.5312" width="8.28125" height="8.28125" fill="#D0376D"/>
<rect x="222.469" y="25.8125" width="8.28125" height="8.28125" fill="#D0376D"/>
<rect x="222.469" y="34.0938" width="8.28125" height="8.28125" fill="#D0376D"/>
<rect x="222.469" y="42.375" width="8.28125" height="8.28125" fill="#D0376D"/>
<rect x="222.469" y="50.6562" width="8.28125" height="8.28125" fill="#D0376D"/>
<rect x="222.469" y="58.9375" width="8.28125" height="8.28125" fill="#D0376D"/>
<rect x="222.469" y="67.2188" width="8.28125" height="8.28125" fill="#D0376D"/>
<rect x="222.469" y="75.5" width="8.28125" height="8.28125" fill="#D0376D"/>
<rect x="222.223" y="83.5" width="8.38906" height="8.5" fill="#D0376D"/>
<rect x="222.469" y="92.0625" width="8.28125" height="8.28125" fill="#D0376D"/>
<rect x="222.469" y="100.344" width="8.28125" height="8.28125" fill="#372D24"/>
<rect x="221" y="91" width="10" height="8" fill="#B22E62"/>
<rect x="230.469" y="0.96875" width="8.28125" height="8.28125" fill="#372D24"/>
<rect x="230.469" y="9.25" width="8.28125" height="8.28125" fill="#D0376D"/>
<rect x="230.469" y="17.5312" width="8.28125" height="8.28125" fill="#D0376D"/>
<rect x="230.469" y="25.8125" width="8.28125" height="8.28125" fill="#D0376D"/>
<rect x="230.469" y="34.0938" width="8.28125" height="8.28125" fill="#D0376D"/>
<rect x="230.469" y="42.375" width="8.28125" height="8.28125" fill="#D0376D"/>
<rect x="230.469" y="50.6562" width="8.28125" height="8.28125" fill="#D0376D"/>
<rect x="230.469" y="58.9375" width="8.28125" height="8.28125" fill="#D0376D"/>
<rect x="230.469" y="67.2188" width="8.28125" height="8.28125" fill="#D0376D"/>
<rect x="230.469" y="75.5" width="8.28125" height="8.28125" fill="#D0376D"/>
<rect x="230.223" y="83.5" width="8.38906" height="8.5" fill="#D0376D"/>
<rect x="230.469" y="92.0625" width="8.28125" height="8.28125" fill="#D0376D"/>
<rect x="230.469" y="100.344" width="8.28125" height="8.28125" fill="#372D24"/>
<rect x="229" y="91" width="10" height="8" fill="#B22E62"/>
<rect x="238.469" y="0.96875" width="8.28125" height="8.28125" fill="#372D24"/>
<rect x="238.469" y="9.25" width="8.28125" height="8.28125" fill="#D0376D"/>
<rect x="238.469" y="17.5312" width="8.28125" height="8.28125" fill="#D0376D"/>
<rect x="238.469" y="25.8125" width="8.28125" height="8.28125" fill="#D0376D"/>
<rect x="238.469" y="34.0938" width="8.28125" height="8.28125" fill="#D0376D"/>
<rect x="238.469" y="42.375" width="8.28125" height="8.28125" fill="#D0376D"/>
<rect x="238.469" y="50.6562" width="8.28125" height="8.28125" fill="#D0376D"/>
<rect x="238.469" y="58.9375" width="8.28125" height="8.28125" fill="#D0376D"/>
<rect x="238.469" y="67.2188" width="8.28125" height="8.28125" fill="#D0376D"/>
<rect x="238.469" y="75.5" width="8.28125" height="8.28125" fill="#D0376D"/>
<rect x="238.223" y="83.5" width="8.38906" height="8.5" fill="#D0376D"/>
<rect x="238.469" y="92.0625" width="8.28125" height="8.28125" fill="#D0376D"/>
<rect x="238.469" y="100.344" width="8.28125" height="8.28125" fill="#372D24"/>
<rect x="237" y="91" width="10" height="8" fill="#B22E62"/>
<rect x="246.469" y="0.96875" width="8.28125" height="8.28125" fill="#372D24"/>
<rect x="246.469" y="9.25" width="8.28125" height="8.28125" fill="#D0376D"/>
<rect x="246.469" y="17.5312" width="8.28125" height="8.28125" fill="#D0376D"/>
<rect x="246.469" y="25.8125" width="8.28125" height="8.28125" fill="#D0376D"/>
<rect x="246.469" y="34.0938" width="8.28125" height="8.28125" fill="#D0376D"/>
<rect x="246.469" y="42.375" width="8.28125" height="8.28125" fill="#D0376D"/>
<rect x="246.469" y="50.6562" width="8.28125" height="8.28125" fill="#D0376D"/>
<rect x="246.469" y="58.9375" width="8.28125" height="8.28125" fill="#D0376D"/>
<rect x="246.469" y="67.2188" width="8.28125" height="8.28125" fill="#D0376D"/>
<rect x="246.469" y="75.5" width="8.28125" height="8.28125" fill="#D0376D"/>
<rect x="246.223" y="83.5" width="8.38906" height="8.5" fill="#D0376D"/>
<rect x="246.469" y="92.0625" width="8.28125" height="8.28125" fill="#D0376D"/>
<rect x="246.469" y="100.344" width="8.28125" height="8.28125" fill="#372D24"/>
<rect x="245" y="91" width="10" height="8" fill="#B22E62"/>
<rect x="254.469" y="0.96875" width="8.28125" height="8.28125" fill="#372D24"/>
<rect x="254.469" y="9.25" width="8.28125" height="8.28125" fill="#D0376D"/>
<rect x="254.469" y="17.5312" width="8.28125" height="8.28125" fill="#D0376D"/>
<rect x="254.469" y="25.8125" width="8.28125" height="8.28125" fill="#D0376D"/>
<rect x="254.469" y="34.0938" width="8.28125" height="8.28125" fill="#D0376D"/>
<rect x="254.469" y="42.375" width="8.28125" height="8.28125" fill="#D0376D"/>
<rect x="254.469" y="50.6562" width="8.28125" height="8.28125" fill="#D0376D"/>
<rect x="254.469" y="58.9375" width="8.28125" height="8.28125" fill="#D0376D"/>
<rect x="254.469" y="67.2188" width="8.28125" height="8.28125" fill="#D0376D"/>
<rect x="254.469" y="75.5" width="8.28125" height="8.28125" fill="#D0376D"/>
<rect x="254.223" y="83.5" width="8.38906" height="8.5" fill="#D0376D"/>
<rect x="254.469" y="92.0625" width="8.28125" height="8.28125" fill="#D0376D"/>
<rect x="254.469" y="100.344" width="8.28125" height="8.28125" fill="#372D24"/>
<rect x="253" y="91" width="10" height="8" fill="#B22E62"/>
<rect x="259.553" y="0.96875" width="25.6719" height="8.28125" fill="#372D24"/>
<rect x="259.553" y="9.25" width="25.6719" height="8.28125" fill="#D0376D"/>
<rect x="259.553" y="17.5312" width="25.6719" height="8.28125" fill="#D0376D"/>
<rect x="259.553" y="25.8125" width="25.6719" height="8.28125" fill="#D0376D"/>
<rect x="259.553" y="34.0938" width="25.6719" height="8.28125" fill="#D0376D"/>
<rect x="259.553" y="42.375" width="25.6719" height="8.28125" fill="#D0376D"/>
<rect x="259.553" y="50.6562" width="25.6719" height="8.28125" fill="#D0376D"/>
<rect x="259.553" y="58.9375" width="25.6719" height="8.28125" fill="#D0376D"/>
<rect x="259.553" y="67.2188" width="25.6719" height="8.28125" fill="#D0376D"/>
<rect x="259.553" y="75.5" width="25.6719" height="8.28125" fill="#D0376D"/>
<rect x="258.787" y="83.5" width="26.0061" height="8.5" fill="#D0376D"/>
<rect x="259.553" y="92.0625" width="25.6719" height="8.28125" fill="#D0376D"/>
<rect x="259.553" y="100.344" width="25.6719" height="8.28125" fill="#372D24"/>
<rect x="255" y="91" width="31" height="8" fill="#B22E62"/>
<rect width="8.28125" height="8.28125" transform="matrix(-1 0 0 1 447.594 0.96875)" fill="#372D24"/>
<rect width="8.28125" height="8.28125" transform="matrix(-1 0 0 1 439.312 0.96875)" fill="#372D24"/>
<rect width="8.28125" height="8.28125" transform="matrix(-1 0 0 1 431.031 0.96875)" fill="#372D24"/>
<rect width="8.28125" height="8.28125" transform="matrix(-1 0 0 1 422.75 0.96875)" fill="#372D24"/>
<rect width="8.28125" height="8.28125" transform="matrix(-1 0 0 1 414.469 0.96875)" fill="#372D24"/>
<rect width="8.28125" height="8.28125" transform="matrix(-1 0 0 1 406.188 0.96875)" fill="#372D24"/>
<rect width="8.28125" height="8.28125" transform="matrix(-1 0 0 1 397.906 0.96875)" fill="#372D24"/>
<rect width="8.28125" height="8.28125" transform="matrix(-1 0 0 1 389.625 0.96875)" fill="#372D24"/>
<rect width="8.28125" height="8.28125" transform="matrix(-1 0 0 1 381.344 0.96875)" fill="#372D24"/>
<rect width="8.28125" height="8.28125" transform="matrix(-1 0 0 1 373.062 0.96875)" fill="#372D24"/>
<rect width="8.28125" height="8.28125" transform="matrix(-1 0 0 1 364.781 0.96875)" fill="#372D24"/>
<rect width="8.28125" height="8.28125" transform="matrix(-1 0 0 1 356.5 0.96875)" fill="#372D24"/>
<rect width="8.28125" height="8.28125" transform="matrix(-1 0 0 1 348.219 0.96875)" fill="#372D24"/>
<rect width="8.28125" height="8.28125" transform="matrix(-1 0 0 1 339.938 0.96875)" fill="#372D24"/>
<rect width="8.28125" height="8.28125" transform="matrix(-1 0 0 1 331.656 0.96875)" fill="#372D24"/>
<rect width="8.28125" height="8.28125" transform="matrix(-1 0 0 1 323.375 0.96875)" fill="#372D24"/>
<rect width="8.28125" height="8.28125" transform="matrix(-1 0 0 1 315.094 0.96875)" fill="#372D24"/>
<rect width="8.28125" height="8.28125" transform="matrix(-1 0 0 1 306.812 0.96875)" fill="#372D24"/>
<rect width="8.28125" height="8.28125" transform="matrix(-1 0 0 1 298.531 0.96875)" fill="#372D24"/>
<rect width="8.28125" height="8.28125" transform="matrix(-1 0 0 1 290.25 0.96875)" fill="#372D24"/>
<rect width="8.28125" height="8.28125" transform="matrix(-1 0 0 1 455.875 9.25)" fill="#372D24"/>
<rect width="8.28125" height="8.28125" transform="matrix(-1 0 0 1 447.594 9.25)" fill="#D0376D"/>
<rect width="8.28125" height="8.28125" transform="matrix(-1 0 0 1 439.312 9.25)" fill="#D0376D"/>
<rect width="8.28125" height="8.28125" transform="matrix(-1 0 0 1 431.031 9.25)" fill="#D0376D"/>
<rect width="8.28125" height="8.28125" transform="matrix(-1 0 0 1 422.75 9.25)" fill="#D0376D"/>
<rect width="8.28125" height="8.28125" transform="matrix(-1 0 0 1 414.469 9.25)" fill="#D0376D"/>
<rect width="8.28125" height="8.28125" transform="matrix(-1 0 0 1 406.188 9.25)" fill="#D0376D"/>
<rect width="8.28125" height="8.28125" transform="matrix(-1 0 0 1 397.906 9.25)" fill="#D0376D"/>
<rect width="8.28125" height="8.28125" transform="matrix(-1 0 0 1 389.625 9.25)" fill="#D0376D"/>
<rect width="8.28125" height="8.28125" transform="matrix(-1 0 0 1 381.344 9.25)" fill="#D0376D"/>
<rect width="8.28125" height="8.28125" transform="matrix(-1 0 0 1 373.062 9.25)" fill="#D0376D"/>
<rect width="8.28125" height="8.28125" transform="matrix(-1 0 0 1 364.781 9.25)" fill="#D0376D"/>
<rect width="8.28125" height="8.28125" transform="matrix(-1 0 0 1 356.5 9.25)" fill="#D0376D"/>
<rect width="8.28125" height="8.28125" transform="matrix(-1 0 0 1 348.219 9.25)" fill="#D0376D"/>
<rect width="8.28125" height="8.28125" transform="matrix(-1 0 0 1 339.938 9.25)" fill="#D0376D"/>
<rect width="8.28125" height="8.28125" transform="matrix(-1 0 0 1 331.656 9.25)" fill="#D0376D"/>
<rect width="8.28125" height="8.28125" transform="matrix(-1 0 0 1 323.375 9.25)" fill="#D0376D"/>
<rect width="8.28125" height="8.28125" transform="matrix(-1 0 0 1 315.094 9.25)" fill="#D0376D"/>
<rect width="8.28125" height="8.28125" transform="matrix(-1 0 0 1 306.812 9.25)" fill="#D0376D"/>
<rect width="8.28125" height="8.28125" transform="matrix(-1 0 0 1 298.531 9.25)" fill="#D0376D"/>
<rect width="8.28125" height="8.28125" transform="matrix(-1 0 0 1 290.25 9.25)" fill="#D0376D"/>
<rect width="8.28125" height="8.28125" transform="matrix(-1 0 0 1 464.156 17.5312)" fill="#372D24"/>
<rect width="8.28125" height="8.28125" transform="matrix(-1 0 0 1 455.875 17.5312)" fill="#D0376D"/>
<rect width="8.28125" height="8.28125" transform="matrix(-1 0 0 1 447.594 17.5312)" fill="#D0376D"/>
<rect width="8.28125" height="8.28125" transform="matrix(-1 0 0 1 439.312 17.5312)" fill="#D0376D"/>
<rect width="8.28125" height="8.28125" transform="matrix(-1 0 0 1 431.031 17.5312)" fill="#D0376D"/>
<rect width="8.28125" height="8.28125" transform="matrix(-1 0 0 1 422.75 17.5312)" fill="#D0376D"/>
<rect width="8.28125" height="8.28125" transform="matrix(-1 0 0 1 414.469 17.5312)" fill="#D0376D"/>
<rect width="8.28125" height="8.28125" transform="matrix(-1 0 0 1 406.188 17.5312)" fill="#D0376D"/>
<rect width="8.28125" height="8.28125" transform="matrix(-1 0 0 1 397.906 17.5312)" fill="#D0376D"/>
<rect width="8.28125" height="8.28125" transform="matrix(-1 0 0 1 389.625 17.5312)" fill="#D0376D"/>
<rect width="8.28125" height="8.28125" transform="matrix(-1 0 0 1 381.344 17.5312)" fill="#D0376D"/>
<rect width="8.28125" height="8.28125" transform="matrix(-1 0 0 1 373.062 17.5312)" fill="#D0376D"/>
<rect width="8.28125" height="8.28125" transform="matrix(-1 0 0 1 364.781 17.5312)" fill="#D0376D"/>
<rect width="8.28125" height="8.28125" transform="matrix(-1 0 0 1 356.5 17.5312)" fill="#D0376D"/>
<rect width="8.28125" height="8.28125" transform="matrix(-1 0 0 1 348.219 17.5312)" fill="#D0376D"/>
<rect width="8.28125" height="8.28125" transform="matrix(-1 0 0 1 339.938 17.5312)" fill="#D0376D"/>
<rect width="8.28125" height="8.28125" transform="matrix(-1 0 0 1 331.656 17.5312)" fill="#D0376D"/>
<rect width="8.28125" height="8.28125" transform="matrix(-1 0 0 1 323.375 17.5312)" fill="#D0376D"/>
<rect width="8.28125" height="8.28125" transform="matrix(-1 0 0 1 315.094 17.5312)" fill="#D0376D"/>
<rect width="8.28125" height="8.28125" transform="matrix(-1 0 0 1 306.812 17.5312)" fill="#D0376D"/>
<rect width="8.28125" height="8.28125" transform="matrix(-1 0 0 1 298.531 17.5312)" fill="#D0376D"/>
<rect width="8.28125" height="8.28125" transform="matrix(-1 0 0 1 290.25 17.5312)" fill="#D0376D"/>
<rect width="8.28125" height="8.28125" transform="matrix(-1 0 0 1 472.438 25.8125)" fill="#372D24"/>
<rect width="8.28125" height="8.28125" transform="matrix(-1 0 0 1 464.156 25.8125)" fill="#D0376D"/>
<rect width="8.28125" height="8.28125" transform="matrix(-1 0 0 1 455.875 25.8125)" fill="#D0376D"/>
<rect width="8.28125" height="8.28125" transform="matrix(-1 0 0 1 447.594 25.8125)" fill="#D0376D"/>
<rect width="8.28125" height="8.28125" transform="matrix(-1 0 0 1 439.312 25.8125)" fill="#D0376D"/>
<rect width="8.28125" height="8.28125" transform="matrix(-1 0 0 1 431.031 25.8125)" fill="#D0376D"/>
<rect width="8.28125" height="8.28125" transform="matrix(-1 0 0 1 422.75 25.8125)" fill="#D0376D"/>
<rect width="8.28125" height="8.28125" transform="matrix(-1 0 0 1 414.469 25.8125)" fill="#D0376D"/>
<rect width="8.28125" height="8.28125" transform="matrix(-1 0 0 1 406.188 25.8125)" fill="#D0376D"/>
<rect width="8.28125" height="8.28125" transform="matrix(-1 0 0 1 397.906 25.8125)" fill="#D0376D"/>
<rect width="8.28125" height="8.28125" transform="matrix(-1 0 0 1 389.625 25.8125)" fill="#D0376D"/>
<rect width="8.28125" height="8.28125" transform="matrix(-1 0 0 1 381.344 25.8125)" fill="#D0376D"/>
<rect width="8.28125" height="8.28125" transform="matrix(-1 0 0 1 373.062 25.8125)" fill="#D0376D"/>
<rect width="8.28125" height="8.28125" transform="matrix(-1 0 0 1 364.781 25.8125)" fill="#D0376D"/>
<rect width="8.28125" height="8.28125" transform="matrix(-1 0 0 1 356.5 25.8125)" fill="#D0376D"/>
<rect width="8.28125" height="8.28125" transform="matrix(-1 0 0 1 348.219 25.8125)" fill="#D0376D"/>
<rect width="8.28125" height="8.28125" transform="matrix(-1 0 0 1 339.938 25.8125)" fill="#D0376D"/>
<rect width="8.28125" height="8.28125" transform="matrix(-1 0 0 1 331.656 25.8125)" fill="#D0376D"/>
<rect width="8.28125" height="8.28125" transform="matrix(-1 0 0 1 323.375 25.8125)" fill="#D0376D"/>
<rect width="8.28125" height="8.28125" transform="matrix(-1 0 0 1 315.094 25.8125)" fill="#D0376D"/>
<rect width="8.28125" height="8.28125" transform="matrix(-1 0 0 1 306.812 25.8125)" fill="#D0376D"/>
<rect width="8.28125" height="8.28125" transform="matrix(-1 0 0 1 298.531 25.8125)" fill="#D0376D"/>
<rect width="8.28125" height="8.28125" transform="matrix(-1 0 0 1 290.25 25.8125)" fill="#D0376D"/>
<rect width="8.28125" height="8.28125" transform="matrix(-1 0 0 1 472.438 34.0938)" fill="#372D24"/>
<rect width="8.28125" height="8.28125" transform="matrix(-1 0 0 1 464.156 34.0938)" fill="#D0376D"/>
<rect width="8.28125" height="8.28125" transform="matrix(-1 0 0 1 455.875 34.0938)" fill="#D0376D"/>
<rect width="8.28125" height="8.28125" transform="matrix(-1 0 0 1 447.594 34.0938)" fill="#D0376D"/>
<rect width="8.28125" height="8.28125" transform="matrix(-1 0 0 1 439.312 34.0938)" fill="#D0376D"/>
<rect width="8.28125" height="8.28125" transform="matrix(-1 0 0 1 431.031 34.0938)" fill="#D0376D"/>
<rect width="8.28125" height="8.28125" transform="matrix(-1 0 0 1 422.75 34.0938)" fill="#D0376D"/>
<rect width="8.28125" height="8.28125" transform="matrix(-1 0 0 1 414.469 34.0938)" fill="#D0376D"/>
<rect width="8.28125" height="8.28125" transform="matrix(-1 0 0 1 406.188 34.0938)" fill="#D0376D"/>
<rect width="8.28125" height="8.28125" transform="matrix(-1 0 0 1 397.906 34.0938)" fill="#D0376D"/>
<rect width="8.28125" height="8.28125" transform="matrix(-1 0 0 1 389.625 34.0938)" fill="#D0376D"/>
<rect width="8.28125" height="8.28125" transform="matrix(-1 0 0 1 381.344 34.0938)" fill="#D0376D"/>
<rect width="8.28125" height="8.28125" transform="matrix(-1 0 0 1 373.062 34.0938)" fill="#D0376D"/>
<rect width="8.28125" height="8.28125" transform="matrix(-1 0 0 1 364.781 34.0938)" fill="#D0376D"/>
<rect width="8.28125" height="8.28125" transform="matrix(-1 0 0 1 356.5 34.0938)" fill="#D0376D"/>
<rect width="8.28125" height="8.28125" transform="matrix(-1 0 0 1 348.219 34.0938)" fill="#D0376D"/>
<rect width="8.28125" height="8.28125" transform="matrix(-1 0 0 1 339.938 34.0938)" fill="#D0376D"/>
<rect width="8.28125" height="8.28125" transform="matrix(-1 0 0 1 331.656 34.0938)" fill="#D0376D"/>
<rect width="8.28125" height="8.28125" transform="matrix(-1 0 0 1 323.375 34.0938)" fill="#D0376D"/>
<rect width="8.28125" height="8.28125" transform="matrix(-1 0 0 1 315.094 34.0938)" fill="#D0376D"/>
<rect width="8.28125" height="8.28125" transform="matrix(-1 0 0 1 306.812 34.0938)" fill="#D0376D"/>
<rect width="8.28125" height="8.28125" transform="matrix(-1 0 0 1 298.531 34.0938)" fill="#D0376D"/>
<rect width="8.28125" height="8.28125" transform="matrix(-1 0 0 1 290.25 34.0938)" fill="#D0376D"/>
<rect width="8.28125" height="8.28125" transform="matrix(-1 0 0 1 472.438 42.375)" fill="#372D24"/>
<rect width="8.28125" height="8.28125" transform="matrix(-1 0 0 1 464.156 42.375)" fill="#D0376D"/>
<rect width="8.28125" height="8.28125" transform="matrix(-1 0 0 1 455.875 42.375)" fill="#D0376D"/>
<rect width="8.28125" height="8.28125" transform="matrix(-1 0 0 1 447.594 42.375)" fill="#D0376D"/>
<rect width="8.28125" height="8.28125" transform="matrix(-1 0 0 1 439.312 42.375)" fill="#D0376D"/>
<rect width="8.28125" height="8.28125" transform="matrix(-1 0 0 1 431.031 42.375)" fill="#D0376D"/>
<rect width="8.28125" height="8.28125" transform="matrix(-1 0 0 1 422.75 42.375)" fill="#D0376D"/>
<rect width="8.28125" height="8.28125" transform="matrix(-1 0 0 1 414.469 42.375)" fill="#D0376D"/>
<rect width="8.28125" height="8.28125" transform="matrix(-1 0 0 1 406.188 42.375)" fill="#D0376D"/>
<rect width="8.28125" height="8.28125" transform="matrix(-1 0 0 1 397.906 42.375)" fill="#D0376D"/>
<rect width="8.28125" height="8.28125" transform="matrix(-1 0 0 1 389.625 42.375)" fill="#D0376D"/>
<rect width="8.28125" height="8.28125" transform="matrix(-1 0 0 1 381.344 42.375)" fill="#D0376D"/>
<rect width="8.28125" height="8.28125" transform="matrix(-1 0 0 1 373.062 42.375)" fill="#D0376D"/>
<rect width="8.28125" height="8.28125" transform="matrix(-1 0 0 1 364.781 42.375)" fill="#D0376D"/>
<rect width="8.28125" height="8.28125" transform="matrix(-1 0 0 1 356.5 42.375)" fill="#D0376D"/>
<rect width="8.28125" height="8.28125" transform="matrix(-1 0 0 1 348.219 42.375)" fill="#D0376D"/>
<rect width="8.28125" height="8.28125" transform="matrix(-1 0 0 1 339.938 42.375)" fill="#D0376D"/>
<rect width="8.28125" height="8.28125" transform="matrix(-1 0 0 1 331.656 42.375)" fill="#D0376D"/>
<rect width="8.28125" height="8.28125" transform="matrix(-1 0 0 1 323.375 42.375)" fill="#D0376D"/>
<rect width="8.28125" height="8.28125" transform="matrix(-1 0 0 1 315.094 42.375)" fill="#D0376D"/>
<rect width="8.28125" height="8.28125" transform="matrix(-1 0 0 1 306.812 42.375)" fill="#D0376D"/>
<rect width="8.28125" height="8.28125" transform="matrix(-1 0 0 1 298.531 42.375)" fill="#D0376D"/>
<rect width="8.28125" height="8.28125" transform="matrix(-1 0 0 1 290.25 42.375)" fill="#D0376D"/>
<rect width="8.28125" height="8.28125" transform="matrix(-1 0 0 1 472.438 50.6562)" fill="#372D24"/>
<rect width="8.28125" height="8.28125" transform="matrix(-1 0 0 1 464.156 50.6562)" fill="#D0376D"/>
<rect width="8.28125" height="8.28125" transform="matrix(-1 0 0 1 455.875 50.6562)" fill="#D0376D"/>
<rect width="8.28125" height="8.28125" transform="matrix(-1 0 0 1 447.594 50.6562)" fill="#D0376D"/>
<rect width="8.28125" height="8.28125" transform="matrix(-1 0 0 1 439.312 50.6562)" fill="#D0376D"/>
<rect width="8.28125" height="8.28125" transform="matrix(-1 0 0 1 431.031 50.6562)" fill="#D0376D"/>
<rect width="8.28125" height="8.28125" transform="matrix(-1 0 0 1 422.75 50.6562)" fill="#D0376D"/>
<rect width="8.28125" height="8.28125" transform="matrix(-1 0 0 1 414.469 50.6562)" fill="#D0376D"/>
<rect width="8.28125" height="8.28125" transform="matrix(-1 0 0 1 406.188 50.6562)" fill="#D0376D"/>
<rect width="8.28125" height="8.28125" transform="matrix(-1 0 0 1 397.906 50.6562)" fill="#D0376D"/>
<rect width="8.28125" height="8.28125" transform="matrix(-1 0 0 1 389.625 50.6562)" fill="#D0376D"/>
<rect width="8.28125" height="8.28125" transform="matrix(-1 0 0 1 381.344 50.6562)" fill="#D0376D"/>
<rect width="8.28125" height="8.28125" transform="matrix(-1 0 0 1 373.062 50.6562)" fill="#D0376D"/>
<rect width="8.28125" height="8.28125" transform="matrix(-1 0 0 1 364.781 50.6562)" fill="#D0376D"/>
<rect width="8.28125" height="8.28125" transform="matrix(-1 0 0 1 356.5 50.6562)" fill="#D0376D"/>
<rect width="8.28125" height="8.28125" transform="matrix(-1 0 0 1 348.219 50.6562)" fill="#D0376D"/>
<rect width="8.28125" height="8.28125" transform="matrix(-1 0 0 1 339.938 50.6562)" fill="#D0376D"/>
<rect width="8.28125" height="8.28125" transform="matrix(-1 0 0 1 331.656 50.6562)" fill="#D0376D"/>
<rect width="8.28125" height="8.28125" transform="matrix(-1 0 0 1 323.375 50.6562)" fill="#D0376D"/>
<rect width="8.28125" height="8.28125" transform="matrix(-1 0 0 1 315.094 50.6562)" fill="#D0376D"/>
<rect width="8.28125" height="8.28125" transform="matrix(-1 0 0 1 306.812 50.6562)" fill="#D0376D"/>
<rect width="8.28125" height="8.28125" transform="matrix(-1 0 0 1 298.531 50.6562)" fill="#D0376D"/>
<rect width="8.28125" height="8.28125" transform="matrix(-1 0 0 1 290.25 50.6562)" fill="#D0376D"/>
<rect width="8.28125" height="8.28125" transform="matrix(-1 0 0 1 472.438 58.9375)" fill="#372D24"/>
<rect width="8.28125" height="8.28125" transform="matrix(-1 0 0 1 464.156 58.9375)" fill="#D0376D"/>
<rect width="8.28125" height="8.28125" transform="matrix(-1 0 0 1 455.875 58.9375)" fill="#D0376D"/>
<rect width="8.28125" height="8.28125" transform="matrix(-1 0 0 1 447.594 58.9375)" fill="#D0376D"/>
<rect width="8.28125" height="8.28125" transform="matrix(-1 0 0 1 439.312 58.9375)" fill="#D0376D"/>
<rect width="8.28125" height="8.28125" transform="matrix(-1 0 0 1 431.031 58.9375)" fill="#D0376D"/>
<rect width="8.28125" height="8.28125" transform="matrix(-1 0 0 1 422.75 58.9375)" fill="#D0376D"/>
<rect width="8.28125" height="8.28125" transform="matrix(-1 0 0 1 414.469 58.9375)" fill="#D0376D"/>
<rect width="8.28125" height="8.28125" transform="matrix(-1 0 0 1 406.188 58.9375)" fill="#D0376D"/>
<rect width="8.28125" height="8.28125" transform="matrix(-1 0 0 1 397.906 58.9375)" fill="#D0376D"/>
<rect width="8.28125" height="8.28125" transform="matrix(-1 0 0 1 389.625 58.9375)" fill="#D0376D"/>
<rect width="8.28125" height="8.28125" transform="matrix(-1 0 0 1 381.344 58.9375)" fill="#D0376D"/>
<rect width="8.28125" height="8.28125" transform="matrix(-1 0 0 1 373.062 58.9375)" fill="#D0376D"/>
<rect width="8.28125" height="8.28125" transform="matrix(-1 0 0 1 364.781 58.9375)" fill="#D0376D"/>
<rect width="8.28125" height="8.28125" transform="matrix(-1 0 0 1 356.5 58.9375)" fill="#D0376D"/>
<rect width="8.28125" height="8.28125" transform="matrix(-1 0 0 1 348.219 58.9375)" fill="#D0376D"/>
<rect width="8.28125" height="8.28125" transform="matrix(-1 0 0 1 339.938 58.9375)" fill="#D0376D"/>
<rect width="8.28125" height="8.28125" transform="matrix(-1 0 0 1 331.656 58.9375)" fill="#D0376D"/>
<rect width="8.28125" height="8.28125" transform="matrix(-1 0 0 1 323.375 58.9375)" fill="#D0376D"/>
<rect width="8.28125" height="8.28125" transform="matrix(-1 0 0 1 315.094 58.9375)" fill="#D0376D"/>
<rect width="8.28125" height="8.28125" transform="matrix(-1 0 0 1 306.812 58.9375)" fill="#D0376D"/>
<rect width="8.28125" height="8.28125" transform="matrix(-1 0 0 1 298.531 58.9375)" fill="#D0376D"/>
<rect width="8.28125" height="8.28125" transform="matrix(-1 0 0 1 290.25 58.9375)" fill="#D0376D"/>
<rect width="8.28125" height="8.28125" transform="matrix(-1 0 0 1 472.438 67.2188)" fill="#372D24"/>
<rect width="8.28125" height="8.28125" transform="matrix(-1 0 0 1 464.156 67.2188)" fill="#D0376D"/>
<rect width="8.28125" height="8.28125" transform="matrix(-1 0 0 1 455.875 67.2188)" fill="#D0376D"/>
<rect width="8.28125" height="8.28125" transform="matrix(-1 0 0 1 447.594 67.2188)" fill="#D0376D"/>
<rect width="8.28125" height="8.28125" transform="matrix(-1 0 0 1 439.312 67.2188)" fill="#D0376D"/>
<rect width="8.28125" height="8.28125" transform="matrix(-1 0 0 1 431.031 67.2188)" fill="#D0376D"/>
<rect width="8.28125" height="8.28125" transform="matrix(-1 0 0 1 422.75 67.2188)" fill="#D0376D"/>
<rect width="8.28125" height="8.28125" transform="matrix(-1 0 0 1 414.469 67.2188)" fill="#D0376D"/>
<rect width="8.28125" height="8.28125" transform="matrix(-1 0 0 1 406.188 67.2188)" fill="#D0376D"/>
<rect width="8.28125" height="8.28125" transform="matrix(-1 0 0 1 397.906 67.2188)" fill="#D0376D"/>
<rect width="8.28125" height="8.28125" transform="matrix(-1 0 0 1 389.625 67.2188)" fill="#D0376D"/>
<rect width="8.28125" height="8.28125" transform="matrix(-1 0 0 1 381.344 67.2188)" fill="#D0376D"/>
<rect width="8.28125" height="8.28125" transform="matrix(-1 0 0 1 373.062 67.2188)" fill="#D0376D"/>
<rect width="8.28125" height="8.28125" transform="matrix(-1 0 0 1 364.781 67.2188)" fill="#D0376D"/>
<rect width="8.28125" height="8.28125" transform="matrix(-1 0 0 1 356.5 67.2188)" fill="#D0376D"/>
<rect width="8.28125" height="8.28125" transform="matrix(-1 0 0 1 348.219 67.2188)" fill="#D0376D"/>
<rect width="8.28125" height="8.28125" transform="matrix(-1 0 0 1 339.938 67.2188)" fill="#D0376D"/>
<rect width="8.28125" height="8.28125" transform="matrix(-1 0 0 1 331.656 67.2188)" fill="#D0376D"/>
<rect width="8.28125" height="8.28125" transform="matrix(-1 0 0 1 323.375 67.2188)" fill="#D0376D"/>
<rect width="8.28125" height="8.28125" transform="matrix(-1 0 0 1 315.094 67.2188)" fill="#D0376D"/>
<rect width="8.28125" height="8.28125" transform="matrix(-1 0 0 1 306.812 67.2188)" fill="#D0376D"/>
<rect width="8.28125" height="8.28125" transform="matrix(-1 0 0 1 298.531 67.2188)" fill="#D0376D"/>
<rect width="8.28125" height="8.28125" transform="matrix(-1 0 0 1 290.25 67.2188)" fill="#D0376D"/>
<rect width="8.28125" height="8.28125" transform="matrix(-1 0 0 1 472.438 75.5)" fill="#372D24"/>
<rect width="8.28125" height="8.28125" transform="matrix(-1 0 0 1 464.156 75.5)" fill="#D0376D"/>
<rect width="8.28125" height="8.28125" transform="matrix(-1 0 0 1 455.875 75.5)" fill="#D0376D"/>
<rect width="8.28125" height="8.28125" transform="matrix(-1 0 0 1 447.594 75.5)" fill="#D0376D"/>
<rect width="8.28125" height="8.28125" transform="matrix(-1 0 0 1 439.312 75.5)" fill="#D0376D"/>
<rect width="8.28125" height="8.28125" transform="matrix(-1 0 0 1 431.031 75.5)" fill="#D0376D"/>
<rect width="8.28125" height="8.28125" transform="matrix(-1 0 0 1 422.75 75.5)" fill="#D0376D"/>
<rect width="8.28125" height="8.28125" transform="matrix(-1 0 0 1 414.469 75.5)" fill="#D0376D"/>
<rect width="8.28125" height="8.28125" transform="matrix(-1 0 0 1 406.188 75.5)" fill="#D0376D"/>
<rect width="8.28125" height="8.28125" transform="matrix(-1 0 0 1 397.906 75.5)" fill="#D0376D"/>
<rect width="8.28125" height="8.28125" transform="matrix(-1 0 0 1 389.625 75.5)" fill="#D0376D"/>
<rect width="8.28125" height="8.28125" transform="matrix(-1 0 0 1 381.344 75.5)" fill="#D0376D"/>
<rect width="8.28125" height="8.28125" transform="matrix(-1 0 0 1 373.062 75.5)" fill="#D0376D"/>
<rect width="8.28125" height="8.28125" transform="matrix(-1 0 0 1 364.781 75.5)" fill="#D0376D"/>
<rect width="8.28125" height="8.28125" transform="matrix(-1 0 0 1 356.5 75.5)" fill="#D0376D"/>
<rect width="8.28125" height="8.28125" transform="matrix(-1 0 0 1 348.219 75.5)" fill="#D0376D"/>
<rect width="8.28125" height="8.28125" transform="matrix(-1 0 0 1 339.938 75.5)" fill="#D0376D"/>
<rect width="8.28125" height="8.28125" transform="matrix(-1 0 0 1 331.656 75.5)" fill="#D0376D"/>
<rect width="8.28125" height="8.28125" transform="matrix(-1 0 0 1 323.375 75.5)" fill="#D0376D"/>
<rect width="8.28125" height="8.28125" transform="matrix(-1 0 0 1 315.094 75.5)" fill="#D0376D"/>
<rect width="8.28125" height="8.28125" transform="matrix(-1 0 0 1 306.812 75.5)" fill="#D0376D"/>
<rect width="8.28125" height="8.28125" transform="matrix(-1 0 0 1 298.531 75.5)" fill="#D0376D"/>
<rect width="8.28125" height="8.28125" transform="matrix(-1 0 0 1 290.25 75.5)" fill="#D0376D"/>
<rect width="8.38906" height="8.5" transform="matrix(-1 0 0 1 449.781 83.5)" fill="#D0376D"/>
<rect width="8.38906" height="8.5" transform="matrix(-1 0 0 1 441.393 83.5)" fill="#D0376D"/>
<rect width="8.38906" height="8.5" transform="matrix(-1 0 0 1 433.004 83.5)" fill="#D0376D"/>
<rect width="8.38906" height="8.5" transform="matrix(-1 0 0 1 424.613 83.5)" fill="#D0376D"/>
<rect width="8.38906" height="8.5" transform="matrix(-1 0 0 1 416.225 83.5)" fill="#D0376D"/>
<rect width="8.38906" height="8.5" transform="matrix(-1 0 0 1 407.836 83.5)" fill="#D0376D"/>
<rect width="8.38906" height="8.5" transform="matrix(-1 0 0 1 399.447 83.5)" fill="#D0376D"/>
<rect width="8.38906" height="8.5" transform="matrix(-1 0 0 1 391.059 83.5)" fill="#D0376D"/>
<rect width="8.38906" height="8.5" transform="matrix(-1 0 0 1 382.668 83.5)" fill="#D0376D"/>
<rect width="8.38906" height="8.5" transform="matrix(-1 0 0 1 374.279 83.5)" fill="#D0376D"/>
<rect width="8.38906" height="8.5" transform="matrix(-1 0 0 1 365.891 83.5)" fill="#D0376D"/>
<rect width="8.38906" height="8.5" transform="matrix(-1 0 0 1 357.502 83.5)" fill="#D0376D"/>
<rect width="8.38906" height="8.5" transform="matrix(-1 0 0 1 349.113 83.5)" fill="#D0376D"/>
<rect width="8.38906" height="8.5" transform="matrix(-1 0 0 1 340.723 83.5)" fill="#D0376D"/>
<rect width="8.38906" height="8.5" transform="matrix(-1 0 0 1 332.334 83.5)" fill="#D0376D"/>
<rect width="8.38906" height="8.5" transform="matrix(-1 0 0 1 323.945 83.5)" fill="#D0376D"/>
<rect width="8.38906" height="8.5" transform="matrix(-1 0 0 1 315.557 83.5)" fill="#D0376D"/>
<rect width="8.38906" height="8.5" transform="matrix(-1 0 0 1 307.168 83.5)" fill="#D0376D"/>
<rect width="8.38906" height="8.5" transform="matrix(-1 0 0 1 298.777 83.5)" fill="#D0376D"/>
<rect width="8.38906" height="8.5" transform="matrix(-1 0 0 1 290.389 83.5)" fill="#D0376D"/>
<rect width="8.28125" height="8.28125" transform="matrix(-1 0 0 1 464.156 83.7812)" fill="#372D24"/>
<rect width="8.28125" height="8.28125" transform="matrix(-1 0 0 1 455.875 83.7812)" fill="#D0376D"/>
<rect width="8.28125" height="8.28125" transform="matrix(-1 0 0 1 455.875 92.0625)" fill="#372D24"/>
<rect width="8.28125" height="8.28125" transform="matrix(-1 0 0 1 447.594 92.0625)" fill="#D0376D"/>
<rect width="8.28125" height="8.28125" transform="matrix(-1 0 0 1 439.312 92.0625)" fill="#D0376D"/>
<rect width="8.28125" height="8.28125" transform="matrix(-1 0 0 1 431.031 92.0625)" fill="#D0376D"/>
<rect width="8.28125" height="8.28125" transform="matrix(-1 0 0 1 422.75 92.0625)" fill="#D0376D"/>
<rect width="8.28125" height="8.28125" transform="matrix(-1 0 0 1 414.469 92.0625)" fill="#D0376D"/>
<rect width="8.28125" height="8.28125" transform="matrix(-1 0 0 1 406.188 92.0625)" fill="#D0376D"/>
<rect width="8.28125" height="8.28125" transform="matrix(-1 0 0 1 397.906 92.0625)" fill="#D0376D"/>
<rect width="8.28125" height="8.28125" transform="matrix(-1 0 0 1 389.625 92.0625)" fill="#D0376D"/>
<rect width="8.28125" height="8.28125" transform="matrix(-1 0 0 1 381.344 92.0625)" fill="#D0376D"/>
<rect width="8.28125" height="8.28125" transform="matrix(-1 0 0 1 373.062 92.0625)" fill="#D0376D"/>
<rect width="8.28125" height="8.28125" transform="matrix(-1 0 0 1 364.781 92.0625)" fill="#D0376D"/>
<rect width="8.28125" height="8.28125" transform="matrix(-1 0 0 1 356.5 92.0625)" fill="#D0376D"/>
<rect width="8.28125" height="8.28125" transform="matrix(-1 0 0 1 348.219 92.0625)" fill="#D0376D"/>
<rect width="8.28125" height="8.28125" transform="matrix(-1 0 0 1 339.938 92.0625)" fill="#D0376D"/>
<rect width="8.28125" height="8.28125" transform="matrix(-1 0 0 1 331.656 92.0625)" fill="#D0376D"/>
<rect width="8.28125" height="8.28125" transform="matrix(-1 0 0 1 323.375 92.0625)" fill="#D0376D"/>
<rect width="8.28125" height="8.28125" transform="matrix(-1 0 0 1 315.094 92.0625)" fill="#D0376D"/>
<rect width="8.28125" height="8.28125" transform="matrix(-1 0 0 1 306.812 92.0625)" fill="#D0376D"/>
<rect width="8.28125" height="8.28125" transform="matrix(-1 0 0 1 298.531 92.0625)" fill="#D0376D"/>
<rect width="8.28125" height="8.28125" transform="matrix(-1 0 0 1 290.25 92.0625)" fill="#D0376D"/>
<rect width="8.28125" height="8.28125" transform="matrix(-1 0 0 1 447.594 100.344)" fill="#372D24"/>
<rect width="8.28125" height="8.28125" transform="matrix(-1 0 0 1 439.312 100.344)" fill="#372D24"/>
<rect width="8.28125" height="8.28125" transform="matrix(-1 0 0 1 431.031 100.344)" fill="#372D24"/>
<rect width="8.28125" height="8.28125" transform="matrix(-1 0 0 1 422.75 100.344)" fill="#372D24"/>
<rect width="8.28125" height="8.28125" transform="matrix(-1 0 0 1 414.469 100.344)" fill="#372D24"/>
<rect width="8.28125" height="8.28125" transform="matrix(-1 0 0 1 406.188 100.344)" fill="#372D24"/>
<rect width="8.28125" height="8.28125" transform="matrix(-1 0 0 1 397.906 100.344)" fill="#372D24"/>
<rect width="8.28125" height="8.28125" transform="matrix(-1 0 0 1 389.625 100.344)" fill="#372D24"/>
<rect width="8.28125" height="8.28125" transform="matrix(-1 0 0 1 381.344 100.344)" fill="#372D24"/>
<rect width="8.28125" height="8.28125" transform="matrix(-1 0 0 1 373.062 100.344)" fill="#372D24"/>
<rect width="8.28125" height="8.28125" transform="matrix(-1 0 0 1 364.781 100.344)" fill="#372D24"/>
<rect width="8.28125" height="8.28125" transform="matrix(-1 0 0 1 356.5 100.344)" fill="#372D24"/>
<rect width="8.28125" height="8.28125" transform="matrix(-1 0 0 1 348.219 100.344)" fill="#372D24"/>
<rect width="8.28125" height="8.28125" transform="matrix(-1 0 0 1 339.938 100.344)" fill="#372D24"/>
<rect width="8.28125" height="8.28125" transform="matrix(-1 0 0 1 331.656 100.344)" fill="#372D24"/>
<rect width="8.28125" height="8.28125" transform="matrix(-1 0 0 1 323.375 100.344)" fill="#372D24"/>
<rect width="8.28125" height="8.28125" transform="matrix(-1 0 0 1 315.094 100.344)" fill="#372D24"/>
<rect width="8.28125" height="8.28125" transform="matrix(-1 0 0 1 306.812 100.344)" fill="#372D24"/>
<rect width="8.28125" height="8.28125" transform="matrix(-1 0 0 1 298.531 100.344)" fill="#372D24"/>
<rect width="8.28125" height="8.28125" transform="matrix(-1 0 0 1 290.25 100.344)" fill="#372D24"/>
<rect width="8.28125" height="8.28125" transform="matrix(-1 0 0 1 446.594 90.7812)" fill="#B22E62"/>
<rect width="8.28125" height="8.28125" transform="matrix(-1 0 0 1 438.312 90.7812)" fill="#B22E62"/>
<rect width="8.28125" height="8.28125" transform="matrix(-1 0 0 1 430.031 90.7812)" fill="#B22E62"/>
<rect width="8.28125" height="8.28125" transform="matrix(-1 0 0 1 421.75 90.7812)" fill="#B22E62"/>
<rect width="8.28125" height="8.28125" transform="matrix(-1 0 0 1 413.469 90.7812)" fill="#B22E62"/>
<rect width="8.28125" height="8.28125" transform="matrix(-1 0 0 1 405.188 90.7812)" fill="#B22E62"/>
<rect width="8.28125" height="8.28125" transform="matrix(-1 0 0 1 396.906 90.7812)" fill="#B22E62"/>
<rect width="8.28125" height="8.28125" transform="matrix(-1 0 0 1 388.625 90.7812)" fill="#B22E62"/>
<rect width="8.28125" height="8.28125" transform="matrix(-1 0 0 1 380.344 90.7812)" fill="#B22E62"/>
<rect width="8.28125" height="8.28125" transform="matrix(-1 0 0 1 372.062 90.7812)" fill="#B22E62"/>
<rect width="8.28125" height="8.28125" transform="matrix(-1 0 0 1 363.781 90.7812)" fill="#B22E62"/>
<rect width="8.28125" height="8.28125" transform="matrix(-1 0 0 1 355.5 90.7812)" fill="#B22E62"/>
<rect width="8.28125" height="8.28125" transform="matrix(-1 0 0 1 347.219 90.7812)" fill="#B22E62"/>
<rect width="8.28125" height="8.28125" transform="matrix(-1 0 0 1 338.938 90.7812)" fill="#B22E62"/>
<rect width="8.28125" height="8.28125" transform="matrix(-1 0 0 1 330.656 90.7812)" fill="#B22E62"/>
<rect width="8.28125" height="8.28125" transform="matrix(-1 0 0 1 322.375 90.7812)" fill="#B22E62"/>
<rect width="8.28125" height="8.28125" transform="matrix(-1 0 0 1 314.094 90.7812)" fill="#B22E62"/>
<rect width="8.28125" height="8.28125" transform="matrix(-1 0 0 1 305.812 90.7812)" fill="#B22E62"/>
<rect width="8.28125" height="8.28125" transform="matrix(-1 0 0 1 297.531 90.7812)" fill="#B22E62"/>
<rect width="8.28125" height="8.28125" transform="matrix(-1 0 0 1 289.25 90.7812)" fill="#B22E62"/>
<path d="M58.28 55.48C58.408 55.992 58.472 56.632 58.472 57.4C58.472 58.136 58.408 58.776 58.28 59.32C58.408 59.832 58.472 60.472 58.472 61.24C58.472 61.976 58.408 62.616 58.28 63.16H56.36C56.488 63.672 56.552 64.312 56.552 65.08C56.552 65.816 56.488 66.456 56.36 67H44.84C44.712 66.456 44.648 65.816 44.648 65.08C44.648 64.312 44.712 63.672 44.84 63.16H42.92C42.792 62.616 42.728 61.976 42.728 61.24C42.728 60.472 42.792 59.832 42.92 59.32H46.76C46.888 59.832 46.952 60.472 46.952 61.24C46.952 61.976 46.888 62.616 46.76 63.16H54.44C54.312 62.616 54.248 61.976 54.248 61.24C54.248 60.472 54.312 59.832 54.44 59.32C54.312 58.776 54.248 58.136 54.248 57.4C54.248 56.632 54.312 55.992 54.44 55.48H44.84C44.712 54.936 44.648 54.296 44.648 53.56C44.648 52.792 44.712 52.152 44.84 51.64H42.92C42.792 51.096 42.728 50.456 42.728 49.72C42.728 48.952 42.792 48.312 42.92 47.8C42.792 47.256 42.728 46.616 42.728 45.88C42.728 45.112 42.792 44.472 42.92 43.96H44.84C44.712 43.416 44.648 42.776 44.648 42.04C44.648 41.272 44.712 40.632 44.84 40.12H56.36C56.488 40.632 56.552 41.272 56.552 42.04C56.552 42.776 56.488 43.416 56.36 43.96H58.28C58.408 44.472 58.472 45.112 58.472 45.88C58.472 46.616 58.408 47.256 58.28 47.8H54.44C54.312 47.256 54.248 46.616 54.248 45.88C54.248 45.112 54.312 44.472 54.44 43.96H46.76C46.888 44.472 46.952 45.112 46.952 45.88C46.952 46.616 46.888 47.256 46.76 47.8C46.888 48.312 46.952 48.952 46.952 49.72C46.952 50.456 46.888 51.096 46.76 51.64H56.36C56.488 52.152 56.552 52.792 56.552 53.56C56.552 54.296 56.488 54.936 56.36 55.48H58.28ZM75.5788 63.16C75.7068 63.672 75.7708 64.312 75.7708 65.08C75.7708 65.816 75.7068 66.456 75.5788 67H67.8988C67.7708 66.456 67.7068 65.816 67.7068 65.08C67.7068 64.312 67.7708 63.672 67.8988 63.16H65.9788C65.8508 62.616 65.7868 61.976 65.7868 61.24C65.7868 60.472 65.8508 59.832 65.9788 59.32C65.8508 58.776 65.7868 58.136 65.7868 57.4C65.7868 56.632 65.8508 55.992 65.9788 55.48C65.8508 54.936 65.7868 54.296 65.7868 53.56C65.7868 52.792 65.8508 52.152 65.9788 51.64H62.1388C62.0108 51.096 61.9468 50.456 61.9468 49.72C61.9468 48.952 62.0108 48.312 62.1388 47.8H65.9788C65.8508 47.256 65.7868 46.616 65.7868 45.88C65.7868 45.112 65.8508 44.472 65.9788 43.96C65.8508 43.416 65.7868 42.776 65.7868 42.04C65.7868 41.272 65.8508 40.632 65.9788 40.12H69.8188C69.9468 40.632 70.0108 41.272 70.0108 42.04C70.0108 42.776 69.9468 43.416 69.8188 43.96C69.9468 44.472 70.0108 45.112 70.0108 45.88C70.0108 46.616 69.9468 47.256 69.8188 47.8H75.5788C75.7068 48.312 75.7708 48.952 75.7708 49.72C75.7708 50.456 75.7068 51.096 75.5788 51.64H69.8188C69.9468 52.152 70.0108 52.792 70.0108 53.56C70.0108 54.296 69.9468 54.936 69.8188 55.48C69.9468 55.992 70.0108 56.632 70.0108 57.4C70.0108 58.136 69.9468 58.776 69.8188 59.32C69.9468 59.832 70.0108 60.472 70.0108 61.24C70.0108 61.976 69.9468 62.616 69.8188 63.16H75.5788ZM96.7175 63.16C96.8455 63.672 96.9095 64.312 96.9095 65.08C96.9095 65.816 96.8455 66.456 96.7175 67H92.8775C92.7495 66.456 92.6855 65.816 92.6855 65.08C92.6855 64.312 92.7495 63.672 92.8775 63.16H90.9575C90.8295 62.616 90.7655 61.976 90.7655 61.24C90.7655 60.472 90.8295 59.832 90.9575 59.32H85.1975C85.3255 59.832 85.3895 60.472 85.3895 61.24C85.3895 61.976 85.3255 62.616 85.1975 63.16H90.9575C91.0855 63.672 91.1495 64.312 91.1495 65.08C91.1495 65.816 91.0855 66.456 90.9575 67H83.2775C83.1495 66.456 83.0855 65.816 83.0855 65.08C83.0855 64.312 83.1495 63.672 83.2775 63.16H81.3575C81.2295 62.616 81.1655 61.976 81.1655 61.24C81.1655 60.472 81.2295 59.832 81.3575 59.32H83.2775C83.1495 58.776 83.0855 58.136 83.0855 57.4C83.0855 56.632 83.1495 55.992 83.2775 55.48H90.9575C90.8295 54.936 90.7655 54.296 90.7655 53.56C90.7655 52.792 90.8295 52.152 90.9575 51.64H84.2375C84.1095 51.096 84.0455 50.456 84.0455 49.72C84.0455 48.952 84.1095 48.312 84.2375 47.8H92.8775C93.0055 48.312 93.0695 48.952 93.0695 49.72C93.0695 50.456 93.0055 51.096 92.8775 51.64H94.7975C94.9255 52.152 94.9895 52.792 94.9895 53.56C94.9895 54.296 94.9255 54.936 94.7975 55.48C94.9255 55.992 94.9895 56.632 94.9895 57.4C94.9895 58.136 94.9255 58.776 94.7975 59.32C94.9255 59.832 94.9895 60.472 94.9895 61.24C94.9895 61.976 94.9255 62.616 94.7975 63.16H96.7175ZM115.936 51.64C116.064 52.152 116.128 52.792 116.128 53.56C116.128 54.296 116.064 54.936 115.936 55.48H112.096C111.968 54.936 111.904 54.296 111.904 53.56C111.904 52.792 111.968 52.152 112.096 51.64H108.736C108.864 52.152 108.928 52.792 108.928 53.56C108.928 54.296 108.864 54.936 108.736 55.48H107.296C107.424 55.992 107.488 56.632 107.488 57.4C107.488 58.136 107.424 58.776 107.296 59.32C107.424 59.832 107.488 60.472 107.488 61.24C107.488 61.976 107.424 62.616 107.296 63.16H110.176C110.304 63.672 110.368 64.312 110.368 65.08C110.368 65.816 110.304 66.456 110.176 67H100.576C100.448 66.456 100.384 65.816 100.384 65.08C100.384 64.312 100.448 63.672 100.576 63.16H103.456C103.328 62.616 103.264 61.976 103.264 61.24C103.264 60.472 103.328 59.832 103.456 59.32C103.328 58.776 103.264 58.136 103.264 57.4C103.264 56.632 103.328 55.992 103.456 55.48C103.328 54.936 103.264 54.296 103.264 53.56C103.264 52.792 103.328 52.152 103.456 51.64H100.576C100.448 51.096 100.384 50.456 100.384 49.72C100.384 48.952 100.448 48.312 100.576 47.8H105.376C105.504 48.312 105.568 48.952 105.568 49.72C105.568 50.456 105.504 51.096 105.376 51.64H107.296C107.168 51.096 107.104 50.456 107.104 49.72C107.104 48.952 107.168 48.312 107.296 47.8H114.496C114.624 48.312 114.688 48.952 114.688 49.72C114.688 50.456 114.624 51.096 114.496 51.64H115.936ZM133.235 63.16C133.363 63.672 133.427 64.312 133.427 65.08C133.427 65.816 133.363 66.456 133.235 67H125.555C125.427 66.456 125.363 65.816 125.363 65.08C125.363 64.312 125.427 63.672 125.555 63.16H123.635C123.507 62.616 123.443 61.976 123.443 61.24C123.443 60.472 123.507 59.832 123.635 59.32C123.507 58.776 123.443 58.136 123.443 57.4C123.443 56.632 123.507 55.992 123.635 55.48C123.507 54.936 123.443 54.296 123.443 53.56C123.443 52.792 123.507 52.152 123.635 51.64H119.795C119.667 51.096 119.603 50.456 119.603 49.72C119.603 48.952 119.667 48.312 119.795 47.8H123.635C123.507 47.256 123.443 46.616 123.443 45.88C123.443 45.112 123.507 44.472 123.635 43.96C123.507 43.416 123.443 42.776 123.443 42.04C123.443 41.272 123.507 40.632 123.635 40.12H127.475C127.603 40.632 127.667 41.272 127.667 42.04C127.667 42.776 127.603 43.416 127.475 43.96C127.603 44.472 127.667 45.112 127.667 45.88C127.667 46.616 127.603 47.256 127.475 47.8H133.235C133.363 48.312 133.427 48.952 133.427 49.72C133.427 50.456 133.363 51.096 133.235 51.64H127.475C127.603 52.152 127.667 52.792 127.667 53.56C127.667 54.296 127.603 54.936 127.475 55.48C127.603 55.992 127.667 56.632 127.667 57.4C127.667 58.136 127.603 58.776 127.475 59.32C127.603 59.832 127.667 60.472 127.667 61.24C127.667 61.976 127.603 62.616 127.475 63.16H133.235ZM173.785 49.72C173.785 50.456 173.721 51.096 173.593 51.64H172.153C172.281 52.152 172.345 52.792 172.345 53.56C172.345 54.296 172.281 54.936 172.153 55.48H170.713C170.841 55.992 170.905 56.632 170.905 57.4C170.905 58.136 170.841 58.776 170.713 59.32H169.753C169.881 59.832 169.945 60.472 169.945 61.24C169.945 61.976 169.881 62.616 169.753 63.16H168.312C168.441 63.672 168.505 64.312 168.505 65.08C168.505 65.816 168.441 66.456 168.312 67H167.353C167.481 67.512 167.545 68.152 167.545 68.92C167.545 69.656 167.481 70.296 167.353 70.84H165.433C165.561 71.352 165.625 71.992 165.625 72.76C165.625 73.496 165.561 74.136 165.433 74.68H159.673C159.544 74.136 159.48 73.496 159.48 72.76C159.48 71.992 159.544 71.352 159.673 70.84H163.513C163.385 70.296 163.321 69.656 163.321 68.92C163.321 68.152 163.385 67.512 163.513 67C163.385 66.456 163.321 65.816 163.321 65.08C163.321 64.312 163.385 63.672 163.513 63.16H161.593C161.465 62.616 161.401 61.976 161.401 61.24C161.401 60.472 161.465 59.832 161.593 59.32H160.633C160.505 58.776 160.441 58.136 160.441 57.4C160.441 56.632 160.505 55.992 160.633 55.48H159.193C159.065 54.936 159.001 54.296 159.001 53.56C159.001 52.792 159.065 52.152 159.193 51.64H157.753C157.625 51.096 157.561 50.456 157.561 49.72C157.561 48.952 157.625 48.312 157.753 47.8H161.593C161.721 48.312 161.785 48.952 161.785 49.72C161.785 50.456 161.721 51.096 161.593 51.64H163.033C163.161 52.152 163.225 52.792 163.225 53.56C163.225 54.296 163.161 54.936 163.033 55.48H164.473C164.601 55.992 164.665 56.632 164.665 57.4C164.665 58.136 164.601 58.776 164.473 59.32C164.601 59.832 164.665 60.472 164.665 61.24C164.665 61.976 164.601 62.616 164.473 63.16H165.913C165.785 62.616 165.721 61.976 165.721 61.24C165.721 60.472 165.785 59.832 165.913 59.32H166.873C166.745 58.776 166.681 58.136 166.681 57.4C166.681 56.632 166.745 55.992 166.873 55.48H168.312C168.185 54.936 168.121 54.296 168.121 53.56C168.121 52.792 168.185 52.152 168.312 51.64H169.753C169.625 51.096 169.561 50.456 169.561 49.72C169.561 48.952 169.625 48.312 169.753 47.8H173.593C173.721 48.312 173.785 48.952 173.785 49.72ZM193.003 57.4C193.003 58.136 192.939 58.776 192.811 59.32H191.371C191.499 59.832 191.563 60.472 191.563 61.24C191.563 61.976 191.499 62.616 191.371 63.16H188.971C189.099 63.672 189.163 64.312 189.163 65.08C189.163 65.816 189.099 66.456 188.971 67H181.291C181.163 66.456 181.099 65.816 181.099 65.08C181.099 64.312 181.163 63.672 181.291 63.16H178.891C178.763 62.616 178.699 61.976 178.699 61.24C178.699 60.472 178.763 59.832 178.891 59.32H177.451C177.323 58.776 177.259 58.136 177.259 57.4C177.259 56.632 177.323 55.992 177.451 55.48H178.891C178.763 54.936 178.699 54.296 178.699 53.56C178.699 52.792 178.763 52.152 178.891 51.64H181.291C181.163 51.096 181.099 50.456 181.099 49.72C181.099 48.952 181.163 48.312 181.291 47.8H188.971C189.099 48.312 189.163 48.952 189.163 49.72C189.163 50.456 189.099 51.096 188.971 51.64H191.371C191.499 52.152 191.563 52.792 191.563 53.56C191.563 54.296 191.499 54.936 191.371 55.48H192.811C192.939 55.992 193.003 56.632 193.003 57.4ZM188.971 59.32C188.843 58.776 188.779 58.136 188.779 57.4C188.779 56.632 188.843 55.992 188.971 55.48H187.531C187.403 54.936 187.339 54.296 187.339 53.56C187.339 52.792 187.403 52.152 187.531 51.64H182.731C182.859 52.152 182.923 52.792 182.923 53.56C182.923 54.296 182.859 54.936 182.731 55.48H181.291C181.419 55.992 181.483 56.632 181.483 57.4C181.483 58.136 181.419 58.776 181.291 59.32H182.731C182.859 59.832 182.923 60.472 182.923 61.24C182.923 61.976 182.859 62.616 182.731 63.16H187.531C187.403 62.616 187.339 61.976 187.339 61.24C187.339 60.472 187.403 59.832 187.531 59.32H188.971ZM202.142 61.24C202.142 61.976 202.078 62.616 201.95 63.16H206.75C206.878 63.672 206.942 64.312 206.942 65.08C206.942 65.816 206.878 66.456 206.75 67H199.07C198.942 66.456 198.878 65.816 198.878 65.08C198.878 64.312 198.942 63.672 199.07 63.16H196.67C196.542 62.616 196.478 61.976 196.478 61.24C196.478 60.472 196.542 59.832 196.67 59.32C196.542 58.776 196.478 58.136 196.478 57.4C196.478 56.632 196.542 55.992 196.67 55.48C196.542 54.936 196.478 54.296 196.478 53.56C196.478 52.792 196.542 52.152 196.67 51.64C196.542 51.096 196.478 50.456 196.478 49.72C196.478 48.952 196.542 48.312 196.67 47.8H200.51C200.638 48.312 200.702 48.952 200.702 49.72C200.702 50.456 200.638 51.096 200.51 51.64C200.638 52.152 200.702 52.792 200.702 53.56C200.702 54.296 200.638 54.936 200.51 55.48C200.638 55.992 200.702 56.632 200.702 57.4C200.702 58.136 200.638 58.776 200.51 59.32H201.95C202.078 59.832 202.142 60.472 202.142 61.24ZM212.03 51.64C212.158 52.152 212.222 52.792 212.222 53.56C212.222 54.296 212.158 54.936 212.03 55.48C212.158 55.992 212.222 56.632 212.222 57.4C212.222 58.136 212.158 58.776 212.03 59.32C212.158 59.832 212.222 60.472 212.222 61.24C212.222 61.976 212.158 62.616 212.03 63.16C212.158 63.672 212.222 64.312 212.222 65.08C212.222 65.816 212.158 66.456 212.03 67H208.19C208.062 66.456 207.998 65.816 207.998 65.08C207.998 64.312 208.062 63.672 208.19 63.16H206.75C206.622 62.616 206.558 61.976 206.558 61.24C206.558 60.472 206.622 59.832 206.75 59.32H208.19C208.062 58.776 207.998 58.136 207.998 57.4C207.998 56.632 208.062 55.992 208.19 55.48C208.062 54.936 207.998 54.296 207.998 53.56C207.998 52.792 208.062 52.152 208.19 51.64C208.062 51.096 207.998 50.456 207.998 49.72C207.998 48.952 208.062 48.312 208.19 47.8H212.03C212.158 48.312 212.222 48.952 212.222 49.72C212.222 50.456 212.158 51.096 212.03 51.64ZM231.249 51.64C231.377 52.152 231.441 52.792 231.441 53.56C231.441 54.296 231.377 54.936 231.249 55.48H227.409C227.281 54.936 227.217 54.296 227.217 53.56C227.217 52.792 227.281 52.152 227.409 51.64H224.049C224.177 52.152 224.241 52.792 224.241 53.56C224.241 54.296 224.177 54.936 224.049 55.48H222.609C222.737 55.992 222.801 56.632 222.801 57.4C222.801 58.136 222.737 58.776 222.609 59.32C222.737 59.832 222.801 60.472 222.801 61.24C222.801 61.976 222.737 62.616 222.609 63.16H225.489C225.617 63.672 225.681 64.312 225.681 65.08C225.681 65.816 225.617 66.456 225.489 67H215.889C215.761 66.456 215.697 65.816 215.697 65.08C215.697 64.312 215.761 63.672 215.889 63.16H218.769C218.641 62.616 218.577 61.976 218.577 61.24C218.577 60.472 218.641 59.832 218.769 59.32C218.641 58.776 218.577 58.136 218.577 57.4C218.577 56.632 218.641 55.992 218.769 55.48C218.641 54.936 218.577 54.296 218.577 53.56C218.577 52.792 218.641 52.152 218.769 51.64H215.889C215.761 51.096 215.697 50.456 215.697 49.72C215.697 48.952 215.761 48.312 215.889 47.8H220.689C220.817 48.312 220.881 48.952 220.881 49.72C220.881 50.456 220.817 51.096 220.689 51.64H222.609C222.481 51.096 222.417 50.456 222.417 49.72C222.417 48.952 222.481 48.312 222.609 47.8H229.809C229.937 48.312 230.001 48.952 230.001 49.72C230.001 50.456 229.937 51.096 229.809 51.64H231.249ZM269.686 63.16C269.814 63.672 269.878 64.312 269.878 65.08C269.878 65.816 269.814 66.456 269.686 67H265.846C265.718 66.456 265.654 65.816 265.654 65.08C265.654 64.312 265.718 63.672 265.846 63.16H263.926C263.798 62.616 263.734 61.976 263.734 61.24C263.734 60.472 263.798 59.832 263.926 59.32H258.166C258.294 59.832 258.358 60.472 258.358 61.24C258.358 61.976 258.294 62.616 258.166 63.16H263.926C264.054 63.672 264.118 64.312 264.118 65.08C264.118 65.816 264.054 66.456 263.926 67H256.246C256.118 66.456 256.054 65.816 256.054 65.08C256.054 64.312 256.118 63.672 256.246 63.16H254.326C254.198 62.616 254.134 61.976 254.134 61.24C254.134 60.472 254.198 59.832 254.326 59.32H256.246C256.118 58.776 256.054 58.136 256.054 57.4C256.054 56.632 256.118 55.992 256.246 55.48H263.926C263.798 54.936 263.734 54.296 263.734 53.56C263.734 52.792 263.798 52.152 263.926 51.64H257.206C257.078 51.096 257.014 50.456 257.014 49.72C257.014 48.952 257.078 48.312 257.206 47.8H265.846C265.974 48.312 266.038 48.952 266.038 49.72C266.038 50.456 265.974 51.096 265.846 51.64H267.766C267.894 52.152 267.958 52.792 267.958 53.56C267.958 54.296 267.894 54.936 267.766 55.48C267.894 55.992 267.958 56.632 267.958 57.4C267.958 58.136 267.894 58.776 267.766 59.32C267.894 59.832 267.958 60.472 267.958 61.24C267.958 61.976 267.894 62.616 267.766 63.16H269.686ZM288.905 43.96C289.033 44.472 289.097 45.112 289.097 45.88C289.097 46.616 289.033 47.256 288.905 47.8C289.033 48.312 289.097 48.952 289.097 49.72C289.097 50.456 289.033 51.096 288.905 51.64C289.033 52.152 289.097 52.792 289.097 53.56C289.097 54.296 289.033 54.936 288.905 55.48C289.033 55.992 289.097 56.632 289.097 57.4C289.097 58.136 289.033 58.776 288.905 59.32C289.033 59.832 289.097 60.472 289.097 61.24C289.097 61.976 289.033 62.616 288.905 63.16C289.033 63.672 289.097 64.312 289.097 65.08C289.097 65.816 289.033 66.456 288.905 67H285.065C284.937 66.456 284.873 65.816 284.873 65.08C284.873 64.312 284.937 63.672 285.065 63.16H283.625C283.497 62.616 283.433 61.976 283.433 61.24C283.433 60.472 283.497 59.832 283.625 59.32H285.065C284.937 58.776 284.873 58.136 284.873 57.4C284.873 56.632 284.937 55.992 285.065 55.48H283.625C283.497 54.936 283.433 54.296 283.433 53.56C283.433 52.792 283.497 52.152 283.625 51.64H285.065C284.937 51.096 284.873 50.456 284.873 49.72C284.873 48.952 284.937 48.312 285.065 47.8C284.937 47.256 284.873 46.616 284.873 45.88C284.873 45.112 284.937 44.472 285.065 43.96C284.937 43.416 284.873 42.776 284.873 42.04C284.873 41.272 284.937 40.632 285.065 40.12H288.905C289.033 40.632 289.097 41.272 289.097 42.04C289.097 42.776 289.033 43.416 288.905 43.96ZM282.857 49.72C282.857 50.456 282.793 51.096 282.665 51.64H277.865C277.993 52.152 278.057 52.792 278.057 53.56C278.057 54.296 277.993 54.936 277.865 55.48H276.425C276.553 55.992 276.617 56.632 276.617 57.4C276.617 58.136 276.553 58.776 276.425 59.32H277.865C277.993 59.832 278.057 60.472 278.057 61.24C278.057 61.976 277.993 62.616 277.865 63.16H282.665C282.793 63.672 282.857 64.312 282.857 65.08C282.857 65.816 282.793 66.456 282.665 67H277.385C277.257 66.456 277.193 65.816 277.193 65.08C277.193 64.312 277.257 63.672 277.385 63.16H274.985C274.857 62.616 274.793 61.976 274.793 61.24C274.793 60.472 274.857 59.832 274.985 59.32H273.545C273.417 58.776 273.353 58.136 273.353 57.4C273.353 56.632 273.417 55.992 273.545 55.48H274.985C274.857 54.936 274.793 54.296 274.793 53.56C274.793 52.792 274.857 52.152 274.985 51.64H277.385C277.257 51.096 277.193 50.456 277.193 49.72C277.193 48.952 277.257 48.312 277.385 47.8H282.665C282.793 48.312 282.857 48.952 282.857 49.72ZM308.316 49.72C308.316 50.456 308.252 51.096 308.124 51.64H306.684C306.812 52.152 306.876 52.792 306.876 53.56C306.876 54.296 306.812 54.936 306.684 55.48H305.244C305.372 55.992 305.436 56.632 305.436 57.4C305.436 58.136 305.372 58.776 305.244 59.32H304.284C304.412 59.832 304.476 60.472 304.476 61.24C304.476 61.976 304.412 62.616 304.284 63.16H302.364C302.492 63.672 302.556 64.312 302.556 65.08C302.556 65.816 302.492 66.456 302.364 67H298.524C298.396 66.456 298.332 65.816 298.332 65.08C298.332 64.312 298.396 63.672 298.524 63.16H296.604C296.476 62.616 296.412 61.976 296.412 61.24C296.412 60.472 296.476 59.832 296.604 59.32H295.644C295.516 58.776 295.452 58.136 295.452 57.4C295.452 56.632 295.516 55.992 295.644 55.48H294.204C294.076 54.936 294.012 54.296 294.012 53.56C294.012 52.792 294.076 52.152 294.204 51.64H292.764C292.636 51.096 292.572 50.456 292.572 49.72C292.572 48.952 292.636 48.312 292.764 47.8H296.604C296.732 48.312 296.796 48.952 296.796 49.72C296.796 50.456 296.732 51.096 296.604 51.64H298.044C298.172 52.152 298.236 52.792 298.236 53.56C298.236 54.296 298.172 54.936 298.044 55.48H299.484C299.612 55.992 299.676 56.632 299.676 57.4C299.676 58.136 299.612 58.776 299.484 59.32H301.404C301.276 58.776 301.212 58.136 301.212 57.4C301.212 56.632 301.276 55.992 301.404 55.48H302.844C302.716 54.936 302.652 54.296 302.652 53.56C302.652 52.792 302.716 52.152 302.844 51.64H304.284C304.156 51.096 304.092 50.456 304.092 49.72C304.092 48.952 304.156 48.312 304.284 47.8H308.124C308.252 48.312 308.316 48.952 308.316 49.72ZM327.535 53.56C327.535 54.296 327.471 54.936 327.343 55.48C327.471 55.992 327.535 56.632 327.535 57.4C327.535 58.136 327.471 58.776 327.343 59.32H317.263C317.391 59.832 317.455 60.472 317.455 61.24C317.455 61.976 317.391 62.616 317.263 63.16H325.423C325.551 63.672 325.615 64.312 325.615 65.08C325.615 65.816 325.551 66.456 325.423 67H315.823C315.695 66.456 315.631 65.816 315.631 65.08C315.631 64.312 315.695 63.672 315.823 63.16H313.423C313.294 62.616 313.23 61.976 313.23 61.24C313.23 60.472 313.294 59.832 313.423 59.32H311.983C311.855 58.776 311.791 58.136 311.791 57.4C311.791 56.632 311.855 55.992 311.983 55.48H313.423C313.294 54.936 313.23 54.296 313.23 53.56C313.23 52.792 313.294 52.152 313.423 51.64H315.823C315.695 51.096 315.631 50.456 315.631 49.72C315.631 48.952 315.695 48.312 315.823 47.8H325.423C325.551 48.312 325.615 48.952 325.615 49.72C325.615 50.456 325.551 51.096 325.423 51.64H327.343C327.471 52.152 327.535 52.792 327.535 53.56ZM323.503 55.48C323.375 54.936 323.311 54.296 323.311 53.56C323.311 52.792 323.375 52.152 323.503 51.64H317.263C317.391 52.152 317.455 52.792 317.455 53.56C317.455 54.296 317.391 54.936 317.263 55.48H323.503ZM334.753 49.72C334.753 50.456 334.689 51.096 334.561 51.64H336.481C336.609 52.152 336.673 52.792 336.673 53.56C336.673 54.296 336.609 54.936 336.481 55.48H335.041C335.169 55.992 335.233 56.632 335.233 57.4C335.233 58.136 335.169 58.776 335.041 59.32C335.169 59.832 335.233 60.472 335.233 61.24C335.233 61.976 335.169 62.616 335.041 63.16C335.169 63.672 335.233 64.312 335.233 65.08C335.233 65.816 335.169 66.456 335.041 67H331.201C331.073 66.456 331.009 65.816 331.009 65.08C331.009 64.312 331.073 63.672 331.201 63.16C331.073 62.616 331.009 61.976 331.009 61.24C331.009 60.472 331.073 59.832 331.201 59.32C331.073 58.776 331.009 58.136 331.009 57.4C331.009 56.632 331.073 55.992 331.201 55.48C331.073 54.936 331.009 54.296 331.009 53.56C331.009 52.792 331.073 52.152 331.201 51.64C331.073 51.096 331.009 50.456 331.009 49.72C331.009 48.952 331.073 48.312 331.201 47.8H334.561C334.689 48.312 334.753 48.952 334.753 49.72ZM346.561 55.48C346.689 55.992 346.753 56.632 346.753 57.4C346.753 58.136 346.689 58.776 346.561 59.32C346.689 59.832 346.753 60.472 346.753 61.24C346.753 61.976 346.689 62.616 346.561 63.16C346.689 63.672 346.753 64.312 346.753 65.08C346.753 65.816 346.689 66.456 346.561 67H342.721C342.593 66.456 342.529 65.816 342.529 65.08C342.529 64.312 342.593 63.672 342.721 63.16C342.593 62.616 342.529 61.976 342.529 61.24C342.529 60.472 342.593 59.832 342.721 59.32C342.593 58.776 342.529 58.136 342.529 57.4C342.529 56.632 342.593 55.992 342.721 55.48C342.593 54.936 342.529 54.296 342.529 53.56C342.529 52.792 342.593 52.152 342.721 51.64H336.481C336.353 51.096 336.289 50.456 336.289 49.72C336.289 48.952 336.353 48.312 336.481 47.8H344.161C344.289 48.312 344.353 48.952 344.353 49.72C344.353 50.456 344.289 51.096 344.161 51.64H346.561C346.689 52.152 346.753 52.792 346.753 53.56C346.753 54.296 346.689 54.936 346.561 55.48ZM363.86 63.16C363.988 63.672 364.052 64.312 364.052 65.08C364.052 65.816 363.988 66.456 363.86 67H356.18C356.052 66.456 355.988 65.816 355.988 65.08C355.988 64.312 356.052 63.672 356.18 63.16H354.26C354.132 62.616 354.068 61.976 354.068 61.24C354.068 60.472 354.132 59.832 354.26 59.32C354.132 58.776 354.068 58.136 354.068 57.4C354.068 56.632 354.132 55.992 354.26 55.48C354.132 54.936 354.068 54.296 354.068 53.56C354.068 52.792 354.132 52.152 354.26 51.64H350.42C350.292 51.096 350.228 50.456 350.228 49.72C350.228 48.952 350.292 48.312 350.42 47.8H354.26C354.132 47.256 354.068 46.616 354.068 45.88C354.068 45.112 354.132 44.472 354.26 43.96C354.132 43.416 354.068 42.776 354.068 42.04C354.068 41.272 354.132 40.632 354.26 40.12H358.1C358.228 40.632 358.292 41.272 358.292 42.04C358.292 42.776 358.228 43.416 358.1 43.96C358.228 44.472 358.292 45.112 358.292 45.88C358.292 46.616 358.228 47.256 358.1 47.8H363.86C363.988 48.312 364.052 48.952 364.052 49.72C364.052 50.456 363.988 51.096 363.86 51.64H358.1C358.228 52.152 358.292 52.792 358.292 53.56C358.292 54.296 358.228 54.936 358.1 55.48C358.228 55.992 358.292 56.632 358.292 57.4C358.292 58.136 358.228 58.776 358.1 59.32C358.228 59.832 358.292 60.472 358.292 61.24C358.292 61.976 358.228 62.616 358.1 63.16H363.86ZM375.111 61.24C375.111 61.976 375.047 62.616 374.919 63.16H379.719C379.847 63.672 379.911 64.312 379.911 65.08C379.911 65.816 379.847 66.456 379.719 67H372.039C371.911 66.456 371.847 65.816 371.847 65.08C371.847 64.312 371.911 63.672 372.039 63.16H369.639C369.511 62.616 369.447 61.976 369.447 61.24C369.447 60.472 369.511 59.832 369.639 59.32C369.511 58.776 369.447 58.136 369.447 57.4C369.447 56.632 369.511 55.992 369.639 55.48C369.511 54.936 369.447 54.296 369.447 53.56C369.447 52.792 369.511 52.152 369.639 51.64C369.511 51.096 369.447 50.456 369.447 49.72C369.447 48.952 369.511 48.312 369.639 47.8H373.479C373.607 48.312 373.671 48.952 373.671 49.72C373.671 50.456 373.607 51.096 373.479 51.64C373.607 52.152 373.671 52.792 373.671 53.56C373.671 54.296 373.607 54.936 373.479 55.48C373.607 55.992 373.671 56.632 373.671 57.4C373.671 58.136 373.607 58.776 373.479 59.32H374.919C375.047 59.832 375.111 60.472 375.111 61.24ZM384.999 51.64C385.127 52.152 385.191 52.792 385.191 53.56C385.191 54.296 385.127 54.936 384.999 55.48C385.127 55.992 385.191 56.632 385.191 57.4C385.191 58.136 385.127 58.776 384.999 59.32C385.127 59.832 385.191 60.472 385.191 61.24C385.191 61.976 385.127 62.616 384.999 63.16C385.127 63.672 385.191 64.312 385.191 65.08C385.191 65.816 385.127 66.456 384.999 67H381.159C381.031 66.456 380.967 65.816 380.967 65.08C380.967 64.312 381.031 63.672 381.159 63.16H379.719C379.591 62.616 379.527 61.976 379.527 61.24C379.527 60.472 379.591 59.832 379.719 59.32H381.159C381.031 58.776 380.967 58.136 380.967 57.4C380.967 56.632 381.031 55.992 381.159 55.48C381.031 54.936 380.967 54.296 380.967 53.56C380.967 52.792 381.031 52.152 381.159 51.64C381.031 51.096 380.967 50.456 380.967 49.72C380.967 48.952 381.031 48.312 381.159 47.8H384.999C385.127 48.312 385.191 48.952 385.191 49.72C385.191 50.456 385.127 51.096 384.999 51.64ZM404.218 51.64C404.346 52.152 404.41 52.792 404.41 53.56C404.41 54.296 404.346 54.936 404.218 55.48H400.378C400.25 54.936 400.186 54.296 400.186 53.56C400.186 52.792 400.25 52.152 400.378 51.64H397.018C397.146 52.152 397.21 52.792 397.21 53.56C397.21 54.296 397.146 54.936 397.018 55.48H395.578C395.706 55.992 395.77 56.632 395.77 57.4C395.77 58.136 395.706 58.776 395.578 59.32C395.706 59.832 395.77 60.472 395.77 61.24C395.77 61.976 395.706 62.616 395.578 63.16H398.458C398.586 63.672 398.65 64.312 398.65 65.08C398.65 65.816 398.586 66.456 398.458 67H388.858C388.73 66.456 388.666 65.816 388.666 65.08C388.666 64.312 388.73 63.672 388.858 63.16H391.738C391.61 62.616 391.546 61.976 391.546 61.24C391.546 60.472 391.61 59.832 391.738 59.32C391.61 58.776 391.546 58.136 391.546 57.4C391.546 56.632 391.61 55.992 391.738 55.48C391.61 54.936 391.546 54.296 391.546 53.56C391.546 52.792 391.61 52.152 391.738 51.64H388.858C388.73 51.096 388.666 50.456 388.666 49.72C388.666 48.952 388.73 48.312 388.858 47.8H393.658C393.786 48.312 393.85 48.952 393.85 49.72C393.85 50.456 393.786 51.096 393.658 51.64H395.578C395.45 51.096 395.386 50.456 395.386 49.72C395.386 48.952 395.45 48.312 395.578 47.8H402.778C402.906 48.312 402.97 48.952 402.97 49.72C402.97 50.456 402.906 51.096 402.778 51.64H404.218ZM423.628 53.56C423.628 54.296 423.564 54.936 423.436 55.48C423.564 55.992 423.628 56.632 423.628 57.4C423.628 58.136 423.564 58.776 423.436 59.32H413.356C413.484 59.832 413.548 60.472 413.548 61.24C413.548 61.976 413.484 62.616 413.356 63.16H421.516C421.644 63.672 421.708 64.312 421.708 65.08C421.708 65.816 421.644 66.456 421.516 67H411.916C411.788 66.456 411.724 65.816 411.724 65.08C411.724 64.312 411.788 63.672 411.916 63.16H409.516C409.388 62.616 409.324 61.976 409.324 61.24C409.324 60.472 409.388 59.832 409.516 59.32H408.076C407.948 58.776 407.884 58.136 407.884 57.4C407.884 56.632 407.948 55.992 408.076 55.48H409.516C409.388 54.936 409.324 54.296 409.324 53.56C409.324 52.792 409.388 52.152 409.516 51.64H411.916C411.788 51.096 411.724 50.456 411.724 49.72C411.724 48.952 411.788 48.312 411.916 47.8H421.516C421.644 48.312 421.708 48.952 421.708 49.72C421.708 50.456 421.644 51.096 421.516 51.64H423.436C423.564 52.152 423.628 52.792 423.628 53.56ZM419.596 55.48C419.468 54.936 419.404 54.296 419.404 53.56C419.404 52.792 419.468 52.152 419.596 51.64H413.356C413.484 52.152 413.548 52.792 413.548 53.56C413.548 54.296 413.484 54.936 413.356 55.48H419.596Z" fill="white"/>
</svg>
